<?xml version="1.0" encoding="UTF-8"?>
<svg id="Layer_1" xmlns="http://www.w3.org/2000/svg" viewBox="0 0 1175.54 801.24">
  <defs>
    <style>
      .cls-1 {
        fill-rule: evenodd;
      }

      .cls-1, .cls-2 {
        fill: #fff;
      }

      .cls-3 {
        fill: none;
        stroke: #fff;
        stroke-miterlimit: 3.86;
        stroke-width: 2px;
      }
    </style>
  </defs>
  <path class="cls-1" d="M51.21,563.69h-29.14l-3.47,8.04c-1.15,2.68-1.71,4.89-1.71,6.64,0,2.29.93,4,2.8,5.11,1.1.66,3.79,1.14,8.09,1.46v2.24H.34v-2.24c2.95-.46,5.39-1.65,7.3-3.65,1.9-2.04,4.26-6.2,7.05-12.48l29.51-65.85h1.16l29.74,67.67c2.84,6.4,5.17,10.45,7,12.11,1.37,1.24,3.32,1.97,5.84,2.19v2.24h-39.91v-2.24h1.63c3.2,0,5.45-.46,6.76-1.35.88-.64,1.33-1.58,1.33-2.8,0-.73-.12-1.5-.36-2.25-.09-.36-.69-1.87-1.83-4.55l-4.38-10.3h0ZM49.14,559.2l-12.29-28.43-12.66,28.43h24.95Z"/>
  <path class="cls-2" d="M138.52,530.28v44.54c0,4.33.41,7.06,1.22,8.13.81,1.07,2.46,1.73,4.92,2.02v2.19h-23.18v-7.59c-2.72,3.24-5.43,5.59-8.15,7.1-2.72,1.46-5.76,2.2-9.13,2.2s-6.06-.99-8.57-2.91c-2.48-2.02-4.13-4.32-4.99-6.96-.85-2.65-1.28-7.24-1.28-13.81v-22.57c0-4.3-.41-6.98-1.22-8.03-.77-1.07-2.42-1.73-4.93-2.07v-2.26h23.18v38.89c0,4.05.18,6.69.55,7.85.4,1.17,1.02,2.07,1.82,2.68.85.6,1.83.91,2.92.91,1.45,0,2.77-.4,3.95-1.17,1.62-1.06,3.57-3.17,5.84-6.38v-30.43c0-4.3-.41-6.98-1.22-8.03-.77-1.07-2.41-1.73-4.92-2.07v-2.26h23.18Z"/>
  <path class="cls-2" d="M184.48,528.7l.92,19.43h-2.07c-2.49-5.76-5.06-9.7-7.73-11.84-2.64-2.09-5.28-3.15-7.91-3.15-1.67,0-3.08.6-4.26,1.7-1.18,1.11-1.77,2.37-1.77,3.84,0,1.11.41,2.15,1.22,3.15,1.3,1.68,4.92,4.54,10.89,8.61,5.97,3.99,9.87,7.43,11.75,10.25,1.9,2.8,2.85,5.96,2.85,9.45,0,3.16-.78,6.26-2.38,9.3-1.58,3.05-3.81,5.36-6.69,6.99-2.88,1.63-6.06,2.42-9.55,2.44-2.71,0-6.35-.86-10.88-2.57-1.22-.44-2.05-.66-2.5-.66-1.34,0-2.46,1-3.34,3.04h-2.01l-.97-20.45h2.06c1.83,5.36,4.32,9.39,7.49,12.05,3.2,2.66,6.22,4.03,9.07,4.03,1.95,0,3.52-.58,4.74-1.78,1.27-1.22,1.89-2.66,1.89-4.38,0-1.95-.61-3.64-1.82-5.05-1.22-1.42-3.93-3.56-8.15-6.44-6.21-4.32-10.22-7.58-12.04-9.86-2.68-3.33-4.01-7-4.01-11.02,0-4.38,1.5-8.32,4.5-11.86,3.04-3.56,7.42-5.36,13.15-5.36,3.08,0,6.06.75,8.94,2.26,1.09.61,1.99.9,2.68.9.73,0,1.32-.13,1.76-.41.44-.32,1.15-1.19,2.13-2.63h2.07Z"/>
  <path class="cls-2" d="M214.61,509.49v20.79h13.51v6.01h-13.51v35.12c0,3.28.15,5.42.42,6.38.32.95.88,1.71,1.65,2.31.77.57,1.48.86,2.13.86,2.64,0,5.13-1.99,7.48-6.01l1.84,1.34c-3.29,7.78-8.62,11.66-16.01,11.66-3.61,0-6.68-.99-9.19-2.98-2.48-2.02-4.05-4.28-4.74-6.75-.41-1.37-.61-5.11-.61-11.2v-30.74h-7.41v-2.09c5.1-3.62,9.45-7.42,13.01-11.41,3.61-3.96,6.76-8.39,9.43-13.3h2.01Z"/>
  <path class="cls-2" d="M255.89,530.28v12.9c3.78-5.89,7.08-9.76,9.92-11.66,2.83-1.97,5.57-2.94,8.21-2.94,2.27,0,4.07.72,5.41,2.14,1.39,1.39,2.07,3.34,2.07,5.88,0,2.72-.67,4.84-2.01,6.35-1.3,1.48-2.88,2.24-4.74,2.24-2.15,0-4.02-.69-5.6-2.08-1.59-1.36-2.52-2.13-2.8-2.3-.4-.26-.87-.36-1.4-.36-1.17,0-2.29.44-3.34,1.33-1.67,1.39-2.92,3.34-3.78,5.92-1.3,3.93-1.95,8.27-1.95,13v13.1l.06,3.4c0,2.31.15,3.78.43,4.43.49,1.12,1.2,1.92,2.13,2.46.97.49,2.59.78,4.87.9v2.19h-30.73v-2.19c2.47-.19,4.13-.85,4.98-2.02.9-1.17,1.34-4.22,1.34-9.17v-31.47c0-3.24-.16-5.3-.49-6.2-.4-1.14-.99-1.97-1.76-2.48-.77-.53-2.13-.9-4.07-1.09v-2.26h23.24Z"/>
  <path class="cls-1" d="M312.75,578.78c-6.93,6.13-13.16,9.18-18.67,9.18-3.26,0-5.95-1.06-8.1-3.17-2.15-2.14-3.22-4.82-3.22-8,0-4.37,1.87-8.24,5.59-11.7,3.73-3.49,11.87-8.11,24.4-13.89v-5.7c0-4.29-.24-6.98-.72-8.09-.46-1.14-1.33-2.12-2.62-2.94-1.3-.83-2.76-1.26-4.38-1.26-2.64,0-4.8.58-6.51,1.78-1.05.72-1.58,1.58-1.58,2.55,0,.85.57,1.91,1.7,3.16,1.54,1.75,2.31,3.42,2.32,5.06,0,1.98-.75,3.7-2.25,5.11-1.46,1.36-3.4,2.04-5.78,2.04-2.55,0-4.71-.75-6.45-2.31-1.71-1.51-2.57-3.32-2.57-5.4,0-2.93,1.16-5.69,3.48-8.33,2.31-2.66,5.53-4.75,9.67-6.14,4.13-1.42,8.43-2.14,12.89-2.14,5.4,0,9.66,1.16,12.79,3.48,3.16,2.25,5.21,4.74,6.15,7.42.56,1.7.84,5.62.84,11.72v22.11c0,2.59.1,4.23.3,4.92.2.65.5,1.16.92,1.47.39.32.86.46,1.4.46,1.05,0,2.13-.74,3.22-2.24l1.82,1.46c-2.03,3-4.13,5.2-6.32,6.59-2.16,1.34-4.6,1.98-7.37,1.98-3.24,0-5.78-.74-7.61-2.25-1.82-1.53-2.94-3.84-3.34-6.93h0ZM312.75,574.33v-19.04c-4.91,2.89-8.56,5.98-10.96,9.27-1.58,2.18-2.37,4.4-2.37,6.61,0,1.87.67,3.53,2.01,4.94,1.01,1.09,2.43,1.64,4.26,1.64,2.03,0,4.38-1.13,7.06-3.42h0Z"/>
  <path class="cls-2" d="M362.19,504.67v70.7c0,4.01.47,6.58,1.4,7.73.94,1.09,2.76,1.7,5.48,1.87v2.19h-30.73v-2.19c2.52-.07,4.38-.8,5.59-2.16.82-.95,1.22-3.43,1.22-7.44v-58.9c0-3.99-.46-6.52-1.4-7.59-.93-1.16-2.74-1.8-5.42-1.97v-2.24h23.85Z"/>
  <path class="cls-1" d="M388.24,502.73c2.63,0,4.86.92,6.69,2.8,1.82,1.82,2.74,4.04,2.74,6.63s-.94,4.8-2.8,6.63c-1.83,1.82-4.04,2.75-6.63,2.75s-4.81-.92-6.63-2.75c-1.83-1.82-2.74-4.03-2.74-6.63s.91-4.8,2.74-6.63c1.82-1.87,4.03-2.8,6.63-2.8h0ZM396.75,530.28v45.09c0,4.01.47,6.58,1.4,7.73.94,1.09,2.76,1.7,5.48,1.87v2.19h-30.73v-2.19c2.52-.07,4.39-.8,5.59-2.16.82-.95,1.22-3.43,1.22-7.44v-33.22c0-4.01-.46-6.57-1.4-7.68-.93-1.12-2.74-1.76-5.42-1.92v-2.26h23.85Z"/>
  <path class="cls-1" d="M436.82,578.78c-6.94,6.13-13.17,9.18-18.68,9.18-3.25,0-5.95-1.06-8.09-3.17-2.15-2.14-3.23-4.82-3.23-8,0-4.37,1.86-8.24,5.59-11.7,3.73-3.49,11.87-8.11,24.4-13.89v-5.7c0-4.29-.25-6.98-.73-8.09-.45-1.14-1.32-2.12-2.62-2.94-1.3-.83-2.75-1.26-4.38-1.26-2.64,0-4.8.58-6.5,1.78-1.06.72-1.59,1.58-1.59,2.55,0,.85.57,1.91,1.71,3.16,1.54,1.75,2.31,3.42,2.31,5.06,0,1.98-.75,3.7-2.25,5.11-1.46,1.36-3.39,2.04-5.78,2.04-2.55,0-4.7-.75-6.45-2.31-1.7-1.51-2.56-3.32-2.56-5.4,0-2.93,1.16-5.69,3.47-8.33,2.31-2.66,5.53-4.75,9.67-6.14,4.14-1.42,8.44-2.14,12.9-2.14,5.39,0,9.66,1.16,12.78,3.48,3.16,2.25,5.22,4.74,6.15,7.42.57,1.7.84,5.62.85,11.72v22.11c0,2.59.1,4.23.31,4.92.2.65.5,1.16.91,1.47.41.32.87.46,1.4.46,1.06,0,2.12-.74,3.23-2.24l1.82,1.46c-2.02,3-4.13,5.2-6.32,6.59-2.15,1.34-4.61,1.98-7.37,1.98-3.24,0-5.77-.74-7.6-2.25-1.82-1.53-2.94-3.84-3.34-6.93h0ZM436.82,574.33v-19.04c-4.91,2.89-8.57,5.98-10.96,9.27-1.58,2.18-2.37,4.4-2.37,6.61,0,1.87.67,3.53,2.01,4.94,1.02,1.09,2.43,1.64,4.26,1.64,2.03,0,4.38-1.13,7.07-3.42h0Z"/>
  <path class="cls-2" d="M485.99,530.28v7.36c2.92-3.17,5.72-5.46,8.4-6.87,2.67-1.45,5.56-2.19,8.64-2.19,3.68,0,6.76,1.05,9.19,3.09,2.43,2.07,4.05,4.58,4.86,7.64.65,2.31.97,6.74.97,13.33v22.13c0,4.37.38,7.13,1.15,8.2.82,1.07,2.48,1.73,5,2.02v2.19h-28.78v-2.19c2.15-.29,3.68-1.17,4.63-2.68.64-1.02.97-3.53.97-7.54v-25.29c0-4.68-.18-7.64-.55-8.83-.36-1.23-.99-2.15-1.89-2.82-.85-.68-1.81-1.02-2.86-1.02-3.49,0-6.73,2.5-9.73,7.49v30.47c0,4.26.38,6.96,1.15,8.09.81,1.13,2.3,1.84,4.45,2.13v2.19h-28.78v-2.19c2.39-.24,4.1-1.02,5.11-2.31.69-.88,1.03-3.54,1.03-7.9v-32.13c0-4.3-.4-6.98-1.22-8.03-.78-1.07-2.41-1.73-4.93-2.07v-2.26h23.18Z"/>
  <path class="cls-2" d="M636.25,502.8v29.06h-2.27c-2.7-7.94-6.77-14.01-12.21-18.14-5.45-4.11-11.38-6.19-17.83-6.19s-11.3,1.74-15.39,5.24c-4.1,3.43-7,8.27-8.7,14.47-1.7,6.21-2.56,12.6-2.56,19.1,0,7.9.94,14.85,2.8,20.81,1.87,5.97,4.86,10.34,9,13.14,4.18,2.81,9.12,4.2,14.85,4.2,1.97,0,4.01-.19,6.08-.61,2.12-.44,4.26-1.07,6.45-1.89v-17.15c0-3.26-.22-5.35-.66-6.27-.46-.99-1.39-1.84-2.8-2.61-1.39-.77-3.08-1.17-5.06-1.17h-2.12v-2.26h40.1v2.26c-3.05.22-5.19.63-6.41,1.28-1.15.62-2.08,1.65-2.72,3.13-.38.75-.55,2.65-.55,5.65v17.15c-5.28,2.35-10.79,4.11-16.5,5.31-5.67,1.19-11.58,1.81-17.71,1.81-7.82,0-14.33-1.06-19.52-3.15-5.15-2.17-9.72-4.97-13.69-8.41-3.93-3.49-7.02-7.39-9.25-11.75-2.85-5.61-4.26-11.87-4.26-18.8,0-12.4,4.36-22.89,13.08-31.45,8.73-8.56,19.7-12.84,32.91-12.84,4.1,0,7.81.32,11.08.97,1.79.32,4.67,1.24,8.65,2.8,4.01,1.5,6.38,2.25,7.11,2.25,1.13,0,2.2-.4,3.17-1.22.97-.85,1.85-2.44,2.65-4.73h2.27Z"/>
  <path class="cls-1" d="M675.74,528.58c4.96,0,9.56,1.29,13.83,3.84,4.26,2.55,7.47,6.18,9.67,10.87,2.24,4.72,3.34,9.87,3.34,15.49,0,8.05-2.05,14.8-6.14,20.23-4.95,6.57-11.8,9.86-20.51,9.86s-15.15-3-19.77-9c-4.61-6.02-6.93-12.98-6.93-20.88s2.35-15.25,7.07-21.31c4.73-6.08,11.21-9.12,19.46-9.12h0ZM675.98,532.91c-2.06,0-3.84.78-5.36,2.37-1.45,1.54-2.42,4.62-2.91,9.24-.44,4.6-.68,10.98-.68,19.16,0,4.34.29,8.4.86,12.17.44,2.88,1.39,5.08,2.86,6.58,1.46,1.5,3.12,2.24,4.99,2.24s3.33-.5,4.57-1.52c1.58-1.36,2.63-3.29,3.16-5.78.8-3.85,1.22-11.65,1.22-23.35,0-6.89-.39-11.64-1.14-14.19-.8-2.6-1.92-4.5-3.42-5.64-1.06-.88-2.44-1.29-4.15-1.29h0Z"/>
  <path class="cls-2" d="M729.4,588.88l-19.15-44.12c-2.31-5.3-4.11-8.67-5.41-10.1-.95-1.05-2.32-1.75-4.14-2.12v-2.26h30.22v2.26c-1.9,0-3.19.34-3.88,1.02-.97.9-1.45,1.95-1.45,3.16,0,1.51.88,4.33,2.65,8.46l9.36,21.35,7.5-18.41c2.13-5.29,3.22-9.02,3.22-11.21,0-1.26-.47-2.29-1.4-3.05-.9-.81-2.49-1.25-4.8-1.33v-2.26h18.62v2.26c-1.79.22-3.26.91-4.39,1.99-1.13,1.12-2.85,4.33-5.11,9.68l-18.97,44.66h-2.88Z"/>
  <path class="cls-1" d="M805.51,556.69h-31.23c.38,7.54,2.37,13.51,6.03,17.89,2.8,3.37,6.15,5.03,10.09,5.03,2.46,0,4.65-.64,6.64-1.98,1.99-1.39,4.11-3.84,6.4-7.37l2.07,1.34c-3.09,6.27-6.49,10.75-10.24,13.38-3.72,2.6-8.05,3.88-12.94,3.9-8.45,0-14.82-3.25-19.19-9.75-3.48-5.22-5.2-11.71-5.2-19.47,0-9.48,2.54-17.02,7.64-22.62,5.17-5.64,11.19-8.46,18.09-8.46,5.74,0,10.75,2.38,14.96,7.11,4.26,4.72,6.56,11.71,6.88,21h0ZM790.53,552.63c0-6.54-.36-11.02-1.09-13.47-.68-2.43-1.78-4.28-3.28-5.52-.84-.73-1.99-1.09-3.4-1.09-2.12,0-3.84,1.02-5.18,3.11-2.38,3.6-3.57,8.54-3.57,14.84v2.14h16.54Z"/>
  <path class="cls-2" d="M832.51,530.28v12.9c3.75-5.89,7.05-9.76,9.9-11.66,2.85-1.97,5.59-2.94,8.22-2.94,2.26,0,4.06.72,5.4,2.14,1.39,1.39,2.09,3.34,2.09,5.88,0,2.72-.68,4.84-2.02,6.35-1.3,1.48-2.88,2.24-4.74,2.24-2.17,0-4.01-.69-5.61-2.08-1.57-1.36-2.51-2.13-2.79-2.3-.41-.26-.88-.36-1.39-.36-1.19,0-2.31.44-3.36,1.33-1.67,1.39-2.94,3.34-3.79,5.92-1.29,3.93-1.92,8.27-1.92,13v13.1l.05,3.4c0,2.31.15,3.78.41,4.43.49,1.12,1.22,1.92,2.14,2.46.99.49,2.6.78,4.86.9v2.19h-30.73v-2.19c2.47-.19,4.15-.85,5-2.02.9-1.17,1.34-4.22,1.34-9.17v-31.47c0-3.24-.17-5.3-.49-6.2-.41-1.14-1-1.97-1.78-2.48-.77-.53-2.12-.9-4.07-1.09v-2.26h23.26Z"/>
  <path class="cls-2" d="M884.94,530.28v7.36c2.93-3.17,5.73-5.46,8.4-6.87,2.69-1.45,5.54-2.19,8.63-2.19,3.68,0,6.75,1.05,9.18,3.09,2.46,2.07,4.06,4.58,4.88,7.64.65,2.31.97,6.74.97,13.33v22.13c0,4.37.39,7.13,1.16,8.2.81,1.07,2.48,1.73,4.99,2.02v2.19h-28.77v-2.19c2.14-.29,3.68-1.17,4.61-2.68.67-1.02.98-3.53.98-7.54v-25.29c0-4.68-.17-7.64-.55-8.83-.38-1.23-1-2.15-1.9-2.82-.85-.68-1.8-1.02-2.83-1.02-3.5,0-6.76,2.5-9.75,7.49v30.47c0,4.26.39,6.96,1.14,8.09.83,1.13,2.29,1.84,4.45,2.13v2.19h-28.77v-2.19c2.41-.24,4.09-1.02,5.11-2.31.68-.88,1.04-3.54,1.04-7.9v-32.13c0-4.3-.4-6.98-1.22-8.03-.78-1.07-2.42-1.73-4.94-2.07v-2.26h23.18Z"/>
  <path class="cls-2" d="M950.87,530.28v7.49c3.11-3.42,5.98-5.78,8.65-7.11,2.66-1.39,5.58-2.08,8.75-2.08,3.65,0,6.7.85,9.17,2.55,2.49,1.73,4.39,4.3,5.73,7.8,3.26-3.65,6.36-6.31,9.32-7.89,3-1.65,6.13-2.46,9.36-2.46,3.94,0,7.07.92,9.38,2.75,2.36,1.78,3.98,4.06,4.88,6.88.93,2.72,1.39,7.17,1.39,13.24v23.31c0,4.37.39,7.1,1.15,8.16.82,1.03,2.49,1.74,5,2.05v2.19h-29.4v-2.19c2.33-.19,4.02-1.09,5.11-2.68.75-1.08,1.12-3.61,1.12-7.54v-24.47c0-5.07-.22-8.29-.63-9.66-.39-1.39-1.03-2.41-1.95-3.05-.83-.69-1.85-1.03-3.03-1.03-1.74,0-3.51.63-5.29,1.96-1.78,1.25-3.57,3.15-5.41,5.7v30.55c0,4.09.33,6.66,1.01,7.73.95,1.48,2.74,2.31,5.37,2.48v2.19h-29.44v-2.19c1.58-.07,2.81-.46,3.71-1.14.92-.73,1.53-1.58,1.82-2.55.32-1.02.49-3.19.49-6.52v-24.47c0-5.16-.21-8.37-.61-9.66-.41-1.31-1.09-2.33-2.07-3.05-.92-.73-1.95-1.11-3.06-1.11-1.6,0-3.09.44-4.43,1.29-1.92,1.25-3.95,3.4-6.08,6.45v30.55c0,4.01.36,6.66,1.15,7.98.82,1.24,2.47,1.99,5,2.24v2.19h-29.33v-2.19c2.38-.24,4.1-1.02,5.11-2.31.68-.88,1.02-3.54,1.02-7.9v-32.13c0-4.3-.41-6.98-1.22-8.03-.78-1.07-2.41-1.73-4.91-2.07v-2.26h23.18Z"/>
  <path class="cls-1" d="M1074.27,556.69h-31.21c.35,7.54,2.36,13.51,6.01,17.89,2.82,3.37,6.16,5.03,10.1,5.03,2.43,0,4.65-.64,6.63-1.98,1.99-1.39,4.12-3.84,6.4-7.37l2.08,1.34c-3.09,6.27-6.51,10.75-10.24,13.38-3.72,2.6-8.05,3.88-12.94,3.9-8.45,0-14.86-3.25-19.19-9.75-3.48-5.22-5.22-11.71-5.22-19.47,0-9.48,2.55-17.02,7.65-22.62,5.16-5.64,11.16-8.46,18.07-8.46,5.76,0,10.75,2.38,14.98,7.11,4.26,4.72,6.54,11.71,6.88,21h0ZM1059.31,552.63c0-6.54-.38-11.02-1.11-13.47-.7-2.43-1.78-4.28-3.28-5.52-.83-.73-1.99-1.09-3.4-1.09-2.12,0-3.83,1.02-5.19,3.11-2.37,3.6-3.56,8.54-3.56,14.84v2.14h16.55Z"/>
  <path class="cls-2" d="M1099.64,530.28v7.36c2.92-3.17,5.74-5.46,8.39-6.87,2.7-1.45,5.56-2.19,8.63-2.19,3.7,0,6.79,1.05,9.19,3.09,2.43,2.07,4.06,4.58,4.86,7.64.66,2.31,1,6.74,1,13.33v22.13c0,4.37.39,7.13,1.14,8.2.81,1.07,2.47,1.73,4.97,2.02v2.19h-28.76v-2.19c2.15-.29,3.7-1.17,4.62-2.68.63-1.02.97-3.53.97-7.54v-25.29c0-4.68-.18-7.64-.54-8.83-.38-1.23-1.02-2.15-1.9-2.82-.85-.68-1.8-1.02-2.85-1.02-3.5,0-6.74,2.5-9.75,7.49v30.47c0,4.26.39,6.96,1.17,8.09.8,1.13,2.29,1.84,4.43,2.13v2.19h-28.77v-2.19c2.38-.24,4.07-1.02,5.11-2.31.68-.88,1.05-3.54,1.05-7.9v-32.13c0-4.3-.41-6.98-1.22-8.03-.78-1.07-2.43-1.73-4.94-2.07v-2.26h23.18Z"/>
  <path class="cls-2" d="M1162.05,509.49v20.79h13.5v6.01h-13.5v35.12c0,3.28.12,5.42.44,6.38.3.95.85,1.71,1.63,2.31.78.57,1.48.86,2.12.86,2.65,0,5.14-1.99,7.49-6.01l1.82,1.34c-3.28,7.78-8.61,11.66-16,11.66-3.6,0-6.68-.99-9.18-2.98-2.47-2.02-4.05-4.28-4.73-6.75-.43-1.37-.62-5.11-.62-11.2v-30.74h-7.42v-2.09c5.12-3.62,9.44-7.42,13.02-11.41,3.59-3.96,6.74-8.39,9.42-13.3h2.01Z"/>
  <path class="cls-2" d="M489.48,357.49c-.39.67-.89,1.22-1.57,1.56"/>
  <path class="cls-2" d="M503.74,246.09c1.64,0,2.97-1.34,2.97-3s-1.33-3-2.97-3-2.98,1.35-2.98,3,1.33,3,2.98,3h0Z"/>
  <path class="cls-2" d="M641.76,120.25v-.06h-107.33v.06h-.01l.09,86.68c0,8.37,3.54,15.69,8.43,17.93l41.28,24.67c.91,1.03,2.26,1.69,3.77,1.69,1.3,0,2.46-.51,3.35-1.31l41.92-25.05c4.9-2.24,8.43-9.56,8.43-17.93l.1-86.68h-.03ZM570.11,145.34h-9.29v-22.21h9.29v22.21h0ZM563.36,153.07l1.32-1.38-.82-1.5,1.74.18,1.03-1.84,1.03,1.81,1.75-.15-.82,1.5,1.32,1.38-1.68.32v1.88l-1.61-1.19-1.59,1.19v-1.88l-1.68-.32h0ZM537.45,180.69v-21.07h11.28v21.07h-11.28ZM539.31,150.19l1.73.18,1.05-1.84,1.02,1.81,1.76-.15-.82,1.5,1.32,1.38-1.68.32v1.88l-1.59-1.19-1.6,1.19v-1.88l-1.68-.32,1.32-1.38-.82-1.5h0ZM552.04,171.6l1.74.19,1.05-1.84,1.02,1.81,1.76-.16-.82,1.52,1.31,1.37-1.68.32v1.89l-1.59-1.19-1.59,1.19v-1.89l-1.69-.32,1.32-1.37-.82-1.52h0ZM559.53,154.67c-.09-.56-.83-.72-1.14-.72-1,0-1.41,1.66-2.24,1.7-.63.03-1.06.09-1.06-.67,0-.55,1.28-.99,1.76-1.48-6.95,0-7.08,3.19-8.18,3.19-1.82,0,1.53-3.35,2.5-4.32-1.4-.23-2.23-1.98-3.77-2.85.73-1.04,1.13-.6,2.04.13,0-.73.55-1.58,2.16-1.58,3.11,0,2.24,3.01,2.74,3.01s-.04-3.01,2.06-3.01c3.08,0,6.94,7.94,3.45,7.94-1.5,0-.29-1.13-.32-1.34h0ZM551.54,131.47l1.32-1.38-.82-1.51,1.74.18,1.05-1.83,1.02,1.8,1.76-.15-.82,1.51,1.31,1.38-1.68.32v1.88l-1.59-1.2-1.59,1.2v-1.88l-1.69-.32h0ZM548.73,123.13v22.21h-11.28v-22.21h11.28ZM570.11,237.67l-25.69-15.35c-4.29-2.92-6.41-8.08-6.97-14.29v-24.4h32.66v54.05h0ZM560.82,180.69v-21.07h9.29v21.07h-9.29ZM603.18,239.42l-11.86,7.09h-.21c-.86.68-1.93,1.09-3.12,1.09s-2.31-.44-3.17-1.14l-11.8-7.04v-55.8h30.16v55.8h0ZM603.18,180.69h-30.16v-57.55h30.16v57.55h0ZM638.76,208.03c-.57,6.21-2.69,11.37-6.97,14.29l-25.71,15.35v-54.05h32.67v24.4h0ZM638.76,180.69h-32.67v-57.55h32.67v57.55h0Z"/>
  <path class="cls-2" d="M568.37,203.49c-.16-.35-4.09,1.31-2.98,1.2.12-1.16,2.3-3.54,3.28-4.41-.18-1.37-1.94-.13-3.78.84,6.11-8.77,2.19-5.17-1.23-4.55,5.45-5.88,4.02-5.78,0-3.95,3.16-2.51,3.83-5.49,3.35-6.36-2.96,3.95-5.69,3.33-5.69,7,0,2.41-.88,6.37-2.11,7.71-1.6,1.73-.38-6.47-4.57-6.47-1.33,0-4.51-.11-5.45,1.53.85,0,2.13,2.17,2.13,3.03s.78,3.25-.64,3.25-3.1-3.02-3.1-4.46-.1-1.1-.1-3.17c0-3.47-5.65-8.34-7.94-8.34,0,2.41,3.16,3,3.16,6.07-1.34,0-3.25-2.5-3.25-.97s2,1.83,2,3.19-2.29-.48-2.29.96c0,1.27,1.26,1.05,1.56,2.3-.93-.26-1.77-.14-1.93.33-.16.41.27.95.97,1.34-.32.3-.6,1.02-.6,3.05,0,6.85,4.29,10.03,7.45,10.03,2.23,0,1.89-1.57,2.16-2.32.1,1.17,1.2-.57,1.2,1.45,0,2.12-2.18,1.19-2.18,3.03,0,2.44,3.43-.09,3.43,2.61,0,3.28-.41,3.22-.41,4.47,0,.86,3.6-1.2,3.37-1.58.87.33.84,2.87,2.44,2.8,1.03-.05,1.26-2.61,2.07-2.83-.48.13,3.26,2.43,3.26,1.28,0-3.2-1.31-1.84-1.31-4.04,0-2.02,4.42-1.62,3.72-2.66-.59-.86-.99-.33-1.45-1.85.08.29-3.47-5.07.73-2.31,4.43,2.91,4.93-6.73,4.69-7.23h0Z"/>
  <path class="cls-2" d="M682.89,226.16c1.95,0,3.51-1.39,3.51-3.11s-1.57-3.11-3.51-3.11-3.53,1.39-3.53,3.11,1.56,3.11,3.53,3.11h0Z"/>
  <path class="cls-2" d="M668.61,234.65c1.94,0,3.53-1.39,3.53-3.11s-1.58-3.11-3.53-3.11-3.54,1.4-3.54,3.11,1.57,3.11,3.54,3.11h0Z"/>
  <path class="cls-2" d="M498.94,254.21c1.95,0,3.53-1.4,3.53-3.11s-1.58-3.11-3.53-3.11-3.54,1.4-3.54,3.11,1.59,3.11,3.54,3.11h0Z"/>
  <path class="cls-2" d="M509.94,255.16c1.95,0,3.53-1.39,3.53-3.11s-1.59-3.11-3.53-3.11-3.53,1.39-3.53,3.11,1.58,3.11,3.53,3.11h0Z"/>
  <path class="cls-2" d="M815.38,107.11c5.24,6.23,6.36,16.22,2.63,23.38-2.07-.19-1.7-2.83-2.07-4.34-3.75-6.98-6.74-15.84-3.37-23.76,2.42.38,1.5,3.4,2.81,4.71h0Z"/>
  <path class="cls-2" d="M367.18,115.59c-1.12,4.53-1.12,10.75,0,14.9-.94.94-.75-.94-1.68-.75-7.3-5.28-3.93-15.65-5.8-23.01.37-.57,1.31-.76,1.87-.38,3.37,2.26,4.86,5.47,5.61,9.24h0Z"/>
  <path class="cls-2" d="M831.5,116.17c1.11,2.07-.95,4.15-2.44,5.08-1.69.38-3.56-.57-4.69-2.07-.56-2.07.58-3.96,2.26-4.91,1.87-.18,3.75.2,4.88,1.9h0Z"/>
  <path class="cls-2" d="M355.76,124.46c-.38,1.7-.94,3.4-2.43,4.14-1.12,0-2.82,0-3.56-.94-1.12-.95-1.31-2.64-.76-3.96.76-1.32,2.26-1.51,3.56-1.7,1.31.57,2.63.95,3.19,2.46h0Z"/>
  <path class="cls-2" d="M838.78,127.66c.36,1.13.36,1.89,0,3.02-1.3,1.7-3.17,2.45-5.05,1.7-1.31-.76-1.69-2.08-2.05-3.21.36-1.51,1.87-2.83,3.19-3.39,1.69,0,2.8.94,3.92,1.88h0Z"/>
  <path class="cls-2" d="M828.1,127.86c1.51.74.39,2.63.19,3.76-.94.94-2.24,2.44-3.94,1.89-.92-.94-2.04-.94-2.42-2.26,0-1.89.75-3.77,2.63-4.33,1.5-.38,2.42.37,3.54.95h0Z"/>
  <path class="cls-2" d="M814.43,130.68c0,2.07.19,4.72-2.24,5.1-2.24.75-3.74-1.14-4.29-2.64-.18-1.89.92-3.78,2.8-4.53,1.5,0,2.81.95,3.73,2.08h0Z"/>
  <path class="cls-2" d="M376.16,131.62c.57,1.89-1.3,3.02-2.43,3.96-1.31.38-3-.75-3.75-2.08-1.31-1.31.38-2.45.75-3.58,1.87-1.7,4.68-.38,5.42,1.7h0Z"/>
  <path class="cls-2" d="M364.94,132.19c0,1.5-.75,3.01-2.06,3.58-1.51.56-3-.57-3.75-1.71-.94-1.87.19-3.58,1.68-4.32,2.07-.76,3.37,1.12,4.12,2.45h0Z"/>
  <path class="cls-2" d="M769.15,132.94c1.87,3.96,3.36,8.68,3.75,13.58-.75,3.57.56,8.29-2.07,10.74-2.64-.94-2.8-4.15-4.51-5.84-3.34-6.6-.35-14.34.77-20.75,1.5-.57,1.5,1.33,2.07,2.26h0Z"/>
  <path class="cls-2" d="M356.14,135.2c.55,2.27-1.14,3.39-2.44,4.71-2.25.57-3.74-1.13-4.69-2.64-.18-1.88.94-3.77,2.44-4.52,1.88-.19,3.75.75,4.69,2.45h0Z"/>
  <path class="cls-2" d="M798.71,140.67c2.44,5.47,2.64,12.07.94,18.11l-1.12.94c-2.61-5.09-6.36-9.81-7.67-15.27,0-3.96.74-7.54,2.24-10.75,1.32-.94,2.07.19,2.64,1.32.18,2.07,1.12,4.54,2.98,5.65h0Z"/>
  <path class="cls-2" d="M822.31,137.28c-.19,1.89-.92,3.96-2.81,4.52-1.87.39-3.73-.18-4.32-2.25-.56-1.89.58-3.59,2.04-4.54,2.09-1.13,4.16.76,5.08,2.26h0Z"/>
  <path class="cls-2" d="M365.13,143.13c0,1.5-1.31,3.2-2.82,3.57-1.5,1.13-2.61-.76-3.93-1.32-.56-1.51-.94-2.83,0-4.33.57-1.14,1.88-1.14,3-1.51,1.69.94,3.37,1.69,3.75,3.58h0Z"/>
  <path class="cls-2" d="M373.36,142.19c.75,1.88-1.31,2.82-2.06,3.76-2.24.76-3.36-.94-4.3-2.25-.37-1.9.75-3.03,2.06-4.15,2.24-.57,3.37.94,4.3,2.64h0Z"/>
  <path class="cls-2" d="M827.57,141.62c-.21,2.45-3.95,4.9-4.33,7.35-2.04,5.09-6.54,8.86-11.59,10.56-1.13.94-2.64,2.27-4.32,2.44-.36-3.76,2.99-7.16,5.06-10.55,3.91-5.09,9.35-8.29,15.18-9.81h0Z"/>
  <path class="cls-2" d="M361.38,149.54c2.81,3.2,4.31,6.04,7.68,8.85.19.76-.38,1.9-1.31,1.9-9.17-.57-15.35-10-19.85-16.59.57-2.08,3-.38,4.31-.57,3.18,2.44,6.74,3.2,9.17,6.41h0Z"/>
  <path class="cls-2" d="M830.17,152.17c-.38,8.12-4.3,16.4-11.6,20.37-2.07.75-4.3,2.83-6.37,1.51,3.94-8.11,9.92-14.71,16.48-21.88h1.5Z"/>
  <path class="cls-2" d="M794.24,157.64c.55,2.83-.94,4.52-3.17,5.47-2.07.18-3.38-1.51-4.33-3.02-.17-1.89.95-3.58,2.64-4.15.55-.57,1.48-.57,2.23-.57,1.14.38,1.7,1.32,2.64,2.26h0Z"/>
  <path class="cls-2" d="M351.08,159.34c3.57,2.46,6.74,5.86,10.11,8.86-2.43,1.7-5.42.19-8.24.19-6.37-2.26-10.66-7.73-17.22-9.62.19-2.07,2.63-1.32,3.93-1.89,4.13-.38,7.49,1.5,11.42,2.44h0Z"/>
  <path class="cls-2" d="M551.59,103.53c-10.48-4.15-17.41,6.79-28.08,5.47-1.31.75-.93,2.07-1.69,3.02-.55.56-1.5.19-2.06-.19-.55-4.54-2.05-8.68-2.62-13.02-1.12-1.88-.56-4.52-1.5-6.4-5.99-16.4,14.6-3.96,18.72-13.58,3.57-8.3-6.92-9.24-10.11-15.08v-2.45c-2.99-3.02-6.17-3.96-8.04-7.93,1.31-4.71,1.87-9.8.56-14.53-.19-1.12-.94-2.63-2.62-2.07-3.56,4.9-6.18,8.87-9.55,13.58-3.56-2.64-6.93-6.04-11.05-8.3-2.81-.38-5.42-3.22-8.6-2.07-.56,1.13,0,2.07.56,2.82.18,7.36,3.93,13.21,9.16,18.49l.57,2.83c-3.37,7.73-2.43,16.59-3.37,24.89-8.43,21.49-22.09,42.24-40.63,57.14-10.67,12.07-23.41,23.76-25.09,40.35-.56,2.64.38,5.85-1.68,7.73-6.18-2.26-12.36-5.28-17.42-9.24-8.6-6.03-20.97-5.28-26.58-16.22-2.25-4.33.57-8.67,2.62-11.87,6.36-6.03,5.42-16.78,2.06-24.14-.74-.19-.94.75-1.5.94-.56,11.13-9.36,18.85-5.99,31.12.75,3.58,2.63,5.84,3.56,9.24-1.31-.38-3.18-.38-4.3-.94-4.13-.57-8.24-2.27-12.56-1.7-8.6,3.96-20.4-.94-27.33,6.98-1.13.19-2.61.38-2.24,2.07,4.12,0,8.04,1.14,12.17.95,6.54,1.13,10.85-4.33,15.35-6.79h1.13c1.87-1.89,5.06-.75,7.49-1.13,11.8,1.32,20.96,6.97,30.71,12.82v.75c-3.75,1.7-8.05,2.83-11.8,4.91-4.32,3.2-9.18,7.34-10.48,12.63-3,4.71.94,8.86,2.8,12.82.18,1.89.38,4.15,2.06,4.9,6-6.4.36-14.33,1.3-21.68,1.51-5.66,6.75-8.29,12.18-9.8,10.67-4.53,18.35,4.14,26.96,9.05-.18,8.68.94,16.97-.93,25.46-2.63.94-6,1.51-8.8,1.33-14.79,1.12-26.41,9.24-39.7,13.75-5.98,2.07-13.09,1.89-19.09,4.15,4.68,1.32,9.55-.37,14.42-.57,18.34-2.65,32.38-16.78,52.24-14.34l.37.58c-2.25,4.71-5.25,8.66-8.8,12.25-.57-2.07-.75-3.76-2.63-4.89-1.5-.76-3.18,0-4.3,1.51-.57.94-.57,2.07,0,2.83.93,1.7,2.44,2.07,4.12,2.64-.37,1.7-2.44,2.45-3.56,3.96-5.25,8.86-15.91,5.28-22.09,11.51-.94,1.32-4.31,2.07-2.81,4.15,7.12.75,14.04-1.14,19.29-4.91,6.93-7.72,14.23-15.07,21.15-22.44,1.13,6.04-.56,12.26-4.11,17.16-1.69-.94-3-2.27-5.06-2.84-1.87.39-3.18,2.27-3.37,3.78.75,1.32,1.5,2.83,2.81,3.78-6.36,4.52-14.41,4.9-21.71,6.97-13.67,1.7-26.96,2.82-40.81,3.02-6.56-.38-14.05,1.87-20.22,0-7.12,1.31-14.79-.95-20.61,3.01-.74.94.19,1.88.19,2.82,8.62,5.67,20.42,1.14,30.15,2.84h73.76c5.43-.19,10.86-.38,15.16-2.84,9.56-5.47,14.79-15.27,19.67-24.89,1.87-3.38,3.18-7.35,3.93-11.31,1.87-6.4,7.67-10.94,14.03-11.5.94,9.81-.93,19.6-3.17,28.66-1.13,6.04-5.06,11.88-2.63,18.29.56,3.02,3.75,3.02,6.18,3.4,22.65-.38,45.31-1.32,69.27.38,4.3.75,8.06,2.07,12.73,1.88.38-.57,1.68-.75,1.13-1.88-.57-2.08-2.06-4.71-4.49-5.28-.38-1.13-2.05-.75-2.62-1.5-11.98-6.79-26.4-3.21-40.44-3.02-7.3.75-14.61,2.07-20.78-2.07-2.81-3.4-.75-14.14-.75-14.14,0-4.26,10.31-33.94,11.61-36.39.37-2.83,1.5-5.47,1.13-8.67,1.5-3.78,1.12-8.68,1.12-12.83.75-6.04,3.75-11.69,5.8-17.54,1.13-2.83,2.07-5.84,3.19-8.68,1.12-3.57,1.51-6.97,3.75-9.8,6.11,3.87,12.08,3.76,15.01,10.68l2.59,15.71c0,.95.75,2.83,2.05,1.71,4.87-3.21,3.37-10.37,3.37-15.27,1.12-5.85-2.98-8.68-4.68-13.77-1.31-.94-3.47-5.44-3.47-5.44-.75-4.15-9.83-7-7.76-12.09,1.12-4.33,2.24-8.3,6.35-10.75.61.42.88.87.94,1.33l2.25-1.57.24-15.77c6.06-.02,15.12.75,21.29.75,1.69.57,3,1.88,4.87,2.07l1.5-2.07,15.18-2.95c-6.44.71-10.36-6.69-16.48-6.69h0Z"/>
  <path class="cls-2" d="M568.08,110.21c.46-.06.91-.14,1.4-.27l-1.4.27h0Z"/>
  <path class="cls-2" d="M405,162.74c.19,2.26-1.13,3.58-2.81,4.34-1.5-.57-2.62-.75-3.55-2.26-.75-2.07,1.12-3.59,2.61-4.34,1.5.38,3.37.57,3.75,2.27h0Z"/>
  <path class="cls-2" d="M392.83,162.74c1.12,1.13,1.31,3.02.75,4.34-1.31,1.12-3.37,2.07-4.5.57-1.12-1.13-2.24-2.45-1.31-3.96,1.31-1.33,3.56-2.46,5.06-.94h0Z"/>
  <path class="cls-2" d="M653.43,164.81c.07.09.11.18.18.27"/>
  <path class="cls-2" d="M796.1,168.01c.75,2.08-.94,3.59-2.43,4.35-1.87-.57-4.29-.95-4.29-3.4.16-1.51,1.48-2.45,2.8-2.83,1.68-.57,3.17.75,3.93,1.88h0Z"/>
  <path class="cls-2" d="M806.03,167.64c.55.94,1.87,2.45.38,3.4-.77.56-1.33.75-1.9,1.5-2.07.38-3.91-.38-4.49-2.26-.38-2.09,1.33-3.02,2.82-3.96,1.3-.38,2.24.57,3.18,1.32h0Z"/>
  <path class="cls-2" d="M345.84,169.9c-.75,2.26-2.62,3.21-5.05,2.46-.57-.57-1.13-1.51-1.5-2.46.18-1.32.56-2.64,2.06-3.2,2.24.19,3.93,1.13,4.48,3.2h0Z"/>
  <path class="cls-2" d="M408.94,173.11c-.2,1.5-1.89,2.82-3.19,3.57-1.89.19-3.19-1.31-4.12-2.64,0-1.51.75-3.39,2.24-3.76,2.06-.77,4.32.75,5.07,2.83h0Z"/>
  <path class="cls-2" d="M397.89,171.79c.57.57,1.12,2.07.57,3.02-1.12.94-2.82,2.64-4.68,1.51-1.12-.94-2.44-1.7-2.06-3.59.75-.75,1.68-1.88,2.81-2.25,1.5-.38,2.24.57,3.37,1.31h0Z"/>
  <path class="cls-2" d="M834.67,174.05c0,1.51-1.51,3.02-2.43,3.59-1.52.56-3.19.18-4.13-.95-1.12-.37-.74-1.88-.74-2.83.94-1.32,2.25-2.07,3.56-2.45,1.68.38,2.81,1.51,3.75,2.64h0Z"/>
  <path class="cls-2" d="M846.66,175.74c-.58,1.7-1.87,3.21-3.57,3.4-1.09-.19-3.16-.57-2.78-2.27,0-1.32.74-2.64,1.69-3.02,1.85-.94,4.09,0,4.67,1.88h0Z"/>
  <path class="cls-2" d="M367.18,178.39c.38,2.26-.37,3.76-2.24,4.52-1.31.77-2.63-.18-3.56-.94-.94-.93-1.68-2.44-.94-3.77.38-1.69,2.06-1.32,3.19-2.07,1.68.19,2.62.95,3.56,2.27h0Z"/>
  <path class="cls-2" d="M376.36,180.08c.57,1.51-1.13,2.07-1.5,3.21-.94.57-2.25,1.13-3.37.38-1.31-1.14-2.81-2.84-1.5-4.53,1.5-2.83,5.43-1.33,6.37.94h0Z"/>
  <path class="cls-2" d="M823.62,179.14c.18,1.89-1.5,3.2-2.61,4.33-1.68.38-3.37-.75-3.77-2.26-.17-1.51.78-2.64,2.09-3.58,1.68-.19,3.37,0,4.29,1.51h0Z"/>
  <path class="cls-2" d="M838.97,182.15c-.38,1.7-.19,3.59-2.07,4.71-1.48.39-3.36.19-4.49-.75-1.13-.94-1.3-2.64-.74-3.96.92-1.5,2.61-2.63,4.48-2.26,1.32.76,1.7,1.7,2.82,2.26h0Z"/>
  <path class="cls-2" d="M360.07,186.12c.75,1.5-.94,1.88-1.5,2.65-1.31.75-2.63.18-3.74-.38-1.32-.76-.75-2.63-.57-3.58,1.68-3.2,5.06-.94,5.81,1.32h0Z"/>
  <path class="cls-2" d="M827.18,189.7c.75.19.39,1.33.18,1.7-4.49,2.26-11.22,2.83-15.16-.75-2.24-1.88-5.06-2.64-7.48-4.15.93-2.46,4.29-2.27,6.73-2.82,5.42.75,9.75,5.84,15.74,6.03h0Z"/>
  <path class="cls-2" d="M369.05,188c.38,1.51-.75,2.08-1.12,3.2-.75,1.14-2.25.76-3.19.38-1.68-1.13-2.44-3.2-1.31-4.72,2.06-2.07,4.5-.93,5.62,1.14h0Z"/>
  <path class="cls-2" d="M385.52,189.13c.76,1.7-.36,3.21-1.87,4.15-1.31.76-2.43-.37-3.56-.57-.94-1.32-2.61-2.82-.94-4.33,1.69-2.83,5.06-1.32,6.36.75h0Z"/>
  <path class="cls-2" d="M601.99,197.11c-.36,3.77-6.58-.54-5.7,4.48.89,3.59,1.61,7.87,3.74,10.56,1.78,2.51.89,6.45.71,9.5-1.6,2.69-4.27,4.66-7.11,6.09-5.33-.53-13.16,2.68-15.66-3.94-1.06-2.86-3.03-5.73-3.03-8.96.55-.35,1.26-.35,1.79-.88,0-1.27-1.42-1.98-1.24-3.24,6.04-1.08-2.49-6.45,2.66-6.81,4.27,4.48,11.21,3.05,14.94,7.88.89.72,1.6,1.81,2.66,2.33-.71-4.48-2.84-8.95-3.56-13.8-.54-2.51.36-4.83,2.15-6.27,3.21-2.5,5.86,1.07,7.65,3.05h0Z"/>
  <path class="cls-2" d="M402,195.93c.57,1.88-.93,3.01-2.06,3.95-1.68.75-2.61-1.14-3.37-2.07-.56-1.88.75-2.83,1.88-3.77,1.31,0,2.8.56,3.55,1.89h0Z"/>
  <path class="cls-2" d="M517.53,197.81c2.23,7.36,1.49,14.9-2.26,21.12-.18,1.51.38,3.96-1.67,3.78-5.06-6.98-1.31-16.79.75-24.14.37-1.89,2.62-2.63,3.19-.75h0Z"/>
  <path class="cls-2" d="M677.78,201.38c2.61,5.29,2.81,12.25.36,17.54l-1.48,1.51c-2.07-4.33-3.75-8.67-4.3-13.39.92-3.39,2.05-6.41,2.24-9.98,2.63-.57,2.43,2.82,3.19,4.32h0Z"/>
  <path class="cls-2" d="M416.61,203.46c-1.12,2.28-4.3,2.83-6.37,4.35-4.48,3.39-11.04,4.15-16.65,3.2,4.87-6.79,12.35-10.75,21.34-8.86.38.75,1.31.38,1.68,1.31h0Z"/>
  <path class="cls-2" d="M339.66,210.26c6.93,4.9,8.8,11.68,12.92,18.48.57.75,2.43.94,1.68,2.45-1.5,1.14-2.99-1.13-5.05-.76-7.12-3.19-11.61-11.12-11.42-19.41,0-.75,1.12-.75,1.87-.75h0Z"/>
  <path class="cls-2" d="M670.48,216.1c.18,1.89-.19,3.77-1.69,4.33-2.07.57-3.73-.57-4.32-2.26-.55-1.32.58-2.07.95-3.02,1.5-1.52,4.11-.75,5.06.94h0Z"/>
  <path class="cls-2" d="M749.49,226.09c0-3.58.94-6.97,1.3-10.37.56-1.12.94-2.46.74-3.96,4.51-6.03,13.68-4.15,20.78-3.58,2.81,1.5,6.37,1.31,9.36,2.07,1.32-.94,3.19-1.14,4.68-.94,6-3.21,2.08-10.18,2.44-15.66l-2.24-5.65c-.58-1.14-1.13-2.45-1.52-3.78-1.11-1.32-1.86-3.77-2.99-5.08-3.17-8.3-9.35-13.01-14.59-19.61-9.55-12.45-24.53-19.42-39.51-24.33-14.8-5.09-29.77,1.51-43.05,6.22-4.14-1.12-6.2-4.33-7.31-7.92-.75-7.16.74-14.14,3.56-19.99.55-4.71,3.75-8.3,5.06-12.64,3.34-10.55,6.91-20.93,7.64-32.43.4-6.98-4.84-11.88-10.09-14.9-3.55-.94-7.66-.75-10.28,2.07-2.44,5.1-7.7,8.49-12.17,10.94-.38,3.21,3.55,1.14,4.84,2.27,4.14.75,8.8-.57,12.18,2.07.36,7.54-3.93,13.77-7.85,19.43-6.37,9.42-13.13,19.04-17.05,29.41l-.74-.75.92,46.1c5.93,9.92,13.4,21.26,24.53,25,5.98,4.9,13.5,10.74,21.55,6.42,4.29-1.33,4.68,4.71,6.72,7.16,2.25,6.98-2.81,11.88-3.17,18.28l-4.88,10.38c-5.61,10.94-10.66,22.62-19.27,31.87-2.82,0-4.5,3.01-7.31,3.2-1.5,2.07-4.49.57-6.36,1.33-5.8,2.44-14.06.94-17.97,6.4.36.57.95.76,1.5.95,11.39.18,24.16.94,36.32.38,1.51-.57,2.82-1.9,3-3.58-1.69-3.21.55-6.04,2.03-8.49.95-4.54,3.95-7.35,5.25-11.69,3.94-7.73,8.43-15.27,12.72-23.01l5.83-9.42c1.33-3.2,3.54-7.16,5.8-10.56,1.48-1.5,2.26-3.2,3.38-5.08.17-1.89-.75-2.64-1.9-3.96,1.31-1.33,3.39-.94,5.08-1.33,4.67,2.83,9.53,7.36,10.47,12.45l1.68,4.9.77,2.26-.39,6.23.75,5.84c.94,9.05-.75,18.29-1.68,27.34-3.17,10.94-15.74,9.81-24.73,12.25-2.23,1.51-6.54.76-6.54,4.53,10.85,2.27,23.59.95,35.19.76,1.87-.76,2.26-2.46,3.19-4.15.38-2.45,2.82-4.53,2.07-7.17-2.07-2.64-.19-6.79-.74-10.37.38-.94.38-2.26,0-3.59,1.5-5.47,1.11-12.06,2.21-17.35l.78-7.17h0Z"/>
  <path class="cls-2" d="M841.59,218.74c-5.98,8.49-12.37,18.09-22.82,21.12-.75,0-1.53.37-1.9-.57,6.37-6.79,9.75-17.36,19.69-19.8,1.47-.75,3.54-1.5,5.03-.75h0Z"/>
  <path class="cls-2" d="M330.49,227.98c-.94.75-.18,2.44-1.88,2.64-1.49.76-3.17-.19-3.92-1.7-.76-1.89.92-3.76,2.43-4.15,1.49.75,2.99,1.31,3.37,3.21h0Z"/>
  <path class="cls-2" d="M384.41,230.62c.55,1.7-1.32,1.7-2.25,2.07-7.86,2.83-15.91.19-21.52-5.46,0-.76,0-1.52.74-1.7,7.68,1.88,16.67.38,23.04,5.09h0Z"/>
  <path class="cls-2" d="M340.79,228.17c.37.75.57,2.08.37,2.83-1.12,1.7-2.81,2.07-4.68,1.7-1.12-.57-1.69-1.31-2.44-2.44.19-1.89,1.68-3.02,3.18-3.58,1.5.18,2.63.57,3.56,1.5h0Z"/>
  <path class="cls-2" d="M516.21,229.11c.37,1.7-1.12,2.83-2.25,3.58-1.68.38-3.18-.37-3.93-1.51-.57-1.31,0-3.2,1.31-3.59,1.69-.36,4.3-.18,4.87,1.52h0Z"/>
  <path class="cls-2" d="M848.7,229.87c.58,1.88-1.12,2.82-2.42,3.96-1.13.56-2.44,0-3.59-.57-.17-.94-1.29-1.7-.93-3.01.75-1.7,2.46-2.46,4.3-2.27.95.75,1.7.94,2.63,1.89h0Z"/>
  <path class="cls-2" d="M861.07,229.11c1.13,1.7.18,3.02-.75,4.34-.74,1.31-2.25,1.69-3.37,1.13-1.12-1.13-2.63-1.7-2.81-3.4,0-1.51,1.69-2.64,2.81-3.2,1.87-.75,2.63,1.13,4.12,1.13h0Z"/>
  <path class="cls-2" d="M322.63,234.58c.18,1.32-.94,2.07-1.31,3.2-.94.38-1.87,1.13-3,.77-1.31-.57-2.24-1.71-2.81-3.02.38-1.7,1.5-3.2,3.37-3.78,1.5.38,3.19,1.13,3.75,2.83h0Z"/>
  <path class="cls-2" d="M716.92,234.58c.36.75.16,1.69.16,2.45-1.11,1.51-2.6,2.83-4.48,1.88-1.14-1.13-2.43-2.26-1.87-3.96,1.5-2.07,4.69-2.83,6.19-.37h0Z"/>
  <path class="cls-2" d="M352.77,237.41c-.38,1.32-.94,2.64-2.61,2.82-1.69.19-2.26-1.32-3.19-2.07,0-1.7-.19-3.39,1.5-4.33,2.25-.76,4.3,1.12,4.3,3.58h0Z"/>
  <path class="cls-2" d="M334.79,237.78c.57,1.89-.75,3.21-1.87,4.15-2.25.76-4.12-.94-5.05-2.64.18-1.7,1.5-3.77,3.36-4.34,1.69,0,2.63,1.89,3.56,2.83h0Z"/>
  <path class="cls-2" d="M729.27,237.41c.36,1.89-.19,3.76-2.07,4.52-2.24.76-4.11-1.14-5.03-2.64.92-1.51,1.12-3.59,3.36-3.96,1.68,0,2.82.75,3.75,2.07h0Z"/>
  <path class="cls-2" d="M343.59,238.16c.56,1.32-.55,1.89-.95,2.83-.93,0-1.48,1.14-2.61.75-.74-.95-2.25-1.32-2.44-2.64-.18-1.89,1.12-2.83,2.44-3.58,1.87-.19,3,1.13,3.56,2.63h0Z"/>
  <path class="cls-2" d="M838.4,239.67c-.55,1.5-1.67,2.26-3.19,3.02-1.48.37-2.42-.95-3.54-1.52-.96-.75-.56-2.44-.18-3.39,1.86-3.2,6.91-1.7,6.91,1.89h0Z"/>
  <path class="cls-2" d="M852.64,240.42c-.56,2.07-2.63,3.02-4.49,3.21-1.69-.75-3.56-2.07-2.25-4.33.75-.75,1.12-1.51,2.25-1.7,2.24-.76,3.93.95,4.49,2.82h0Z"/>
  <path class="cls-2" d="M763.7,241.74c.95,2.46-1.29,3.21-2.8,4.34-1.31-.18-2.43-.75-3.56-1.51-.38-2.08.57-3.97,2.64-4.9,1.69,0,2.61.75,3.72,2.07h0Z"/>
  <path class="cls-2" d="M712.23,244.01c.92.37.55,1.7.38,2.27-1.14.75-2.63,2.63-4.33,1.5-1.29-.75-2.23-1.88-1.86-3.58.95-2.07,4.88-2.27,5.81-.19h0Z"/>
  <path class="cls-2" d="M722.7,245.33c.21,1.5-.17,2.26-1.48,3.02-1.31,1.31-2.82-.19-4.13-.57-.36-.75-.73-1.88-.16-2.83.55-.75,1.47-1.32,2.42-1.51,1.29.38,2.82.38,3.36,1.89h0Z"/>
  <path class="cls-2" d="M405,245.51c1.12,1.14-.19,2.46-.38,3.58-.94,1.14-2.99,2.07-4.68.95-1.87-.75-1.68-3.22-1.3-4.71,1.12-.38,1.12-1.7,2.61-1.7,1.68.19,2.61.94,3.75,1.89h0Z"/>
  <path class="cls-2" d="M783.74,246.27c.38,1.88-1.48,2.63-2.8,3.02-2.26.75-3.38-.94-4.3-2.46,0-1.12,1.12-1.88,1.48-2.82,2.63-1.13,4.3.76,5.62,2.27h0Z"/>
  <path class="cls-2" d="M773.65,246.27c.73,1.88-1.34,2.82-2.09,3.77-1.29.56-2.98.37-4.1-.75-.94-.57-.94-1.7-.94-2.84,1.12-.94,1.67-2.07,3-2.44,1.68,0,3.37.94,4.12,2.27h0Z"/>
  <path class="cls-2" d="M858.07,248.53c.36,2.63-2.98,1.32-4.3,2.07-7.85,4.71-17.97,1.13-25.46-1.7.56-2.46,3.38-1.5,4.86-2.46,8.05-5.09,16.31,1.14,24.34,1.52l.56.56h0Z"/>
  <path class="cls-2" d="M345.65,246.27l-.75,1.31c-6.93,4.15-15.91,6.98-24.15,4.35l-.75-1.14c6.93-5.1,16.1-6.42,25.09-5.1l.57.57h0Z"/>
  <path class="cls-2" d="M802.85,247.59c0,1.51-.74,2.83-1.9,3.57-1.86.57-4.29,0-4.85-2.07-.56-1.51.92-3.02,2.43-3.58,1.31,0,3.58.19,4.32,2.07h0Z"/>
  <path class="cls-2" d="M379.16,248.35c-.74,1.5-.36,3.02-2.24,3.77-1.87.75-4.13-.95-4.69-2.46-.55-2.07.94-2.63,1.88-3.57,2.24-1.13,3.93.57,5.05,2.27h0Z"/>
  <path class="cls-2" d="M365.88,249.29c.56,1.31-.57,2.07-.94,3.02-.94,1.13-2.63.94-3.75.57-1.3-1.14-2.61-2.46-2.05-4.52,1.12-.94,1.68-1.52,3-2.07,1.68.38,3.36,1.13,3.74,3.02h0Z"/>
  <path class="cls-2" d="M815.94,253.62c-.17,1.7-1.51,3.02-2.98,3.4-1.52.19-2.81-.94-3.56-1.89-.57-1.13-.39-2.64.75-3.58.36-.57,1.67-.57,2.42-.95,1.69.19,3,1.51,3.37,3.02h0Z"/>
  <path class="cls-2" d="M352.01,251.55c.57,1.51-.74,2.07-.94,3.2-.57,3.22-2.62,5.29-4.11,8.11-3.56,4.34-8.62,4.34-13.67,5.65l-.74-1.51c5.43-6.96,11.24-12.43,18.9-15.84l.56.39h0Z"/>
  <path class="cls-2" d="M806.58,255.7c.39,2.27-1.5,2.64-2.79,3.58-1.69,0-3-.94-3.77-2.26-.55-2.07,1.33-2.83,2.42-3.77,1.9-.38,3.59.94,4.14,2.45h0Z"/>
  <path class="cls-2" d="M373.55,255.7c-.19.38.19.75.57.94-.19,2.08-1.68,2.63-2.82,3.58-1.68,0-3-.57-4.12-1.88-.75-1.7,0-3.77,1.87-4.34,1.68-.19,3.93,0,4.49,1.7h0Z"/>
  <path class="cls-2" d="M841.04,261.36c1.87-.19,2.24-2.46,4.29-2.83,1.87-.37,3.56.75,4.51,2.08.73,2.26-.95,3.39-2.44,4.33-1.33.94-4.12-1.14-3.94,1.32,1.32.94,2.44,2.26,2.61,3.77-.34.76-1.67.56-2.24.19-5.44-2.26-11.24-6.03-13.47-11.69-.75-1.7-4.3-3.02-2.26-4.52,5.45-.38,9.92,3.96,12.94,7.36h0Z"/>
  <path class="cls-2" d="M859.01,255.51c.92.94.56,2.64-.19,3.58-.95,1.89-3.73,1.13-5.42.95-.94-.95-1.9-1.89-1.51-3.4.75-1.13,1.51-1.89,2.82-2.45,1.67-.38,2.99.38,4.3,1.32h0Z"/>
  <path class="cls-2" d="M791.06,265.69c1.68,2.07,3.36,5.28,4.1,7.54-.38.57-1.31.38-1.67.38-6.38-3.58-14.62-7.54-17.06-15.08-.57-.75-2.06-1.7-1.86-3.02,4.86-.94,9.55,2.64,12.91,5.28,1.31,1.89,2.8,2.83,3.58,4.9h0Z"/>
  <path class="cls-2" d="M363.07,258.53c.75,1.7-.75,3.02-1.69,3.77-2.05.38-3.18-.38-4.3-1.5-1.31-2.07,1.12-3.78,2.62-4.53,1.49-.19,2.44,1.32,3.37,2.26h0Z"/>
  <path class="cls-2" d="M814.43,262.86c.19,1.14-1.29,1.89-1.86,2.64-1.5.19-3,.75-4.32-.57-.35-.94-1.29-2.46-.17-3.39,2.07-2.65,5.06-.57,6.35,1.31h0Z"/>
  <path class="cls-2" d="M861.07,265.51c.55,2.26-1.13,3.77-2.64,4.71-1.85.57-3.34-.75-4.5-1.7-.9-1.12-.17-2.26,0-3.58,1.33-1.14,3.02-2.08,4.89-1.32.75.57,1.5.94,2.25,1.88h0Z"/>
  <path class="cls-2" d="M731.5,291.53c0,2.26-4.11,1.69-5.79,3.39-5.81,3.02-12.72,3.02-19.66,2.83v-1.13c6.73-5.65,16.48-7.73,25.45-5.09h0Z"/>
  <path class="cls-2" d="M458.37,299.63c-.2,1.7-1.13,2.64-2.82,3.21-1.31,0-2.61-.75-3.17-1.89-.76-2.26,1.12-3.2,2.43-4.15,1.68.19,3.17,1.51,3.56,2.83h0Z"/>
  <path class="cls-2" d="M728.34,301.71c-.39,1.7-.95,3.58-2.82,4.33-1.69.37-2.82-.56-4.13-1.32-.93-.75-.38-2.07-.54-3.02,1.31-3.39,6.16-3.39,7.49,0h0Z"/>
  <path class="cls-2" d="M765.58,302.45c-4.67,3.03-9.91,6.61-16.09,6.61l-10.1-.19-.95-.75c6.18-7.55,17.41-7.55,27.14-6.79v1.12h0Z"/>
  <path class="cls-2" d="M407.06,306.98c0,1.7-.74,3.02-2.43,3.58-1.87.38-3.19-.37-3.93-1.69-.75-1.7,0-3.39,1.5-4.35,2.06-1.31,4.12.95,4.86,2.46h0Z"/>
  <path class="cls-2" d="M416.42,308.88c.57.94-.37,1.51-.75,2.46-1.12.56-2.61.94-3.56,0-1.31-.77-1.68-2.09-1.13-3.21.57-1.14,1.69-.95,2.25-1.71,1.31.57,2.63,1.14,3.18,2.46h0Z"/>
  <path class="cls-2" d="M344.72,327.92c-1.88,2.26-4.87-.57-6.93-1.7-6.55-3.78-6.36-11.13-12.91-15.46.74-2.26,2.43.19,3.74-.19,1.12.77,2.62,1.51,3.94,2.07,6.36,3.6,7.86,9.63,12.17,15.29h0Z"/>
  <path class="cls-2" d="M890.46,254.75c-3.02-5.46-8.05-7.73-14.06-7.73-4.86.38-8.42,3.58-10.48,7.73-1.12,4.15.39,7.93,3.55,10.37,1.33.57,3.02.38,3.76-.94.95-2.46-1.69-2.46-2.07-4.35-.74-2.63.21-4.89,2.07-6.58,1.86-1.89,5.05-.94,7.31-.94,2.25,1.51,4.49,2.83,5.62,5.47,1.12,3.21,1.12,6.79,0,10-2.06,4.71-6.74,8.48-11.6,9.43-15.54,2.26-186.11,1.51-186.11,1.51-20.03,1.89-42.86-3.77-60.08,6.79-7.88,3.77-11.81,12.45-13.86,20.17-5.05,4.53-10.48,9.81-14.6,14.9l-.56-.57c.94-4.52,3-8.49,3.93-13.02,2.8-3.77,2.8-8.86,4.86-13.02,7.14-11.5,13.86-23.18,24.9-31.29,4.69-6.23,12.91-5.1,20.03-5.1,7.67,3.58,16.68,4.71,26.03,3.78.38-.38.56-.75.56-1.32-2.63-2.46-6.93-3.4-9.91-5.85-7.5-3.59-14.62,1.12-22.48.56-.36-.37-.75-.56-.56-1.13,7.11-5.27,15.16-9.05,23.23-12.45,6.54-3.57,13.47-5.47,20.38-8.1,2.82,0,5.45-2.45,8.06-.75l9.91-2.65c.39.2.77.75,1.51.58,8.43-2.84,19.12-.19,28.65-.38l1.31,1.13,8.96,2.26c3.39.38,4.89,4.34,8.43,4.52,1.9-2.64-2.02-3.77-2.97-5.46,4.11-.94,8.8.18,12.52,1.88l-1.85,2.07c-1.14,2.07.55,3.59,2.24,4.33,1.3.38,2.24-.56,3.19-.94,2.43-1.7-.19-3.4.56-4.91,13.84,2.45,27.14,5.84,39.87,11.32,3.56,1.14,6.93,3.77,10.86,3.57-3.93-3.57-9.36-5.45-14.23-7.53-3.19-1.9-7.69-2.08-10.1-4.72.56-.95,1.86-.57,2.42-1.32,6.38-.75,11.8-5.47,16.29-10.56.36-1.13,2.43-.75,2.26-2.26-1.7-1.9-4.52.57-6.76.38-7.86,1.51-11.24,10.74-19.09,12.44-9.56-2.26-19.29-4.52-28.83-6.97-4.68-.75-9.73-1.13-14.03-3.02l-10.49-.93h-19.09c-.19-.38-.75-.57-.56-1.14,6.72-1.7,12.54-5.66,19.27-7.36l50.18-23.01c5.24-4.71,9.91-9.98,14.24-15.46.16-1.51-.77-3.01-2.09-3.58-1.3-.57-2.8-.38-3.72.76-2.24,1.7,0,3.77,0,5.84-2.24,3.01-5.8,5.65-8.62,7.35-.73-.19-51.67,23.2-51.67,23.2-7.5,3.2-14.98,6.79-22.84,8.48l-10.86,1.69c-.75,2.27-2.6,3.59-4.69,4.34-2.99.57-5.42,2.46-8.61,2.46-24.35,9.43-49.61,19.42-68.9,38.66,1.14-2.27,1.68-5.1,1.9-7.92-.39-2.83-.22-6.03-2.07-8.31-.44-1.03-1.82-4.07-1.36-5.16l-2.77,1.77c-1.68,4.16-3.17,11.69-1.47,16.03.55,3.39,3.36,7.36.74,10.37-9,10.94-14.06,24.14-20.04,36.58-2.25-.38-3.36-2.45-4.31-4.52,6.37-8.11,11.43-17.17,13.3-27.53,1.32-.95.38-3.4,1.69-4.53-.37-3.02,1.68-6.03.19-8.48,1.19-4.12-5.48-7.92-1.23-10.56l-3.52,1.69c-8.05,10.57,4.2,26.41-5,36.59v.75c-2.61,3.41-3.93,6.79-7.48,9.05-4.49-1.89-6.18-6.98-8.81-10.74-4.11-3.97-4.11-12.08-1.68-17.54,1.68-5.47-1.13-10.19-1.69-15.1l-1.87-1.11c-4.49,5.84-6.17,15.08-2.62,22.06,1.87,3.4,2.06,8.11,4.87,10.93,1.68,5.47,5.05,9.06,8.05,13.95.75,1.89-1.12,2.26-2.06,3.21-2.05-1.32-1.69-4.35-3.56-5.66-6.18-13.2-14.23-23.76-23.96-34.5-.38-1.71-2.07-3.21-1.13-5.1,3.55-3.4,4.31-10,2.43-14.33-.37-.94-1.49-2.07-1.3-3.02l-2.82-2.27c.38,6.6-3.93,12.44-2.06,19.43v.37c-19.28-14.51-40.6-27.48-62.32-37.66l-1.73,4.79c5.49,1.38,20.05,10.24,20.05,10.24,6.55,2.46,12.54,6.42,18.72,9.99,25.46,14.15,42.32,37.54,53.73,63.56.19,2.07,2.07,4.33.76,6.41-3.93-6.03-9.55-9.42-14.23-14.32-1.32-8.86-6.55-17.35-14.23-20.94-2.8-4.14-8.8-4.52-13.47-5.83l-68.15-.39c-55.42-.75-105.96,1.7-161.01.75-7.67-.75-17.04-3.39-19.28-11.5-1.5-2.83-1.5-7.73,0-10.37,2.05-3.58,5.8-4.71,9.55-5.09,2.99.38,5.06,3.2,6.37,5.28,0,2.44-2.07,4.71-3,6.79.19.75.94,2.26,2.26,1.69,2.43-.94,4.3-3.57,4.88-6.03.17-1.33.74-3.2-.57-4.15-1.12-3.96-5.25-6.79-8.8-7.73-4.69-.38-9.55.94-12.74,4.33-4.49,3.78-4.3,10.57-2.99,15.84,2.99,8.29,11.8,13.95,20.22,15.08l182.17.76c17.78.94,37.82-2.07,55.79,1.51,6.56,2.07,13.48,6.97,15.17,14.32-.2.38-.75.19-1.31.19-14.79-9.62-34.26-13.2-53.17-10.93-7.49-.38-14.23,2.45-20.96,4.33-3.56.77-6.93-.94-9.19-3.02-6.72-6.03-18.52-5.65-27.14-3.39,0,.57-.19,1.14.19,1.32,9.16-.75,14.6,7.17,22.84,8.11,1.87.38,3.36-1.7,5.05-.18-8.6,4.14-16.85,9.04-26.02,11.68-2.81-.56-4.3-3.2-6.55-4.72-3.56-3.95-10.1-2.26-14.97-2.63-1.69.38-3.19-.75-4.31,0,1.5,3.02,4.86,4.71,8.06,6.23,4.67,2.07,10.1-.19,14.42,2.64-1.13,1.32-2.63,1.7-3.94,2.63-8.8,3.4-16.1,11.32-25.83,10.76-10.29,1.12-20.78-1.89-27.71-9.05-2.99-7.36-10.66-11.31-18.9-10.93-.56.36-1.31.36-1.12,1.32,4.12,2.44,7.29,7.35,11.42,10.18,2.62,3.2,7.67,0,10.1,3.58,3.57,2.46,8.06,4.53,12.18,5.28,2.99,1.32,6.37,1.89,9.73,2.65l-1.31.75c-17.03,5.65-36.69,6.22-55.79,5.47-5.61-.19-11.04-1.89-16.67-1.7.94,1.13,2.82,2.07,4.49,2.64-1.48.94-3.18,1.31-5.05,1.5-2.24.57-4.86.76-7.11,1.89-2.99-.18-5.62.95-8.05,1.89-3.19,3.39-6.93,6.97-10.66,8.68,0,.75-.2,1.88.74,1.88,3.55-1.51,8.04-.37,11.61-1.88,6.17-.57,9.73-7.36,14.6-10.19,5.23-4.14,12.72-3.19,19.09-2.26,3.75.94-.38,2.46.75,4.91,1.5,1.32,2.81,2.83,4.88,2.26.36-.38.74-.75,1.3-.94,1.13-1.51.94-3.21.18-4.72,2.63-1.7,6.19.19,8.99-.94,7.11-.19,14.23-1.7,21.16-1.89,1.12-.18,2.43-1.32,3.55-.18-.55,1.5-2.43,1.7-1.68,3.76.37,1.7,2.25,2.46,3.74,2.83,1.87-.75,3.56-2.08,2.81-4.52-.37-1.32-1.87-1.5-2.81-2.07,3.93-1.89,8.43-2.46,12.36-4.34,2.81-.57,5.42-1.51,7.86-2.65,2.44-.18,4.49-2.44,6.74-1.51-.94,3.2-2.24,6.22-3.93,9.06-2.99,9.98-5.25,23.18,0,32.81.57.18.75-.2,1.12-.38-3.93-10-1.68-21.49,1.68-30.92,2.62-16.03,19.1-20.75,30.89-26.78l.55.76c-3.18,8.29-7.86,16.21-7.11,26.21.37,1.7-.75,3.39,0,4.52,3.18-1.7,5.23-5.47,6.93-8.68,1.31-8.49-3.56-19.05,5.06-25.27,15.35-6.03,29.77-13.95,47.55-14.14.56.57,1.87-.39,2.05.75-3.75,4.15-9.17,8.11-10.86,13.2-5.99,8.29-5.8,22.44-3.18,32.63,1.68,5.84-3.37,9.05-5.8,13.58-1.17,1.6-1.5,4.35-2.58,6.19l3.7.41c3.18-3.39,6.18-7.54,6.37-12.45.38,1.89,2.06,3.4,3.56,3.78,1.31-2.07-1.13-3.59-1.31-5.66,3-1.69,4.32,2.07,6.74,2.83,3.93.94,7.3,2.64,11.42,2.64l1.31-1.32c-4.12-6.41-12.36-7.54-19.48-7.92-3.74-6.22-3.74-13.95-3.37-21.49.75-3.96,1.5-8.11,3.75-11.69.94-2.64,3.56-5.1,5.24-7.17,3.37-3.2,7.68-5.47,11.79-6.41h.55c0,.37.19.57.19.57-5.06,3.95-5.61,9.43-8.61,14.33-3.19,4.71-4.68,11.12-1.69,16.4,1.13,2.45.57,6.22,3.19,7.92,2.43-3.39,2.63-7.73,3.93-11.5-.56-6.22-4.3-12.07-.75-18.11,1.87-4.71,5.8-6.59,10.11-8.29,10.29-.94,19.29,4.34,28.27,8.29,1.89,1.33,5.07,2.46,5.44,5.1-.19,5.1-3,10.18-6.93,12.64-5.05,3.01-12.35,3.39-17.04-.19-2.81-2.83-3.93-7.73-2.99-11.51,2.06-2.26,4.87-4.15,8.24-3.01,1.87.94,3.55,2.83,6,1.69.94-.56,1.3-2.07.74-3.01-2.05-1.13-2.8-3.96-5.62-4.34-3.55-.57-7.86-.38-10.29,2.07-3.93,3.39-5.43,8.49-4.3,13.2,1.31,6.03,5.8,10.37,11.6,12.07,8.62,2.08,17.6-.57,23.03-7.92,2.25-2.45,2.8-5.08,4.12-8.12,8.99,5.48,15.72,15.1,19.29,24.9,0,3.21.94,6.6.18,9.43l6.55.56c-.57-1.51,0-3.2.57-4.51,2.44-12.45,10.12-22.82,19.27-30.94,3.21-1.87,2.43,2.46,3.21,3.79,2.78,7.17,9.36,12.25,16.29,14.33,7.83,1.31,15.33-.57,20.21-6.6,2.43-4.53,5.4-11.13,1.29-15.84-2.6-3.2-6.16-4.91-10.28-4.91-4.88,0-7.87,3.4-10.3,6.98,0,1.51-.2,3.21,1.12,3.97.75,0,2.25.18,2.82-.96.38-2.83,2.77-4.15,5.03-5.65,2.07-1.13,4.3,0,6.01,1.14,2.04,1.69,2.43,4.52,2.6,7.36-.36,3.57-2.8,7.36-6.16,8.86-5.44,2.83-13.29,1.5-17.97-1.7-2.25-2.45-3.56-5.28-5.24-8.29-.39-3.02-1.5-5.65,0-8.68,8.23-4.9,16.85-8.48,26.78-9.42,3.91.75,7.28,3.39,9.9,6.22,8.61,8.86-1.85,21.5,4.13,31.3,2.25-.38,2.25-3.39,3.19-5.28,2.8-6.79-.75-14.14-2.43-20.74-2.26-4.15-3.55-7.73-7.13-11.13.95-.37,1.31-.37,2.24-.37,3.94,2.64,8.24,5.65,11.43,9.81,5.44,8.86,8.24,19.42,7.3,30.92-1.5,5.66-7.48,8.3-12.16,10.37-1.87,1.52-4.12,3.78-5.06,6.04,2.26,1.32,5.42,0,7.67-.94,3.56-1.32,5.63-5.85,8.05-7.92.38.19.18.75.38,1.14.19,2.07-.92,4.9.95,5.47.93-2.64,1.12-6.41,1.68-9.62,2.43,2.64,2.81,6.04,3.56,9.43,1.69,3.39,4.49,7.92,8.96,8.48,1.15-1.69-.17-3.4-.54-4.9-.57-4.72-4.5-7.17-7.11-10.56-6.55-9.05-3.56-23.19-8.62-33.37-1.87-5.48-5.81-9.44-10.1-13.97l.75-.75c9.17-.19,16.84,2.83,25.26,4.52,10.32,5.09,25.28,3.96,30.15,17.35,2.08,7.53,5.44,14.52,10.68,20.36l.55-.37c1.14-1.89,1.14-5.09,0-6.98-1.12-9.42-9.35-11.69-13.67-19.61l.57-.75c4.49,1.32,9.18,2.45,13.67,4.34,14.99,4.14,25.46,18.85,27.35,34.13,0,12.07-2.26,22.06-6.93,32.24-.57,1.51-3.19,3.21-1.51,4.53,2.07-1.51,2.43-3.97,3.56-5.65,6.16-10.37,9.35-24.7,6.16-37.9-.18-2.45-2.98-4.33-1.68-6.79.95,1.13,2.07,1.31,3.19,1.69,1.12-.75,2.82-.75,3.55-2.07.19-1.13.95-2.45,0-3.39-1.12-1.7-3.55-1.7-5.42-1.31-.92,1.12-2.07,2.63-2.24,4.15-1.87-3.21-3.75-7.35-6.76-10l.38-.57c8.45,2.83,16.11,6.98,24.73,9.24,1.86,1.14,3.91,2.07,6.53,2.07,7.32,2.83,15.36,3.96,23.03,5.85,5.62-.57,10.31,2.08,15.92.75v-.38l-.18.19c-2.06-2.64-6.57-.19-8.99-2.07-12.93-1.32-25.28-4.71-36.88-9.24.17-.56.95-.38,1.51-.38,1.87-.94,3.16-2.64,2.98-4.72-.92-1.32-2.42-2.07-4.32-2.07-1.12.57-2.61,1.89-2.8,3.21.18,1.51,1.51,3.2,2.8,3.58-.35.38-1.12.19-1.67.19-5.81-2.65-11.42-5.1-17.06-7.74-2.02-.37-3.72-2.07-5.79-2.44-4.3-2.07-8.6-4.15-12.91-5.85-11.96-6.22-25.28-9.61-38.01-14.14-2.8-.75-5.42-1.51-8.04-2.26-4.68-1.32-9.35-2.45-14.05-3.78-15.9-3.96-37.26-4.34-51.11,4.34-2.25-.75-3.56,2.83-4.68.57,3.94-10.38,15.36-13.76,25.63-14.14,75.1-.76,145.49-1.33,219.44-2.45,8.62,0,17.02-3.02,21.52-10.75,3.19-4.52,3.73-12.27,1.31-17.35h0ZM592.78,324.34c-.74,2.25-2.24,4.15-2.05,6.6l-.75.38c.56-2.83-2.25-4.53-1.5-7.55-1.5-2.26-1.5-5.09-2.8-7.54-1.7-3.03,1.49-4.34,2.8-6.42,2.63,1.13,3.56,3.57,5.43,5.84,1.12,3.2-1.3,5.65-1.13,8.68h0Z"/>
  <path class="cls-2" d="M795.91,312.46c0,.57,1.11.74.74,1.7-6.54,5.85-15.71,7.54-25.1,7.92-.73.19-1.48.75-2.41.57-.57-.38-.77-.94-.39-1.33,6.75-7.36,17.02-11.12,27.15-8.86h0Z"/>
  <path class="cls-2" d="M765.77,315.48c.75,2.63-.92,4.14-2.99,5.09-2.07-.19-3.19-1.51-4.12-3.02-.57-1.51.75-2.27,1.33-3.2,1.48-1.51,5.03-1.51,5.79,1.13h0Z"/>
  <path class="cls-2" d="M409.88,315.85c.36,1.32.18,3.02-.94,3.96-.75.94-2.44,1.13-3.38.94-1.31-.18-2.06-1.7-2.43-2.82,0-1.7.94-2.65,2.43-3.58,1.5,0,3.18-.19,4.32,1.5h0Z"/>
  <path class="cls-2" d="M376.36,328.1v1.32c-4.49.95-8.8-.18-12.17-2.83-2.61-3.76-5.61-7.54-9.92-9.42,0-.57-1.12-1.32,0-1.69,9.36,0,14.98,7.53,22.09,12.62h0Z"/>
  <path class="cls-2" d="M824.36,315.66c-4.3,6.41-8.05,14.33-15.71,17.16-1.31,0-2.43,1.89-3.56.57,3-7.17,9.35-14.9,16.66-17.91.77,0,1.87-.2,2.61.18h0Z"/>
  <path class="cls-2" d="M420.74,317.93c.18,2.07-1.31,2.44-2.63,3.58-1.5.19-2.24-.94-3.18-2.08-.75-1.89.94-2.64,1.87-3.58,1.5-.37,3.18.75,3.94,2.08h0Z"/>
  <path class="cls-2" d="M847.95,319.05c-1.67,2.46-.92,6.04-2.61,8.68-3.75,4.32-6.93,9.24-12.91,10.18-.93-1.89,1.31-3.78,2.25-5.47,2.63-5.65,6.37-12.07,12.36-14.51l.92,1.12h0Z"/>
  <path class="cls-2" d="M318.32,320.75c.57,1.32,1.13,2.64,0,4.15-1.12.94-2.81,1.32-4.3.75-1.68-.94-2.24-3.02-1.5-4.53,1.12-1.7,4.49-2.63,5.8-.38h0Z"/>
  <path class="cls-2" d="M307.65,323.01c.19.94.75,1.7.56,2.64-.56.94-1.49,2.08-2.61,2.26-2.06.38-3.37-.75-4.3-2.46-.19-1.69.37-3.2,1.86-3.95,1.7-.76,3.57.19,4.5,1.5h0Z"/>
  <path class="cls-2" d="M329.74,324.15c.38,1.51.75,4.15-1.5,4.52-2.63,1.14-4.12-.75-5.61-2.26,0-1.7.94-3.02,2.24-3.77,1.87-.19,3.56,0,4.86,1.51h0Z"/>
  <path class="cls-2" d="M360.44,326.59c-.18,1.33.2,3.22-1.31,3.59-.94.95-2.63.57-3.56.38-.37-1.14-2.43-2.07-1.31-3.39.74-.95,1.5-1.51,2.62-2.08,1.12.57,2.82,0,3.56,1.5h0Z"/>
  <path class="cls-2" d="M865.92,327.92c-.55,1.32-1.29,3.02-2.8,3.02-1.68-.19-3.38-.38-4.3-2.08-.75-2.07.92-3.2,2.43-3.77,1.87,0,4.3.75,4.67,2.83h0Z"/>
  <path class="cls-2" d="M831.68,328.86c.19,1.51-1.51,2.64-2.25,3.2-2.63,1.14-4.86-.74-5.81-2.82.38-1.7,1.69-2.83,3.19-3.4,2.42-.18,3.75,1.14,4.88,3.02h0Z"/>
  <path class="cls-2" d="M854.88,328.48c0,1.32-.74,2.64-1.69,3.2-1.47.57-3.34.37-4.49-.75-1.68-1.52-.36-2.84.77-3.96,1.68-.95,4.85-.75,5.41,1.51h0Z"/>
  <path class="cls-2" d="M313.45,331.69c.38,2.07-.36,3.96-2.23,4.72-1.7,0-3.57-.94-4.13-2.64-.19-1.7.37-3.39,1.87-3.95,1.87-.57,3.37.57,4.49,1.88h0Z"/>
  <path class="cls-2" d="M822.31,333.76c.56,2.07-.57,3.96-2.61,4.91-1.5.38-2.47-.38-3.56-1.33-.75-.94-1.7-3.01-.19-3.95,1.51-2.83,5.25-1.7,6.37.37h0Z"/>
  <path class="cls-2" d="M414.17,335.83c.75,2.08-1.49,2.46-2.05,3.58-.75.38-2.24.57-2.81-.18-.94-1.14-2.06-2.26-1.5-3.96.94-.75,1.31-1.51,2.43-1.88,2.07-.57,2.82,1.31,3.93,2.44h0Z"/>
  <path class="cls-2" d="M862.57,337.16c.38,1.32-.75,1.89-.95,2.83-1.12.94-2.97,1.13-4.29.75-1.69-.95-1.69-2.45-1.69-4.15,1.12-.76,1.31-1.69,2.64-2.08,1.67,0,3.75.75,4.29,2.64h0Z"/>
  <path class="cls-2" d="M850.94,337.72c.78,2.27-1.31,3.4-2.79,3.96-.75.18-1.87-.38-2.08.75,4.86,2.45,7.86,6.41,11.63,10v1.51c-6.76-.19-13.69-1.89-18.56-7.17-1.29-.94-3.54-.94-5.03-2.27,2.44-2.44,6.93-1.5,10.3-1.69,2.42-2.64-2.82-4.52.38-6.79,1.12-.19,1.87-1.33,3.37-.94,1.31.56,2.06,1.51,2.79,2.63h0Z"/>
  <path class="cls-2" d="M774.38,337.91c.36.94-.73,2.07-.92,3.02-1.14,1.13-2.82,1.32-4.13.75-.94-1.32-2.43-2.45-1.86-4.34,1.5-2.83,6.36-2.26,6.92.57h0Z"/>
  <path class="cls-2" d="M355.76,344.5c-.56,1.7-1.31,2.83-3.19,3.02-1.5-.19-2.8-.75-3.37-2.26-.19-1.32.75-2.07.94-3.02,2.05-1.7,5.79-.57,5.61,2.26h0Z"/>
  <path class="cls-2" d="M370.93,342.06c0,2.64-2.8,4.15-3.74,6.79-2.82,6.23-7.86,11.88-14.98,12.45-.75-1.7,2.44-3.77,3.18-5.47,2.99-6.41,8.98-9.81,14.42-13.77h1.12Z"/>
  <path class="cls-2" d="M769.88,344.7c.19,2.07-1.69,3.59-3.19,4.34-1.68.57-2.99-.75-3.91-1.51-1.5-1.51-.56-3.02.19-4.52,2.24-2.26,5.41-.38,6.91,1.7h0Z"/>
  <path class="cls-2" d="M781.51,346.02c-.19,2.07-1.51,3.59-3.38,4.15-.36-.56-1.31-.18-1.86-.37-1.33-.75-2.44-1.89-2.44-3.39.92-.95,1.3-2.46,2.62-2.64,1.69-.19,4.51,0,5.07,2.26h0Z"/>
  <path class="cls-2" d="M399.94,345.84c.19,2.07-1.3,3.2-2.8,3.96-1.68.19-2.81-.95-3.56-2.27-.38-1.69,1.31-2.83,2.24-3.76,2.24-.76,2.82.94,4.12,2.07h0Z"/>
  <path class="cls-2" d="M412.88,346.58c-.57,1.71-1.69,2.84-3.57,3.22-1.31-.38-2.8-.75-3.37-2.27-.18-1.88,1.31-2.83,2.63-3.76,1.87,0,3.93.74,4.32,2.82h0Z"/>
  <path class="cls-2" d="M821.74,359.78c.95.75,2.61,1.7,2.25,3.02-2.99,1.33-5.42-2.07-8.22-2.64-4.5-4.52-7.87-9.42-9.74-15.08,1.69-1.7,3.54.38,5.05.94,4.3,3.59,8.43,8.3,10.66,13.76h0Z"/>
  <path class="cls-2" d="M828.68,346.58c.55,1.32.38,2.84-.38,4.16-1.12,1.88-3.55,1.5-5.23,1.13-.95-1.13-2.64-2.64-1.51-4.34.56-1.51,2.24-1.88,3.55-2.45,1.3-.19,2.25.94,3.56,1.5h0Z"/>
  <path class="cls-2" d="M430.08,351.48c.2,1.51.57,3.78-1.31,4.71-1.68.38-3.93-.18-4.49-2.25-.93-2.26,1.12-2.64,2.24-3.78,1.5-.37,2.44.38,3.55,1.32h0Z"/>
  <path class="cls-2" d="M780.95,363.75c2.6,3.76,4.49,8.48,4.84,13.39-.56,1.32.95,2.64-.17,3.58h-.75c-8.43-6.04-10.29-14.52-13.47-23.01-.75-.38-.94-1.13-.75-1.88,1.87-1.7,3.19,1.7,5.06,2.26l5.25,5.66h0Z"/>
  <path class="cls-2" d="M454.43,357.33c-.19.19,0,.38.18.38-7.48,5.28-17.97,8.49-26.58,3.39-.19-.57.19-1.51.94-1.7,5.42-1.7,10.66-4.34,16.48-3.58l8.98,1.51h0Z"/>
  <path class="cls-2" d="M411.74,358.28c-6.36,3.96-12.17,11.69-20.03,13.58-1.5.57-2.43,2.64-4.3,1.51,3.37-10.19,14.42-15.66,24.33-16.6v1.51h0Z"/>
  <path class="cls-2" d="M769.88,366.76c.57,1.51,0,3.59-1.5,3.96-.92.94-2.81.94-3.54,0-1.7-.75-1.7-2.45-1.7-3.78.56-1.31,1.87-1.5,2.82-2.07,1.68.38,2.99.38,3.92,1.89h0Z"/>
  <path class="cls-2" d="M754.35,367.71c-1.13,2.64-4.29,4.15-6.75,4.89-6.35,2.27-12.16-.75-17.79-2.26.21-1.51,2.07-.95,3-1.89,6.18-1.32,12.55-2.64,19.12-.95.55-.37,1.86-.57,2.42.2h0Z"/>
  <path class="cls-2" d="M411.74,373.17c-.55.76-.75,2.44-2.24,3.02-1.31.57-2.62,0-3.74-.75-.38-1.14-1.69-2.07-.75-3.41.38-1.31,1.87-1.68,3-2.07,1.88.18,3.37,1.33,3.74,3.2h0Z"/>
  <path class="cls-2" d="M422.79,374.87c-.57,1.13-1.13,2.83-2.62,3.58-1.51.37-2.63-.38-3.75-1.32-.55-1.14-1.12-2.46-.55-3.77.37-.94,1.68-1.14,2.61-1.7,1.87-.19,3.56,1.7,4.31,3.21h0Z"/>
  <path class="cls-2" d="M766.32,376.75c.21,1.51-.55,2.45-1.3,3.58-.95,1.33-2.8,1.51-4.11.77-1.31-.2-1.68-1.71-2.25-2.64-1.12-1.51.75-2.46,1.33-3.78,2.04-1.7,5.41-.75,6.34,2.07h0Z"/>
  <path class="cls-2" d="M774.57,376.38c.17.94.75,1.88.36,2.64-1.12.94-1.87,3.39-4.11,2.44-1.12.38-1.68-1.13-2.25-1.5-.74-1.88-.19-4.72,2.25-5.09,1.68-.57,2.82.94,3.75,1.51h0Z"/>
  <path class="cls-2" d="M416.05,381.84c.37,2.08-.38,3.96-1.88,5.1-2.05.38-4.68.38-5.43-2.07-.18-1.89,0-4.34,2.25-5.47,1.89-.19,4.12.2,5.06,2.45h0Z"/>
  <path class="cls-2" d="M426.72,381.1c-.38,5.27-1.5,11.69-6.74,14.7-2.99.57-5.99,3.41-8.99,1.51v-.94c3.93-5.66,11.05-10,15.73-15.27h0Z"/>
  <path class="cls-2" d="M736.94,385.42c.75,1.13-.57,2.08-1.12,3.03-1.13,1.32-3.18.75-4.51.18-1.29-.57-1.5-2.45-.92-3.77.38-1.12,1.5-1.69,2.43-2.07,1.7-.19,3.19,1.33,4.12,2.63h0Z"/>
  <path class="cls-2" d="M445.45,394.11c2.61,4.33,1.12,10.18,2.61,14.89-3.18.39-4.49-3.2-6.55-5.08-4.12-5.66-3.55-13.21-5.42-19.8.37-.57.94-.57,1.31-.38,2.81,1.88,4.87,5.47,7.11,7.9-.37,1.33,1.13,1.33.94,2.46h0Z"/>
  <path class="cls-2" d="M746.31,386.94c0,1.51-1.7,1.89-2.64,2.83-1.33-.19-2.42-.76-3.54-1.71-.58-1.88.92-2.44,1.85-3.38,1.87-.76,3.76.18,4.33,2.26h0Z"/>
  <path class="cls-2" d="M768.58,403.72c0,.56-.19,1.69-1.12,1.31h-.77c-5.41-4.89-10.85-10.36-10.1-17.91l1.13-.19c5.06,4.34,10.67,9.05,10.86,16.79h0Z"/>
  <path class="cls-2" d="M754.53,397.68c.17,1.52-.74,2.64-1.68,3.59-2.07.57-5.25.38-5.62-2.45-.19-1.89,1.87-2.83,2.82-3.77,2.24-.57,3.73.94,4.48,2.63h0Z"/>
  <path class="cls-2" d="M742.18,401.64c-2.63,6.97-9.73,10.56-14.59,15.85-.95-.57-.57-2.1-.39-2.85,1.87-7.16,7.49-14.13,14.42-16.97,2.99.38,0,2.46.56,3.96h0Z"/>
  <path class="cls-2" d="M756.21,407.31c0,1.68-1.68,2.44-2.61,3.39-1.5-.19-2.99-.57-4.11-2.08-.21-1.88,1.3-2.45,2.44-3.39,1.86-.38,3.55.56,4.28,2.08h0Z"/>
  <path class="cls-2" d="M616.9,64.97c2.55,0,4.65,2.1,4.65,4.66s-2.09,4.66-4.65,4.66h-55.51c-2.55,0-4.63-2.08-4.63-4.66s2.07-4.66,4.63-4.66h55.51ZM577.66,73.03c5.42,0,.28-6.58-2.63-6.58h-5.42c-5.42,0-.29,6.58,2.61,6.58h5.44ZM600.4,73.03c5.44,0,.31-6.58-2.61-6.58h-5.42c-5.42,0-.3,6.58,2.62,6.58h5.42ZM617.17,66.45h-2.07c-5.44,0-.83,6.58,2.09,6.58,3.62,0,3.84-6.58-.03-6.58h0Z"/>
  <path class="cls-2" d="M612.04,128.67l10.63,4.07,10.43-4.07-4.13,15.61,8.24-1.71-2.8,9.47,2.8,9.08-7.32-1.99,3.21,16.84-10.43-4.06-10.63,4.06,4.33-16.84-8.46,2.38,2.27-9.47-2.27-9.08,8.07,1.32-3.94-15.61h0ZM627.72,156.82c2.37,0,2.59-3.28,2.59-6.11,0-6.44-5.11,0-7.71-6.06-1.9,5.11-7.15.38-7.15,5.87,0,3.78-.02,6.3,3.74,6.3h8.52ZM617.31,151.04c0,2.46,3.29.81,5.73.81s5.74,1.65,5.74-.81c0-3.48-3.28-2.27-5.74-2.27s-5.73-1.22-5.73,2.27h0Z"/>
  <polygon class="cls-2" points="587.22 151.63 587.22 149.65 585.44 149.32 586.84 147.87 585.97 146.27 587.79 146.47 588.89 144.53 589.98 146.43 591.82 146.27 590.95 147.87 592.35 149.32 590.57 149.65 590.57 151.63 588.89 150.38 587.22 151.63 587.22 151.63"/>
  <polygon class="cls-2" points="578.99 162.24 578.99 160.25 577.21 159.91 578.6 158.47 577.74 156.88 579.55 157.07 580.66 155.14 581.74 157.04 583.59 156.88 582.72 158.47 584.11 159.91 582.35 160.25 582.35 162.24 580.66 160.98 578.99 162.24 578.99 162.24"/>
  <polygon class="cls-2" points="592.96 160.89 592.96 158.9 591.18 158.57 592.57 157.12 591.71 155.52 593.53 155.72 594.63 153.78 595.71 155.69 597.56 155.52 596.7 157.12 598.09 158.57 596.32 158.9 596.32 160.89 594.63 159.63 592.96 160.89 592.96 160.89"/>
  <polygon class="cls-2" points="594.6 168.8 594.6 167.68 593.59 167.49 594.38 166.67 593.9 165.78 594.93 165.89 595.55 164.8 596.16 165.87 597.21 165.78 596.71 166.67 597.5 167.49 596.5 167.68 596.5 168.8 595.55 168.1 594.6 168.8 594.6 168.8"/>
  <polygon class="cls-2" points="581.63 177.86 581.63 174.46 578.58 173.89 580.97 171.4 579.49 168.67 582.61 169.01 584.5 165.69 586.35 168.97 589.51 168.67 588.04 171.4 590.42 173.89 587.37 174.46 587.37 177.86 584.5 175.71 581.63 177.86 581.63 177.86"/>
  <polygon class="cls-2" points="588.23 0 594.83 16.2 611.54 11.29 603.05 26.59 617.29 36.68 600.11 39.55 601.16 57.04 588.23 45.31 575.3 57.04 576.35 39.55 559.19 36.68 573.41 26.59 564.94 11.29 581.63 16.2 588.23 0 588.23 0"/>
  <path class="cls-2" d="M527.83,363.64c-1.98.74-2.76,1.3-2.27,3.34l2.36,9.93c.43,1.84.57,4.74-.66,6.51-1.46,2.14-4.55,3.5-6.78,4.04-1.63.39-5.16,1.04-8-.16-1.87-.8-3.09-1.66-3.9-5.02l-2.46-10.41c-.62-2.62-1.6-2.44-3.72-2.14l-.19-.78,12.56-3.01.19.77c-2.44.68-3.58.99-2.94,3.73l2.46,10.41c.42,1.77,1.45,6.07,6.79,4.79,6.54-1.56,5.48-6.35,5.01-8.35l-2.26-9.5c-.44-1.91-1.14-2.86-4.37-2.21l-.18-.78,8.17-1.96.19.78h0Z"/>
  <path class="cls-2" d="M546.43,365.72c-1.14-2.04-4.18-5.14-8.57-4.15-1.95.43-3.79,1.82-3.33,3.86.36,1.68,1.23,2.21,4.65,2.83l5.98,1.06c1.38.24,4.61,1.42,5.36,4.84.6,2.75-.94,7.07-7.81,8.59-3.54.8-5.45.11-6.61.36-.78.19-.85.78-.88,1.32l-1.08.25-1.7-7.73,1.08-.24c1.45,2.99,4.39,6.04,9.12,4.99,4.47-1,3.98-4.14,3.88-4.54-.46-2.09-2.38-2.46-5.02-2.88l-2.71-.45c-6.94-1.14-7.54-3.83-7.86-5.27-.42-1.9-.2-6.41,6.88-7.99,2.98-.67,4.97-.03,6.05-.27.85-.2.94-.7.99-1.34l1.11-.24,1.5,6.78-1.05.24h0Z"/>
  <path class="cls-2" d="M571.14,378.07l-13.57,1.31-.08-.8c2.75-.46,3.66-.61,3.41-3.29l-1.6-16.82c-2.64.38-6.54.91-6.83,6.1l-1.11.1-.48-6.43,22.81-2.19.69,6.4-1.1.1c-1.25-5.03-5.17-4.82-7.81-4.68l1.59,16.81c.27,2.71,1.19,2.69,4.01,2.57l.07.8h0Z"/>
  <path class="cls-2" d="M602.89,378.07l-7.83-.15-7.7-10.19h-1.03s-.13,6.26-.13,6.26c-.05,2.57.78,2.67,3.31,3.01l-.02.8-12.9-.26v-.8c2.63-.21,3.38-.28,3.43-2.89l.28-14.15c.06-2.76-1.13-2.85-3.3-3.02v-.8s12.31.24,12.31.24c2.67.05,10.75.47,10.65,5.86-.08,3.94-4.03,4.86-6.1,5.36l7.5,9.28c.52.59,1.09.64,1.56.64l-.02.8h0ZM586.35,366.68c5,.07,7-.6,7.08-4.77.06-3.23-1.47-4.64-4.53-4.71-2.1-.03-2.18.31-2.39,1.3l-.16,8.17h0Z"/>
  <path class="cls-2" d="M627.95,381.28l-12.29-1.54.11-.79c2.38.13,3.06.19,3.2-.86.11-.86-.81-3.36-1.22-4.45l-8.54-1.07c-1.33,2.16-2.1,3.39-2.18,3.9-.16,1.21,1.67,1.53,2.94,1.76l-.1.8-7.69-.97.1-.79c2.07,0,2.74-1.01,4.17-3.26l10.55-16.37,1.06.13,6.38,17.78c1.28,3.61,1.76,4.77,3.59,4.93l-.1.8h0ZM617.33,372.33l-2.88-8.2-4.51,7.28,7.39.92h0Z"/>
  <path class="cls-2" d="M650.17,385.81l-21.72-3.99.13-.79c2.15.17,3.31.28,3.64-1.65l2.77-15.26c.36-2.07-1.14-2.42-2.8-2.83l.12-.78,13.1,2.41-.12.78c-2.66-.38-3.83-.57-4.32,2.21l-2.71,14.88c-.26,1.52.51,1.93,3.03,2.39,5.67,1.03,8.24-1.2,10.63-4.44l1.09.2-2.85,6.88h0Z"/>
  <path class="cls-2" d="M664.6,389.04l-13.08-2.75.16-.78c2.03.27,3.54.45,3.93-1.5l3.14-15.18c.43-2.07-1.31-2.5-3.02-2.96l.16-.78,13.1,2.75-.18.78c-1.76-.3-3.56-.65-4,1.48l-3.14,15.18c-.43,2.01,1.07,2.42,3.09,2.97l-.15.78h0Z"/>
  <path class="cls-2" d="M691.15,392.44l-12.33-1.27.1-.81c2.35.09,3.04.12,3.14-.92.1-.86-.88-3.35-1.29-4.41l-8.56-.89c-1.3,2.19-2.05,3.44-2.09,3.93-.13,1.22,1.69,1.5,2.97,1.7l-.06.8-7.75-.8.1-.8c2.08-.04,2.72-1.07,4.11-3.34l10.21-16.59,1.07.11,6.76,17.64c1.35,3.59,1.86,4.74,3.67,4.86l-.05.8h0ZM680.31,383.71l-3.04-8.14-4.35,7.38,7.39.77h0Z"/>
  <path class="cls-2" d="M593.5,133.85c0-7.7-4.32-.49-6.71-7.03-1.75,5.53-6.94.87-6.94,6.82,0,2.28.58,3.59,1.68,4.32v2.27c0,.6.47,1.07,1.06,1.07h8.17c.59,0,1.06-.47,1.06-1.07v-2.46c.99-.84,1.66-2.17,1.66-3.92h0ZM586.84,135.32c-2.26,0-5.28,1.55-5.28-1.12,0-3.76,2.56-2.93,4.8-2.93s5.74-.83,5.74,2.93c0,2.67-3.02,1.12-5.26,1.12h0Z"/>
  <path class="cls-2" d="M660.48,228.33c1.96,0,3.54-1.4,3.54-3.11s-1.58-3.11-3.54-3.11-3.52,1.4-3.52,3.11,1.6,3.11,3.52,3.11h0Z"/>
  <path class="cls-2" d="M643.89,114.29s-1.64,2.78-1.64,3.32c0,1.01.74,1.84,1.68,1.84s1.68-.83,1.68-1.84c0-.07-1.71-3.32-1.71-3.32h0Z"/>
  <path class="cls-2" d="M530.82,114.29s-1.66,2.78-1.66,3.32c0,1.01.75,1.84,1.68,1.84s1.68-.83,1.68-1.84c0-.07-1.7-3.32-1.7-3.32h0Z"/>
  <path class="cls-2" d="M559.09,114.29s-1.66,2.78-1.66,3.32c0,1.01.76,1.84,1.68,1.84s1.67-.83,1.67-1.84c0-.07-1.7-3.32-1.7-3.32h0Z"/>
  <path class="cls-2" d="M587.35,114.29s-1.65,2.78-1.65,3.32c0,1.01.76,1.84,1.68,1.84s1.68-.83,1.68-1.84c0-.07-1.71-3.32-1.71-3.32h0Z"/>
  <path class="cls-2" d="M615.62,114.29s-1.65,2.78-1.65,3.32c0,1.01.75,1.84,1.68,1.84s1.69-.83,1.69-1.84c0-.07-1.71-3.32-1.71-3.32h0Z"/>
  <path class="cls-2" d="M530.87,153.1s1.65,2.78,1.65,3.31c0,1.02-.75,1.84-1.68,1.84s-1.68-.82-1.68-1.84c0-.06,1.71-3.31,1.71-3.31h0Z"/>
  <path class="cls-2" d="M530.87,190.81s1.65,2.79,1.65,3.31c0,1.02-.75,1.84-1.68,1.84s-1.68-.83-1.68-1.84c0-.05,1.71-3.31,1.71-3.31h0Z"/>
  <path class="cls-2" d="M535.39,220.67s1.67,2.8,1.67,3.32c0,1.01-.76,1.84-1.7,1.84s-1.68-.82-1.68-1.84c0-.06,1.71-3.32,1.71-3.32h0Z"/>
  <path class="cls-2" d="M559.11,236.54s1.65,2.78,1.65,3.31c0,1.01-.75,1.84-1.67,1.84s-1.69-.83-1.69-1.84c0-.05,1.71-3.31,1.71-3.31h0Z"/>
  <path class="cls-2" d="M645.33,153.1s-1.65,2.78-1.65,3.31c0,1.02.75,1.84,1.68,1.84s1.68-.82,1.68-1.84c0-.06-1.7-3.31-1.7-3.31h0Z"/>
  <path class="cls-2" d="M645.33,190.81s-1.65,2.79-1.65,3.31c0,1.02.75,1.84,1.68,1.84s1.68-.83,1.68-1.84c0-.05-1.7-3.31-1.7-3.31h0Z"/>
  <path class="cls-2" d="M640.8,220.67s-1.64,2.8-1.64,3.32c0,1.01.73,1.84,1.68,1.84s1.67-.82,1.67-1.84c0-.06-1.7-3.32-1.7-3.32h0Z"/>
  <path class="cls-2" d="M617.09,236.54s-1.64,2.78-1.64,3.31c0,1.01.74,1.84,1.66,1.84s1.69-.83,1.69-1.84c0-.05-1.71-3.31-1.71-3.31h0Z"/>
  <path class="cls-2" d="M588.23,253.36s-1.65,2.78-1.65,3.31c0,1.01.75,1.85,1.68,1.85s1.68-.84,1.68-1.85c0-.06-1.7-3.31-1.7-3.31h0Z"/>
  <path class="cls-2" d="M634.22,197.1c.35.54,1.26.72,2.38.33l1.07-3.05c.1-.21-1.24-1.42-2.02-1.23-3.02.72-6.23,1.08-8.01,3.94,0,1.97,1.44,3.76,2.86,4.66,1.07-.37,1.24.71,1.95,1.25.19.9-.34,1.62-1.24,1.62-2.13-2.15-5.87.72-7.47-1.98.72-2.68,2.14-5.73-.18-8.24.18-.54,1.07-1.08.52-1.61-.88-2.51-3.55-.54-5.14-.54-2.66-.36-4.8,1.08-6.41,3.22.17.91.53,1.8,1.41,2.69.73-.17,1.09,0,1.26.72l-1.78,1.08c.51.53.51,1.26.71,1.97-1.25.53-2.48-1.26-3.02-2.15,0-1.43.17-3.94-1.8-4.3-.35,0-1.52.53-1.52.53-.46.55-.74,1.66-.74,2.96s.71,3.2.71,3.2c0,0,5.5,4.06,6.72,6.57-1.61,3.22-1.61,7.7-5.34,9.49-1.06.71-1.06,1.79-1.06,2.86l.88.72c2.32-1.26,6.76-1.61,6.41-5.55.9-1.62,1.78-3.4,3.38-4.66,1.78-.36,3.38.54,4.09,1.97-.54,2.69-2.31,4.47-4.79,5.37-.34.36-.17.9-.17,1.44.7,1.25,2.65.71,3.72.54,3.03-1.98,4.28-5.56,6.96-6.63.34,1.79-3.57,2.33-1.08,4.12,1.61-.36,3.73.18,4.8-1.97-1.26-3.05,4.28-4.48.88-7.16,0-2.68,2.86-3.76,2.68-6.63-1.07-2.86-4.44-2.86-5.33-5.55,1.07-.71,2.65-.54,3.72,0h0Z"/>
  <path class="cls-2" d="M504.32,229.69c1.95,0,3.53-1.39,3.53-3.11s-1.59-3.1-3.53-3.1-3.53,1.39-3.53,3.1,1.58,3.11,3.53,3.11h0Z"/>
  <path class="cls-2" d="M320.97,336.81c1.92,0,3.47-1.49,3.47-3.33s-1.54-3.33-3.47-3.33-3.48,1.49-3.48,3.33,1.56,3.33,3.48,3.33h0Z"/>
  <path class="cls-2" d="M437.66,362.82h-.23l-.22-.29h-.04v.18c0,.07.03.08.09.08v.02h-.37v-.02c.08,0,.1-.01.1-.08v-.41c0-.07-.03-.08-.1-.09v-.02h.36c.07,0,.32.01.32.16,0,.12-.12.15-.18.16l.23.26s.03.02.04.02v.02h0ZM437.17,362.5c.15,0,.21-.02.21-.15,0-.09-.05-.13-.13-.13-.07,0-.07,0-.07.04v.24h0Z"/>
  <path class="cls-2" d="M438.15,362.38c-.02-.07-.09-.17-.22-.17-.06,0-.12.02-.12.08s.02.08.11.12l.16.07s.12.08.12.18c0,.08-.06.19-.27.19-.1,0-.16-.03-.19-.03-.02,0-.03.02-.04.03h-.04v-.23h.04c.02.09.09.2.23.2.13,0,.14-.09.14-.11,0-.06-.06-.07-.13-.1l-.08-.04c-.19-.08-.19-.16-.19-.2,0-.06.04-.19.25-.19.09,0,.15.04.17.04.03,0,.04-.02.04-.04h.03v.21h-.03Z"/>
  <path class="cls-2" d="M439.32,362.22s-.06.03-.08.07l-.22.56h-.04l-.18-.44h0l-.21.44h-.03l-.23-.56s-.04-.06-.08-.07v-.02h.33v.02s-.07.01-.07.04c0,0,0,.03,0,.04l.12.34h.01l.13-.29-.04-.09s-.02-.02-.09-.03v-.02h.36v.02s-.08,0-.08.04c0,0,.01.04.02.05l.12.32h0l.12-.33s0,0,0-.03c0-.04-.04-.04-.08-.04v-.02h.21v.02h0Z"/>
  <path class="cls-2" d="M439.35,362.81c.11-.02.25-.06.31-.24-.02,0-.03.01-.05.02h-.05c-.08,0-.21-.03-.21-.19,0-.05.04-.21.24-.21.1,0,.26.05.26.28,0,.17-.16.35-.5.38v-.03h0ZM439.62,362.55s.04,0,.04-.02c0-.01,0-.06,0-.08,0-.18-.01-.24-.09-.24-.07,0-.07.05-.07.13,0,.13.03.21.11.21h0Z"/>
  <path class="cls-2" d="M440,362.39c.09,0,.16,0,.24.04.04.02.12.09.12.18,0,.12-.12.22-.33.22-.08,0-.15-.03-.15-.08,0-.02.03-.06.07-.06.07,0,.14.09.21.09.04,0,.11-.02.11-.1,0-.04-.06-.1-.12-.12-.08-.04-.16-.04-.24-.04l.11-.33h.36l-.05.12h-.3l-.02.08h0Z"/>
  <path class="cls-2" d="M653.29,109.81v-.07h-130.48v.07h-.02l.1,99.71c0,10.17,4.3,19.06,10.25,21.79l50.18,31.87c1.11,1.26,2.75,2.06,4.58,2.06,1.59,0,3.01-.62,4.08-1.59l50.96-32.33c5.96-2.74,10.25-11.62,10.25-21.79l.11-99.71h-.01ZM649.62,210.85c-.69,7.54-3.25,13.83-8.48,17.38l-49.18,31.27h-.27c-1.04.83-2.35,1.34-3.79,1.34s-2.79-.53-3.85-1.39l-49.1-31.22c-5.22-3.55-7.78-9.84-8.48-17.38v-97.53h123.14v97.53h0Z"/>
  <path class="cls-2" d="M605.6,255.13l1.6-.75c-.66.24-1.16.49-1.6.75h0Z"/>
  <path class="cls-2" d="M507.2,391.42l-12.3,1.43-.08-.8c2.33-.43,3.01-.54,2.89-1.59-.1-.86-1.58-3.08-2.23-4.03l-8.54.99c-.8,2.42-1.26,3.79-1.19,4.3.13,1.2,1.97,1.09,3.27,1l.09.8-7.7.88-.09-.79c2.02-.49,2.42-1.64,3.29-4.15l6.41-18.41,1.07-.13,10.37,15.76c2.11,3.21,2.83,4.22,4.66,3.95l.08.78h0ZM494.77,385.26l-4.72-7.29-2.68,8.15,7.41-.86h0Z"/>
  <path class="cls-2" d="M723.28,344.7c-2.27-5.85-6.93-9.8-12.74-11.69-5.98-1.32-12.36-.39-16.28,4.15-6.75,5.47-2.06,14.52-1.87,21.87,0,1.51.18,2.64-1.33,3.39-27.13-2.44-52.41-9.24-79.37-12.06-6.2-1.07-12.41-.79-18.3-2.04l-7.53-.79c-23.4.76-46.8,2.08-68.71,7.73-4.68,1.5-9.92,1.88-14.6,3.58-3.36-.57-6.18,1.89-9.36.94l-6.16,1.45c-.58.1-1.27.07-2.07-.13-3-7.73,5.99-12.45,3.18-19.99-2.44-4.34-7.31-8.49-12.92-7.73-6.37-.77-11.98,2.83-14.97,7.73-4.3,9.42,1.12,19.23,2.8,28.47-.37,3.02,3,6.41,0,8.86-5.99-4.15-13.86-6.42-21.16-4.35-2.24,1.14-6.35-.37-7.48,2.27,8.06,4.34,18.35,3.77,27.34,3.39,1.12-.38,1.87-.57,2.8.19.76,4.9-.94,11.5,2.07,15.83,3.36,4.53,8.99,5.66,14.41,6.23,17.24-.57,32.58-5.65,48.31-9.61,2.44-.19,4.3-1.51,6.92-1.51,8.42-1.89,17.6-3.4,26.59-3.58-3.93,5.09-6.18,10.74-7.86,16.96-2.25,5.1,3.93,5.84,5.8,8.68-5.8,1.69-9.92,5.67-15.35,7.93-11.98-.39-22.09,4.13-33.32,5.45-.19,2.48,3.93,1.71,4.3,4.16-.56,1.7-2.24,1.9-3.56,2.83-.19,1.13,0,1.33,1.13,1.52,1.12-1.34,3.56-.39,4.67-1.71,3.75,0,6.93-1.12,10.49-1.31,3.19-1.33,6.74-1.52,9.55-3.77,3.93-1.14,6.37-3.78,10.29-4.9,5.62,0,10.67-1.9,15.92-2.26v1.12c-4.32,6.97-8.8,14.15-13.3,20.75-.75,1.31.19,2.65,1.31,3.02,2.63.74,5.25,0,7.3-1.12,3.93-6.81,7.49-13.21,10.68-20.21,1.31-6.4,5.99-9.79,10.66-14.12.75-.38,1.88-1.5,2.63-.38-3.74,4.34-6.18,8.49-8.99,13.22-1.5,5.25-1.88,12.05,2.81,16.39,2.25,1.89,5.62,1.31,8.62,1.52,7.3-3.77,16.66,2.26,22.3-4.9,3.33-.58,3.91,3.38,5.76,5.27,3.21.95,6.58,4.15,9.75,1.9-.2-2.08-2.43-3.98-3.55-5.85-2.25-3.96-5.06-7.17-7.1-10.75-.95-2.64-2.65-4.35-3.02-6.97,3.38,1.13,6.36,3.39,10.12,3.95,3.17,1.31,7.13,1.13,10.12,3.02,2.43,3.2,6.16,5.1,9.34,7.16,4.68,2.27,9.92,2.64,14.8,4.54,1.86.17,4.68,1.69,5.99,0-.78-.95-1.68-1.52-2.82-2.08-.56-2.46,3.38-1.14,4.68-3.02-.46-.94-1.28-1.3-2.18-1.42-2.67-1.46-9.34-1.94-11.11-2.93-2.24-.38-4.3-1.31-6.54-2.07-11.25,0-17.41-10.18-26.41-13.95,2.07-1.89,5.25-3.4,6.57-6.22,1.68-2.64,2.24-6.98.56-10-1.68-5.84-9.19-5.1-13.47-8.29l.56-.57c7.28-.38,13.67,1.32,20.21,2.64,17.97,2.44,34.63,9.24,53.36,9.61,10.31,0,23.23.57,28.26-9.43.95-5.84,2.07-11.68,3.01-17.53,2.24-9.42,8.42-18.1,7.49-28.47h0ZM521.08,430.69l-2.61-2.46c1.3-1.68,4.12-.75,6.17-1.9,4.87-1.5,10.48-3.39,15.92-2.25-5.62,4.51-12.92,5.1-19.48,6.6h0ZM637.97,427.67c4.46,2.04,13.47,3.99,19.94,4.73-.56,2.55-5.13.16-4.61,3.76-5.79-2.26-12.54-3.38-16.84-7.92.36-.19.75-.74,1.51-.57h0ZM462.29,347.53c.55-3.39,1.3-6.97,4.48-9.43,4.5-2.45,10.68-1.88,14.8.57,1.31.75,2.25,1.89,3,3.58.93,3.21-.57,6.6-2.82,8.49h-1.87c0-3.02,0-6.04,1.12-8.49-.19-2.26-2.06-2.46-3.55-3.4-3.19-.94-6,.57-8.43,1.89-1.87,2.26-3.56,5.1-2.43,8.3,1.31,2.07.18,4.9.93,7.16l-.56.76c-2.23-2.45-5.23-5.09-4.67-9.43h0ZM471.09,352.92c2.8,2.07,6.73,1.12,10.11,1.7.55,2.07.55,4.71-.94,6.41-3.18-.75-7.3-.37-8.99-3.39.38-1.33-.56-3.2-.18-4.71h0ZM470.53,346.58c.57-1.5,0-3.76,2.06-4.14,1.3-.38,3.37-.38,3.56,1.14-.19,2.26-.37,4.51-.94,6.59-2.62.19-3.93-1.32-4.68-3.59h0ZM558.32,407.11c-.93-6.59,1.7-12.25,6.01-16.98,2.61-.56,5.61-1.12,8.05.39-4.87,1.32-11.05,2.44-12.18,8.68.2,2.44-.56,3.76.57,5.83,2.06,3.59,6.74,2.08,9.36,4.9,0,.95-.74,2.08-1.68,2.27-3.19-1.89-7.12-2.64-10.12-5.1h0ZM551.59,420.11c4.5-1.87,9.17-5.84,14.24-4.14-3.57,2.82-9.37,3.96-14.24,4.14h0ZM569.38,422.01c-2.63,6.04-5.62,11.88-9.18,17.73-.37.95-1.88,1.12-2.99,1.33,0-2.64,2.62-4.72,3.75-6.98,3.93-5.11,5.05-10.57,9.53-15.46,1.13,1.13-1.11,1.87-1.11,3.38h0ZM574.06,411.07v.75h-.37v-.93h.75c-.18,0-.57,0-.75.18h.37ZM572.38,405.97c-3.19-.36-6.19-1.31-8.99-2.25-1.88-1.88,0-3.96,0-6.04,2.61-4.14,10.1-6.22,13.66-2.44-.57,4.15-2.06,7.73-4.67,10.74h0ZM576.48,405.97c.57-2.44,1.7-5.65,3-7.91-.18,2.46-1.3,5.85-3,7.91h0ZM578.55,390.71c-2.43-.57-3.75-3.39-6.36-3.39,2.24-.77,4.49-.57,7.11-.2.94,1.33-.57,2.45-.75,3.58h0ZM580.79,396.37h-.18v-2.08h.18v2.08h0ZM580.98,405.03c-.19-.75.38-1.69.56-2.63.94-.94,1.88.76,2.25,1.32-.56.94-1.69,1.51-2.81,1.31h0ZM583.8,393.35c.93-2.64,1.13-4.9,2.81-6.98,1.87,0,3.56,0,5.05.75.38,3.78,5.06,8.86,0,12.08-1.68.75-4.11,2.44-5.98.75-2.43-2.08-2.82-3.96-1.87-6.6h0ZM597.46,388.06c-.38-1.69,1.68-.37,2.43-1.12l5.8.38c-2.99-.38-6.74,6.6-8.23.74h0ZM606.84,390.53c-2.26.75-3.94,3.39-6.19,3.96,1.12-2.07,3.93-4.15,6.19-3.96h0ZM598.96,402.21v.57h-.19v-.57h.19ZM599.33,413.7c-.19.38.18.95-.38,1.33l-4.3-3.38c2.06-.36,3.56.56,4.68,2.05h0ZM594.28,407.86c.37-.37,1.31-.37,1.69,0h-1.69ZM591.65,405.03c.75-1.12,1.68-2.82,3-2.82,0,.19.19.38.38.57-1.12.94-2.06,1.88-3.37,2.25h0ZM587.35,404.67h-.74l1.12-1.14c.57.38-.18.75-.38,1.14h0ZM587.91,411.82c2.43-2.62,4.69,1.52,5.63,3.58,2.81,4.16,10.1,7.95,7.3,13.58-3.56,3.22-9.18.21-13.11,2.66-2.06-.19-5.62.38-6.74-1.71,2.06-6.03,3.94-12.83,6.92-18.11h0ZM582.67,415.39l.94-1.48c-1.5,4.51-3.75,9.24-6.18,13.57-1.12-4.54,3.56-8.12,5.25-12.09h0ZM590.91,437.84c-3.56.19-8.99,2.27-12.36-.73.19-1.53-1.5-2.26-1.31-3.78,3-1.13,5.61,2.44,8.43-.19,4.3.19,8.8-.57,13.09.38,2.07.57,5.26-3.38,5.62.57-1.49,6.23-8.97,1.89-13.47,3.76h0ZM601.77,410.7v-.57h.37v.57h-.37ZM602.89,422.58c.19,1.86,2.06,2.64.94,4.33-.38-.74-1.5-2.47-.94-4.33h0ZM608.13,433.89l-.93.38c-.92-.75-.56-2.82-.36-3.96,1.09.95,2.07,2.26,1.29,3.59h0ZM617.5,438.42c-.19.55-1.13.55-1.5.17-5.62-7.15-8.24-14.7-11.81-22.62l.75-.19c4.5,7.37,8.06,15.47,12.55,22.64h0ZM624.42,421.06c-.38.2-.38.58-.38.77-5.42.18-8.99-3.03-13.1-5.85l-.19-.95c5.06.36,9.17,3.6,13.67,6.03h0ZM619.54,395.99c2.25.57,2.44,3.02,2.64,4.89-.2,4.15-2.43,7.74-6.37,9.25-2.04,1.16-5.24,1.52-7.3.76,4.5-.19,9.36-1.89,11.24-6.41l-.21-8.49h0ZM615.45,395.24c.92,2.63,2.6,5.09,1.66,8.29-1.85,3.58-5.62,3.58-8.99,4.33-1.69.2-2.99-.37-4.29-1.31.19-.75-.19-1.31-.75-1.88.55-2.46-4.32-4.91-.94-6.99,2.99-2.82,10.09-9.23,13.3-2.44h0ZM710.54,381.47c-1.5,1.89-.18,4.91-2.04,6.6,0,3.4-2.82,5.1-5.25,6.42-22.28,4.9-44.19-2.64-65.71-6.42-30.14-6.6-65.34-8.47-96.05-1.51-14.42,2.65-28.45,6.04-42.3,10-8.62,1.12-17.97,2.45-26.22-.19-6.73-3.2-3.93-11.88-6-17.91.38-4.72-1.3-8.49-1.49-13.01-.57-1.51-.94-3.39-.74-4.91,2.79.38,5.61,2.46,8.6,3.21,15.73,3.01,29.77-2.07,44.37-4.72,14.05-3.02,28.46-5.47,43.25-6.6,16.84-.19,34.07-1.13,50.15,1.7,5.25.19,9.75,1.51,14.79,1.89,10.51,1.32,20.25,4.15,30.9,4.9,1.69.57,3.75.57,5.63.95,16.83,2.64,35.75,7.36,51.85,0,0,6.78-2.82,13.01-3.75,19.6h0ZM705.3,358.47c.18,3.01-2.61,2.26-4.12,3.39h-4.5c-.92-1.51-.55-3.78-.55-5.28,3,.57,6.36.57,9.17,1.89h0ZM703.24,353.75c2.06-2.07-.56-13.96,5.25-6.23,0,1.51.17,3.78-1.32,4.91-.95.75-2.44,2.26-3.93,1.32h0ZM718.39,351.87c-1.68,3.39-4.29,5.84-8.04,6.41.18-4.52,4.29-7.73,2.8-12.82-2.42-3.59-7.31-4.71-11.78-3.77-1.68,1.13-.95,3.02-1.51,4.72l-.73,6.21c-3.77,0-3.95-3.39-5.06-6.04.18-3.95,1.87-7.91,5.79-9.8,3.01-1.51,7.88-1.31,10.87.38,2.42.56,5.24,1.69,6.19,3.96,2.78,2.65,2.05,7.36,1.47,10.75h0Z"/>
  <line class="cls-3" y1="647.04" x2="1174.72" y2="647.04"/>
  <path class="cls-1" d="M118.52,737.02c7.12,1.64,12.11,3.66,14.99,6.04,4.12,3.34,6.19,7.69,6.19,13.04,0,5.63-2.26,10.31-6.8,13.98-5.57,4.47-13.66,6.71-24.28,6.71h-38.11v-2.07c3.46,0,5.81-.3,7.02-.95,1.26-.63,2.13-1.5,2.6-2.53.52-1.02.78-3.56.78-7.64v-48.67c0-4.05-.26-6.6-.78-7.64-.47-1.06-1.34-1.92-2.6-2.53-1.25-.63-3.59-.95-7.02-.95v-2.07h35.95c8.59,0,14.68.79,18.25,2.34,3.58,1.51,6.4,3.81,8.46,6.86,2.06,3.04,3.1,6.27,3.1,9.68,0,3.64-1.31,6.85-3.93,9.69-2.61,2.79-7.23,5.02-13.83,6.69h0ZM98.39,735.52c5.23,0,9.09-.6,11.56-1.77,2.51-1.18,4.43-2.83,5.75-4.96,1.33-2.15,1.99-4.89,1.99-8.2s-.66-6.02-1.99-8.13c-1.29-2.13-3.15-3.76-5.59-4.86-2.44-1.11-6.34-1.64-11.72-1.59v29.52h0ZM98.39,739.85v24.05l-.06,2.77c0,1.97.5,3.48,1.5,4.52,1.03,1,2.55,1.48,4.53,1.48,2.96,0,5.67-.63,8.14-1.92,2.5-1.31,4.43-3.23,5.76-5.72,1.32-2.5,1.99-5.28,1.99-8.34,0-3.5-.81-6.61-2.43-9.39-1.62-2.82-3.86-4.77-6.69-5.89-2.84-1.09-7.08-1.63-12.72-1.58h0Z"/>
  <path class="cls-2" d="M192.92,725.09v40.47c0,3.94.36,6.42,1.11,7.42.74.96,2.23,1.56,4.48,1.82v1.99h-21.07v-6.91c-2.48,2.94-4.95,5.08-7.42,6.47-2.48,1.31-5.24,1.97-8.29,1.97s-5.52-.88-7.8-2.65c-2.26-1.8-3.76-3.91-4.54-6.3-.77-2.41-1.16-6.59-1.16-12.56v-20.53c0-3.9-.36-6.34-1.11-7.31-.7-.95-2.19-1.58-4.47-1.87v-2.02h21.07v35.31c0,3.7.17,6.08.5,7.15.37,1.06.92,1.9,1.66,2.43.77.55,1.66.83,2.65.83,1.33,0,2.52-.35,3.6-1.05,1.47-.97,3.24-2.89,5.31-5.81v-27.66c0-3.9-.38-6.34-1.11-7.31-.7-.95-2.2-1.58-4.49-1.87v-2.02h21.08Z"/>
  <path class="cls-2" d="M222.9,725.09v11.71c3.43-5.36,6.43-8.89,9.02-10.63,2.59-1.79,5.07-2.66,7.47-2.66,2.06,0,3.7.66,4.93,1.95,1.26,1.24,1.87,3.04,1.88,5.35,0,2.48-.6,4.43-1.82,5.76-1.19,1.37-2.62,2.06-4.31,2.06-1.96,0-3.66-.62-5.09-1.9-1.45-1.23-2.29-1.93-2.54-2.09-.38-.22-.8-.33-1.28-.33-1.07,0-2.08.41-3.05,1.22-1.51,1.25-2.65,3.04-3.43,5.36-1.18,3.59-1.77,7.53-1.77,11.86v11.87l.06,3.1c0,2.1.12,3.47.38,4.05.44.98,1.09,1.73,1.94,2.2.88.45,2.35.73,4.42.84v1.99h-27.92v-1.99c2.24-.19,3.75-.8,4.53-1.82.81-1.07,1.22-3.87,1.22-8.37v-28.6c0-2.94-.15-4.83-.44-5.64-.36-1.02-.89-1.78-1.6-2.26-.7-.49-1.93-.8-3.7-1v-2.02h21.12Z"/>
  <path class="cls-1" d="M289.86,749.07h-28.37c.33,6.87,2.15,12.28,5.48,16.27,2.54,3.06,5.6,4.6,9.17,4.6,2.21,0,4.23-.61,6.03-1.82,1.81-1.26,3.75-3.5,5.81-6.71l1.88,1.23c-2.8,5.7-5.9,9.77-9.29,12.17-3.39,2.36-7.32,3.53-11.78,3.53-7.67,0-13.49-2.94-17.43-8.83-3.17-4.77-4.76-10.65-4.76-17.71,0-8.63,2.32-15.5,6.97-20.59,4.68-5.12,10.16-7.7,16.42-7.7,5.24,0,9.78,2.16,13.61,6.48,3.87,4.29,5.96,10.64,6.25,19.08h0ZM276.25,745.37c0-5.93-.33-10.02-.99-12.23-.63-2.21-1.62-3.89-2.99-5.03-.77-.66-1.81-1-3.1-1-1.92,0-3.48.95-4.71,2.82-2.17,3.28-3.26,7.79-3.26,13.5v1.95h15.05Z"/>
  <path class="cls-1" d="M322.62,769.16c-6.31,5.54-11.97,8.34-16.99,8.34-2.95,0-5.39-.95-7.35-2.88-1.96-1.93-2.93-4.37-2.93-7.28,0-3.96,1.69-7.49,5.09-10.63,3.39-3.16,10.79-7.37,22.18-12.61v-5.19c0-3.94-.23-6.36-.66-7.37-.41-1.02-1.2-1.91-2.38-2.65-1.18-.78-2.51-1.17-3.98-1.17-2.4,0-4.37.54-5.92,1.62-.96.66-1.44,1.43-1.44,2.31,0,.79.52,1.74,1.55,2.86,1.4,1.63,2.1,3.15,2.1,4.61,0,1.82-.67,3.37-2.04,4.63-1.33,1.28-3.08,1.9-5.25,1.9-2.32,0-4.28-.7-5.87-2.09-1.54-1.41-2.32-3.05-2.32-4.92,0-2.66,1.05-5.17,3.15-7.58,2.1-2.43,5.03-4.3,8.79-5.59,3.76-1.29,7.67-1.95,11.73-1.95,4.89,0,8.77,1.07,11.61,3.16,2.88,2.07,4.74,4.3,5.59,6.76.52,1.53.77,5.11.78,10.66v20.08c0,2.36.09,3.87.28,4.48.18.58.46,1.05.83,1.34.37.29.79.44,1.27.44.96,0,1.93-.68,2.93-2.04l1.66,1.31c-1.85,2.75-3.76,4.73-5.75,5.98-1.95,1.23-4.19,1.82-6.69,1.82-2.95,0-5.25-.68-6.91-2.04-1.66-1.39-2.68-3.5-3.04-6.3h0ZM322.62,765.11v-17.32c-4.46,2.64-7.78,5.44-9.96,8.42-1.43,1.98-2.16,4.02-2.16,6.02,0,1.7.61,3.2,1.82,4.5.92.98,2.22,1.5,3.87,1.5,1.84,0,3.98-1.03,6.42-3.11h0Z"/>
  <path class="cls-2" d="M393.86,725.09v40.47c0,3.94.37,6.42,1.11,7.42.73.96,2.23,1.56,4.48,1.82v1.99h-21.07v-6.91c-2.48,2.94-4.94,5.08-7.42,6.47-2.47,1.31-5.23,1.97-8.29,1.97s-5.51-.88-7.79-2.65c-2.26-1.8-3.77-3.91-4.54-6.3-.78-2.41-1.16-6.59-1.16-12.56v-20.53c0-3.9-.37-6.34-1.11-7.31-.7-.95-2.2-1.58-4.48-1.87v-2.02h21.07v35.31c0,3.7.16,6.08.5,7.15.36,1.06.92,1.9,1.66,2.43.78.55,1.66.83,2.65.83,1.33,0,2.53-.35,3.59-1.05,1.48-.97,3.25-2.89,5.32-5.81v-27.66c0-3.9-.38-6.34-1.11-7.31-.7-.95-2.2-1.58-4.49-1.87v-2.02h21.07Z"/>
  <path class="cls-1" d="M453.96,723.51c4.5,0,8.69,1.18,12.55,3.5,3.88,2.32,6.8,5.62,8.8,9.9,2.03,4.28,3.05,8.95,3.05,14.06,0,7.32-1.87,13.46-5.6,18.41-4.49,5.96-10.7,8.95-18.64,8.95s-13.77-2.71-17.97-8.17c-4.21-5.46-6.3-11.77-6.3-18.99s2.13-13.86,6.41-19.33c4.32-5.55,10.22-8.32,17.7-8.32h0ZM454.19,727.45c-1.89,0-3.51.7-4.87,2.15-1.32,1.4-2.21,4.22-2.66,8.4-.4,4.18-.61,9.97-.61,17.44,0,3.95.26,7.63.78,11.05.4,2.61,1.27,4.61,2.6,5.97,1.33,1.36,2.84,2.07,4.54,2.07s3.05-.46,4.15-1.39c1.44-1.28,2.4-3.02,2.88-5.28.74-3.48,1.11-10.57,1.11-21.23,0-6.25-.35-10.55-1.05-12.89-.7-2.36-1.73-4.06-3.1-5.13-.95-.78-2.21-1.17-3.76-1.17h0Z"/>
  <path class="cls-2" d="M505.49,730.49v35.9c0,3.48.37,5.64,1.11,6.52,1.17,1.36,3.36,1.99,6.53,1.9v1.99h-30.48v-1.99c2.32-.05,3.96-.29,4.93-.78.99-.52,1.67-1.23,2.04-2.1.37-.89.55-2.74.55-5.53v-35.9h-7.51v-5.4h7.51v-3.84l-.05-2.6c0-5.3,1.93-9.73,5.81-13.27,3.91-3.54,9.17-5.31,15.81-5.31,4.54,0,7.89.85,10.07,2.55,2.21,1.7,3.32,3.57,3.32,5.62,0,1.67-.68,3.13-2.04,4.33-1.38,1.22-3.18,1.82-5.43,1.82-1.92,0-3.45-.49-4.59-1.48-1.1-1-1.66-2.09-1.66-3.33,0-.32.12-1,.33-2.02.15-.63.22-1.24.23-1.79,0-.77-.23-1.34-.66-1.71-.59-.55-1.32-.83-2.17-.83-1.07,0-1.97.43-2.7,1.31-.7.9-1.05,2.31-1.05,4.26l.11,9.68v6.61h7.64v5.4h-7.64Z"/>
  <path class="cls-2" d="M593.36,751.23l20.36-49.47h30.52v2.07h-2.43c-2.21,0-3.98.39-5.31,1.17-.91.5-1.64,1.39-2.2,2.59-.41.89-.62,3.2-.62,6.92v49.44c0,3.84.21,6.23.62,7.2.39.95,1.23,1.8,2.48,2.53,1.25.72,2.93,1.05,5.03,1.05h2.43v2.07h-39.16v-2.07h2.43c2.21,0,3.98-.38,5.33-1.14.92-.52,1.64-1.41,2.21-2.66.39-.89.58-3.21.58-6.97v-55.6l-28.75,68.44h-1.33l-29.21-67.93v52.82c0,3.68.1,5.96.27,6.81.48,1.85,1.51,3.34,3.09,4.52,1.62,1.13,4.15,1.7,7.58,1.7v2.07h-25.66v-2.07h.77c1.67.05,3.21-.2,4.65-.77,1.44-.6,2.52-1.36,3.27-2.32.73-.95,1.3-2.3,1.71-4.04.06-.4.1-2.29.1-5.64v-47.45c0-3.82-.2-6.16-.6-7.09-.41-.96-1.24-1.79-2.49-2.49-1.25-.73-2.93-1.09-5.03-1.09h-2.38v-2.07h30.65l21.07,49.47h0Z"/>
  <path class="cls-1" d="M687.12,749.07h-28.38c.34,6.87,2.16,12.28,5.48,16.27,2.54,3.06,5.61,4.6,9.17,4.6,2.23,0,4.23-.61,6.03-1.82,1.81-1.26,3.76-3.5,5.83-6.71l1.87,1.23c-2.8,5.7-5.88,9.77-9.29,12.17-3.38,2.36-7.32,3.53-11.77,3.53-7.69,0-13.47-2.94-17.44-8.83-3.17-4.77-4.75-10.65-4.75-17.71,0-8.63,2.33-15.5,6.98-20.59,4.68-5.12,10.14-7.7,16.43-7.7,5.24,0,9.75,2.16,13.61,6.48,3.86,4.29,5.93,10.64,6.24,19.08h0ZM673.52,745.37c0-5.93-.34-10.02-1.01-12.23-.62-2.21-1.62-3.89-2.98-5.03-.78-.66-1.8-1-3.09-1-1.92,0-3.5.95-4.72,2.82-2.18,3.28-3.26,7.79-3.26,13.5v1.95h15.05Z"/>
  <path class="cls-2" d="M711.84,706.17v18.92h12.29v5.45h-12.29v31.93c0,2.98.13,4.91.39,5.79.3.85.79,1.56,1.5,2.12.71.51,1.35.78,1.93.78,2.41,0,4.68-1.82,6.82-5.5l1.65,1.22c-2.99,7.09-7.83,10.63-14.54,10.63-3.28,0-6.07-.9-8.34-2.7-2.26-1.85-3.7-3.89-4.33-6.15-.38-1.24-.56-4.65-.56-10.18v-27.93h-6.75v-1.92c4.65-3.31,8.6-6.74,11.86-10.35,3.26-3.61,6.13-7.65,8.56-12.1h1.81Z"/>
  <path class="cls-1" d="M769.47,749.07h-28.38c.33,6.87,2.15,12.28,5.47,16.27,2.55,3.06,5.6,4.6,9.18,4.6,2.21,0,4.22-.61,6.04-1.82,1.8-1.26,3.75-3.5,5.79-6.71l1.9,1.23c-2.82,5.7-5.91,9.77-9.29,12.17-3.4,2.36-7.32,3.53-11.8,3.53-7.66,0-13.46-2.94-17.41-8.83-3.19-4.77-4.77-10.65-4.77-17.71,0-8.63,2.31-15.5,6.98-20.59,4.68-5.12,10.17-7.7,16.42-7.7,5.23,0,9.78,2.16,13.62,6.48,3.87,4.29,5.96,10.64,6.25,19.08h0ZM755.85,745.37c0-5.93-.32-10.02-1-12.23-.61-2.21-1.61-3.89-2.97-5.03-.79-.66-1.82-1-3.11-1-1.92,0-3.48.95-4.69,2.82-2.19,3.28-3.26,7.79-3.26,13.5v1.95h15.03Z"/>
  <path class="cls-1" d="M796.92,723.51c4.51,0,8.69,1.18,12.57,3.5,3.87,2.32,6.79,5.62,8.78,9.9,2.04,4.28,3.05,8.95,3.05,14.06,0,7.32-1.87,13.46-5.59,18.41-4.49,5.96-10.71,8.95-18.64,8.95s-13.76-2.71-17.97-8.17c-4.21-5.46-6.31-11.77-6.31-18.99s2.13-13.86,6.42-19.33c4.32-5.55,10.23-8.32,17.69-8.32h0ZM797.17,727.45c-1.9,0-3.53.7-4.89,2.15-1.31,1.4-2.21,4.22-2.65,8.4-.4,4.18-.61,9.97-.61,17.44,0,3.95.27,7.63.78,11.05.41,2.61,1.26,4.61,2.6,5.97,1.34,1.36,2.82,2.07,4.52,2.07s3.04-.46,4.16-1.39c1.43-1.28,2.39-3.02,2.88-5.28.73-3.48,1.11-10.57,1.11-21.23,0-6.25-.35-10.55-1.07-12.89-.69-2.36-1.73-4.06-3.09-5.13-.95-.78-2.2-1.17-3.75-1.17h0Z"/>
  <path class="cls-2" d="M843.84,725.09v11.71c3.43-5.36,6.44-8.89,9.02-10.63,2.58-1.79,5.08-2.66,7.47-2.66,2.05,0,3.71.66,4.92,1.95,1.25,1.24,1.88,3.04,1.88,5.35,0,2.48-.61,4.43-1.82,5.76-1.19,1.37-2.63,2.06-4.33,2.06-1.95,0-3.64-.62-5.08-1.9-1.43-1.23-2.3-1.93-2.55-2.09-.36-.22-.78-.33-1.26-.33-1.07,0-2.07.41-3.03,1.22-1.52,1.25-2.66,3.04-3.44,5.36-1.18,3.59-1.77,7.53-1.77,11.86v11.87l.06,3.1c0,2.1.13,3.47.38,4.05.44.98,1.11,1.73,1.95,2.2.9.45,2.37.73,4.43.84v1.99h-27.93v-1.99c2.25-.19,3.76-.8,4.54-1.82.8-1.07,1.2-3.87,1.2-8.37v-28.6c0-2.94-.13-4.83-.43-5.64-.36-1.02-.9-1.78-1.62-2.26-.69-.49-1.92-.8-3.7-1v-2.02h21.12Z"/>
  <path class="cls-1" d="M891.41,723.51c4.47,0,8.67,1.18,12.55,3.5,3.87,2.32,6.8,5.62,8.78,9.9,2.04,4.28,3.04,8.95,3.06,14.06,0,7.32-1.88,13.46-5.6,18.41-4.49,5.96-10.71,8.95-18.63,8.95s-13.8-2.71-17.99-8.17c-4.2-5.46-6.3-11.77-6.3-18.99s2.13-13.86,6.41-19.33c4.32-5.55,10.2-8.32,17.72-8.32h0ZM891.6,727.45c-1.86,0-3.48.7-4.84,2.15-1.34,1.4-2.21,4.22-2.66,8.4-.41,4.18-.62,9.97-.62,17.44,0,3.95.27,7.63.78,11.05.39,2.61,1.26,4.61,2.6,5.97,1.31,1.36,2.83,2.07,4.55,2.07s3.02-.46,4.13-1.39c1.43-1.28,2.38-3.02,2.88-5.28.73-3.48,1.08-10.57,1.11-21.23,0-6.25-.35-10.55-1.06-12.89-.69-2.36-1.74-4.06-3.1-5.13-.97-.78-2.21-1.17-3.77-1.17h0Z"/>
  <path class="cls-2" d="M938.21,701.76v64.29c0,3.64.42,5.99,1.28,7.02.85,1,2.51,1.57,4.96,1.73v1.99h-27.91v-1.99c2.29-.1,3.98-.73,5.08-2.01.74-.84,1.11-3.1,1.11-6.74v-53.54c0-3.6-.44-5.91-1.27-6.91-.86-1.05-2.49-1.62-4.92-1.78v-2.07h21.67Z"/>
  <path class="cls-1" d="M968.76,723.51c4.49,0,8.67,1.18,12.54,3.5,3.87,2.32,6.82,5.62,8.8,9.9,2.04,4.28,3.04,8.95,3.04,14.06,0,7.32-1.87,13.46-5.57,18.41-4.51,5.96-10.74,8.95-18.65,8.95s-13.77-2.71-17.99-8.17c-4.2-5.46-6.3-11.77-6.3-18.99s2.13-13.86,6.41-19.33c4.33-5.55,10.21-8.32,17.72-8.32h0ZM968.98,727.45c-1.89,0-3.51.7-4.88,2.15-1.34,1.4-2.21,4.22-2.65,8.4-.4,4.18-.62,9.97-.62,17.44,0,3.95.27,7.63.79,11.05.39,2.61,1.25,4.61,2.58,5.97,1.34,1.36,2.85,2.07,4.56,2.07s3.03-.46,4.15-1.39c1.41-1.28,2.38-3.02,2.87-5.28.73-3.48,1.09-10.57,1.09-21.23,0-6.25-.35-10.55-1.04-12.89-.71-2.36-1.73-4.06-3.09-5.13-.97-.78-2.23-1.17-3.76-1.17h0Z"/>
  <path class="cls-1" d="M1031.91,725.67h17.43v6.08h-9.9c1.82,1.82,3.08,3.48,3.76,4.94.9,1.97,1.34,4.06,1.34,6.24,0,3.68-1.02,6.89-3.1,9.62-2.02,2.7-4.81,4.82-8.35,6.38-3.5,1.5-6.61,2.25-9.33,2.25-.23,0-2.44-.07-6.65-.27-1.65,0-3.08.56-4.21,1.65-1.12,1.07-1.67,2.36-1.67,3.87,0,1.34.5,2.43,1.5,3.26,1.03.85,2.69,1.3,4.98,1.3l9.58-.13c7.72,0,13.05.85,15.95,2.55,4.18,2.36,6.27,5.98,6.27,10.88,0,3.15-.97,5.97-2.89,8.54-1.91,2.58-4.44,4.48-7.59,5.68-4.73,1.82-10.23,2.7-16.42,2.72-4.65,0-8.89-.46-12.72-1.37-3.82-.91-6.58-2.14-8.24-3.78-1.65-1.57-2.47-3.25-2.47-5.02s.6-3.22,1.87-4.59c1.28-1.34,3.66-2.46,7.11-3.38-4.78-2.36-7.17-5.64-7.17-9.86,0-2.52.98-5,2.92-7.39,1.96-2.4,5.06-4.49,9.32-6.26-4.96-1.8-8.52-4.18-10.74-7.13-2.23-2.94-3.31-6.35-3.31-10.21,0-5.07,2.06-9.44,6.19-13.13,4.11-3.72,9.44-5.59,15.93-5.59,3.43,0,6.96.74,10.6,2.16h0ZM1022.36,726.94c-2.15,0-3.95,1.09-5.44,3.28-1.48,2.14-2.21,6.59-2.21,13.38,0,5.5.73,9.27,2.16,11.33,1.46,2.04,3.19,3.05,5.19,3.05,2.23,0,4.05-1.01,5.53-3.05,1.46-2.02,2.21-5.97,2.21-11.82,0-6.61-.83-11.11-2.48-13.51-1.19-1.76-2.85-2.66-4.97-2.66h0ZM1019.08,784.41c-3.76,0-6.25.34-7.45.95-2.12,1.14-3.16,2.69-3.16,4.64s1.08,3.59,3.26,5.08c2.19,1.56,6.27,2.33,12.28,2.33,5.13,0,9.14-.68,12.06-2.04,2.94-1.37,4.43-3.28,4.43-5.76,0-.92-.27-1.68-.84-2.31-.99-1.11-2.5-1.87-4.51-2.29-2.02-.39-7.34-.61-16.06-.61h0Z"/>
  <path class="cls-2" d="M1079.1,778.89l-16.7-38.33c-2.51-5.79-4.38-9.35-5.59-10.68-1.18-1.34-2.63-2.26-4.33-2.77v-2.02h27.51v2.02c-1.81.1-3.09.42-3.82,1.04-.74.63-1.12,1.39-1.12,2.29,0,1.4.92,4.16,2.77,8.29l8.85,20.23,6.03-15.64c2.18-5.59,3.26-9.44,3.26-11.61,0-1.37-.46-2.47-1.39-3.28-.88-.81-2.47-1.23-4.76-1.32v-2.02h17.3v2.02c-1.69.19-3.08.86-4.13,1.99-1.07,1.12-2.87,4.94-5.38,11.45l-14.77,38.33c-3.71,9.58-6.47,15.49-8.29,17.7-2.54,3.09-5.73,4.65-9.57,4.65-3.04,0-5.54-.9-7.47-2.65-1.87-1.74-2.81-3.84-2.81-6.32,0-2.13.65-3.89,1.93-5.3,1.31-1.39,2.94-2.1,4.86-2.1s3.32.6,4.43,1.76c1.14,1.19,1.73,3.01,1.78,5.5.02,1.39.19,2.31.49,2.7.3.41.73.6,1.28.61.89,0,1.84-.54,2.81-1.61,1.48-1.56,3.22-5.08,5.2-10.62l1.62-4.32h0Z"/>
</svg>