<svg xmlns="http://www.w3.org/2000/svg" xmlns:xlink="http://www.w3.org/1999/xlink" width="967" zoomAndPan="magnify" viewBox="0 0 725.25 585.749983" height="781" preserveAspectRatio="xMidYMid meet" version="1.0"><defs><clipPath id="9a79100945"><path d="M 0 0.175781 L 724.5 0.175781 L 724.5 584.574219 L 0 584.574219 Z M 0 0.175781 " clip-rule="nonzero"/></clipPath><clipPath id="ac1bce3592"><path d="M 0 1 L 724.5 1 L 724.5 583 L 0 583 Z M 0 1 " clip-rule="nonzero"/></clipPath></defs><g clip-path="url(#9a79100945)"><path fill="#ffffff" d="M 0 0.175781 L 724.5 0.175781 L 724.5 584.574219 L 0 584.574219 Z M 0 0.175781 " fill-opacity="1" fill-rule="nonzero"/></g><path fill="#00adee" d="M 157.601562 356.265625 C 159.894531 358.175781 162.695312 359.066406 165.496094 359.066406 C 169.3125 359.066406 173.007812 357.410156 175.425781 354.355469 C 179.878906 348.882812 178.988281 340.863281 173.515625 336.40625 L 105.152344 281.921875 L 173.515625 227.433594 C 178.988281 223.105469 179.878906 215.085938 175.425781 209.613281 C 171.097656 204.011719 163.078125 203.121094 157.601562 207.574219 L 76.765625 271.992188 C 73.710938 274.410156 72.054688 278.101562 72.054688 281.921875 C 72.054688 285.867188 73.710938 289.429688 76.765625 291.851562 Z M 157.601562 356.265625 " fill-opacity="1" fill-rule="nonzero"/><path fill="#00adee" d="M 194.011719 377.78125 C 195.03125 378.035156 195.921875 378.164062 196.9375 378.164062 C 202.667969 378.164062 207.886719 374.089844 209.289062 368.234375 L 247.988281 197.390625 C 249.515625 190.515625 245.1875 183.640625 238.3125 182.113281 C 231.566406 180.585938 224.691406 184.914062 223.164062 191.660156 L 184.464844 362.632812 C 182.9375 369.503906 187.265625 376.253906 194.011719 377.78125 Z M 194.011719 377.78125 " fill-opacity="1" fill-rule="nonzero"/><path fill="#00adee" d="M 256.898438 354.355469 C 259.445312 357.410156 263.136719 359.066406 266.957031 359.066406 C 269.757812 359.066406 272.558594 358.175781 274.847656 356.265625 L 355.6875 291.851562 C 358.617188 289.429688 360.398438 285.867188 360.398438 281.921875 C 360.398438 278.101562 358.617188 274.410156 355.6875 271.992188 L 274.847656 207.574219 C 269.375 203.121094 261.355469 204.011719 256.898438 209.613281 C 252.570312 215.085938 253.460938 223.105469 258.9375 227.433594 L 327.300781 281.921875 L 258.9375 336.40625 C 253.460938 340.863281 252.570312 348.882812 256.898438 354.355469 Z M 256.898438 354.355469 " fill-opacity="1" fill-rule="nonzero"/><path fill="#00adee" d="M 84.785156 494.136719 L 408.773438 494.136719 C 415.773438 494.136719 421.503906 488.40625 421.503906 481.40625 C 421.503906 474.277344 415.773438 468.675781 408.773438 468.675781 L 84.785156 468.675781 C 77.65625 468.675781 72.054688 474.277344 72.054688 481.40625 C 72.054688 488.40625 77.65625 494.136719 84.785156 494.136719 Z M 84.785156 494.136719 " fill-opacity="1" fill-rule="nonzero"/><path fill="#00adee" d="M 84.785156 425.136719 L 408.773438 425.136719 C 415.773438 425.136719 421.503906 419.410156 421.503906 412.40625 C 421.503906 405.277344 415.773438 399.675781 408.773438 399.675781 L 84.785156 399.675781 C 77.65625 399.675781 72.054688 405.277344 72.054688 412.40625 C 72.054688 419.410156 77.65625 425.136719 84.785156 425.136719 Z M 84.785156 425.136719 " fill-opacity="1" fill-rule="nonzero"/><path fill="#00adee" d="M 408.773438 287.011719 L 640.847656 287.011719 C 647.976562 287.011719 653.578125 281.410156 653.578125 274.28125 C 653.578125 267.28125 647.976562 261.550781 640.847656 261.550781 L 408.773438 261.550781 C 401.644531 261.550781 396.042969 267.28125 396.042969 274.28125 C 396.042969 281.410156 401.644531 287.011719 408.773438 287.011719 Z M 408.773438 287.011719 " fill-opacity="1" fill-rule="nonzero"/><path fill="#00adee" d="M 408.773438 222.597656 L 640.847656 222.597656 C 647.976562 222.597656 653.578125 216.867188 653.578125 209.867188 C 653.578125 202.863281 647.976562 197.136719 640.847656 197.136719 L 408.773438 197.136719 C 401.644531 197.136719 396.042969 202.863281 396.042969 209.867188 C 396.042969 216.867188 401.644531 222.597656 408.773438 222.597656 Z M 408.773438 222.597656 " fill-opacity="1" fill-rule="nonzero"/><path fill="#00adee" d="M 640.847656 384.144531 L 621.5 384.144531 C 621.371094 383.890625 621.371094 383.636719 621.242188 383.382812 L 634.867188 369.632812 C 637.285156 367.339844 638.683594 364.03125 638.683594 360.722656 C 638.683594 357.285156 637.285156 354.101562 634.867188 351.683594 L 611.1875 328.003906 C 606.222656 323.039062 598.203125 323.039062 593.238281 328.003906 L 579.488281 341.753906 C 579.234375 341.625 578.980469 341.5 578.722656 341.371094 L 578.722656 322.019531 C 578.722656 315.019531 572.996094 309.289062 565.992188 309.289062 L 532.511719 309.289062 C 525.511719 309.289062 519.78125 315.019531 519.78125 322.019531 L 519.78125 341.371094 C 519.527344 341.5 519.273438 341.625 519.019531 341.753906 L 505.269531 328.003906 C 502.851562 325.585938 499.667969 324.3125 496.230469 324.3125 C 492.921875 324.3125 489.613281 325.585938 487.320312 328.003906 L 463.640625 351.683594 C 458.675781 356.648438 458.675781 364.667969 463.640625 369.632812 L 477.261719 383.382812 C 477.136719 383.636719 477.007812 383.890625 477.007812 384.144531 L 457.65625 384.144531 C 450.527344 384.144531 444.925781 389.875 444.925781 396.875 L 444.925781 430.355469 C 444.925781 437.484375 450.527344 443.085938 457.65625 443.085938 L 477.007812 443.085938 C 477.136719 443.34375 477.136719 443.597656 477.261719 443.851562 L 463.640625 457.601562 C 458.675781 462.566406 458.675781 470.585938 463.640625 475.675781 L 487.320312 499.355469 C 492.03125 504.066406 500.558594 504.066406 505.269531 499.355469 L 519.019531 485.605469 C 519.273438 485.734375 519.527344 485.863281 519.78125 485.988281 L 519.78125 505.339844 C 519.78125 512.339844 525.511719 518.070312 532.511719 518.070312 L 565.992188 518.070312 C 572.996094 518.070312 578.722656 512.339844 578.722656 505.339844 L 578.722656 485.988281 C 578.980469 485.863281 579.234375 485.734375 579.488281 485.605469 L 593.238281 499.355469 C 598.203125 504.320312 606.222656 504.320312 611.1875 499.355469 L 634.867188 475.675781 C 637.285156 473.257812 638.683594 469.949219 638.683594 466.640625 C 638.683594 463.203125 637.285156 460.019531 634.867188 457.601562 L 621.242188 443.851562 C 621.371094 443.597656 621.371094 443.34375 621.5 443.085938 L 640.847656 443.085938 C 647.976562 443.085938 653.578125 437.484375 653.578125 430.355469 L 653.578125 396.875 C 653.578125 389.875 647.976562 384.144531 640.847656 384.144531 Z M 508.199219 413.679688 C 508.199219 391.019531 526.65625 372.6875 549.191406 372.6875 C 571.851562 372.6875 590.308594 391.019531 590.308594 413.679688 C 590.308594 436.214844 571.851562 454.671875 549.191406 454.671875 C 526.65625 454.671875 508.199219 436.214844 508.199219 413.679688 Z M 508.199219 413.679688 " fill-opacity="1" fill-rule="nonzero"/><g clip-path="url(#ac1bce3592)"><path fill="#00adee" d="M 673.949219 1.085938 L 51.683594 1.085938 C 23.425781 1.085938 0.382812 24.003906 0.382812 52.265625 L 0.382812 531.4375 C 0.382812 559.699219 23.425781 582.613281 51.683594 582.613281 L 673.949219 582.613281 C 702.210938 582.613281 725.25 559.699219 725.25 531.4375 L 725.25 52.265625 C 725.25 24.003906 702.210938 1.085938 673.949219 1.085938 Z M 669.492188 67.539062 C 669.492188 79.253906 659.945312 88.671875 648.359375 88.671875 C 636.648438 88.671875 627.101562 79.253906 627.101562 67.539062 C 627.101562 55.828125 636.648438 46.40625 648.359375 46.40625 C 659.945312 46.40625 669.492188 55.828125 669.492188 67.539062 Z M 613.097656 67.539062 C 613.097656 79.253906 603.546875 88.671875 591.964844 88.671875 C 580.253906 88.671875 570.703125 79.253906 570.703125 67.539062 C 570.703125 55.828125 580.253906 46.40625 591.964844 46.40625 C 603.546875 46.40625 613.097656 55.828125 613.097656 67.539062 Z M 535.441406 46.40625 C 547.152344 46.40625 556.699219 55.828125 556.699219 67.539062 C 556.699219 79.253906 547.152344 88.671875 535.441406 88.671875 C 523.855469 88.671875 514.308594 79.253906 514.308594 67.539062 C 514.308594 55.828125 523.855469 46.40625 535.441406 46.40625 Z M 699.789062 531.4375 C 699.789062 545.695312 688.207031 557.152344 673.949219 557.152344 L 51.683594 557.152344 C 37.425781 557.152344 25.84375 545.695312 25.84375 531.4375 L 25.84375 133.992188 L 699.789062 133.992188 Z M 699.789062 531.4375 " fill-opacity="1" fill-rule="nonzero"/></g></svg>