<svg xmlns="http://www.w3.org/2000/svg" xmlns:xlink="http://www.w3.org/1999/xlink" width="323" zoomAndPan="magnify" viewBox="0 0 242.25 152.249993" height="203" preserveAspectRatio="xMidYMid meet" version="1.0"><defs><clipPath id="943263cf42"><path d="M 0.21875 0 L 240.535156 0 L 240.535156 144.039062 L 0.21875 144.039062 Z M 0.21875 0 " clip-rule="nonzero"/></clipPath></defs><path fill="#231f20" d="M 45.8125 76.304688 C 46.652344 77.003906 47.675781 77.332031 48.703125 77.332031 C 50.097656 77.332031 51.449219 76.726562 52.332031 75.609375 C 53.964844 73.605469 53.636719 70.671875 51.636719 69.042969 L 26.628906 49.113281 L 51.636719 29.183594 C 53.636719 27.597656 53.964844 24.664062 52.332031 22.664062 C 50.75 20.613281 47.816406 20.289062 45.8125 21.917969 L 16.246094 45.480469 C 15.128906 46.363281 14.523438 47.714844 14.523438 49.113281 C 14.523438 50.554688 15.128906 51.859375 16.246094 52.746094 Z M 45.8125 76.304688 " fill-opacity="1" fill-rule="nonzero"/><path fill="#231f20" d="M 59.132812 84.175781 C 59.503906 84.269531 59.832031 84.316406 60.203125 84.316406 C 62.296875 84.316406 64.207031 82.824219 64.71875 80.683594 L 78.875 18.191406 C 79.433594 15.679688 77.851562 13.164062 75.335938 12.605469 C 72.867188 12.046875 70.355469 13.628906 69.796875 16.097656 L 55.640625 78.632812 C 55.082031 81.148438 56.664062 83.617188 59.132812 84.175781 Z M 59.132812 84.175781 " fill-opacity="1" fill-rule="nonzero"/><path fill="#231f20" d="M 82.136719 75.609375 C 83.066406 76.726562 84.417969 77.332031 85.8125 77.332031 C 86.839844 77.332031 87.863281 77.003906 88.699219 76.304688 L 118.269531 52.746094 C 119.339844 51.859375 119.992188 50.554688 119.992188 49.113281 C 119.992188 47.714844 119.339844 46.363281 118.269531 45.480469 L 88.699219 21.917969 C 86.699219 20.289062 83.765625 20.613281 82.136719 22.664062 C 80.550781 24.664062 80.878906 27.597656 82.878906 29.183594 L 107.886719 49.113281 L 82.878906 69.042969 C 80.878906 70.671875 80.550781 73.605469 82.136719 75.609375 Z M 82.136719 75.609375 " fill-opacity="1" fill-rule="nonzero"/><path fill="#231f20" d="M 19.179688 126.738281 L 137.6875 126.738281 C 140.25 126.738281 142.34375 124.640625 142.34375 122.078125 C 142.34375 119.472656 140.25 117.421875 137.6875 117.421875 L 19.179688 117.421875 C 16.570312 117.421875 14.523438 119.472656 14.523438 122.078125 C 14.523438 124.640625 16.570312 126.738281 19.179688 126.738281 Z M 19.179688 126.738281 " fill-opacity="1" fill-rule="nonzero"/><path fill="#231f20" d="M 19.179688 101.5 L 137.6875 101.5 C 140.25 101.5 142.34375 99.402344 142.34375 96.839844 C 142.34375 94.234375 140.25 92.183594 137.6875 92.183594 L 19.179688 92.183594 C 16.570312 92.183594 14.523438 94.234375 14.523438 96.839844 C 14.523438 99.402344 16.570312 101.5 19.179688 101.5 Z M 19.179688 101.5 " fill-opacity="1" fill-rule="nonzero"/><path fill="#231f20" d="M 137.6875 50.976562 L 222.578125 50.976562 C 225.183594 50.976562 227.234375 48.925781 227.234375 46.316406 C 227.234375 43.757812 225.183594 41.660156 222.578125 41.660156 L 137.6875 41.660156 C 135.082031 41.660156 133.03125 43.757812 133.03125 46.316406 C 133.03125 48.925781 135.082031 50.976562 137.6875 50.976562 Z M 137.6875 50.976562 " fill-opacity="1" fill-rule="nonzero"/><path fill="#231f20" d="M 137.6875 27.414062 L 222.578125 27.414062 C 225.183594 27.414062 227.234375 25.316406 227.234375 22.757812 C 227.234375 20.195312 225.183594 18.101562 222.578125 18.101562 L 137.6875 18.101562 C 135.082031 18.101562 133.03125 20.195312 133.03125 22.757812 C 133.03125 25.316406 135.082031 27.414062 137.6875 27.414062 Z M 137.6875 27.414062 " fill-opacity="1" fill-rule="nonzero"/><path fill="#231f20" d="M 222.578125 86.503906 L 215.5 86.503906 C 215.453125 86.410156 215.453125 86.316406 215.40625 86.226562 L 220.386719 81.195312 C 221.273438 80.359375 221.785156 79.148438 221.785156 77.9375 C 221.785156 76.679688 221.273438 75.515625 220.386719 74.628906 L 211.726562 65.96875 C 209.910156 64.152344 206.976562 64.152344 205.160156 65.96875 L 200.132812 70.996094 C 200.039062 70.953125 199.945312 70.90625 199.851562 70.859375 L 199.851562 63.78125 C 199.851562 61.21875 197.757812 59.125 195.195312 59.125 L 182.949219 59.125 C 180.386719 59.125 178.292969 61.21875 178.292969 63.78125 L 178.292969 70.859375 C 178.199219 70.90625 178.105469 70.953125 178.011719 70.996094 L 172.984375 65.96875 C 172.097656 65.085938 170.933594 64.617188 169.679688 64.617188 C 168.46875 64.617188 167.257812 65.085938 166.417969 65.96875 L 157.757812 74.628906 C 155.941406 76.445312 155.941406 79.378906 157.757812 81.195312 L 162.738281 86.226562 C 162.691406 86.316406 162.648438 86.410156 162.648438 86.503906 L 155.570312 86.503906 C 152.960938 86.503906 150.914062 88.597656 150.914062 91.160156 L 150.914062 103.40625 C 150.914062 106.015625 152.960938 108.0625 155.570312 108.0625 L 162.648438 108.0625 C 162.691406 108.15625 162.691406 108.25 162.738281 108.34375 L 157.757812 113.371094 C 155.941406 115.1875 155.941406 118.121094 157.757812 119.984375 L 166.417969 128.644531 C 168.140625 130.367188 171.261719 130.367188 172.984375 128.644531 L 178.011719 123.617188 C 178.105469 123.664062 178.199219 123.710938 178.292969 123.757812 L 178.292969 130.835938 C 178.292969 133.394531 180.386719 135.492188 182.949219 135.492188 L 195.195312 135.492188 C 197.757812 135.492188 199.851562 133.394531 199.851562 130.835938 L 199.851562 123.757812 C 199.945312 123.710938 200.039062 123.664062 200.132812 123.617188 L 205.160156 128.644531 C 206.976562 130.460938 209.910156 130.460938 211.726562 128.644531 L 220.386719 119.984375 C 221.273438 119.101562 221.785156 117.890625 221.785156 116.679688 C 221.785156 115.421875 221.273438 114.257812 220.386719 113.371094 L 215.40625 108.34375 C 215.453125 108.25 215.453125 108.15625 215.5 108.0625 L 222.578125 108.0625 C 225.183594 108.0625 227.234375 106.015625 227.234375 103.40625 L 227.234375 91.160156 C 227.234375 88.597656 225.183594 86.503906 222.578125 86.503906 Z M 174.054688 97.308594 C 174.054688 89.019531 180.808594 82.3125 189.050781 82.3125 C 197.335938 82.3125 204.089844 89.019531 204.089844 97.308594 C 204.089844 105.550781 197.335938 112.300781 189.050781 112.300781 C 180.808594 112.300781 174.054688 105.550781 174.054688 97.308594 Z M 174.054688 97.308594 " fill-opacity="1" fill-rule="nonzero"/><g clip-path="url(#943263cf42)"><path fill="#231f20" d="M 234.683594 -53.609375 L 7.070312 -53.609375 C -3.265625 -53.609375 -11.695312 -45.230469 -11.695312 -34.890625 L -11.695312 140.378906 C -11.695312 150.71875 -3.265625 159.097656 7.070312 159.097656 L 234.683594 159.097656 C 245.019531 159.097656 253.449219 150.71875 253.449219 140.378906 L 253.449219 -34.890625 C 253.449219 -45.230469 245.019531 -53.609375 234.683594 -53.609375 Z M 233.054688 -29.304688 C 233.054688 -25.019531 229.5625 -21.574219 225.324219 -21.574219 C 221.039062 -21.574219 217.546875 -25.019531 217.546875 -29.304688 C 217.546875 -33.585938 221.039062 -37.035156 225.324219 -37.035156 C 229.5625 -37.035156 233.054688 -33.585938 233.054688 -29.304688 Z M 212.425781 -29.304688 C 212.425781 -25.019531 208.933594 -21.574219 204.695312 -21.574219 C 200.410156 -21.574219 196.917969 -25.019531 196.917969 -29.304688 C 196.917969 -33.585938 200.410156 -37.035156 204.695312 -37.035156 C 208.933594 -37.035156 212.425781 -33.585938 212.425781 -29.304688 Z M 184.019531 -37.035156 C 188.304688 -37.035156 191.796875 -33.585938 191.796875 -29.304688 C 191.796875 -25.019531 188.304688 -21.574219 184.019531 -21.574219 C 179.78125 -21.574219 176.289062 -25.019531 176.289062 -29.304688 C 176.289062 -33.585938 179.78125 -37.035156 184.019531 -37.035156 Z M 244.136719 140.378906 C 244.136719 145.59375 239.898438 149.785156 234.683594 149.785156 L 7.070312 149.785156 C 1.855469 149.785156 -2.378906 145.59375 -2.378906 140.378906 L -2.378906 -4.996094 L 244.136719 -4.996094 Z M 244.136719 140.378906 " fill-opacity="1" fill-rule="nonzero"/></g></svg>