<svg xmlns="http://www.w3.org/2000/svg" viewBox="0 0 144 68"><defs><style>.a{fill:#ffa846;}.a,.b{fill-rule:evenodd;}.b,.d{fill:#3c3c3c;}.c{isolation:isolate;}</style></defs><title>Logo-NCI</title><path class="a" d="M11,17.99A3,3,0,1,1,7.9881,15,3.0006,3.0006,0,0,1,11,17.99"/><path class="a" d="M26,5.9888A3,3,0,1,1,22.9869,3,3,3,0,0,1,26,5.9888"/><path class="a" d="M45,3.99A3,3,0,1,1,41.9894,1,2.9978,2.9978,0,0,1,45,3.99"/><path class="a" d="M61,15.9894A3,3,0,1,1,57.9906,13,3,3,0,0,1,61,15.9894"/><path class="a" d="M68,31.9894A3,3,0,1,1,64.9906,29,3,3,0,0,1,68,31.9894"/><path class="a" d="M64,49.9888A3,3,0,1,1,60.9881,47,3.0008,3.0008,0,0,1,64,49.9888"/><path class="a" d="M49,62.9869A3,3,0,1,1,45.9881,60,3.0009,3.0009,0,0,1,49,62.9869"/><path class="a" d="M30,63.9869A3,3,0,1,1,26.9894,61,3.0015,3.0015,0,0,1,30,63.9869"/><path class="a" d="M14,51.9869A3,3,0,1,1,10.9881,49,3.0009,3.0009,0,0,1,14,51.9869"/><path class="a" d="M7,35.9869A3,3,0,1,1,3.9875,33,3.0025,3.0025,0,0,1,7,35.9869"/><path class="a" d="M24,14.987A3,3,0,1,1,20.9892,12,2.9991,2.9991,0,0,1,24,14.987"/><path class="a" d="M16,26.9913A3,3,0,1,1,12.9892,24,3.0007,3.0007,0,0,1,16,26.9913"/><path class="a" d="M24,51.9913A3,3,0,1,1,20.9892,49,3,3,0,0,1,24,51.9913"/><path class="a" d="M38,57.9892A3,3,0,1,1,34.99,55,3.0012,3.0012,0,0,1,38,57.9892"/><path class="a" d="M51,52.9884A3,3,0,1,1,47.9906,50,2.9992,2.9992,0,0,1,51,52.9884"/><path class="a" d="M59,40.9863A3,3,0,1,1,55.9892,38,3.0056,3.0056,0,0,1,59,40.9863"/><path class="a" d="M59,26.9885A3,3,0,1,1,55.9863,24,3.0007,3.0007,0,0,1,59,26.9885"/><path class="a" d="M51,15.9877A3,3,0,1,1,47.9913,13,2.9968,2.9968,0,0,1,51,15.9877"/><path class="a" d="M38,10.9906A3,3,0,1,1,34.99,8,2.998,2.998,0,0,1,38,10.9906"/><path class="a" d="M16,40.9884A3,3,0,1,1,12.9892,38,3,3,0,0,1,16,40.9884"/><path class="a" d="M23,21.9913A2,2,0,1,1,20.9919,20,2.0017,2.0017,0,0,1,23,21.9913"/><path class="a" d="M19,31.9919A2,2,0,1,1,16.9919,30,1.9993,1.9993,0,0,1,19,31.9919"/><path class="a" d="M21,42.9894A2,2,0,1,1,18.9931,41,2,2,0,0,1,21,42.9894"/><path class="a" d="M30,49.9919A2,2,0,1,1,27.9931,48,1.9993,1.9993,0,0,1,30,49.9919"/><path class="a" d="M41,50.9944A2,2,0,1,1,38.9931,49,1.997,1.997,0,0,1,41,50.9944"/><path class="a" d="M50,46.995A2,2,0,1,1,47.9931,45,1.9977,1.9977,0,0,1,50,46.995"/><path class="a" d="M54,35.9931A2,2,0,1,1,51.9919,34,2,2,0,0,1,54,35.9931"/><path class="a" d="M52,24.9925A2,2,0,1,1,49.9919,23,2.0006,2.0006,0,0,1,52,24.9925"/><path class="a" d="M44,17.9919A2,2,0,1,1,41.9919,16,2.0009,2.0009,0,0,1,44,17.9919"/><path class="a" d="M32,16.9931A2,2,0,1,1,29.9931,15,1.9979,1.9979,0,0,1,32,16.9931"/><path class="a" d="M30,21.495A1.5,1.5,0,1,1,28.4944,20,1.5008,1.5008,0,0,1,30,21.495"/><path class="a" d="M39,21.4966A1.5,1.5,0,1,1,37.4928,20,1.5009,1.5009,0,0,1,39,21.4966"/><path class="a" d="M46,24.4944A1.5,1.5,0,1,1,44.4927,23,1.5009,1.5009,0,0,1,46,24.4944"/><path class="a" d="M49,32.4939A1.5,1.5,0,1,1,47.4955,31,1.4994,1.4994,0,0,1,49,32.4939"/><path class="a" d="M48,40.495A1.5,1.5,0,1,1,46.4972,39,1.4979,1.4979,0,0,1,48,40.495"/><path class="a" d="M41,46.4939A1.5,1.5,0,1,1,39.4933,45,1.5017,1.5017,0,0,1,41,46.4939"/><path class="a" d="M33,46.495A1.5,1.5,0,1,1,31.495,45,1.4966,1.4966,0,0,1,33,46.495"/><path class="a" d="M26,43.4933A1.5,1.5,0,1,1,24.4944,42,1.4993,1.4993,0,0,1,26,43.4933"/><path class="a" d="M23,36.495A1.5,1.5,0,1,1,21.4939,35,1.5008,1.5008,0,0,1,23,36.495"/><path class="a" d="M24,28.495A1.5,1.5,0,1,1,22.4944,27,1.5,1.5,0,0,1,24,28.495"/><path class="a" d="M30,27.9966A1,1,0,1,1,28.9966,27,1.0007,1.0007,0,0,1,30,27.9966"/><path class="a" d="M26,31.9971A1,1,0,1,1,24.9956,31,1,1,0,0,1,26,31.9971"/><path class="a" d="M28,37.9956A1,1,0,1,1,26.9971,37,1,1,0,0,1,28,37.9956"/><path class="a" d="M31,42.9966A1,1,0,1,1,29.9966,42,1,1,0,0,1,31,42.9966"/><path class="a" d="M37,42.9971A1,1,0,1,1,35.9971,42,.9981.9981,0,0,1,37,42.9971"/><path class="a" d="M41,39.9976A1,1,0,1,1,39.9951,39,1.0006,1.0006,0,0,1,41,39.9976"/><path class="a" d="M45,35.9961A1,1,0,1,1,43.9966,35,1,1,0,0,1,45,35.9961"/><path class="a" d="M45,29.9961A1,1,0,1,1,43.9961,29,1.0008,1.0008,0,0,1,45,29.9961"/><path class="a" d="M40,24.9971A1,1,0,1,1,38.9966,24,.9984.9984,0,0,1,40,24.9971"/><path class="a" d="M34,24.9941A1,1,0,1,1,32.9961,24,1.0015,1.0015,0,0,1,34,24.9941"/><polygon class="b" points="96.624 16 96.624 35.596 83.688 16 78 16 78 48 84.376 48 84.376 28.359 97.312 48 103 48 103 16 96.624 16"/><path class="b" d="M119,49a12.0417,12.0417,0,0,1-8.7937-3.5551C106.908,42.1634,107,38.1066,107,32.4995s-.0923-9.6629,3.2061-12.9444A12.0417,12.0417,0,0,1,119,16c6.0917,0,10.8539,3.4642,12,10.2554h-6.4588c-.64-2.5981-2.29-4.6038-5.4954-4.6038a5.2779,5.2779,0,0,0-4.0764,1.6867c-1.2364,1.3677-1.6026,2.9171-1.6026,9.1612s.3662,7.7936,1.6026,9.1622a5.2773,5.2773,0,0,0,4.0764,1.6858c3.2052,0,4.8553-2.0048,5.4954-4.6038H131C129.854,45.5358,125.0453,49,119,49"/><polygon class="b" points="136 49 142 49 142 16 136 16 136 49"/><g class="c"><path class="d" d="M82.1719,62.18H79.1426L78.51,64H77.0967l2.9541-7.82H81.27L84.23,64h-1.418ZM79.5244,61.084H81.791L80.6582,57.84Z"/><path class="d" d="M91.8447,56.18v5.2265a2.5426,2.5426,0,0,1-.7978,1.9737,3.4963,3.4963,0,0,1-4.2559.0107,2.55,2.55,0,0,1-.79-1.99V56.18h1.3535v5.2236a1.6539,1.6539,0,0,0,.3975,1.1953,1.5524,1.5524,0,0,0,1.1709.4131q1.5688,0,1.5683-1.6513V56.18Z"/><path class="d" d="M98.4824,61.9863a.9428.9428,0,0,0-.3633-.7949,4.3177,4.3177,0,0,0-1.3066-.5644,6.3006,6.3006,0,0,1-1.5039-.6338,2.0064,2.0064,0,0,1-1.0693-1.751,1.906,1.906,0,0,1,.77-1.5576,3.1209,3.1209,0,0,1,2.0009-.6123,3.3911,3.3911,0,0,1,1.4561.3007,2.3941,2.3941,0,0,1,1.0039.8565,2.1959,2.1959,0,0,1,.3652,1.2334H98.4824a1.2075,1.2075,0,0,0-.3847-.9512A1.5887,1.5887,0,0,0,97,57.168a1.66,1.66,0,0,0-1.0332.2832.9423.9423,0,0,0-.3691.792.8519.8519,0,0,0,.3984.7138,4.5743,4.5743,0,0,0,1.3105.5567,5.9964,5.9964,0,0,1,1.4659.6162,2.3458,2.3458,0,0,1,.8115.7949,2.07,2.07,0,0,1,.2578,1.05,1.8608,1.8608,0,0,1-.75,1.5557,3.2519,3.2519,0,0,1-2.0332.5771,3.8168,3.8168,0,0,1-1.5606-.3144,2.6192,2.6192,0,0,1-1.1054-.8672,2.16,2.16,0,0,1-.3946-1.2891h1.3584a1.2659,1.2659,0,0,0,.4405,1.0313,1.93,1.93,0,0,0,1.2617.3652,1.6781,1.6781,0,0,0,1.0664-.2871A.927.927,0,0,0,98.4824,61.9863Z"/><path class="d" d="M107.7832,57.2754h-2.4375V64h-1.3486V57.2754H101.58V56.18h6.2031Z"/><path class="d" d="M112.7832,60.9922h-1.5146V64H109.91V56.18h2.75a3.1966,3.1966,0,0,1,2.0888.6074,2.1475,2.1475,0,0,1,.7354,1.7578,2.1926,2.1926,0,0,1-.3789,1.3145,2.4115,2.4115,0,0,1-1.0547.8144l1.7558,3.2569V64h-1.455Zm-1.5146-1.0957h1.3964a1.552,1.552,0,0,0,1.0743-.3467,1.2076,1.2076,0,0,0,.3867-.9482,1.29,1.29,0,0,0-.3565-.9717,1.515,1.515,0,0,0-1.0664-.3545h-1.4345Z"/><path class="d" d="M122.252,62.18h-3.0293L118.5879,64h-1.4121l2.9541-7.82h1.22l2.959,7.82h-1.418Zm-2.6485-1.0957H121.87L120.7363,57.84Z"/><path class="d" d="M127.6543,62.9043h3.55V64h-4.9092V56.18h1.3594Z"/><path class="d" d="M134.78,64h-1.3535V56.18H134.78Z"/></g><g class="c"><path class="d" d="M142.0244,62.18h-3.0293L138.3613,64h-1.4121l2.9541-7.82h1.2188l2.96,7.82h-1.4179ZM139.377,61.084h2.2666L140.51,57.84Z"/></g></svg>