<?xml version="1.0" encoding="UTF-8" standalone="no"?>
<!-- Created with Inkscape (http://www.inkscape.org/) -->

<svg
   version="1.1"
   id="svg2"
   width="809.70667"
   height="641.73334"
   viewBox="0 0 809.70667 641.73334"
   sodipodi:docname="university-of-tasmania_logo.svg"
   inkscape:version="1.2.1 (9c6d41e410, 2022-07-14, custom)"
   xmlns:inkscape="http://www.inkscape.org/namespaces/inkscape"
   xmlns:sodipodi="http://sodipodi.sourceforge.net/DTD/sodipodi-0.dtd"
   xmlns="http://www.w3.org/2000/svg"
   xmlns:svg="http://www.w3.org/2000/svg">
  <defs
     id="defs6" />
  <sodipodi:namedview
     id="namedview4"
     pagecolor="#ffffff"
     bordercolor="#000000"
     borderopacity="0.25"
     inkscape:showpageshadow="2"
     inkscape:pageopacity="0.0"
     inkscape:pagecheckerboard="true"
     inkscape:deskcolor="#d1d1d1"
     showgrid="false"
     inkscape:zoom="1.3073966"
     inkscape:cx="405.76823"
     inkscape:cy="260.05881"
     inkscape:window-width="1920"
     inkscape:window-height="1043"
     inkscape:window-x="1920"
     inkscape:window-y="0"
     inkscape:window-maximized="1"
     inkscape:current-layer="g12">
    <inkscape:page
       x="0"
       y="0"
       id="page8"
       width="809.70667"
       height="641.73334" />
  </sodipodi:namedview>
  <g
     id="g10"
     inkscape:groupmode="layer"
     inkscape:label="Page 1"
     transform="matrix(1.3333333,0,0,-1.3333333,0,641.73333)">
    <g
       id="g12"
       transform="scale(0.1)">
      <path
         d="m 74.3281,1566 h 68.9999 v -345.07 c 0,-118.08 69.035,-165.87 159.274,-165.87 90.234,0 157.925,49.1 157.925,160.55 V 1566 h 69 v -347.73 c 0,-145.97 -102.187,-224.258 -228.273,-224.258 -124.738,0 -226.9259,58.398 -226.9259,212.338 V 1566"
         style="fill:#ffffff;fill-opacity:1;fill-rule:nonzero;stroke:none"
         id="path14" />
      <path
         d="m 771.051,1566 h 69.031 L 1166.54,1108.14 V 1566 h 67.65 v -561.4 h -69 L 837.387,1455.86 V 1004.6 H 769.703 V 1566 h 1.348"
         style="fill:#ffffff;fill-opacity:1;fill-rule:nonzero;stroke:none"
         id="path16" />
      <path
         d="m 1482.36,1566.02 h 69.04 v -561.4 h -69.04 v 561.4"
         style="fill:#ffffff;fill-opacity:1;fill-rule:nonzero;stroke:none"
         id="path18" />
      <path
         d="m 1730.56,1566 h 72.97 l 164.56,-463.15 164.59,463.15 h 70.31 l -203.03,-565.36 h -67.69 L 1730.56,1566"
         style="fill:#ffffff;fill-opacity:1;fill-rule:nonzero;stroke:none"
         id="path20" />
      <path
         d="m 2379.49,1566 h 330.47 v -58.4 h -261.43 v -187.11 h 207 v -58.43 h -207 v -199.02 h 260.08 V 1004.6 H 2379.49 V 1566"
         style="fill:#ffffff;fill-opacity:1;fill-rule:nonzero;stroke:none"
         id="path22" />
      <path
         d="m 3077.54,1299.26 c 54.43,0 115.49,37.16 115.49,106.12 0,53.12 -35.85,102.22 -139.39,102.22 h -64.99 V 1299.26 Z M 2919.62,1566 h 147.32 c 144.66,0 200.37,-74.35 200.37,-152.61 0,-80.95 -61.02,-132.71 -115.42,-157.96 l 169.85,-250.82 h -80.95 l -161.9,237.56 h -90.24 v -236.21 h -69.03 V 1566"
         style="fill:#ffffff;fill-opacity:1;fill-rule:nonzero;stroke:none"
         id="path24" />
      <path
         d="m 3479.67,1106.82 c 0,0 65.02,-50.42 145.97,-50.42 61.06,0 111.48,27.87 111.48,80.95 0,127.4 -266.75,120.73 -266.75,291.95 0,80.96 65.03,145.98 183.14,145.98 74.35,0 143.32,-25.21 143.32,-25.21 l -17.23,-65.06 c 0,0 -62.4,29.21 -127.4,29.21 -62.4,0 -110.17,-26.52 -110.17,-76.97 0,-130.06 266.75,-115.45 266.75,-294.58 0,-98.22 -83.61,-148.67 -184.45,-148.67 -98.22,0 -161.9,46.48 -161.9,46.48 l 17.24,66.34"
         style="fill:#ffffff;fill-opacity:1;fill-rule:nonzero;stroke:none"
         id="path26" />
      <path
         d="m 4015.81,1566.02 h 69.03 v -561.4 h -69.03 v 561.4"
         style="fill:#ffffff;fill-opacity:1;fill-rule:nonzero;stroke:none"
         id="path28" />
      <path
         d="m 4464.39,1507.59 h -199.07 v 58.4 h 469.78 v -58.4 h -201.68 v -502.96 h -69.03 v 502.96"
         style="fill:#ffffff;fill-opacity:1;fill-rule:nonzero;stroke:none"
         id="path30" />
      <path
         d="M 5041.66,1248.79 4839.94,1566 h 80.95 l 155.3,-249.48 156.58,249.48 h 76.98 l -200.37,-315.86 v -244.16 h -69.04 v 242.81 h 1.32"
         style="fill:#ffffff;fill-opacity:1;fill-rule:nonzero;stroke:none"
         id="path32" />
      <path
         d="M 238.879,621.102 H 0 V 737.891 H 615.785 V 621.102 H 378.223 V 13.2617 H 238.879 V 621.102"
         style="fill:#ffffff;fill-opacity:1;fill-rule:nonzero;stroke:none"
         id="path34" />
      <path
         d="m 932.949,293.281 h 196.401 l -98.18,273.41 z m 33.188,451.231 H 1100.17 L 1373.54,14.6211 H 1230.22 L 1171.83,177.84 H 891.816 L 833.422,14.6211 H 694.074 L 966.137,744.512"
         style="fill:#ffffff;fill-opacity:1;fill-rule:nonzero;stroke:none"
         id="path36" />
      <path
         d="m 1569.97,185.789 c 0,0 78.29,-64.988 179.16,-63.68 61.03,0 114.14,26.532 114.14,76.95 0,130.05 -322.48,126.082 -322.48,345.062 0,111.481 91.54,207.039 249.47,207.039 100.88,0 196.4,-33.191 196.4,-33.191 l -22.55,-126.078 c 0,0 -84.92,37.16 -171.19,37.16 -62.37,0 -111.47,-25.219 -111.47,-71.66 0,-131.411 321.16,-119.43 321.16,-347.7 C 2002.61,78.3203 1889.79,0 1750.48,0 1619.07,0 1528.83,61.0586 1528.83,61.0586 l 41.14,124.7304"
         style="fill:#ffffff;fill-opacity:1;fill-rule:nonzero;stroke:none"
         id="path38" />
      <path
         d="m 2260.07,739.191 h 201.71 l 175.16,-502.961 175.19,502.961 h 197.75 L 3036.4,14.6211 H 2901.06 L 2879.82,582.582 2678.11,14.6211 h -91.59 L 2387.47,581.262 2368.89,14.6211 h -135.38 l 26.56,724.5699"
         style="fill:#ffffff;fill-opacity:1;fill-rule:nonzero;stroke:none"
         id="path40" />
      <path
         d="m 3465.08,293.281 h 196.39 l -98.21,273.41 z m 33.18,451.231 H 3632.3 L 3905.67,14.6211 H 3763.66 L 3705.26,177.84 H 3423.92 L 3365.55,14.6211 H 3226.2 l 272.06,729.8909"
         style="fill:#ffffff;fill-opacity:1;fill-rule:nonzero;stroke:none"
         id="path42" />
      <path
         d="m 4110.03,739.191 h 140.69 l 353.01,-510.91 v 510.91 h 136.69 V 14.6211 h -142 L 4246.75,521.559 V 13.2695 H 4110.03 V 739.191"
         style="fill:#ffffff;fill-opacity:1;fill-rule:nonzero;stroke:none"
         id="path44" />
      <path
         d="m 5029.75,739.191 h 140.66 V 14.6211 H 5029.75 V 739.191"
         style="fill:#ffffff;fill-opacity:1;fill-rule:nonzero;stroke:none"
         id="path46" />
      <path
         d="m 5613.65,293.281 h 196.4 l -98.18,273.41 z m 34.49,451.231 h 134.07 L 6055.59,14.6211 H 5913.58 L 5855.19,177.84 h -280.01 l -58.4,-163.2189 h -142 l 273.36,729.8909"
         style="fill:#ffffff;fill-opacity:1;fill-rule:nonzero;stroke:none"
         id="path48" />
      <path
         d="m 5575.18,1132.01 c 70.35,0 114.14,80.99 114.14,149.96 0,46.44 -19.93,82.29 -65.06,82.29 -62.35,0 -115.42,-62.37 -115.42,-144.63 0,-51.77 19.89,-87.62 66.34,-87.62 m 50.42,276.04 c 78.29,0 116.79,-61.03 116.79,-124.74 0,-79.61 -63.71,-196.4 -172.53,-196.4 -78.33,0 -116.79,61.02 -116.79,128.71 1.31,94.25 74.31,192.43 172.53,192.43"
         style="fill:#ffffff;fill-opacity:1;fill-rule:nonzero;stroke:none"
         id="path50" />
      <path
         d="m 5804.74,1385.52 47.79,17.24 2.67,14.6 c 10.59,79.64 43.78,169.88 141.97,169.88 47.79,0 75.66,-18.58 75.66,-18.58 l -22.59,-41.17 c 0,0 -23.86,14.64 -51.73,14.64 -67.69,0 -83.61,-70.38 -95.56,-143.38 h 82.29 l -9.28,-42.45 h -78.32 c -19.9,-164.55 -42.44,-386.159 -164.56,-422.011 l -21.2,35.852 c 75.62,25.179 107.47,159.239 123.42,282.669 l 13.26,102.14 h -41.17 v 30.57 h -2.65"
         style="fill:#ffffff;fill-opacity:1;fill-rule:nonzero;stroke:none"
         id="path52" />
      <path
         d="m 2320.56,4454.07 c -15.3,0 -50.33,-2.17 -72.19,-2.17 -13.13,0 -24.06,2.17 -41.55,8.73 -6.57,2.21 -10.94,-2.19 -13.13,-8.73 l -2.17,-48.12 c 0,-10.96 8.73,-19.69 19.66,-21.89 37.19,-8.74 83.12,-4.37 142.2,59.09 13.1,10.92 -17.53,13.09 -32.82,13.09"
         style="fill:#ffffff;fill-opacity:1;fill-rule:nonzero;stroke:none"
         id="path54" />
      <path
         d="m 4580.04,3843.81 c -6.53,-96.25 -52.49,-159.67 -155.26,-190.3 -102.82,-28.42 -290.94,-74.38 -487.8,-41.55 -13.09,2.19 -30.59,45.92 -35,61.25 0,2.2 0,4.37 2.21,4.37 179.36,-30.63 444.03,-2.17 524.92,50.32 107.21,67.78 72.22,258.11 -69.95,312.76 -209.99,80.95 -656.23,-26.22 -960.23,-30.62 -111.58,-2.17 -231.89,0 -363.12,115.94 -85.32,83.11 -91.85,220.92 -32.8,317.17 56.85,85.28 161.86,118.1 258.08,109.34 249.38,-19.67 321.54,144.37 533.72,190.33 205.62,43.72 299.67,-17.5 325.93,-39.4 2.17,-2.16 0,-6.56 -2.23,-6.56 -37.16,6.56 -164.04,21.89 -325.86,-45.92 -59.1,-24.06 -113.75,-67.83 -159.7,-102.81 -2.21,-2.18 -2.21,-4.37 2.2,-6.58 107.14,-26.22 120.3,-50.28 238.41,-59.05 279.98,-21.86 347.76,98.45 492.16,67.82 109.35,-21.89 161.83,-89.68 174.96,-109.37 2.2,-2.17 0,-4.37 -2.19,-4.37 -433.08,102.78 -389.32,-85.31 -621.18,-102.81 -140,-10.93 -343.42,109.38 -402.48,100.61 -2.19,0 -2.19,-2.17 -2.19,-2.17 -2.17,-21.89 -21.87,-188.12 -155.31,-150.93 -2.16,0 -2.16,4.37 -2.16,6.56 50.32,48.13 30.59,122.48 -41.56,144.37 -45.92,13.1 -104.98,10.94 -155.33,-8.76 -80.89,-32.79 -111.51,-144.37 -63.42,-216.52 72.18,-107.21 185.93,-131.27 345.59,-120.34 166.27,10.93 275.64,24.06 509.66,54.72 67.82,8.73 201.23,24.03 328.09,28.42 -8.76,-13.12 -15.29,-26.25 -21.85,-41.55 -2.21,-2.2 -2.21,-6.57 0,-10.93 2.17,-4.4 8.73,-6.6 13.09,-4.4 13.13,8.76 26.26,17.49 39.4,26.26 l 19.69,13.13 c 6.53,4.37 13.1,8.73 17.5,15.3 v 2.19 c 26.23,0 50.29,0 74.35,-2.19 l -2.21,-4.37 c -10.92,-15.33 -19.65,-32.83 -28.42,-50.32 -2.16,-4.37 -2.16,-8.73 0,-10.93 4.4,-4.4 8.77,-4.4 13.16,-2.2 13.11,10.93 28.43,21.89 41.52,30.62 l 21.87,15.34 c 6.56,4.36 13.16,8.73 19.73,15.29 41.52,-4.36 74.32,-13.13 89.64,-28.42 l -91.87,-76.56 c -10.94,2.17 105.01,-78.75 96.24,-212.18 m -625.57,-415.58 c 91.89,-59.06 262.48,-50.33 426.55,-2.2 2.16,0 2.16,0 4.36,-2.17 21.87,-52.52 39.4,-105.01 50.32,-161.86 -15.32,8.73 -32.79,17.5 -48.11,24.06 -17.5,6.53 -35.03,13.13 -52.53,15.3 -17.49,4.36 -34.96,6.56 -54.69,6.56 -4.36,0 -8.73,-2.2 -8.73,-6.56 -2.2,-4.37 2.2,-10.94 6.56,-13.13 15.31,-4.37 32.84,-10.94 48.13,-17.5 15.3,-6.57 30.62,-15.3 43.76,-24.06 13.09,-8.77 28.43,-19.7 39.35,-30.63 13.14,-10.93 24.07,-24.03 37.2,-32.79 2.17,-32.83 4.37,-65.62 2.17,-98.45 -4.38,2.2 -8.77,4.4 -13.11,8.77 -15.32,8.76 -32.79,17.49 -50.32,24.06 -17.49,6.56 -34.99,13.13 -52.49,17.5 -17.53,4.36 -35.02,6.56 -54.69,6.56 -4.36,0 -8.76,-2.2 -8.76,-6.56 -2.16,-4.37 2.2,-10.94 6.57,-13.13 15.33,-4.37 32.79,-10.94 48.12,-17.5 15.33,-6.57 30.63,-15.3 43.76,-24.06 13.13,-8.74 28.43,-19.67 39.36,-30.63 13.13,-10.93 24.06,-21.86 35.03,-30.63 -8.77,-72.15 -26.26,-146.54 -50.33,-223.08 -2.2,-6.57 -4.36,-13.13 -8.77,-19.7 102.82,-54.69 126.88,-196.86 48.13,-212.15 -24.06,-4.4 -48.13,2.16 -63.42,13.09 -6.57,4.4 -13.13,2.2 -15.33,-6.56 -8.73,-41.53 -37.2,-120.27 -94.04,-120.27 -45.93,0 -61.22,37.15 -61.22,72.14 0,10.97 -13.17,15.34 -19.74,6.6 -28.43,-35.02 -56.86,-48.15 -80.91,-32.82 -30.6,21.86 -37.17,54.69 -24.06,78.75 34.99,72.18 135.63,98.41 177.16,153.1 50.32,89.68 -32.8,271.24 -94.05,400.28 -6.57,13.13 -21.86,19.7 -35,15.3 -56.88,-17.47 -207.78,-50.29 -391.51,-15.3 -247.18,48.12 -382.78,140 -463.73,244.98 0,0 0,2.2 -2.17,2.2 -4.36,6.53 -10.93,13.13 -15.3,21.86 -21.9,30.63 -35.02,54.69 -48.16,74.35 -2.16,4.4 -6.53,6.6 -8.76,6.6 -24.03,4.37 -10.93,-63.45 -6.53,-80.95 0,-2.2 0,-2.2 -2.17,-4.36 -50.32,-10.97 -107.2,-2.2 -172.82,-4.37 0,0 -2.17,0 -2.17,-2.2 -94.05,-118.11 -124.71,-201.26 -391.55,-249.35 -37.16,-6.56 -34.99,-30.62 -17.5,-43.75 15.33,-10.94 37.19,-45.93 43.76,-91.88 2.2,-19.67 -13.13,-45.93 -96.24,-102.81 -2.21,4.39 -4.37,8.76 -6.57,15.33 -8.77,15.29 -17.5,30.62 -28.43,41.55 -10.93,13.13 -21.86,24.06 -34.99,32.8 -13.13,8.76 -26.26,17.49 -41.56,24.09 -6.57,2.17 -13.13,0 -17.5,-4.4 -4.39,-6.56 -4.39,-17.49 2.2,-21.86 h 2.17 c 8.77,-6.57 19.69,-17.5 28.43,-26.26 8.76,-10.93 15.29,-21.87 21.89,-32.79 6.53,-10.94 10.93,-21.87 13.1,-35 2.2,-8.76 2.2,-19.7 2.2,-28.46 -34.99,-21.86 -67.79,-41.56 -98.44,-54.69 -2.17,8.77 -4.37,15.33 -6.54,24.07 -6.59,15.33 -15.33,30.62 -24.09,45.95 -8.74,13.13 -21.87,26.26 -32.8,35 -13.13,10.92 -24.06,19.69 -39.35,26.22 -6.57,2.2 -13.13,2.2 -17.53,-4.36 -4.37,-6.57 -4.37,-17.5 2.19,-21.86 l 2.21,-2.2 c 8.73,-8.74 17.49,-19.67 26.22,-28.43 6.57,-10.94 13.13,-21.86 19.7,-34.99 4.36,-10.94 8.76,-24.07 10.93,-35 2.2,-10.93 2.2,-21.86 0,-30.62 -122.47,-43.76 -199.03,-24.07 -238.42,0 -13.13,10.93 -21.86,15.29 -28.42,19.69 -10.94,6.53 -21.86,2.17 -28.43,-6.56 -6.56,-8.77 -6.56,-21.86 0,-28.47 4.36,-6.53 10.93,-17.46 17.49,-26.22 6.57,-10.97 10.94,-24.06 10.94,-37.19 0,-41.56 -37.2,-54.69 -83.12,-54.69 -45.92,0 -80.92,13.13 -80.92,54.69 v 21.89 c 0,10.93 -8.76,21.86 -19.69,19.66 -8.76,-2.19 -17.5,-8.73 -21.86,-15.33 l -13.13,-24.03 c -2.2,-4.4 -74.39,-168.42 -148.77,-131.23 -50.29,24.06 -26.23,83.11 0,126.83 6.6,13.14 -4.37,26.27 -17.46,21.9 -24.07,-8.76 -50.33,-13.13 -72.22,0 -45.92,26.26 -61.22,76.55 -45.92,109.35 15.32,28.46 34.99,61.25 67.81,87.51 6.57,6.57 6.57,17.49 0,24.06 -17.49,17.5 -24.06,30.63 -15.29,50.29 10.93,24.06 34.99,32.83 80.91,26.26 52.49,-8.73 80.92,-67.82 98.42,-133.44 6.56,-24.06 28.45,-37.16 50.32,-32.79 179.36,43.73 312.8,172.8 417.78,260.28 4.36,-2.17 6.56,-4.37 8.73,-8.73 l 28.45,-24.07 13.11,4.37 c 266.87,74.35 514.05,341.23 575.27,498.73 19.7,52.49 32.83,104.98 37.19,157.47 371.83,10.92 365.29,21.89 531.52,50.32 129.05,24.05 301.84,-52.49 384.96,-137.81 52.51,-65.61 50.32,-183.76 115.93,-227.48 m -258.1,-542.45 c -21.87,-59.06 -52.49,-113.75 -85.32,-164.07 -8.74,15.33 -19.66,28.46 -30.59,39.39 -10.94,10.93 -24.1,21.87 -35.03,30.63 -13.1,8.73 -24.02,17.46 -39.36,24.06 -6.57,2.17 -13.09,2.17 -17.5,-4.4 -4.36,-6.56 -4.36,-17.49 2.17,-21.86 8.76,-8.77 19.73,-17.5 28.5,-28.43 8.69,-10.93 17.46,-21.89 24.02,-32.82 6.56,-10.93 13.1,-21.87 15.33,-35 4.37,-10.93 6.54,-24.06 6.54,-34.99 -19.7,-24.06 -41.57,-48.12 -61.22,-72.18 -2.2,2.16 -2.2,6.56 -4.41,8.76 -8.76,15.3 -17.46,28.43 -28.42,41.53 -10.93,13.13 -21.86,21.89 -35,32.82 -13.12,8.74 -24.06,17.5 -39.38,26.27 -6.53,2.16 -13.11,2.16 -17.47,-4.4 -6.56,-6.54 -4.4,-17.5 2.17,-21.87 8.77,-8.73 19.69,-19.69 26.26,-30.62 8.77,-10.94 15.3,-21.86 21.86,-32.8 6.56,-10.93 10.93,-24.06 13.14,-35.02 2.19,-10.93 4.36,-24.06 4.36,-35 v -4.36 c -32.83,-32.79 -67.79,-61.26 -96.22,-85.31 0,0 -2.23,-2.21 0,-4.37 41.53,-115.95 -28.43,-223.08 -65.61,-118.11 -8.77,24.06 -15.34,19.69 -32.83,6.57 -15.33,-10.97 -146.57,-102.81 -161.86,-113.74 l -2.17,-2.21 c 15.26,-87.48 -70.02,-164.03 -126.91,-159.67 -48.09,4.38 -72.15,61.26 -59.02,137.82 2.17,10.92 -8.76,17.49 -17.53,10.92 -50.29,-41.56 -142.17,-96.25 -201.22,-10.92 -28.43,39.35 26.26,107.17 54.69,137.8 6.56,6.53 2.16,19.7 -6.57,21.85 -45.92,6.58 -135.6,26.27 -98.44,72.19 32.82,41.56 98.44,35 144.37,32.79 52.48,-4.36 164.06,-19.66 255.94,-122.47 0,0 2.17,-2.16 4.37,0 15.29,8.76 100.6,61.25 137.8,105.01 41.52,48.09 104.98,85.29 109.38,312.77 2.16,107.17 -94.09,194.69 -150.94,279.97 -56.89,83.12 -89.68,155.31 -48.16,293.11 0,2.2 2.24,2.2 2.24,2.2 6.53,0 37.16,2.16 126.84,2.16 h 2.16 c 10.93,-13.13 115.98,-133.4 260.32,-192.46 2.16,0 2.16,-2.19 2.16,-2.19 -4.33,-26.26 -19.66,-249.35 216.56,-249.35 M 2141.2,3301.36 c -24.07,34.99 -41.56,67.81 -54.69,102.81 -4.37,13.13 -8.77,32.79 -15.3,50.32 -2.2,6.53 -8.76,8.73 -13.13,4.33 -19.7,-19.66 -34.99,-39.35 -50.32,-67.78 0,-2.17 -2.17,-2.17 -2.17,-4.37 -15.33,-28.42 -26.26,-59.05 -37.19,-94.08 -26.26,21.9 -56.86,52.52 -85.31,85.31 0,4.37 2.19,8.77 2.19,13.14 2.21,8.76 2.21,17.49 4.37,26.26 4.36,17.49 8.76,34.99 13.13,52.49 2.2,4.36 0,8.76 -2.16,10.93 -4.4,4.36 -10.97,4.36 -13.13,0 -13.14,-13.13 -24.07,-30.63 -35.03,-45.93 -2.17,-4.4 -4.37,-8.76 -6.57,-10.93 -15.29,19.66 -30.63,41.56 -45.92,63.42 0,4.37 0,6.57 2.2,10.94 0,8.76 2.17,15.29 4.36,24.05 2.21,17.5 6.57,32.83 13.13,50.33 0,4.36 0,6.53 -2.19,10.93 -4.37,4.36 -10.94,4.36 -13.13,0 -13.13,-13.13 -24.07,-26.26 -35,-43.76 0,0 -2.16,-2.2 -2.16,-4.37 -85.32,124.68 -157.5,253.72 -179.37,290.91 2.17,4.4 2.17,6.57 4.37,10.93 4.37,17.5 4.37,32.83 -2.2,48.12 0,2.2 -2.17,2.2 -2.17,4.37 4.37,0 8.74,2.2 15.3,2.2 13.13,4.39 24.06,13.13 32.83,24.06 8.73,10.93 13.09,24.06 15.3,34.99 2.19,13.13 4.36,28.43 0,41.56 -2.21,13.13 -8.74,21.9 -15.3,30.63 13.09,8.73 21.86,19.69 28.43,32.82 2.19,4.37 4.36,6.57 4.36,10.94 2.2,2.16 2.2,6.56 4.37,10.93 10.93,-8.77 19.69,-17.5 26.26,-35 21.86,-45.92 -4.37,-118.11 -6.57,-146.54 -4.36,-28.45 8.77,-67.81 28.43,-94.07 19.69,-26.23 185.92,-122.48 343.42,-188.1 l 24.07,-10.96 c 34.99,122.51 131.24,225.32 201.22,299.67 15.33,17.53 30.63,35 43.76,50.32 l 15.29,19.7 -21.86,21.86 c -28.46,32.83 -63.42,41.56 -83.11,41.56 -35,0 -100.62,-26.26 -100.62,-26.26 -32.82,34.99 17.5,78.75 39.36,100.61 28.43,0 65.62,2.2 80.95,4.4 6.53,0 15.3,0 24.03,2.2 8.76,0 15.33,10.93 10.93,19.66 -8.73,15.33 -19.66,37.2 -30.59,48.12 -15.3,19.7 -54.69,2.2 -118.11,8.77 -91.88,10.93 -126.87,164.03 -126.87,164.03 24.06,-4.37 69.98,2.2 107.17,28.43 39.36,24.06 56.89,80.94 104.98,113.74 45.96,32.82 153.11,41.55 231.86,48.13 74.38,4.36 91.87,54.68 109.37,89.67 2.2,4.37 6.57,6.57 10.93,4.37 94.08,-61.22 78.75,-139.97 54.69,-174.97 -4.37,-6.56 -13.13,-17.49 -19.7,-26.25 -2.16,-2.17 -2.16,-6.57 2.21,-8.74 15.29,-8.76 24.05,-17.49 32.82,-43.76 15.3,-43.75 8.73,-91.88 -6.6,-120.3 -19.66,-39.36 -56.85,-54.69 -89.65,-67.82 -4.4,-2.17 -13.13,-4.37 -21.86,-8.73 -21.89,-10.93 -17.53,-45.92 6.54,-45.92 13.12,0 17.49,-2.2 21.89,0 80.91,-2.2 142.17,26.22 179.36,45.92 24.06,-45.92 76.55,-148.74 100.61,-273.41 -8.76,8.73 -19.69,17.5 -28.46,24.06 -21.86,15.3 -45.92,28.43 -69.98,39.36 -24.06,8.77 -50.3,17.5 -74.39,19.7 -6.53,0 -13.09,-2.2 -17.46,-10.93 -4.4,-8.77 0,-17.5 8.73,-21.9 21.86,-8.73 43.76,-19.66 63.42,-32.79 19.7,-10.94 39.39,-26.26 56.89,-39.37 17.5,-15.32 32.79,-32.82 45.92,-50.32 6.57,-8.76 13.13,-19.69 19.7,-28.43 l 8.73,-15.32 v -2.2 c 0,-63.42 -8.73,-131.24 -34.96,-199.03 -2.2,-4.36 -2.2,-6.56 -4.4,-10.92 -2.2,6.56 -4.36,13.09 -6.56,19.69 -10.93,30.59 -26.23,61.22 -45.93,87.48 -19.69,26.23 -43.75,50.29 -72.18,67.82 -28.43,17.46 -56.89,28.43 -87.48,34.96 -6.57,2.2 -15.33,-2.17 -17.5,-10.93 -4.4,-8.73 0,-17.5 8.73,-21.87 26.26,-10.92 50.29,-26.22 72.19,-43.75 21.86,-17.5 39.36,-37.16 54.68,-61.22 15.3,-24.06 26.23,-50.32 35,-76.58 4.36,-13.1 8.76,-28.43 13.13,-41.53 2.17,-6.6 4.36,-13.13 4.36,-21.9 0,-2.16 2.21,-6.56 4.37,-8.76 -28.43,-41.56 -63.42,-87.48 -107.18,-131.24 0,6.6 -2.2,10.97 -2.2,17.53 -2.16,8.73 -2.16,17.5 -4.33,26.23 -8.76,34.99 -19.73,69.98 -37.19,102.81 -17.5,32.79 -39.39,61.26 -67.82,85.31 -26.23,24.07 -56.89,41.56 -89.68,52.49 -6.57,2.17 -15.3,0 -19.7,-6.56 -4.36,-8.76 -2.17,-17.5 6.57,-21.86 26.26,-17.5 52.52,-35.03 72.18,-59.09 19.7,-21.86 37.19,-48.09 50.29,-76.55 13.13,-28.43 21.9,-59.06 28.46,-89.65 2.2,-8.76 2.2,-15.33 4.37,-24.06 2.2,-8.76 2.2,-15.33 2.2,-24.1 0,-8.73 2.16,-15.29 2.16,-24.05 0,-2.17 2.21,-6.54 2.21,-8.74 -35,-30.62 -72.19,-61.25 -111.55,-89.68 -2.2,0 -4.4,2.2 -6.57,4.37 -6.56,4.36 -13.13,8.76 -19.69,13.13 -6.57,4.36 -13.1,8.76 -19.69,13.13 -6.54,4.36 -13.13,8.73 -17.5,15.3 -24.06,19.69 -45.93,41.55 -63.42,65.62 -17.5,24.05 -32.83,50.32 -41.56,80.94 -8.77,28.43 -13.13,61.22 -13.13,94.05 0,8.73 -4.37,15.33 -13.13,15.33 -8.73,2.17 -17.5,-4.4 -19.7,-13.13 -6.53,-35.03 -6.53,-72.18 -2.17,-109.38 6.57,-37.19 19.7,-72.18 39.36,-105.01 19.7,-32.79 41.56,-59.02 67.82,-85.28 6.57,-6.57 13.13,-13.13 19.7,-17.49 6.57,-4.4 10.93,-10.94 17.49,-15.34 -45.92,-26.22 -91.88,-48.12 -140,-61.22 l -6.56,6.54 c -17.5,15.33 -34.99,28.46 -50.29,43.76 -43.76,41.55 -76.59,78.75 -102.81,113.74 m -719.62,-120.31 c -13.13,0 -10.96,94.05 -6.56,240.61 4.37,155.3 15.29,336.83 17.49,376.22 15.3,-6.56 30.6,-10.93 50.29,-15.33 10.94,-2.16 24.07,-4.36 37.2,-4.36 h 6.56 c -8.76,-41.56 -15.3,-98.42 -24.06,-164.04 -6.57,-48.12 -19.7,-124.67 -30.63,-196.85 -17.49,-120.31 -41.56,-236.25 -50.29,-236.25 m -89.68,912.1 c 13.1,39.4 61.25,28.46 89.68,21.9 6.54,-2.2 10.93,4.36 8.73,10.93 -8.73,17.5 -15.29,45.92 -4.36,63.42 19.69,30.63 80.92,-2.17 109.38,-15.29 28.42,-13.14 91.84,-48.13 76.55,-85.32 -6.57,-21.86 -28.47,-30.63 -43.76,-30.63 -6.57,0 -8.76,-8.73 -4.37,-13.13 15.3,-17.46 39.36,-48.09 28.43,-76.55 -10.93,-28.43 -52.49,-24.06 -76.55,-21.86 -6.57,0 -10.96,-8.76 -6.57,-13.13 15.3,-17.5 35,-45.93 26.27,-72.19 -10.97,-43.73 -78.75,-13.13 -113.75,2.2 -35.02,15.3 -78.75,45.93 -72.18,76.55 4.36,19.7 30.62,32.83 48.09,39.36 6.6,2.2 6.6,10.97 2.2,15.33 -26.26,19.7 -78.75,61.25 -67.79,98.41 m 102.78,496.53 c 17.5,76.55 91.88,94.05 120.31,102.81 63.42,17.5 124.7,10.93 177.19,-8.76 52.49,-19.66 133.41,-4.37 174.96,10.96 43.76,17.5 76.56,26.23 98.45,17.5 30.6,-10.93 54.69,-13.14 72.15,-13.14 32.83,0 80.95,15.34 85.32,15.34 0,0 -52.49,-43.79 -87.48,-43.79 -52.49,2.2 -89.69,-52.49 -105.01,-80.92 -15.3,-28.43 -43.73,-45.92 -107.15,-48.13 -83.15,-2.19 -87.51,-67.78 -96.24,-96.24 -6.57,-28.43 -35,-43.72 -94.08,-37.16 -96.21,13.1 -129.04,30.63 -170.6,50.29 -54.69,30.63 -78.75,80.92 -67.82,131.24 m 24.09,-172.8 c 50.29,-32.82 104.98,-45.92 150.91,-56.85 0,0 -17.5,-142.17 -19.7,-142.17 -6.57,4.37 -15.3,8.73 -21.86,10.93 -19.7,10.93 -39.39,19.69 -59.06,28.43 -10.92,4.37 -21.86,8.73 -34.99,10.93 -6.56,2.2 -13.13,2.2 -21.89,2.2 z m 3213.15,-260.27 c 2.17,2.16 2.17,4.36 0,4.36 -102.81,107.18 -557.74,54.69 -732.74,32.83 -218.75,-24.07 -398.09,-48.12 -452.77,-52.49 -59.06,-2.2 -179.36,-10.97 -249.38,21.86 -78.75,39.36 -102.78,67.79 -107.18,107.18 -17.5,115.91 83.12,118.1 113.74,118.1 30.63,0 76.56,0 74.39,-43.75 -2.2,-30.59 -28.43,-43.72 -54.69,-56.86 -2.2,0 -2.2,-4.36 0,-4.36 15.33,-13.13 72.19,-56.89 135.64,-52.52 74.35,4.4 124.63,19.69 157.47,142.17 0,2.19 2.19,2.19 4.36,2.19 21.87,-8.73 166.26,-63.41 251.54,-80.91 67.83,-15.33 170.64,-17.5 240.59,24.03 70.02,41.59 172.83,102.81 286.57,96.28 100.61,-4.4 216.56,-6.57 284.34,-45.96 2.17,-2.17 4.4,0 4.4,4.37 -13.16,45.96 -105.02,299.67 -411.25,229.68 -76.55,-21.86 -87.48,-39.36 -148.73,-50.32 -72.18,-13.13 -181.53,-19.67 -330.26,15.33 -2.21,0 -4.41,4.37 0,6.56 39.35,21.87 242.77,126.88 468.07,87.48 2.19,0 4.36,2.21 2.19,4.37 -21.86,28.46 -122.51,153.13 -290.91,146.57 -194.68,-6.57 -238.41,-50.32 -358.72,-113.75 -111.57,-59.05 -159.66,-98.41 -349.99,-87.48 -118.1,6.54 -244.98,-87.51 -271.24,-161.86 -111.54,-323.73 129.08,-452.77 341.26,-487.76 196.86,-30.63 879.28,109.34 1041.15,34.99 74.38,-32.83 118.1,-102.81 113.74,-161.87 -2.17,-28.42 -32.83,-76.58 -126.88,-96.24 -96.24,-21.9 -301.83,-30.63 -481.19,13.13 -4.37,2.16 -166.27,94.04 -293.11,100.61 -94.05,6.57 -334.66,-45.92 -409.04,-48.12 -52.49,0 -155.27,-6.57 -209.96,-10.93 2.17,244.98 -131.23,446.2 -137.8,457.13 -8.77,13.13 -26.26,17.5 -39.39,8.77 0,0 -17.5,-8.77 -50.29,-24.06 34.99,69.98 26.23,159.66 -6.57,194.65 -2.2,2.2 -2.2,4.37 0,6.57 8.73,8.73 28.43,43.76 30.63,76.55 2.17,56.89 -8.77,129.04 -144.37,203.42 -8.77,4.37 -19.69,0 -24.06,-8.76 -10.93,-28.43 -35,-78.72 -59.06,-80.91 -50.32,-4.37 -203.42,-37.2 -242.78,-59.06 -39.39,-19.69 -85.31,-52.49 -109.38,-89.68 -24.06,-37.19 -52.52,-54.69 -91.88,-63.42 -39.35,-8.77 -54.68,0 -67.78,-13.13 -10.97,-13.14 -19.7,-24.06 -15.33,-48.13 2.2,-17.49 34.99,-85.31 52.49,-118.1 13.13,-24.06 32.83,-50.33 54.69,-63.46 h -52.49 c -15.3,0 -45.93,2.21 -45.93,2.21 -6.56,0 -13.13,-2.21 -15.32,-8.77 -2.21,-6.57 -2.21,-13.1 2.19,-17.5 15.34,-17.5 32.8,-37.19 94.05,-37.19 h 6.56 48.13 c -6.57,-8.73 -15.3,-17.5 -19.7,-24.06 -4.36,-6.53 -39.35,-41.56 -15.3,-96.21 19.7,-43.76 48.13,-59.06 48.13,-59.06 34.99,24.03 111.54,59.06 142.17,34.96 -6.57,-6.53 -10.93,-13.1 -17.5,-19.66 -63.42,-69.99 -148.73,-157.5 -194.66,-266.88 -59.08,21.9 -201.25,76.59 -266.87,142.21 -19.66,19.69 -39.36,74.37 -26.26,115.91 10.96,35.02 19.69,72.18 -6.53,129.07 -24.07,52.48 -94.09,104.97 -94.09,104.97 8.77,63.46 21.9,148.74 26.27,172.8 59.05,-6.53 115.91,8.76 135.6,37.19 19.7,28.43 24.06,85.31 34.99,98.45 8.77,13.13 30.63,8.73 41.6,8.73 26.22,2.2 59.01,2.2 91.84,32.83 34.99,32.79 61.26,78.71 91.88,83.08 43.73,6.59 67.79,19.72 89.68,37.19 26.26,21.9 80.92,89.68 181.53,87.52 28.46,0 43.76,28.42 -8.73,39.35 -69.99,15.34 -148.74,2.2 -190.3,-15.3 -56.88,-21.89 -80.94,-2.19 -105.01,4.37 -37.19,10.93 -74.35,8.77 -129.03,-13.13 -45.93,-17.5 -126.88,-28.43 -175,-13.13 -67.79,21.89 -124.67,32.83 -212.16,10.97 -76.55,-17.5 -129.04,-61.26 -155.3,-124.71 -24.06,-59.02 -4.39,-104.98 0,-115.91 4.37,-10.93 15.3,-28.46 19.67,-32.79 -2.17,-50.32 -8.73,-216.59 -8.73,-236.25 -10.94,-15.3 -15.33,-35 -15.33,-43.76 -2.17,-8.73 -2.17,-15.29 -2.17,-24.06 h -8.77 c -17.49,-2.17 -37.16,-8.73 -50.29,-24.03 l -4.39,-6.6 -4.37,-6.53 c -2.17,-4.4 -6.56,-8.77 -8.76,-13.13 l -6.54,-13.13 c -2.2,-4.4 -2.2,-10.93 -4.4,-17.5 -2.16,-10.93 -2.16,-24.06 0,-34.99 2.2,-10.93 6.57,-21.86 13.14,-30.63 8.76,-15.32 19.69,-24.06 30.62,-32.79 -4.36,-4.4 -8.76,-10.96 -13.13,-15.33 -8.73,-13.13 -13.1,-26.26 -15.3,-45.93 -2.19,-19.69 4.37,-37.19 13.13,-50.32 8.74,-13.13 17.5,-24.05 28.43,-30.62 8.77,-6.57 21.86,-15.3 30.63,-21.86 -24.06,-684.63 -26.26,-710.89 43.76,-732.75 h 8.73 c 83.11,0 104.98,183.73 153.1,503.06 6.57,45.96 10.97,87.48 17.49,122.51 59.09,-109.38 192.5,-336.87 387.16,-514.02 10.96,-8.74 26.26,-4.37 30.62,10.92 21.9,89.69 37.19,120.31 45.96,135.64 13.1,-28.46 34.99,-65.65 52.49,-91.88 26.22,-37.19 59.05,-74.38 98.45,-109.37 -59.09,-56.86 -205.63,-185.93 -354.36,-231.85 -2.2,0 -2.2,0 -4.4,2.19 -4.37,13.1 -30.59,69.99 -63.42,100.61 -37.19,32.8 -67.82,69.99 -205.63,39.37 0,0 -37.15,-8.74 -78.71,-26.26 -17.5,-6.54 -13.13,-32.8 4.36,-32.8 17.5,0 32.8,-2.2 39.4,-4.37 2.16,0 2.16,-2.19 2.16,-2.19 -2.16,-8.74 -4.36,-35 10.93,-59.06 v -4.36 c -15.29,-10.94 -111.54,-87.49 -94.04,-244.99 2.2,-10.93 15.33,-13.13 19.69,-2.2 6.57,21.86 15.3,45.96 15.3,43.76 8.77,-13.13 43.76,-72.18 98.44,-80.95 2.17,0 2.17,-2.17 2.17,-2.17 -2.17,-17.49 -10.93,-107.17 56.89,-192.49 8.73,-10.93 24.06,-4.4 24.06,10.94 0,13.13 -2.2,24.06 0,34.99 0,2.2 2.17,4.4 4.37,2.2 10.93,-8.77 37.19,-17.5 72.18,4.36 32.79,19.7 72.18,61.25 102.81,113.74 0,2.21 4.37,2.21 4.37,0 26.22,-32.79 65.62,-34.99 111.58,-34.99 76.54,0 139.96,41.56 139.96,115.95 v 4.36 c 172.8,-17.5 277.78,24.06 409.02,107.18 122.5,76.55 183.75,131.23 174.99,201.22 -4.36,30.63 -17.49,65.62 -39.39,85.32 209.99,4.36 319.37,146.53 358.76,209.98 2.16,2.17 6.53,0 4.37,-2.19 -13.14,-59.06 -15.34,-170.6 17.49,-229.66 48.12,-87.51 161.86,-220.92 179.36,-275.6 17.5,-54.69 15.29,-194.7 -45.93,-271.24 -61.28,-76.56 -76.54,-89.69 -122.5,-115.92 h -2.19 c -10.94,10.94 -94.06,80.92 -174.97,94.05 -83.11,13.13 -343.43,72.19 -356.56,-212.19 0,-13.09 15.33,-19.69 24.07,-10.92 17.52,21.89 41.55,48.12 56.88,54.68 h 2.2 c 6.53,-2.16 37.16,-19.69 50.29,-21.86 2.2,0 2.2,-2.17 2.2,-4.4 -43.76,-56.85 -85.32,-148.74 -2.2,-249.34 6.56,-8.74 21.86,-2.17 19.7,8.76 -2.2,15.29 -2.2,34.96 0,52.49 0,2.2 4.36,4.36 4.36,2.2 30.63,-43.76 98.45,-59.09 164.07,-30.66 2.16,0 4.36,0 4.36,-2.17 2.2,-17.5 19.7,-91.88 131.24,-175 10.93,-8.76 26.26,4.41 21.86,17.5 -6.53,21.9 -15.29,43.76 -13.13,56.89 0,2.2 2.2,2.2 2.2,2.2 43.76,0 107.18,21.86 135.6,83.08 24.07,54.69 34.99,107.21 37.2,115.94 0,0 0,2.21 2.17,2.21 l 98.44,63.44 c 2.2,0 4.36,0 4.36,-2.22 6.57,-17.47 15.33,-39.37 32.83,-43.73 2.2,0 2.2,-2.17 2.2,-4.4 -2.2,-8.73 -10.93,-41.52 -21.86,-67.78 -4.4,-8.77 6.57,-17.5 15.26,-13.14 63.46,45.96 192.53,166.23 133.48,293.11 207.78,164.06 336.82,365.29 356.52,487.79 2.17,17.47 -10.97,32.79 -26.26,32.79 -133.41,4.37 -205.6,39.37 -194.66,161.87 0,2.2 2.17,2.2 4.37,2.2 32.79,-8.76 332.46,-89.68 533.68,-30.63 13.16,4.37 24.1,-2.19 30.66,-15.32 21.86,-41.56 67.79,-133.44 78.71,-188.1 17.5,-70.02 4.37,-105.01 2.21,-107.18 -10.94,-15.33 -32.79,-32.82 -89.69,-67.82 -142.17,-91.88 -129.03,-209.98 2.21,-343.38 6.56,-6.58 17.49,0 15.29,8.73 -6.56,28.42 -17.5,65.61 -17.5,80.94 0,2.17 2.21,2.17 4.37,2.17 19.7,-4.37 35,2.2 45.93,6.56 2.19,0 4.36,0 4.36,-2.19 2.24,-17.5 17.5,-87.48 118.15,-133.41 4.39,-2.17 10.92,2.17 8.73,8.77 -8.73,19.66 -21.87,56.85 -21.87,72.15 0,2.19 2.2,4.39 2.2,4.39 21.86,0 102.81,0 120.31,107.18 0,2.17 2.17,2.17 4.37,2.17 19.65,-6.57 126.87,-41.56 192.49,43.76 2.16,4.36 0,10.92 -4.4,8.73 -17.5,-4.37 -48.12,-10.94 -63.43,-4.37 -2.19,0 -2.19,2.2 -2.19,4.37 10.93,17.49 61.26,120.3 -63.42,229.68 0,0 -2.2,2.2 0,4.37 80.92,249.35 63.42,524.95 -26.23,689.02 -6.56,13.09 -21.9,19.66 -35.02,15.3 -155.3,-56.86 -409.05,-78.75 -441.85,59.05 0,2.2 2.21,4.36 4.37,4.36 21.89,-2.16 115.95,-19.66 216.55,-8.73 61.26,6.57 153.14,15.3 244.99,43.76 91.88,28.43 166.23,63.42 201.25,157.46 24.03,65.62 24.03,201.23 -50.32,299.68 v 4.36 l 100.61,98.45"
         style="fill:#ffffff;fill-opacity:1;fill-rule:nonzero;stroke:none"
         id="path56" />
    </g>
  </g>
</svg>
