<?xml version="1.0" encoding="utf-8"?>
<!-- Generator: Adobe Illustrator 25.3.1, SVG Export Plug-In . SVG Version: 6.00 Build 0)  -->
<svg version="1.1" id="Layer_1" xmlns="http://www.w3.org/2000/svg" xmlns:xlink="http://www.w3.org/1999/xlink" x="0px" y="0px"
	 width="200px" height="100.2153px" viewBox="0 0 200 100.2153" style="enable-background:new 0 0 200 100.2153;"
	 xml:space="preserve">
<style type="text/css">
	.st0{fill:#231F20;}
	.st1{fill:#005B94;}
	.st2{fill:#A5CD39;}
	.st3{fill-rule:evenodd;clip-rule:evenodd;fill:#A5CD39;}
	.st4{fill:#8DD7F7;}
	.st5{fill:#00ADEE;}
</style>
<g>
	<path class="st0" d="M41.7074,88.6706l-0.3113-0.8233h-2.5905l-0.3012,0.8032c-0.1305,0.3514-0.241,0.5824-0.3414,0.7229
		c-0.1004,0.1305-0.2711,0.2008-0.502,0.2008c-0.1908,0-0.3715-0.0703-0.5221-0.2209c-0.1406-0.1406-0.2209-0.3012-0.2209-0.492
		c0-0.1004,0.0201-0.2008,0.0502-0.3012c0.0301-0.1004,0.0803-0.2309,0.1506-0.4217l1.7169-4.3475
		c0.0502-0.1305,0.1104-0.2811,0.1807-0.4619c0.0703-0.1707,0.1406-0.3213,0.2209-0.4418c0.0904-0.1305,0.2008-0.2309,0.3414-0.3113
		c0.1406-0.0803,0.3113-0.1205,0.5121-0.1205c0.2108,0,0.3815,0.0402,0.5221,0.1205c0.1406,0.0803,0.2611,0.1807,0.3414,0.3012
		c0.0803,0.1205,0.1506,0.241,0.2008,0.3615c0.0502,0.1205,0.1104,0.2912,0.1908,0.492l1.7671,4.3676
		c0.1406,0.3414,0.2108,0.5924,0.2108,0.753c0,0.1807-0.0703,0.3514-0.2209,0.502c-0.1506,0.1406-0.3213,0.2209-0.5322,0.2209
		c-0.1305,0-0.2309-0.0301-0.3213-0.0703c-0.0904-0.0402-0.1606-0.1004-0.2209-0.1807c-0.0602-0.0703-0.1205-0.1807-0.1807-0.3414
		C41.7776,88.8312,41.7375,88.7308,41.7074,88.6706L41.7074,88.6706z M39.1872,86.6524h1.8173l-0.9137-2.5804L39.1872,86.6524z
		 M47.6112,88.771v-0.0602c-0.0402,0.1707-0.1406,0.3213-0.3213,0.4518c-0.1707,0.1305-0.3514,0.2309-0.5623,0.3012
		c-0.2008,0.0602-0.4418,0.1004-0.6928,0.1004c-0.3213,0-0.6125-0.0703-0.8635-0.2008c-0.251-0.1305-0.4518-0.3615-0.6024-0.6828
		c-0.1606-0.1908-0.241-0.5522-0.241-1.0643v-2.47c0-0.2811,0.0703-0.4819,0.2008-0.6225c0.1305-0.1406,0.3012-0.2109,0.5221-0.2109
		c0.2108,0,0.3916,0.0703,0.5221,0.2109c0.1305,0.1406,0.2008,0.3514,0.2008,0.6225v1.9981c0,0.2811,0.0201,0.5121,0.0703,0.7028
		c0.0402,0.1807,0.1205,0.3213,0.2309,0.4217c0.1104,0.1004,0.2611,0.1506,0.4518,0.1506c0.1908,0,0.3715-0.0602,0.5422-0.1807
		c0.1707-0.1105,0.2912-0.251,0.3615-0.4117c0.0703-0.1908,0.1104-0.5824,0.1104-1.1647v-1.5161
		c0-0.2711,0.0703-0.4819,0.2008-0.6225c0.1305-0.1406,0.3012-0.2109,0.5221-0.2109c0.2108,0,0.3815,0.0703,0.5121,0.2109
		c0.1305,0.1406,0.2008,0.3514,0.2008,0.6225v3.6146c0,0.2611-0.0703,0.4619-0.1908,0.6024
		c-0.1305,0.1406-0.2912,0.2109-0.492,0.2109c-0.1908,0-0.3615-0.0703-0.492-0.2209C47.6815,89.2127,47.6112,89.022,47.6112,88.771
		L47.6112,88.771z M54.5291,87.8372c0,0.3615-0.0904,0.6828-0.2711,0.9438c-0.1707,0.2611-0.4317,0.4619-0.7731,0.5924
		c-0.3414,0.1305-0.753,0.2008-1.235,0.2008c-0.4619,0-0.8635-0.0703-1.1948-0.2209c-0.3313-0.1406-0.5823-0.3213-0.743-0.5422
		c-0.1707-0.2209-0.251-0.4518-0.251-0.6828c0-0.1606,0.0602-0.2912,0.1707-0.4117c0.1205-0.1104,0.2711-0.1707,0.4418-0.1707
		c0.1606,0,0.2811,0.0402,0.3615,0.1105c0.0904,0.0803,0.1707,0.1908,0.241,0.3414c0.1104,0.1807,0.251,0.3313,0.4117,0.4317
		c0.1607,0.1004,0.3916,0.1506,0.6828,0.1506c0.2309,0,0.4117-0.0502,0.5522-0.1506c0.1305-0.0904,0.2008-0.2008,0.2008-0.3113
		c0-0.1908-0.0703-0.3213-0.2209-0.4117c-0.1406-0.0904-0.4117-0.1807-0.8133-0.2811s-0.743-0.2109-1.0241-0.3313
		c-0.2811-0.1205-0.5121-0.2912-0.6828-0.492c-0.1807-0.2108-0.2611-0.4619-0.2611-0.7631c0-0.2711,0.0803-0.5221,0.2309-0.7631
		c0.1606-0.2309,0.3916-0.4217,0.7028-0.5522c0.3012-0.1406,0.6727-0.2109,1.0944-0.2109c0.3313,0,0.6326,0.0301,0.8936,0.1004
		c0.2711,0.0703,0.502,0.1607,0.6828,0.2811c0.1807,0.1205,0.3213,0.251,0.4117,0.4016c0.1004,0.1506,0.1506,0.3012,0.1506,0.4418
		c0,0.1707-0.0602,0.3113-0.1707,0.4217c-0.1205,0.1105-0.2711,0.1607-0.4719,0.1607c-0.1606,0-0.2811-0.0402-0.3815-0.1205
		c-0.1004-0.0803-0.2109-0.2008-0.3313-0.3514c-0.0904-0.1104-0.1908-0.2008-0.3012-0.2711
		c-0.1205-0.0602-0.2711-0.0904-0.4819-0.0904c-0.2008,0-0.3715,0.0402-0.492,0.1205c-0.1305,0.0803-0.1908,0.1707-0.1908,0.2811
		c0,0.1105,0.0402,0.2008,0.1406,0.2711c0.0904,0.0703,0.2209,0.1305,0.4016,0.1807c0.1807,0.0502,0.4317,0.1205,0.753,0.2008
		c0.4016,0.1004,0.7229,0.2108,0.9739,0.3514c0.2611,0.1406,0.4518,0.3012,0.5924,0.492
		C54.4588,87.3753,54.5291,87.5962,54.5291,87.8372L54.5291,87.8372z M55.8545,84.4234h0.0402v-0.6627
		c0-0.2108,0.01-0.3715,0.0201-0.492c0.01-0.1205,0.0502-0.241,0.1205-0.3514c0.0402-0.0803,0.1104-0.1406,0.2209-0.2109
		c0.1104-0.0602,0.2309-0.0904,0.3615-0.0904c0.1807,0,0.3414,0.0703,0.492,0.2008c0.1004,0.1004,0.1606,0.2109,0.1908,0.3313
		c0.0201,0.1305,0.0402,0.3012,0.0402,0.5121v0.7631h0.3615c0.2008,0,0.3615,0.0502,0.4719,0.1506s0.1606,0.2309,0.1606,0.3815
		c0,0.2109-0.0703,0.3514-0.2309,0.4317c-0.1506,0.0803-0.3615,0.1205-0.6325,0.1205h-0.1305v2.1989
		c0,0.1908,0,0.3414,0.0201,0.4317c0.01,0.0904,0.0402,0.1707,0.0803,0.2109c0.0402,0.0502,0.1205,0.0703,0.2209,0.0703
		c0.0703,0,0.1707-0.01,0.2912-0.0301c0.1305-0.0301,0.2209-0.0402,0.3012-0.0402c0.1305,0,0.241,0.0502,0.3414,0.1406
		c0.1004,0.1004,0.1506,0.2209,0.1506,0.3615c0,0.241-0.1305,0.4217-0.3715,0.5422c-0.241,0.1205-0.5824,0.1807-1.0041,0.1807
		c-0.4117,0-0.7229-0.0703-0.9438-0.2209c-0.2209-0.1406-0.3615-0.3313-0.4317-0.5824c-0.0703-0.251-0.1004-0.5723-0.1004-0.9639
		v-2.2993h-0.0703c-0.2008,0-0.3615-0.0602-0.4719-0.1607c-0.1205-0.1004-0.1707-0.2309-0.1707-0.3916
		c0-0.1506,0.0502-0.2811,0.1707-0.3815S55.6436,84.4234,55.8545,84.4234L55.8545,84.4234z M60.694,87.6665v1.0442
		c0,0.2811-0.0703,0.492-0.2108,0.6426c-0.1406,0.1406-0.3113,0.2209-0.5221,0.2209c-0.2109,0-0.3815-0.0803-0.5121-0.2209
		c-0.1305-0.1506-0.2008-0.3615-0.2008-0.6326v-3.4841c0-0.6225,0.2309-0.9237,0.7028-0.9237c0.241,0,0.4117,0.0703,0.5221,0.2209
		c0.1104,0.1506,0.1606,0.3313,0.1606,0.5422c0.0402-0.2309,0.1506-0.4117,0.3213-0.5522c0.1707-0.1406,0.4016-0.2109,0.6828-0.2109
		s0.5522,0.0703,0.8233,0.2109c0.2711,0.1406,0.4117,0.3414,0.4117,0.5824c0,0.1807-0.0602,0.3313-0.1908,0.4518
		c-0.1205,0.1104-0.2611,0.1707-0.4016,0.1707c-0.0602,0-0.1807-0.0301-0.3514-0.0803c-0.1707-0.0602-0.3213-0.0904-0.4518-0.0904
		c-0.1606,0-0.2912,0.0402-0.3916,0.1305c-0.1004,0.0803-0.1707,0.2109-0.2309,0.3916c-0.0703,0.1707-0.1104,0.3916-0.1305,0.6426
		S60.694,87.285,60.694,87.6665L60.694,87.6665z M66.4372,88.8714c-0.251,0.2309-0.5221,0.4016-0.8133,0.5221
		c-0.2912,0.1205-0.6225,0.1807-0.984,0.1807c-0.3414,0-0.6426-0.0703-0.8936-0.2109c-0.2611-0.1305-0.4619-0.3113-0.6024-0.5422
		c-0.1406-0.2309-0.2109-0.4819-0.2109-0.753c0-0.3615,0.1205-0.6727,0.3514-0.9338c0.2309-0.251,0.5422-0.4217,0.9438-0.5121
		c0.0602-0.01,0.251-0.0502,0.5623-0.1205c0.3213-0.0602,0.6024-0.1205,0.8334-0.1807c0.2309-0.0502,0.4518-0.1105,0.6627-0.1707
		c-0.01-0.2711-0.0703-0.4619-0.1707-0.6024c-0.1004-0.1305-0.3213-0.2008-0.6627-0.2008c-0.3012,0-0.5221,0.0402-0.6727,0.1205
		s-0.2811,0.2108-0.3916,0.3815c-0.1105,0.1707-0.1908,0.2912-0.251,0.3615s-0.1807,0.1004-0.3615,0.1004
		c-0.1707,0-0.3113-0.0502-0.4317-0.1606c-0.1205-0.1004-0.1807-0.241-0.1807-0.4117c0-0.241,0.0803-0.4719,0.241-0.6928
		c0.1707-0.2209,0.4217-0.3916,0.7731-0.5321c0.3414-0.1406,0.7631-0.2109,1.2751-0.2109c0.5623,0,1.0041,0.0703,1.3354,0.2008
		c0.3313,0.1406,0.5723,0.3514,0.7028,0.6526c0.1406,0.3012,0.2108,0.6828,0.2108,1.1547c0,0.3012,0,0.5522,0,0.753
		c-0.01,0.2008-0.01,0.4016-0.01,0.5824c0,0.2912,0.0402,0.5623,0.1105,0.8233c0.0803,0.251,0.1205,0.4217,0.1205,0.502
		c0,0.1506-0.0703,0.2912-0.2109,0.4117c-0.1406,0.1305-0.2912,0.1908-0.4719,0.1908c-0.1506,0-0.3012-0.0703-0.4317-0.2008
		C66.6681,89.2429,66.5476,89.0722,66.4372,88.8714L66.4372,88.8714z M66.2866,87.054c-0.1004,0.0703-0.3313,0.1406-0.6828,0.2209
		c-0.3615,0.0703-0.6024,0.1305-0.7229,0.1606c-0.1205,0.0301-0.241,0.0904-0.3414,0.1807
		c-0.1104,0.0904-0.1606,0.2108-0.1606,0.3615c0,0.1707,0.0602,0.3113,0.1908,0.4217c0.1205,0.1205,0.2912,0.1807,0.492,0.1807
		c0.2309,0,0.4518-0.0502,0.6426-0.1506c0.1908-0.1004,0.3313-0.2209,0.4117-0.3615c0.1105-0.2008,0.1707-0.502,0.1707-0.9237
		V87.054z M69.0678,88.7208v-5.4219c0-0.2711,0.0703-0.4719,0.1908-0.6225c0.1305-0.1506,0.3012-0.2209,0.5221-0.2209
		s0.4016,0.0703,0.5322,0.2209c0.1305,0.1406,0.2008,0.3514,0.2008,0.6225v5.4219c0,0.2711-0.0703,0.4819-0.2008,0.6326
		c-0.1406,0.1406-0.3113,0.2209-0.5322,0.2209c-0.2109,0-0.3815-0.0803-0.5121-0.2309
		C69.1381,89.1927,69.0678,88.9818,69.0678,88.7208L69.0678,88.7208z M73.2949,85.1062v3.6146c0,0.2711-0.0703,0.4819-0.2109,0.6326
		c-0.1406,0.1406-0.3113,0.2209-0.5221,0.2209c-0.2109,0-0.3815-0.0803-0.5121-0.2309c-0.1406-0.1506-0.2008-0.3615-0.2008-0.6225
		v-3.5744c0-0.2711,0.0602-0.4819,0.2008-0.6225c0.1305-0.1406,0.3012-0.2109,0.5121-0.2109c0.2108,0,0.3815,0.0703,0.5221,0.2109
		C73.2246,84.6644,73.2949,84.8652,73.2949,85.1062L73.2949,85.1062z M72.5719,83.9214c-0.1908,0-0.3615-0.0703-0.5121-0.1908
		c-0.1406-0.1205-0.2108-0.3012-0.2108-0.5221c0-0.2008,0.0703-0.3615,0.2209-0.502c0.1406-0.1305,0.3113-0.1908,0.502-0.1908
		s0.3514,0.0602,0.502,0.1807c0.1406,0.1205,0.2209,0.2912,0.2209,0.5121c0,0.2209-0.0803,0.3916-0.2209,0.5221
		C72.9334,83.8511,72.7728,83.9214,72.5719,83.9214L72.5719,83.9214z M77.8633,88.8714c-0.251,0.2309-0.5322,0.4016-0.8233,0.5221
		c-0.2912,0.1205-0.6125,0.1807-0.984,0.1807c-0.3313,0-0.6326-0.0703-0.8936-0.2109c-0.251-0.1305-0.4518-0.3113-0.5924-0.5422
		c-0.1406-0.2309-0.2108-0.4819-0.2108-0.753c0-0.3615,0.1104-0.6727,0.3414-0.9338c0.2309-0.251,0.5522-0.4217,0.9438-0.5121
		c0.0703-0.01,0.261-0.0502,0.5723-0.1205c0.3213-0.0602,0.5924-0.1205,0.8233-0.1807c0.2309-0.0502,0.4619-0.1105,0.6727-0.1707
		c-0.0201-0.2711-0.0703-0.4619-0.1807-0.6024c-0.1004-0.1305-0.3213-0.2008-0.6526-0.2008c-0.3012,0-0.5322,0.0402-0.6727,0.1205
		c-0.1506,0.0803-0.2811,0.2108-0.3916,0.3815s-0.2008,0.2912-0.251,0.3615c-0.0602,0.0703-0.1807,0.1004-0.3715,0.1004
		c-0.1606,0-0.3012-0.0502-0.4317-0.1606c-0.1205-0.1004-0.1807-0.241-0.1807-0.4117c0-0.241,0.0904-0.4719,0.251-0.6928
		c0.1707-0.2209,0.4217-0.3916,0.7631-0.5321c0.3514-0.1406,0.7731-0.2109,1.2751-0.2109c0.5623,0,1.0141,0.0703,1.3454,0.2008
		c0.3313,0.1406,0.5623,0.3514,0.7028,0.6526c0.1406,0.3012,0.2109,0.6828,0.2109,1.1547c0,0.3012-0.01,0.5522-0.01,0.753
		s0,0.4016,0,0.5824c0,0.2912,0.0402,0.5623,0.1104,0.8233c0.0803,0.251,0.1205,0.4217,0.1205,0.502
		c0,0.1506-0.0703,0.2912-0.2109,0.4117c-0.1406,0.1305-0.3012,0.1908-0.4719,0.1908c-0.1606,0-0.3012-0.0703-0.4418-0.2008
		C78.0942,89.2429,77.9737,89.0722,77.8633,88.8714L77.8633,88.8714z M77.7127,87.054c-0.1004,0.0703-0.3313,0.1406-0.6828,0.2209
		c-0.3615,0.0703-0.6024,0.1305-0.7229,0.1606c-0.1205,0.0301-0.241,0.0904-0.3414,0.1807
		c-0.1105,0.0904-0.1607,0.2108-0.1607,0.3615c0,0.1707,0.0602,0.3113,0.1807,0.4217c0.1305,0.1205,0.2912,0.1807,0.502,0.1807
		c0.2309,0,0.4418-0.0502,0.6426-0.1506c0.1908-0.1004,0.3313-0.2209,0.4117-0.3615c0.1104-0.2008,0.1707-0.502,0.1707-0.9237
		V87.054z M81.8293,85.0861v0.0502c0.1105-0.2611,0.3012-0.4719,0.5824-0.6125c0.2711-0.1406,0.5824-0.2109,0.9438-0.2109
		c0.3414,0,0.6526,0.0703,0.9237,0.2209c0.2811,0.1506,0.4819,0.3715,0.6225,0.6426c0.0803,0.1606,0.1406,0.3414,0.1707,0.5221
		c0.0201,0.1908,0.0301,0.4217,0.0301,0.6928v2.3294c0,0.2711-0.0602,0.4819-0.1908,0.6225
		c-0.1406,0.1506-0.3113,0.2309-0.5221,0.2309c-0.2109,0-0.3815-0.0803-0.5221-0.2309c-0.1305-0.1506-0.1908-0.3615-0.1908-0.6225
		v-2.0884c0-0.3916-0.0502-0.6928-0.1606-0.8836c-0.1004-0.2008-0.3012-0.2912-0.6024-0.2912c-0.2008,0-0.3815,0.0602-0.5522,0.1807
		c-0.1707,0.1205-0.2912,0.3012-0.3815,0.5422c-0.0502,0.1406-0.0703,0.4619-0.0703,0.9739v1.5663
		c0,0.2711-0.0703,0.4819-0.2109,0.6326c-0.1305,0.1406-0.3113,0.2209-0.5221,0.2209s-0.3815-0.0803-0.5121-0.2309
		c-0.1305-0.1506-0.2008-0.3615-0.2008-0.6225v-3.6146c0-0.2611,0.0602-0.4518,0.1807-0.5924
		c0.1205-0.1406,0.2912-0.2008,0.502-0.2008c0.1205,0,0.241,0.0301,0.3414,0.0904c0.1105,0.0602,0.1908,0.1506,0.251,0.2611
		C81.7992,84.7849,81.8293,84.9254,81.8293,85.0861L81.8293,85.0861z M93.4462,83.7909h-2.962v1.476h2.721
		c0.2309,0,0.4117,0.0502,0.5322,0.1607c0.1205,0.1104,0.1807,0.251,0.1807,0.4317s-0.0602,0.3213-0.1807,0.4418
		c-0.1205,0.1105-0.3012,0.1707-0.5322,0.1707h-2.721v1.727h3.0624c0.241,0,0.4317,0.0602,0.5522,0.1707
		c0.1305,0.1205,0.1908,0.2711,0.1908,0.4518c0,0.1908-0.0602,0.3414-0.1908,0.4619c-0.1305,0.1104-0.3113,0.1707-0.5522,0.1707
		h-3.6849c-0.3213,0-0.5623-0.0703-0.7028-0.2209c-0.1506-0.1506-0.2209-0.3815-0.2209-0.7028v-5.0404
		c0-0.2108,0.0301-0.3815,0.0904-0.5221c0.0703-0.1305,0.1707-0.2309,0.3113-0.3012c0.1406-0.0602,0.3112-0.0904,0.5221-0.0904
		h3.5845c0.241,0,0.4217,0.0502,0.5522,0.1606c0.1205,0.1205,0.1807,0.2611,0.1807,0.4418c0,0.1807-0.0602,0.3313-0.1807,0.4418
		C93.8679,83.7407,93.6872,83.7909,93.4462,83.7909L93.4462,83.7909z M98.6372,88.8714c-0.2611,0.2309-0.5322,0.4016-0.8233,0.5221
		c-0.2912,0.1205-0.6125,0.1807-0.984,0.1807c-0.3313,0-0.6326-0.0703-0.8936-0.2109c-0.251-0.1305-0.4518-0.3113-0.5924-0.5422
		c-0.1406-0.2309-0.2108-0.4819-0.2108-0.753c0-0.3615,0.1104-0.6727,0.3414-0.9338c0.2309-0.251,0.5422-0.4217,0.9438-0.5121
		c0.0602-0.01,0.251-0.0502,0.5723-0.1205c0.3213-0.0602,0.5924-0.1205,0.8233-0.1807c0.2309-0.0502,0.4518-0.1105,0.6727-0.1707
		c-0.0201-0.2711-0.0803-0.4619-0.1807-0.6024c-0.1004-0.1305-0.3213-0.2008-0.6627-0.2008c-0.2912,0-0.5221,0.0402-0.6627,0.1205
		c-0.1506,0.0803-0.2811,0.2108-0.3916,0.3815c-0.1105,0.1707-0.2008,0.2912-0.251,0.3615
		c-0.0602,0.0703-0.1807,0.1004-0.3715,0.1004c-0.1606,0-0.3113-0.0502-0.4317-0.1606c-0.1205-0.1004-0.1807-0.241-0.1807-0.4117
		c0-0.241,0.0803-0.4719,0.251-0.6928c0.1607-0.2209,0.4217-0.3916,0.7631-0.5321c0.3414-0.1406,0.7731-0.2109,1.2751-0.2109
		c0.5623,0,1.0141,0.0703,1.3454,0.2008c0.3313,0.1406,0.5623,0.3514,0.7028,0.6526c0.1406,0.3012,0.2008,0.6828,0.2008,1.1547
		c0,0.3012,0,0.5522,0,0.753s0,0.4016-0.01,0.5824c0,0.2912,0.0402,0.5623,0.1205,0.8233c0.0803,0.251,0.1205,0.4217,0.1205,0.502
		c0,0.1506-0.0703,0.2912-0.2109,0.4117c-0.1406,0.1305-0.3012,0.1908-0.4719,0.1908c-0.1606,0-0.3012-0.0703-0.4418-0.2008
		C98.8681,89.2429,98.7476,89.0722,98.6372,88.8714L98.6372,88.8714z M98.4865,87.054c-0.1004,0.0703-0.3313,0.1406-0.6828,0.2209
		c-0.3615,0.0703-0.6024,0.1305-0.7229,0.1606c-0.1305,0.0301-0.241,0.0904-0.3514,0.1807
		c-0.1004,0.0904-0.1607,0.2108-0.1607,0.3615c0,0.1707,0.0703,0.3113,0.1908,0.4217c0.1305,0.1205,0.2912,0.1807,0.502,0.1807
		c0.2309,0,0.4418-0.0502,0.6325-0.1506c0.2008-0.1004,0.3313-0.2209,0.4217-0.3615c0.1104-0.2008,0.1707-0.502,0.1707-0.9237
		V87.054z M102.6935,87.6665v1.0442c0,0.2811-0.0602,0.492-0.2008,0.6426c-0.1406,0.1406-0.3113,0.2209-0.5221,0.2209
		c-0.2109,0-0.3815-0.0803-0.5121-0.2209c-0.1406-0.1506-0.2008-0.3615-0.2008-0.6326v-3.4841c0-0.6225,0.2309-0.9237,0.7028-0.9237
		c0.241,0,0.4117,0.0703,0.5221,0.2209c0.1004,0.1506,0.1607,0.3313,0.1607,0.5422c0.0402-0.2309,0.1506-0.4117,0.3213-0.5522
		c0.1707-0.1406,0.4016-0.2109,0.6828-0.2109s0.5522,0.0703,0.8233,0.2109c0.2711,0.1406,0.4117,0.3414,0.4117,0.5824
		c0,0.1807-0.0602,0.3313-0.1908,0.4518c-0.1205,0.1104-0.261,0.1707-0.4016,0.1707c-0.0602,0-0.1807-0.0301-0.3514-0.0803
		c-0.1807-0.0602-0.3213-0.0904-0.4518-0.0904c-0.1607,0-0.2912,0.0402-0.3916,0.1305c-0.1004,0.0803-0.1807,0.2109-0.241,0.3916
		c-0.0602,0.1707-0.1004,0.3916-0.1205,0.6426C102.7036,86.9737,102.6935,87.285,102.6935,87.6665L102.6935,87.6665z
		 M105.7358,84.4234h0.0402v-0.6627c0-0.2108,0.01-0.3715,0.0201-0.492c0.01-0.1205,0.0502-0.241,0.1205-0.3514
		c0.0402-0.0803,0.1104-0.1406,0.2209-0.2109c0.1104-0.0602,0.2209-0.0904,0.3615-0.0904c0.1807,0,0.3414,0.0703,0.492,0.2008
		c0.1004,0.1004,0.1606,0.2109,0.1908,0.3313c0.0201,0.1305,0.0402,0.3012,0.0402,0.5121v0.7631h0.3615
		c0.2008,0,0.3514,0.0502,0.4719,0.1506c0.1104,0.1004,0.1607,0.2309,0.1607,0.3815c0,0.2109-0.0803,0.3514-0.2309,0.4317
		c-0.1606,0.0803-0.3715,0.1205-0.6326,0.1205h-0.1305v2.1989c0,0.1908,0,0.3414,0.01,0.4317
		c0.0201,0.0904,0.0402,0.1707,0.0904,0.2109c0.0402,0.0502,0.1105,0.0703,0.2209,0.0703c0.0703,0,0.1707-0.01,0.2912-0.0301
		c0.1205-0.0301,0.2209-0.0402,0.3012-0.0402c0.1305,0,0.241,0.0502,0.3414,0.1406c0.0904,0.1004,0.1406,0.2209,0.1406,0.3615
		c0,0.241-0.1205,0.4217-0.3615,0.5422c-0.241,0.1205-0.5824,0.1807-1.0041,0.1807c-0.4117,0-0.7229-0.0703-0.9438-0.2209
		c-0.2209-0.1406-0.3615-0.3313-0.4317-0.5824c-0.0703-0.251-0.1004-0.5723-0.1004-0.9639v-2.2993h-0.0703
		c-0.2008,0-0.3615-0.0602-0.4819-0.1607c-0.1105-0.1004-0.1707-0.2309-0.1707-0.3916c0-0.1506,0.0602-0.2811,0.1807-0.3815
		C105.3543,84.4736,105.5149,84.4234,105.7358,84.4234L105.7358,84.4234z M110.5553,83.2989v1.7571
		c0.0502-0.1606,0.1606-0.3012,0.3113-0.4117c0.1607-0.1104,0.3414-0.1908,0.5322-0.251c0.1908-0.0602,0.4016-0.0803,0.6225-0.0803
		c0.3313,0,0.6225,0.0703,0.8936,0.2109c0.261,0.1406,0.4619,0.3514,0.6024,0.6125c0.1004,0.1606,0.1607,0.3414,0.1908,0.5321
		c0.0301,0.1908,0.0502,0.4117,0.0502,0.6526v2.3997c0,0.2711-0.0703,0.4819-0.2008,0.6225
		c-0.1305,0.1506-0.3012,0.2309-0.5221,0.2309c-0.4719,0-0.7129-0.2912-0.7129-0.8534v-2.1186c0-0.3815-0.0502-0.6627-0.1607-0.8635
		c-0.1004-0.1908-0.3012-0.2811-0.5924-0.2811c-0.2008,0-0.3815,0.0502-0.5522,0.1707c-0.1607,0.1205-0.2811,0.2711-0.3615,0.4619
		c-0.0602,0.1807-0.1004,0.5121-0.1004,0.9739v1.6567c0,0.2611-0.0602,0.4719-0.1908,0.6225
		c-0.1305,0.1506-0.3012,0.2309-0.5321,0.2309c-0.4719,0-0.7129-0.2912-0.7129-0.8534v-5.4219c0-0.2711,0.0602-0.4819,0.1807-0.6225
		c0.1305-0.1506,0.3012-0.2209,0.5322-0.2209c0.2309,0,0.4117,0.0703,0.5321,0.2209
		C110.495,82.827,110.5553,83.0278,110.5553,83.2989L110.5553,83.2989z M122.8549,87.3552c0,0.4217-0.1104,0.8032-0.3213,1.1346
		c-0.2209,0.3414-0.5422,0.6125-0.9538,0.7932c-0.4217,0.1908-0.9137,0.2912-1.476,0.2912c-0.6828,0-1.245-0.1305-1.6868-0.3916
		c-0.3213-0.1807-0.5723-0.4317-0.7731-0.753c-0.2008-0.3113-0.3012-0.6225-0.3012-0.9237c0-0.1807,0.0703-0.3414,0.2008-0.4819
		c0.1305-0.1305,0.3012-0.2008,0.502-0.2008c0.1707,0,0.3113,0.0502,0.4217,0.1607c0.1105,0.1004,0.2109,0.251,0.2811,0.4418
		c0.0803,0.2008,0.1707,0.3815,0.2611,0.5121c0.1004,0.1305,0.2309,0.241,0.3916,0.3313c0.1606,0.0803,0.3916,0.1305,0.6627,0.1305
		c0.3815,0,0.6827-0.0904,0.9237-0.2611c0.2309-0.1707,0.3414-0.3916,0.3414-0.6426c0-0.1908-0.0602-0.3514-0.1807-0.4819
		c-0.1205-0.1205-0.2811-0.2209-0.492-0.2912c-0.2008-0.0703-0.4819-0.1406-0.8434-0.2209c-0.492-0.1205-0.9036-0.251-1.235-0.4117
		c-0.3313-0.1506-0.6024-0.3715-0.8032-0.6426c-0.2008-0.2811-0.3012-0.6225-0.3012-1.0241c0-0.3916,0.1004-0.733,0.3113-1.0342
		c0.2109-0.3012,0.5221-0.5321,0.9137-0.6928c0.4016-0.1607,0.8635-0.241,1.3856-0.241c0.4217,0,0.7832,0.0502,1.1045,0.1607
		c0.3113,0.1104,0.5723,0.251,0.7731,0.4217c0.2109,0.1807,0.3615,0.3715,0.4619,0.5623c0.0904,0.2008,0.1406,0.3916,0.1406,0.5824
		c0,0.1807-0.0602,0.3514-0.1908,0.502c-0.1305,0.1506-0.3012,0.2209-0.502,0.2209c-0.1807,0-0.3213-0.0402-0.4117-0.1305
		c-0.0904-0.0904-0.1908-0.2309-0.2912-0.4217c-0.1105-0.241-0.251-0.4217-0.4117-0.5522
		c-0.1506-0.1305-0.4117-0.2008-0.7631-0.2008c-0.3313,0-0.5924,0.0703-0.7832,0.2109c-0.2008,0.1406-0.2912,0.3012-0.2912,0.4819
		c0,0.1205,0.0301,0.2209,0.0904,0.3012c0.0602,0.0904,0.1606,0.1607,0.2711,0.2309c0.1205,0.0602,0.241,0.1104,0.3715,0.1506
		c0.1205,0.0402,0.3514,0.1004,0.6627,0.1807c0.3715,0.0803,0.7129,0.1807,1.0241,0.2912c0.3113,0.1104,0.5824,0.241,0.8032,0.4016
		c0.2209,0.1607,0.4016,0.3615,0.5221,0.6125C122.7947,86.7026,122.8549,87.0038,122.8549,87.3552L122.8549,87.3552z
		 M125.2044,89.5943l0.1104-0.241l-1.5462-3.8656c-0.0904-0.2209-0.1406-0.3815-0.1406-0.492c0-0.1205,0.0402-0.2309,0.1004-0.3414
		c0.0602-0.1004,0.1506-0.1908,0.2611-0.251c0.1104-0.0602,0.2209-0.0904,0.3414-0.0904c0.2109,0,0.3715,0.0602,0.4819,0.1908
		c0.1004,0.1305,0.1807,0.3012,0.251,0.502l0.9739,3.0322l0.9338-2.8415c0.0703-0.2008,0.1406-0.3715,0.2008-0.5121
		c0.0703-0.1406,0.1506-0.2309,0.2309-0.2912c0.0904-0.0602,0.2108-0.0803,0.3615-0.0803c0.1104,0,0.2209,0.0301,0.3213,0.0803
		c0.1004,0.0602,0.1807,0.1406,0.241,0.241c0.0502,0.1004,0.0803,0.2008,0.0803,0.3113c-0.01,0.0602-0.0301,0.1506-0.0602,0.2711
		c-0.0402,0.1205-0.0703,0.2109-0.1004,0.2912l-1.6366,4.3074c-0.1406,0.3815-0.2811,0.6828-0.4217,0.9137
		c-0.1406,0.2209-0.3313,0.3916-0.5623,0.5121c-0.241,0.1205-0.5522,0.1807-0.9438,0.1807c-0.3815,0-0.6727-0.0402-0.8836-0.1305
		c-0.2008-0.0904-0.3113-0.2611-0.3113-0.5121c0-0.1707,0.0502-0.3012,0.1607-0.3916c0.1104-0.1004,0.2611-0.1506,0.4518-0.1406
		c0.0803-0.01,0.1506,0,0.2209,0.0201s0.1305,0.0301,0.1807,0.0301c0.1305,0,0.2309-0.0201,0.2912-0.0502
		c0.0703-0.0402,0.1305-0.1004,0.1908-0.2008C125.0437,89.9557,125.114,89.8051,125.2044,89.5943L125.2044,89.5943z
		 M133.3071,87.8372c0,0.3615-0.0904,0.6828-0.2711,0.9438c-0.1807,0.2611-0.4418,0.4619-0.7832,0.5924
		c-0.3414,0.1305-0.753,0.2008-1.235,0.2008c-0.4619,0-0.8534-0.0703-1.1948-0.2209c-0.3313-0.1406-0.5723-0.3213-0.743-0.5422
		c-0.1607-0.2209-0.241-0.4518-0.241-0.6828c0-0.1606,0.0602-0.2912,0.1707-0.4117c0.1205-0.1104,0.261-0.1707,0.4418-0.1707
		c0.1606,0,0.2811,0.0402,0.3615,0.1105c0.0803,0.0803,0.1606,0.1908,0.241,0.3414c0.1105,0.1807,0.251,0.3313,0.4117,0.4317
		c0.1606,0.1004,0.3916,0.1506,0.6727,0.1506c0.2309,0,0.4117-0.0502,0.5522-0.1506c0.1406-0.0904,0.2109-0.2008,0.2109-0.3113
		c0-0.1908-0.0703-0.3213-0.2209-0.4117c-0.1506-0.0904-0.4217-0.1807-0.8133-0.2811c-0.4117-0.1004-0.7531-0.2109-1.0342-0.3313
		s-0.502-0.2912-0.6828-0.492c-0.1707-0.2108-0.261-0.4619-0.261-0.7631c0-0.2711,0.0803-0.5221,0.241-0.7631
		c0.1606-0.2309,0.3916-0.4217,0.6928-0.5522c0.3112-0.1406,0.6727-0.2109,1.1044-0.2109c0.3213,0,0.6225,0.0301,0.8936,0.1004
		c0.2711,0.0703,0.492,0.1607,0.6727,0.2811c0.1807,0.1205,0.3213,0.251,0.4217,0.4016c0.1004,0.1506,0.1506,0.3012,0.1506,0.4418
		c0,0.1707-0.0602,0.3113-0.1707,0.4217c-0.1205,0.1105-0.2811,0.1607-0.4819,0.1607c-0.1506,0-0.2711-0.0402-0.3815-0.1205
		c-0.1004-0.0803-0.2109-0.2008-0.3313-0.3514c-0.0803-0.1104-0.1807-0.2008-0.3012-0.2711
		c-0.1104-0.0602-0.2711-0.0904-0.4719-0.0904c-0.2108,0-0.3715,0.0402-0.502,0.1205c-0.1205,0.0803-0.1908,0.1707-0.1908,0.2811
		c0,0.1105,0.0502,0.2008,0.1406,0.2711c0.0904,0.0703,0.2309,0.1305,0.4117,0.1807c0.1707,0.0502,0.4317,0.1205,0.753,0.2008
		c0.3916,0.1004,0.7229,0.2108,0.9739,0.3514c0.251,0.1406,0.4518,0.3012,0.5824,0.492
		C133.2368,87.3753,133.3071,87.5962,133.3071,87.8372L133.3071,87.8372z M134.6324,84.4234h0.0402v-0.6627
		c0-0.2108,0-0.3715,0.01-0.492c0.0201-0.1205,0.0602-0.241,0.1305-0.3514c0.0402-0.0803,0.1105-0.1406,0.2209-0.2109
		c0.1004-0.0602,0.2209-0.0904,0.3514-0.0904c0.1908,0,0.3514,0.0703,0.502,0.2008c0.1004,0.1004,0.1606,0.2109,0.1908,0.3313
		c0.0201,0.1305,0.0301,0.3012,0.0301,0.5121v0.7631h0.3615c0.2008,0,0.3615,0.0502,0.4719,0.1506
		c0.1205,0.1004,0.1707,0.2309,0.1707,0.3815c0,0.2109-0.0803,0.3514-0.2309,0.4317c-0.1607,0.0803-0.3715,0.1205-0.6326,0.1205
		h-0.1406v2.1989c0,0.1908,0.01,0.3414,0.0201,0.4317c0.01,0.0904,0.0401,0.1707,0.0803,0.2109
		c0.0502,0.0502,0.1205,0.0703,0.2309,0.0703c0.0703,0,0.1606-0.01,0.2912-0.0301c0.1205-0.0301,0.2209-0.0402,0.2912-0.0402
		c0.1305,0,0.251,0.0502,0.3414,0.1406c0.1004,0.1004,0.1506,0.2209,0.1506,0.3615c0,0.241-0.1205,0.4217-0.3615,0.5422
		c-0.251,0.1205-0.5824,0.1807-1.0041,0.1807c-0.4117,0-0.733-0.0703-0.9438-0.2209c-0.2209-0.1406-0.3715-0.3313-0.4317-0.5824
		c-0.0703-0.251-0.1004-0.5723-0.1004-0.9639v-2.2993h-0.0703c-0.2109,0-0.3615-0.0602-0.4819-0.1607
		c-0.1104-0.1004-0.1707-0.2309-0.1707-0.3916c0-0.1506,0.0602-0.2811,0.1807-0.3815S134.4116,84.4234,134.6324,84.4234
		L134.6324,84.4234z M141.6207,87.3452h-2.3495c0,0.2108,0.0602,0.4117,0.1606,0.6125c0.1004,0.2108,0.241,0.3615,0.4117,0.4619
		s0.3514,0.1506,0.5623,0.1506c0.1406,0,0.2611-0.0201,0.3815-0.0502c0.1104-0.0301,0.2209-0.0803,0.3313-0.1506
		c0.1004-0.0703,0.2108-0.1506,0.3113-0.241c0.1104-0.0904,0.2309-0.2108,0.3715-0.3414c0.0903-0.0703,0.2008-0.1104,0.3414-0.1104
		c0.1606,0,0.2811,0.0502,0.3815,0.1305c0.1004,0.0904,0.1406,0.2109,0.1406,0.3615c0,0.1305-0.0402,0.2711-0.1406,0.4418
		c-0.0903,0.1606-0.2309,0.3113-0.4217,0.4619c-0.1908,0.1406-0.4217,0.2611-0.7029,0.3615
		c-0.2811,0.0904-0.6024,0.1406-0.9639,0.1406c-0.8233,0-1.476-0.241-1.9378-0.7229c-0.4619-0.4719-0.6928-1.1145-0.6928-1.9278
		c0-0.3815,0.0502-0.733,0.1606-1.0543c0.1205-0.3213,0.2811-0.6024,0.502-0.8434c0.2209-0.2309,0.492-0.4117,0.8133-0.5422
		c0.3213-0.1205,0.6828-0.1807,1.0643-0.1807c0.5121,0,0.9438,0.1004,1.3053,0.3213c0.3715,0.2109,0.6426,0.492,0.8233,0.8334
		s0.2711,0.6928,0.2711,1.0442s-0.1004,0.5824-0.3112,0.6828C142.2331,87.295,141.962,87.3452,141.6207,87.3452L141.6207,87.3452z
		 M139.2712,86.4516h2.0784c-0.0301-0.3514-0.1406-0.6125-0.3213-0.8133c-0.1807-0.1908-0.4217-0.2912-0.7229-0.2912
		c-0.2811,0-0.5121,0.1004-0.7028,0.3012C139.4218,85.8391,139.3113,86.1102,139.2712,86.4516L139.2712,86.4516z M148.2374,87.0239
		v1.6667c0,0.2811-0.0602,0.502-0.2008,0.6526c-0.1305,0.1506-0.3113,0.2309-0.5322,0.2309c-0.2209,0-0.4016-0.0803-0.5321-0.2309
		c-0.1305-0.1506-0.2008-0.3715-0.2008-0.6526v-1.9981c0-0.3012-0.0101-0.5422-0.0301-0.7028
		c-0.0201-0.1607-0.0703-0.2912-0.1506-0.3815c-0.0803-0.1004-0.2109-0.1406-0.3815-0.1406c-0.3715,0-0.6125,0.1205-0.733,0.3815
		c-0.1205,0.251-0.1707,0.6426-0.1707,1.1446v1.6968c0,0.2811-0.0703,0.502-0.2008,0.6526
		c-0.1406,0.1506-0.3213,0.2309-0.5422,0.2309c-0.2109,0-0.3916-0.0803-0.5221-0.2309c-0.1406-0.1506-0.2108-0.3715-0.2108-0.6526
		v-3.5744c0-0.2611,0.0602-0.4518,0.1908-0.5924c0.1205-0.1406,0.2811-0.2109,0.492-0.2109c0.2008,0,0.3615,0.0602,0.492,0.1908
		c0.1406,0.1406,0.2008,0.3113,0.2008,0.5321v0.0301c0.1104-0.241,0.2912-0.4217,0.5522-0.5522
		c0.261-0.1305,0.5522-0.1908,0.8735-0.1908c0.3313,0,0.6125,0.0602,0.8534,0.2008c0.241,0.1305,0.4217,0.3113,0.5221,0.5422
		c0.1607-0.241,0.3715-0.4217,0.6225-0.5522c0.251-0.1305,0.5322-0.1908,0.8434-0.1908c0.3615,0,0.6727,0.0703,0.9338,0.2109
		c0.261,0.1406,0.4518,0.3313,0.5723,0.5824c0.1205,0.2611,0.1807,0.6426,0.1807,1.1346v2.4398c0,0.2811-0.0602,0.502-0.2008,0.6526
		c-0.1305,0.1506-0.3113,0.2309-0.5322,0.2309s-0.4016-0.0803-0.5422-0.2309c-0.1305-0.1506-0.2008-0.3715-0.2008-0.6526v-2.1085
		c0-0.251-0.01-0.4619-0.0301-0.6125c-0.0201-0.1506-0.0803-0.2711-0.1606-0.3615c-0.0904-0.1004-0.2209-0.1406-0.3916-0.1406
		c-0.1506,0-0.2811,0.0402-0.4217,0.1305c-0.1305,0.0904-0.241,0.2109-0.3112,0.3615
		C148.2876,86.1504,148.2374,86.5018,148.2374,87.0239L148.2374,87.0239z M160.296,87.3552c0,0.4217-0.1104,0.8032-0.3213,1.1346
		c-0.2209,0.3414-0.5422,0.6125-0.9538,0.7932c-0.4217,0.1908-0.9137,0.2912-1.476,0.2912c-0.6828,0-1.245-0.1305-1.6868-0.3916
		c-0.3213-0.1807-0.5723-0.4317-0.7731-0.753c-0.2008-0.3113-0.3012-0.6225-0.3012-0.9237c0-0.1807,0.0703-0.3414,0.2008-0.4819
		c0.1305-0.1305,0.3012-0.2008,0.502-0.2008c0.1707,0,0.3113,0.0502,0.4217,0.1607c0.1205,0.1004,0.2108,0.251,0.2811,0.4418
		c0.0803,0.2008,0.1707,0.3815,0.261,0.5121c0.1004,0.1305,0.2309,0.241,0.3916,0.3313c0.1607,0.0803,0.3916,0.1305,0.6627,0.1305
		c0.3815,0,0.6928-0.0904,0.9237-0.2611c0.2309-0.1707,0.3414-0.3916,0.3414-0.6426c0-0.1908-0.0602-0.3514-0.1807-0.4819
		c-0.1205-0.1205-0.2811-0.2209-0.492-0.2912c-0.2008-0.0703-0.4819-0.1406-0.8434-0.2209c-0.492-0.1205-0.9036-0.251-1.235-0.4117
		c-0.3313-0.1506-0.6024-0.3715-0.8032-0.6426c-0.2008-0.2811-0.3012-0.6225-0.3012-1.0241c0-0.3916,0.1105-0.733,0.3213-1.0342
		c0.2008-0.3012,0.5121-0.5321,0.9036-0.6928c0.4016-0.1607,0.8635-0.241,1.3856-0.241c0.4217,0,0.7932,0.0502,1.1045,0.1607
		c0.3113,0.1104,0.5723,0.251,0.7731,0.4217c0.2109,0.1807,0.3615,0.3715,0.4619,0.5623c0.1004,0.2008,0.1406,0.3916,0.1406,0.5824
		c0,0.1807-0.0602,0.3514-0.1908,0.502c-0.1305,0.1506-0.3012,0.2209-0.502,0.2209c-0.1807,0-0.3213-0.0402-0.4117-0.1305
		c-0.0903-0.0904-0.1908-0.2309-0.2912-0.4217c-0.1104-0.241-0.251-0.4217-0.4117-0.5522
		c-0.1506-0.1305-0.4117-0.2008-0.7631-0.2008c-0.3313,0-0.5924,0.0703-0.7832,0.2109c-0.2008,0.1406-0.2912,0.3012-0.2912,0.4819
		c0,0.1205,0.0301,0.2209,0.0903,0.3012c0.0603,0.0904,0.1607,0.1607,0.2811,0.2309c0.1104,0.0602,0.241,0.1104,0.3615,0.1506
		c0.1305,0.0402,0.3514,0.1004,0.6627,0.1807c0.3715,0.0803,0.7129,0.1807,1.0241,0.2912c0.3113,0.1104,0.5824,0.241,0.8033,0.4016
		c0.2209,0.1607,0.4016,0.3615,0.5221,0.6125C160.2358,86.7026,160.296,87.0038,160.296,87.3552L160.296,87.3552z M162.9267,85.1062
		v3.6146c0,0.2711-0.0703,0.4819-0.2108,0.6326c-0.1305,0.1406-0.3113,0.2209-0.5121,0.2209c-0.2209,0-0.3916-0.0803-0.5221-0.2309
		c-0.1305-0.1506-0.2008-0.3615-0.2008-0.6225v-3.5744c0-0.2711,0.0703-0.4819,0.2008-0.6225
		c0.1305-0.1406,0.3012-0.2109,0.5221-0.2109c0.2108,0,0.3815,0.0703,0.5121,0.2109
		C162.8564,84.6644,162.9267,84.8652,162.9267,85.1062L162.9267,85.1062z M162.2138,83.9214c-0.2008,0-0.3715-0.0703-0.5121-0.1908
		c-0.1506-0.1205-0.2209-0.3012-0.2209-0.5221c0-0.2008,0.0803-0.3615,0.2209-0.502c0.1506-0.1305,0.3213-0.1908,0.5121-0.1908
		c0.1807,0,0.3514,0.0602,0.492,0.1807c0.1506,0.1205,0.2209,0.2912,0.2209,0.5121c0,0.2209-0.0703,0.3916-0.2108,0.5221
		C162.5752,83.8511,162.4045,83.9214,162.2138,83.9214L162.2138,83.9214z M168.6096,87.0239v1.6667
		c0,0.2811-0.0703,0.502-0.2008,0.6526c-0.1406,0.1506-0.3213,0.2309-0.5422,0.2309s-0.3916-0.0803-0.5322-0.2309
		c-0.1305-0.1506-0.2008-0.3715-0.2008-0.6526v-1.9981c0-0.3012-0.01-0.5422-0.0301-0.7028
		c-0.0201-0.1607-0.0703-0.2912-0.1506-0.3815c-0.0703-0.1004-0.2008-0.1406-0.3715-0.1406c-0.3715,0-0.6225,0.1205-0.733,0.3815
		c-0.1205,0.251-0.1807,0.6426-0.1807,1.1446v1.6968c0,0.2811-0.0703,0.502-0.2008,0.6526
		c-0.1406,0.1506-0.3113,0.2309-0.5322,0.2309c-0.2209,0-0.3916-0.0803-0.5322-0.2309c-0.1406-0.1506-0.2108-0.3715-0.2108-0.6526
		v-3.5744c0-0.2611,0.0703-0.4518,0.1908-0.5924c0.1205-0.1406,0.2912-0.2109,0.492-0.2109s0.3715,0.0602,0.502,0.1908
		c0.1305,0.1406,0.1908,0.3113,0.1908,0.5321v0.0301c0.1105-0.241,0.3012-0.4217,0.5623-0.5522
		c0.2611-0.1305,0.5422-0.1908,0.8635-0.1908c0.3313,0,0.6225,0.0602,0.8635,0.2008c0.241,0.1305,0.4117,0.3113,0.5221,0.5422
		c0.1506-0.241,0.3615-0.4217,0.6125-0.5522c0.2611-0.1305,0.5422-0.1908,0.8434-0.1908c0.3615,0,0.6727,0.0703,0.9338,0.2109
		c0.2711,0.1406,0.4619,0.3313,0.5723,0.5824c0.1305,0.2611,0.1908,0.6426,0.1908,1.1346v2.4398
		c0,0.2811-0.0703,0.502-0.2008,0.6526c-0.1406,0.1506-0.3213,0.2309-0.5422,0.2309c-0.2209,0-0.3916-0.0803-0.5322-0.2309
		c-0.1406-0.1506-0.2108-0.3715-0.2108-0.6526v-2.1085c0-0.251-0.01-0.4619-0.0301-0.6125
		c-0.0201-0.1506-0.0703-0.2711-0.1606-0.3615c-0.0803-0.1004-0.2108-0.1406-0.3916-0.1406c-0.1406,0-0.2811,0.0402-0.4117,0.1305
		c-0.1406,0.0904-0.241,0.2109-0.3213,0.3615C168.6497,86.1504,168.6096,86.5018,168.6096,87.0239L168.6096,87.0239z
		 M175.8388,88.771v-0.0602c-0.0402,0.1707-0.1506,0.3213-0.3213,0.4518c-0.1707,0.1305-0.3514,0.2309-0.5623,0.3012
		c-0.2108,0.0602-0.4418,0.1004-0.6928,0.1004c-0.3213,0-0.6125-0.0703-0.8635-0.2008c-0.251-0.1305-0.4518-0.3615-0.6024-0.6828
		c-0.1607-0.1908-0.241-0.5522-0.241-1.0643v-2.47c0-0.2811,0.0703-0.4819,0.2008-0.6225c0.1305-0.1406,0.3012-0.2109,0.5221-0.2109
		c0.2109,0,0.3916,0.0703,0.5221,0.2109c0.1305,0.1406,0.2008,0.3514,0.2008,0.6225v1.9981c0,0.2811,0.0201,0.5121,0.0703,0.7028
		c0.0402,0.1807,0.1205,0.3213,0.2309,0.4217c0.1104,0.1004,0.2611,0.1506,0.4518,0.1506s0.3715-0.0602,0.5422-0.1807
		c0.1707-0.1105,0.2912-0.251,0.3615-0.4117c0.0703-0.1908,0.1105-0.5824,0.1105-1.1647v-1.5161
		c0-0.2711,0.0703-0.4819,0.2008-0.6225c0.1305-0.1406,0.3012-0.2109,0.5221-0.2109c0.2109,0,0.3815,0.0703,0.5121,0.2109
		c0.1305,0.1406,0.2008,0.3514,0.2008,0.6225v3.6146c0,0.2611-0.0703,0.4619-0.1908,0.6024
		c-0.1305,0.1406-0.2912,0.2109-0.492,0.2109c-0.1908,0-0.3615-0.0703-0.492-0.2209
		C175.9091,89.2127,175.8388,89.022,175.8388,88.771L175.8388,88.771z M178.5497,88.7208v-5.4219
		c0-0.2711,0.0602-0.4719,0.1908-0.6225c0.1205-0.1506,0.3012-0.2209,0.5221-0.2209c0.2209,0,0.3916,0.0703,0.5221,0.2209
		c0.1406,0.1406,0.2008,0.3514,0.2008,0.6225v5.4219c0,0.2711-0.0703,0.4819-0.2008,0.6326
		c-0.1305,0.1406-0.3112,0.2209-0.5221,0.2209c-0.2209,0-0.3916-0.0803-0.5221-0.2309
		C178.61,89.1927,178.5497,88.9818,178.5497,88.7208L178.5497,88.7208z M184.564,88.8714c-0.261,0.2309-0.5321,0.4016-0.8233,0.5221
		c-0.2912,0.1205-0.6125,0.1807-0.984,0.1807c-0.3414,0-0.6326-0.0703-0.8936-0.2109c-0.251-0.1305-0.4518-0.3113-0.5924-0.5422
		c-0.1406-0.2309-0.2108-0.4819-0.2108-0.753c0-0.3615,0.1104-0.6727,0.3414-0.9338c0.2309-0.251,0.5422-0.4217,0.9438-0.5121
		c0.0602-0.01,0.251-0.0502,0.5723-0.1205c0.3213-0.0602,0.5924-0.1205,0.8233-0.1807c0.2309-0.0502,0.4518-0.1105,0.6727-0.1707
		c-0.0201-0.2711-0.0803-0.4619-0.1807-0.6024c-0.1004-0.1305-0.3213-0.2008-0.6627-0.2008c-0.3012,0-0.5221,0.0402-0.6627,0.1205
		c-0.1506,0.0803-0.2811,0.2108-0.3916,0.3815c-0.1104,0.1707-0.2008,0.2912-0.261,0.3615
		c-0.0502,0.0703-0.1707,0.1004-0.3615,0.1004c-0.1606,0-0.3112-0.0502-0.4317-0.1606c-0.1205-0.1004-0.1807-0.241-0.1807-0.4117
		c0-0.241,0.0803-0.4719,0.251-0.6928c0.1607-0.2209,0.4217-0.3916,0.7631-0.5321c0.3414-0.1406,0.7731-0.2109,1.2751-0.2109
		c0.5623,0,1.0141,0.0703,1.3454,0.2008c0.3313,0.1406,0.5623,0.3514,0.7028,0.6526s0.2008,0.6828,0.2008,1.1547
		c0,0.3012,0,0.5522,0,0.753s0,0.4016-0.01,0.5824c0,0.2912,0.0402,0.5623,0.1205,0.8233c0.0803,0.251,0.1205,0.4217,0.1205,0.502
		c0,0.1506-0.0703,0.2912-0.2108,0.4117c-0.1406,0.1305-0.3012,0.1908-0.4719,0.1908c-0.1606,0-0.3012-0.0703-0.4418-0.2008
		C184.7949,89.2429,184.6644,89.0722,184.564,88.8714L184.564,88.8714z M184.4134,87.054
		c-0.1004,0.0703-0.3313,0.1406-0.6928,0.2209c-0.3514,0.0703-0.5924,0.1305-0.7129,0.1606
		c-0.1305,0.0301-0.241,0.0904-0.3514,0.1807c-0.1004,0.0904-0.1606,0.2108-0.1606,0.3615c0,0.1707,0.0703,0.3113,0.1908,0.4217
		c0.1205,0.1205,0.2912,0.1807,0.502,0.1807c0.2309,0,0.4418-0.0502,0.6326-0.1506c0.2008-0.1004,0.3313-0.2209,0.4217-0.3615
		c0.1104-0.2008,0.1707-0.502,0.1707-0.9237V87.054z M186.9335,84.4234h0.0402v-0.6627c0-0.2108,0.0101-0.3715,0.0201-0.492
		c0.01-0.1205,0.0502-0.241,0.1205-0.3514c0.0401-0.0803,0.1104-0.1406,0.2209-0.2109c0.1104-0.0602,0.2209-0.0904,0.3615-0.0904
		c0.1807,0,0.3414,0.0703,0.492,0.2008c0.1004,0.1004,0.1606,0.2109,0.1908,0.3313c0.0201,0.1305,0.0402,0.3012,0.0402,0.5121
		v0.7631h0.3615c0.2008,0,0.3514,0.0502,0.4719,0.1506c0.1104,0.1004,0.1606,0.2309,0.1606,0.3815
		c0,0.2109-0.0803,0.3514-0.2309,0.4317c-0.1606,0.0803-0.3615,0.1205-0.6326,0.1205h-0.1305v2.1989c0,0.1908,0,0.3414,0.01,0.4317
		c0.0201,0.0904,0.0401,0.1707,0.0904,0.2109c0.0402,0.0502,0.1104,0.0703,0.2209,0.0703c0.0703,0,0.1707-0.01,0.2912-0.0301
		c0.1205-0.0301,0.2209-0.0402,0.3012-0.0402c0.1305,0,0.241,0.0502,0.3414,0.1406c0.0904,0.1004,0.1406,0.2209,0.1406,0.3615
		c0,0.241-0.1205,0.4217-0.3615,0.5422c-0.241,0.1205-0.5823,0.1807-1.004,0.1807c-0.4117,0-0.7229-0.0703-0.9438-0.2209
		c-0.2209-0.1406-0.3615-0.3313-0.4317-0.5824s-0.1004-0.5723-0.1004-0.9639v-2.2993h-0.0703c-0.2008,0-0.3615-0.0602-0.4819-0.1607
		c-0.1105-0.1004-0.1707-0.2309-0.1707-0.3916c0-0.1506,0.0602-0.2811,0.1807-0.3815
		C186.552,84.4736,186.7127,84.4234,186.9335,84.4234L186.9335,84.4234z M195.2069,86.9335c0,0.3916-0.0602,0.743-0.1807,1.0643
		c-0.1205,0.3313-0.2912,0.6125-0.5221,0.8434c-0.2309,0.241-0.502,0.4217-0.8233,0.5422
		c-0.3113,0.1205-0.6727,0.1908-1.0643,0.1908c-0.3916,0-0.743-0.0703-1.0543-0.1908c-0.3112-0.1305-0.5823-0.3113-0.8133-0.5522
		c-0.2309-0.2309-0.4016-0.5121-0.5221-0.8334c-0.1205-0.3213-0.1807-0.6727-0.1807-1.0643c0-0.3916,0.0602-0.743,0.1807-1.0643
		c0.1205-0.3213,0.2912-0.6024,0.5121-0.8334c0.2309-0.2309,0.502-0.4117,0.8233-0.5422c0.3213-0.1205,0.6727-0.1807,1.0543-0.1807
		c0.3916,0,0.743,0.0602,1.0643,0.1908c0.3213,0.1205,0.5924,0.3012,0.8233,0.5422c0.2309,0.2309,0.4016,0.5121,0.5221,0.8334
		S195.2069,86.552,195.2069,86.9335L195.2069,86.9335z M193.7611,86.9335c0-0.4819-0.1004-0.8534-0.3113-1.1245
		c-0.2108-0.2611-0.4819-0.3916-0.8334-0.3916c-0.2209,0-0.4217,0.0602-0.5924,0.1707c-0.1607,0.1205-0.3012,0.2912-0.3916,0.5221
		s-0.1406,0.5121-0.1406,0.8233c0,0.3213,0.0502,0.5924,0.1406,0.8233c0.0904,0.241,0.2209,0.4117,0.3916,0.5322
		c0.1707,0.1104,0.3615,0.1707,0.5924,0.1707c0.3514,0,0.6225-0.1305,0.8334-0.3916
		C193.6607,87.797,193.7611,87.4255,193.7611,86.9335L193.7611,86.9335z M197.7271,87.6665v1.0442
		c0,0.2811-0.0703,0.492-0.2108,0.6426c-0.1305,0.1406-0.3112,0.2209-0.5221,0.2209c-0.2108,0-0.3715-0.0803-0.5121-0.2209
		c-0.1305-0.1506-0.2008-0.3615-0.2008-0.6326v-3.4841c0-0.6225,0.241-0.9237,0.7028-0.9237c0.251,0,0.4217,0.0703,0.5221,0.2209
		c0.1104,0.1506,0.1606,0.3313,0.1606,0.5422c0.0502-0.2309,0.1506-0.4117,0.3213-0.5522c0.1707-0.1406,0.4016-0.2109,0.6928-0.2109
		c0.2711,0,0.5522,0.0703,0.8233,0.2109c0.2711,0.1406,0.4016,0.3414,0.4016,0.5824c0,0.1807-0.0602,0.3313-0.1908,0.4518
		c-0.1205,0.1104-0.251,0.1707-0.4016,0.1707c-0.0602,0-0.1707-0.0301-0.3514-0.0803c-0.1707-0.0602-0.3213-0.0904-0.4418-0.0904
		c-0.1607,0-0.2912,0.0402-0.3916,0.1305c-0.1004,0.0803-0.1807,0.2109-0.241,0.3916c-0.0602,0.1707-0.1004,0.3916-0.1305,0.6426
		C197.7372,86.9737,197.7271,87.285,197.7271,87.6665L197.7271,87.6665z"/>
</g>
<path class="st1" d="M1.9864,39.0102c-0.0877,1.0763-0.5979,1.8018-1.1401,1.6184c-0.5421-0.1834-0.9009-1.2038-0.8132-2.2881
	c0.4305-5.0546,6.7926-9.8381,15.5464-13.4496c5.8997-2.4316,12.9394-4.4566,19.9552-5.7562
	c7.0158-1.2915,14.0077-1.8576,19.7958-1.3633c3.6195,0.303,6.8006,1.0524,9.2641,2.32c-0.5581-1.5467-2.5831-2.6788-5.5648-3.4441
	c-4.3849-1.1321-10.6194-1.2278-17.3881-0.5581c-6.7687,0.6777-14.0556,2.1207-20.5372,4.058
	C11.3382,23.0732,3.549,26.9398,2.5843,30.679c-0.2471,0.9726-0.8451,1.3553-1.3314,0.8531
	c-0.4863-0.5023-0.6777-1.6902-0.4305-2.6628c1.2915-4.9988,9.6547-9.5431,19.9951-12.6444
	c6.5215-1.9453,13.8802-3.4043,20.7365-4.0819c6.0671-0.6059,11.7435-0.5979,16.0965,0.2232
	c-0.3189-0.295-0.6856-0.5661-1.1082-0.8132c-4.8473-2.8542-15.2674-2.1047-25.4642,0.1276
	c-10.2287,2.2323-20.1864,5.9475-24.093,9.0169c-0.59,0.4704-1.0125,0.8849-1.2198,1.2437
	c-0.4146,0.7016-1.0364,0.5979-1.3952-0.2392c-0.3508-0.8291-0.295-2.0808,0.1196-2.7824c0.3747-0.6458,0.9806-1.2836,1.7779-1.9054
	c4.05-3.181,14.207-6.9999,24.5952-9.2721c5.1423-1.1162,10.3483-1.8656,14.9166-1.9692C42.3592,5.0393,37.209,5.2546,32.0428,5.988
	c-6.6411,0.9487-13.2743,2.7505-16.3756,4.5204c-0.7255,0.4066-1.1879,0.7574-1.3314,1.0125
	c-0.4066,0.7335-1.0285,0.6697-1.3952-0.1435c-0.3667-0.8132-0.3348-2.0649,0.0718-2.7984
	c0.3747-0.6777,1.1082-1.3155,2.1127-1.8815c3.2129-1.8337,10.0135-3.6992,16.7742-4.656
	c6.7926-0.9727,13.6091-1.0285,16.838,0.7654c0.7972,0.4385,1.4191,1.0205,1.8417,1.754c0.2153,0.3747,0.3269,0.8849,0.3348,1.4111
	c2.4795,0.279,4.6001,0.8531,6.1867,1.7858c0.8291,0.4863,1.5307,1.0763,2.0888,1.7938c0.4624,0.582,0.5979,1.8018,0.303,2.7266
	c-0.0558,0.1754-0.1196,0.3189-0.1993,0.4465c3.6674,0.9487,6.2186,2.7186,7.0477,5.4851c0.287,0.9408,0.1276,2.1526-0.3348,2.7107
	h-0.008c1.5626,1.0603,2.7266,2.3997,3.4043,4.0421c0.3508,0.8451,0.287,2.0888-0.1355,2.7824
	c-0.0399,0.0638-0.0797,0.1276-0.1276,0.1754c4.7596,17.7229-5.1742,36.2511-22.8253,41.9514
	C28.0884,75.7636,8.5398,65.766,2.6561,47.5488L67.4249,26.613c-1.8177-2.8701-6.3302-4.3929-12.174-4.8951
	c-5.7083-0.4863-12.6046,0.0718-19.5407,1.3553c-6.9361,1.2836-13.9041,3.2847-19.732,5.6924
	C8.0056,32.0502,2.2654,35.7973,1.9864,39.0102L1.9864,39.0102z"/>
<path class="st2" d="M158.4073,78.6735c-1.0922,0-1.9852-0.8849-1.9852-1.9772c0-1.1002,0.8929-1.9852,1.9852-1.9852h39.6155
	c1.0922,0,1.9772,0.885,1.9772,1.9852c0,1.0922-0.885,1.9772-1.9772,1.9772H158.4073z"/>
<path class="st1" d="M118.7918,78.6735c-1.0922,0-1.9852-0.8849-1.9852-1.9772c0-1.1002,0.8929-1.9852,1.9852-1.9852h39.6155
	c1.0922,0,1.9852,0.885,1.9852,1.9852c0,1.0922-0.8929,1.9772-1.9852,1.9772H118.7918z"/>
<path class="st3" d="M31.5166,24.0936c18.2172-5.8837,34.8399-4.935,37.1201,2.1287c2.2881,7.0637-10.6353,17.5555-28.8605,23.4472
	c-18.2172,5.8917-34.8399,4.935-37.1201-2.1207C0.3759,40.4852,13.2914,29.9853,31.5166,24.0936L31.5166,24.0936z"/>
<path class="st4" d="M30.9904,72.0404c-0.2153-0.008-0.3907-0.3747-0.3827-0.8052c0.008-0.4385,0.1834-0.7813,0.4066-0.7733
	c6.9122,0.3747,14.3904-1.6184,20.88-5.1742c6.4099-3.5079,11.8392-8.5386,14.789-14.2947c0.1515-0.303,0.4066-0.295,0.5581,0.0159
	c0.1515,0.3189,0.1435,0.8132-0.008,1.1241c-3.0375,5.9395-8.5944,11.1057-15.1319,14.6854
	C45.5403,70.406,37.9823,72.4151,30.9904,72.0404L30.9904,72.0404z M5.8291,57.355c-0.5342-0.2312-0.877-1.2756-0.7654-2.3519
	c0.1116-1.0683,0.6378-1.754,1.172-1.5228c5.8439,2.4715,14.3346,2.1446,23.1682,0.0558
	c8.2276-1.9533,16.7264-5.4373,23.6784-9.6228c6.8325-4.1138,12.2936-8.8336,14.207-13.338
	c1.1002-2.1287,0.7414-2.5113,0.4624-3.476l-0.1754-0.3986c-0.7574-2.3519-4.1936-3.8188-9.2561-4.3689
	c-5.3097-0.574-12.2697,0.0239-19.7798,1.8018c-2.3041,0.5421-4.6241,1.1879-6.9202,1.9373
	c-9.0329,2.9179-16.7582,6.9441-21.9324,11.0977c-4.5443,3.6434-7.0158,6.968-6.3302,9.0887
	c0.295,0.9168,0.1595,2.1366-0.295,2.7266c-0.4624,0.59-1.0683,0.3269-1.3633-0.59c-1.5546-4.8074,1.3314-10.149,7.255-14.9007
	c5.2938-4.2493,13.1706-8.3632,22.355-11.329c2.3918-0.7733,4.7357-1.4271,6.9999-1.9692
	c7.6058-1.8018,14.6854-2.3997,20.1147-1.8098c5.6844,0.6139,9.6786,2.6708,10.8107,6.1787c0.0718,0.2153,0.1276,0.4146,0.1754,0.59
	c0.6298,2.6788,0.3109,5.3575-0.7973,7.9646c-2.1685,5.1263-7.7892,10.2686-14.9644,14.5897
	c-7.0557,4.2494-15.682,7.7812-24.0132,9.7584C20.6102,59.6112,11.8883,59.9222,5.8291,57.355L5.8291,57.355z M11.2505,63.7888
	c-0.4385-0.0957-0.7494-0.885-0.7016-1.754c0.0558-0.869,0.4465-1.4909,0.877-1.3952c7.8769,1.8177,18.1614,0.1834,27.9277-3.2209
	c7.5739-2.6389,14.8369-6.3302,20.4097-10.2925c5.4133-3.8587,9.1764-7.845,9.9417-11.1855
	c0.1435-0.6298,0.1355-1.2198-0.0478-1.754c-0.2551-0.7175-0.1594-1.7061,0.1993-2.2084c0.3588-0.4943,0.8531-0.3189,1.1002,0.3986
	c0.5342,1.5467,0.582,3.189,0.1913,4.8872c-0.9647,4.1616-5.0546,8.714-10.8586,12.8437
	c-5.6525,4.0261-13.0032,7.7732-20.6728,10.436C29.7228,63.9882,19.2788,65.6385,11.2505,63.7888L11.2505,63.7888z M19.1752,68.9471
	c-0.3269-0.0239-0.582-0.582-0.5661-1.2357c0.0159-0.6538,0.295-1.164,0.6219-1.1321c9.0329,0.7813,21.4859-1.9692,31.8423-7.1832
	c8.7937-4.4168,16.0248-10.5636,18.2411-17.715c0.1674-0.5581,0.5342-0.7335,0.8132-0.3907
	c0.279,0.3428,0.3667,1.0763,0.1913,1.6344c-2.3918,7.7413-9.8939,14.223-18.9587,18.7833
	C40.9082,66.9619,28.3196,69.7363,19.1752,68.9471L19.1752,68.9471z"/>
<path class="st1" d="M71.2198,65.6305l6.6411-17.9222c1.0364-3.1332,2.6469-4.7038,4.8234-4.7038s3.7949,1.443,4.8553,4.3131
	l6.96,18.5839c0.3588,1.164,0.5421,2.1127,0.5421,2.8382c0,0.8531-0.287,1.5307-0.8531,2.041
	c-0.574,0.5023-1.2995,0.7574-2.1765,0.7574c-1.5786,0-2.6708-0.9886-3.2687-2.9578l-0.7733-2.6788H77.6696l-0.8531,2.6788
	c-0.3109,0.9567-0.7175,1.6822-1.2039,2.1606c-0.4943,0.4784-1.2038,0.7175-2.1366,0.7175c-1.9692,0-2.9578-0.885-2.9578-2.6469
	C70.5182,67.9824,70.7494,66.922,71.2198,65.6305L71.2198,65.6305z M79.4554,60.0657h6.6092l-3.189-10.1012h-0.0718L79.4554,60.0657
	z M117.2771,57.5065c0-2.1287,0.3348-4.074,1.0045-5.8518c0.6777-1.7779,1.6184-3.3006,2.8223-4.5683
	c1.2038-1.2676,2.6548-2.2483,4.353-2.9339c1.6982-0.6856,3.5558-1.0285,5.5808-1.0285c2.0729,0,3.9703,0.3348,5.6924,1.0125
	c1.7221,0.6697,2.5831,1.8417,2.5831,3.492c0,0.2392-0.0239,0.4704-0.0797,0.7016c-0.0478,0.2392-0.0797,0.3747-0.0797,0.4305
	c-0.5182,1.1162-1.3474,1.7221-2.4874,1.8257c-0.4863-0.0478-1.3474-0.295-2.5592-0.7175
	c-1.2198-0.4305-2.1685-0.6458-2.8382-0.6458c-1.6583,0-3.0854,0.4465-4.2812,1.3474c-1.1879,0.8929-2.0171,2.1366-2.4874,3.7471
	c-0.279,0.8531-0.4624,1.9453-0.5421,3.2608c0.0239,0.9886,0.1834,1.9612,0.4704,2.9179c0.279,0.9567,0.6856,1.8815,1.2038,2.7585
	c1.2198,1.738,3.0136,2.5831,5.4054,2.5273c1.443,0,2.7186-0.2551,3.8029-0.7733c0.7574-0.3109,1.3792-0.4704,1.8656-0.4704
	c0.8531,0,1.5546,0.2631,2.1047,0.7813c0.5421,0.5182,0.8132,1.2038,0.8132,2.0569c0,1.5068-0.7654,2.607-2.2961,3.3006
	c-2.0729,0.9328-4.2175,1.4032-6.4498,1.4032c-2.2323,0-4.2254-0.4146-5.9874-1.2437c-2.2243-0.9886-4.05-2.6309-5.4771-4.935
	C117.9866,63.5895,117.2771,60.7991,117.2771,57.5065L117.2771,57.5065z M141.7208,54.8995v-7.9646
	c0-1.0922,0.3109-1.8975,0.9328-2.4157c0.6219-0.5182,1.3235-0.7733,2.0968-0.7733h9.9497c0.9089,0,1.6264,0.2551,2.1606,0.7574
	c0.5342,0.5023,0.7973,1.2357,0.7973,2.1924c0,1.9214-0.9886,2.8781-2.9578,2.8781h-6.681v5.0147h6.2186
	c0.9567,0,1.6982,0.279,2.2164,0.8371c0.5182,0.5581,0.7733,1.2517,0.7733,2.0808c0,0.7733-0.2631,1.459-0.7973,2.0569
	c-0.5262,0.5979-1.2597,0.8929-2.1925,0.8929h-6.2186v5.1742h6.681c1.1161,0,1.9294,0.2631,2.4316,0.7972
	c0.5023,0.5262,0.7574,1.1959,0.7574,2.0011c0.0558,0.877-0.1834,1.6025-0.7175,2.1765c-0.5342,0.566-1.3553,0.8531-2.4715,0.8531
	h-9.7105c-1.0364,0-1.8417-0.3109-2.4157-0.9328c-0.5661-0.6219-0.8531-1.3474-0.8531-2.1765V54.8995z M180.547,51.559
	c0.0797-2.025,0.6219-3.6674,1.6344-4.935c1.0125-1.2676,2.336-2.2004,3.9623-2.7984c1.451-0.4704,2.9658-0.7016,4.5523-0.7016
	c1.0843,0,2.2004,0.1276,3.3405,0.3907c1.1401,0.2551,2.1366,0.7016,2.9897,1.3394c0.861,0.6378,1.2836,1.4829,1.2836,2.5432
	c0,0.8291-0.2711,1.5068-0.8132,2.025c-0.5421,0.5182-1.2437,0.7973-2.0968,0.8531c-0.3907-0.0558-1.1799-0.2392-2.3519-0.5661
	c-1.1799-0.3189-2.1048-0.4863-2.7824-0.4863c-0.7016,0-1.3553,0.1674-1.9613,0.5102c-0.6139,0.3348-0.9567,0.8371-1.0284,1.5148
	c-0.0319,0.4385,0.0558,0.8052,0.2471,1.0843c0.1993,0.287,0.5023,0.5182,0.9169,0.7016c0.4146,0.1834,0.9966,0.3986,1.746,0.6617
	c0.8292,0.287,1.8815,0.6378,3.1492,1.0524c1.2676,0.4146,2.3758,0.9168,3.3086,1.5148c0.9328,0.59,1.7221,1.4271,2.3679,2.5034
	c0.6458,1.0763,0.9726,2.4157,0.9726,4.0261c0,2.4077-0.6617,4.3929-1.9852,5.9475c-2.017,2.2243-4.8313,3.3405-8.4349,3.3405
	c-2.7425,0.1036-5.2698-0.4783-7.5739-1.754c-1.2198-0.6697-1.8815-1.6184-1.9852-2.8302c0.0797-0.9089,0.3907-1.7141,0.9328-2.4157
	c0.5421-0.6936,1.2437-1.0045,2.0968-0.9328c0.7813,0.0558,1.8257,0.3269,3.1492,0.8212c1.3235,0.4943,2.32,0.7654,2.9977,0.8132
	c0.2551,0,0.4624,0.016,0.6219,0.0399c0.9328-0.0478,1.722-0.287,2.3678-0.7016s0.9726-1.0125,0.9726-1.7859
	c0-1.3234-1.1401-2.3359-3.4202-3.0296c-0.2312-0.0797-0.869-0.2711-1.9054-0.582c-1.0364-0.3109-1.9692-0.6458-2.7984-0.9966
	c-0.8291-0.3508-1.5706-0.7813-2.2164-1.2995c-0.7733-0.6458-1.3553-1.4351-1.73-2.3519S180.5231,52.9861,180.547,51.559
	L180.547,51.559z M94.6909,57.5065c0-2.1287,0.3428-4.074,1.0125-5.8518c0.6777-1.7779,1.6105-3.3006,2.8223-4.5683
	c1.2038-1.2676,2.6548-2.2483,4.353-2.9339c1.6902-0.6856,3.5557-1.0285,5.5728-1.0285c2.0729,0,3.9703,0.3348,5.6924,1.0125
	c1.7221,0.6697,2.5831,1.8417,2.5831,3.492c0,0.2392-0.0239,0.4704-0.0717,0.7016c-0.0558,0.2392-0.0797,0.3747-0.0797,0.4305
	c-0.5182,1.1162-1.3474,1.7221-2.4874,1.8257c-0.4943-0.0478-1.3474-0.295-2.5672-0.7175
	c-1.2198-0.4305-2.1606-0.6458-2.8382-0.6458c-1.6583,0-3.0774,0.4465-4.2733,1.3474c-1.1879,0.8929-2.0171,2.1366-2.4874,3.7471
	c-0.287,0.8531-0.4624,1.9453-0.5421,3.2608c0.0239,0.9886,0.1834,1.9612,0.4624,2.9179c0.287,0.9567,0.6856,1.8815,1.2038,2.7585
	c1.2198,1.738,3.0216,2.5831,5.4054,2.5273c1.451,0,2.7186-0.2551,3.8109-0.7733c0.7494-0.3109,1.3713-0.4704,1.8656-0.4704
	c0.8531,0,1.5546,0.2631,2.0968,0.7813c0.5421,0.5182,0.8132,1.2038,0.8132,2.0569c0,1.5068-0.7574,2.607-2.2881,3.3006
	c-2.0729,0.9328-4.2254,1.4032-6.4498,1.4032c-2.2323,0-4.2254-0.4146-5.9874-1.2437c-2.2323-0.9886-4.058-2.6309-5.4851-4.935
	C95.4084,63.5895,94.6909,60.7991,94.6909,57.5065L94.6909,57.5065z M160.0656,51.559c0.0797-2.025,0.6219-3.6674,1.6344-4.935
	c1.0125-1.2676,2.328-2.2004,3.9623-2.7984c1.451-0.4704,2.9658-0.7016,4.5443-0.7016c1.0922,0,2.2084,0.1276,3.3484,0.3907
	c1.1401,0.2551,2.1366,0.7016,2.9897,1.3394c0.853,0.6378,1.2836,1.4829,1.2836,2.5432c0,0.8291-0.2711,1.5068-0.8132,2.025
	c-0.5501,0.5182-1.2437,0.7973-2.1048,0.8531c-0.3827-0.0558-1.172-0.2392-2.3519-0.5661c-1.172-0.3189-2.1048-0.4863-2.7744-0.4863
	c-0.7016,0-1.3553,0.1674-1.9612,0.5102c-0.6139,0.3348-0.9567,0.8371-1.0364,1.5148c-0.0239,0.4385,0.0638,0.8052,0.2551,1.0843
	c0.1993,0.287,0.5023,0.5182,0.9168,0.7016c0.4146,0.1834,0.9966,0.3986,1.746,0.6617c0.8291,0.287,1.8815,0.6378,3.1491,1.0524
	c1.2676,0.4146,2.3678,0.9168,3.3006,1.5148c0.9328,0.59,1.722,1.4271,2.3758,2.5034c0.6458,1.0763,0.9726,2.4157,0.9726,4.0261
	c0,2.4077-0.6617,4.3929-1.9851,5.9475c-2.0171,2.2243-4.8314,3.3405-8.4349,3.3405c-2.7426,0.1036-5.2699-0.4783-7.5819-1.754
	c-1.2118-0.6697-1.8735-1.6184-1.9772-2.8302c0.0797-0.9089,0.3906-1.7141,0.9328-2.4157c0.5421-0.6936,1.2437-1.0045,2.0968-0.9328
	c0.7813,0.0558,1.8257,0.3269,3.1491,0.8212c1.3234,0.4943,2.32,0.7654,2.9897,0.8132c0.2631,0,0.4704,0.016,0.6219,0.0399
	c0.9328-0.0478,1.7221-0.287,2.3758-0.7016c0.6458-0.4146,0.9726-1.0125,0.9726-1.7859c0-1.3234-1.1401-2.3359-3.4202-3.0296
	c-0.2392-0.0797-0.869-0.2711-1.9054-0.582c-1.0364-0.3109-1.9692-0.6458-2.7984-0.9966c-0.8291-0.3508-1.5706-0.7813-2.2164-1.2995
	c-0.7813-0.6458-1.3553-1.4351-1.73-2.3519C160.2171,54.158,160.0417,52.9861,160.0656,51.559L160.0656,51.559z"/>
<path class="st4" d="M79.1764,78.6735c-1.0922,0-1.9772-0.8849-1.9772-1.9772c0-1.1002,0.8849-1.9852,1.9772-1.9852h39.6155
	c1.1002,0,1.9852,0.885,1.9852,1.9852c0,1.0922-0.885,1.9772-1.9852,1.9772H79.1764z"/>
<path class="st5" d="M39.5689,78.6735c-1.1002,0-1.9852-0.8849-1.9852-1.9772c0-1.1002,0.8849-1.9852,1.9852-1.9852h39.6075
	c1.1002,0,1.9852,0.885,1.9852,1.9852c0,1.0922-0.8849,1.9772-1.9852,1.9772H39.5689z"/>
<path class="st5" d="M25.1386,5.8445c-0.5421,0.1674-1.0444-0.566-1.1321-1.6423s0.287-2.0968,0.8212-2.2642
	c5.23-1.6902,9.001-2.1685,10.8666-1.8417c0.9726,0.1754,1.6264,0.6697,1.9294,1.451c0.59,1.5467,0.3269,2.9897-0.869,4.2015
	c-1.2676,1.2836-4.5204,3.0136-10.0932,4.8154c-3.7551,1.2118-8.0921,2.0808-10.7151,2.2084
	c-0.7414,0.0319-1.3633,0.008-1.8018-0.0797c-0.9328-0.1913-1.4829-0.9168-1.5228-2.2722
	c-0.0239-0.7016,0.1036-1.3234,0.3907-1.8417c0.4066-0.7335,1.0364-0.6697,1.3952,0.1435l0.0239,0.0558
	c0.3588,0.0558,0.861,0.0717,1.4669,0.0399c2.5432-0.1276,6.7766-0.9727,10.452-2.1606c2.902-0.9408,5.1263-1.8337,6.7288-2.6309
	C31.126,4.2022,28.4472,4.7762,25.1386,5.8445L25.1386,5.8445z M67.8793,27.482c-0.3508-0.8451-0.295-2.0888,0.1276-2.7904
	c0.4225-0.6936,1.0444-0.574,1.3952,0.2631c0.0717,0.1674,0.1355,0.3508,0.1993,0.5501l0.0478,0.1515
	c1.2915,4.2653-0.8929,8.8734-5.5409,13.0909c-4.0979,3.7311-10.2686,7.4463-17.5874,10.4599
	c-2.1047,0.869-4.3052,1.6822-6.5853,2.4157l0,0c-9.1684,2.9658-17.9461,4.2015-24.7228,3.8188
	C8.1731,55.035,3.1584,52.731,1.8269,48.6171c-0.295-0.9168-0.1674-2.1366,0.295-2.7266c0.4544-0.59,1.0683-0.3269,1.3633,0.59
	c0.9487,2.9419,5.3815,4.64,11.7834,5.0067c6.6411,0.3827,15.2514-0.8371,24.2763-3.7391c0.0478-0.0319,0.1036-0.0478,0.1595-0.0558
	c2.2164-0.7175,4.3689-1.5148,6.4259-2.3599c7.1593-2.9498,13.1786-6.5773,17.1648-10.1969
	c3.3564-3.0455,5.1502-5.7083,4.6719-7.4144l-0.0239-0.0558C67.9351,27.6175,67.9112,27.5617,67.8793,27.482L67.8793,27.482z
	 M64.6504,20.2429c-0.287-0.9407-0.1276-2.1526,0.3348-2.7186c0.4704-0.5581,1.0763-0.2551,1.3553,0.6856
	c1.9533,6.5136-6.37,13.1387-17.8744,18.1215c-7.5021,3.2448-16.3835,6.0033-24.4278,7.6377
	c-8.0762,1.6423-15.3232,2.1526-19.5247,0.8849c-3.0854-0.9248-4.7755-3.0056-4.4806-6.5135
	c0.0957-1.0763,0.6059-1.8018,1.148-1.6184c0.5342,0.1834,0.9009,1.2118,0.8052,2.2881c-0.0638,0.7335,0.9966,1.3792,2.8223,1.9293
	c4.0421,1.2118,11.1137,0.7095,19.0384-0.9009c7.9486-1.6184,16.7423-4.353,24.1966-7.5819
	C58.0492,28.1277,65.5912,23.3921,64.6504,20.2429L64.6504,20.2429z M57.8259,10.1577c0.295-0.9248,0.9009-1.1959,1.3633-0.6059
	c0.287,0.3588,0.5023,0.7893,0.6458,1.2756l0,0c0.59,1.9214,0.1435,3.8746-1.172,5.7562c-0.8929,1.2836-2.2961,2.6788-4.1138,4.1058
	c-4.8553,3.8109-12.8118,7.9646-21.8049,10.6991c-8.5226,2.5911-16.6945,3.7391-22.5383,3.6833
	c-2.5672-0.0239-4.6958-0.279-6.2265-0.7494c-1.8895-0.59-3.0455-1.73-3.2767-3.4202c-0.0877-0.6777-0.0478-1.3633,0.1196-2.033
	c0.2551-0.9727,0.8531-1.3553,1.3394-0.8531c0.3588,0.3747,0.5581,1.1321,0.5262,1.8895c0.1913,0.0717,0.7414,0.2471,1.5945,0.5102
	c1.4351,0.4385,3.4601,0.6856,5.9316,0.7096c5.7322,0.0478,13.7925-1.0922,22.2354-3.6594
	c8.8495-2.6867,16.6466-6.7448,21.3823-10.4679c1.6503-1.2995,2.91-2.5353,3.6833-3.6355
	C58.392,11.9993,56.8613,13.1713,57.8259,10.1577L57.8259,10.1577z M49.1837,4.7443c0.3588-0.8212,0.9806-0.9009,1.3952-0.1834
	c0.1276,0.2153,0.2232,0.4544,0.303,0.7016c0.6298,1.9453,0.1435,3.6514-1.2597,5.1263c-0.8531,0.9009-2.1526,1.8257-3.7949,2.7665
	c-3.9145,2.2323-9.9417,4.6081-16.4712,6.7208C21.9895,22.252,14.009,23.8066,9.2414,23.982
	c-1.3553,0.0558-2.4635-0.008-3.2289-0.1913c-1.2756-0.295-2.0011-1.1959-2.033-2.7665v-0.0558
	c-0.008-0.7654,0.1595-1.451,0.5102-2.0489c0.4146-0.7096,1.0444-0.6059,1.3952,0.2312c0.1196,0.287,0.1913,0.6298,0.2232,0.9727
	c0.0319-0.1595,0.0797-0.279,0.1276-0.2631c0.7096,0.1674,1.7221,0.2152,2.9738,0.1754c4.6799-0.1754,12.5488-1.7141,19.8356-4.066
	c6.4338-2.0808,12.3734-4.4247,16.24-6.6252C49.6621,6.8491,47.8125,7.8775,49.1837,4.7443L49.1837,4.7443z"/>
<path class="st5" d="M64.2279,100.1117v-6.7926h0.9248l3.5637,5.3336v-5.3336h0.861v6.7926h-0.9248l-3.5557-5.3336v5.3336H64.2279z
	 M74.2015,99.4898c-0.3109,0.2711-0.6139,0.4544-0.8929,0.5581c-0.287,0.1116-0.5979,0.1674-0.9248,0.1674
	c-0.5421,0-0.9567-0.1355-1.2437-0.3986c-0.295-0.2631-0.4385-0.5979-0.4385-1.0045c0-0.2392,0.0558-0.4624,0.1595-0.6617
	c0.1116-0.1993,0.2551-0.3588,0.4385-0.4784c0.1754-0.1196,0.3747-0.2073,0.5979-0.2711c0.1594-0.0399,0.4146-0.0877,0.7414-0.1276
	c0.6777-0.0797,1.172-0.1754,1.4909-0.287c0-0.1116,0-0.1834,0-0.2153c0-0.3348-0.0797-0.574-0.2312-0.7175
	c-0.2153-0.1834-0.5342-0.279-0.9567-0.279c-0.3907,0-0.6856,0.0718-0.869,0.2073c-0.1913,0.1355-0.3269,0.3827-0.4146,0.7335
	l-0.8132-0.1116c0.0718-0.3508,0.1913-0.6378,0.3667-0.8531c0.1674-0.2153,0.4146-0.3747,0.7335-0.4943
	c0.3269-0.1116,0.7016-0.1754,1.1241-0.1754c0.4225,0,0.7654,0.0478,1.0285,0.1515c0.2631,0.0957,0.4544,0.2232,0.574,0.3747
	c0.1276,0.1515,0.2153,0.3348,0.2631,0.566c0.0239,0.1435,0.0399,0.3986,0.0399,0.7654v1.1082c0,0.7733,0.0159,1.2597,0.0558,1.4669
	c0.0319,0.2073,0.1036,0.4066,0.1993,0.5979h-0.869C74.2733,99.9363,74.2254,99.729,74.2015,99.4898L74.2015,99.4898z
	 M74.1298,97.6482c-0.303,0.1196-0.7574,0.2232-1.3633,0.3109c-0.3428,0.0478-0.59,0.1036-0.7255,0.1674
	c-0.1435,0.0558-0.2551,0.1515-0.3348,0.2631c-0.0718,0.1196-0.1116,0.2551-0.1116,0.3986c0,0.2153,0.0797,0.4066,0.2471,0.5501
	c0.1754,0.1435,0.4146,0.2232,0.7414,0.2232c0.3189,0,0.6059-0.0718,0.861-0.2153c0.2472-0.1355,0.4305-0.3269,0.5501-0.566
	c0.0877-0.1913,0.1355-0.4704,0.1355-0.8291V97.6482z M78.0682,99.3622l0.1196,0.7414c-0.2392,0.0478-0.4465,0.0718-0.6298,0.0718
	c-0.3029,0-0.5342-0.0478-0.7016-0.1435c-0.1674-0.0957-0.287-0.2232-0.3508-0.3747c-0.0717-0.1595-0.1036-0.4863-0.1036-0.9886
	v-2.8382H75.788v-0.6458h0.6139v-1.2118l0.8371-0.5023v1.7141h0.8291v0.6458H77.239v2.8861c0,0.2392,0.008,0.3906,0.0399,0.4624
	c0.0319,0.0638,0.0797,0.1196,0.1435,0.1594c0.0638,0.0399,0.1595,0.0638,0.287,0.0638
	C77.7971,99.4021,77.9167,99.3862,78.0682,99.3622L78.0682,99.3622z M78.8973,94.2678v-0.9487h0.8291v0.9487H78.8973z
	 M78.8973,100.1117v-4.927h0.8291v4.927H78.8973z M80.6911,97.6482c0-0.9089,0.2471-1.5786,0.7574-2.0171
	c0.4225-0.3667,0.9408-0.5501,1.5467-0.5501c0.6777,0,1.2278,0.2232,1.6583,0.6697c0.4305,0.4385,0.6458,1.0524,0.6458,1.8257
	c0,0.6378-0.0957,1.1321-0.287,1.4909c-0.1913,0.3667-0.4704,0.6458-0.8291,0.8451c-0.3667,0.1993-0.7574,0.303-1.1879,0.303
	c-0.6856,0-1.2437-0.2232-1.6742-0.6617C80.8984,99.1151,80.6911,98.4773,80.6911,97.6482L80.6911,97.6482z M81.5442,97.6482
	c0,0.6298,0.1355,1.1002,0.4066,1.4111c0.279,0.3189,0.6219,0.4704,1.0444,0.4704c0.4146,0,0.7574-0.1515,1.0364-0.4704
	c0.2711-0.3109,0.4146-0.7893,0.4146-1.4351c0-0.6059-0.1435-1.0683-0.4225-1.3792c-0.2711-0.3109-0.6139-0.4704-1.0285-0.4704
	c-0.4226,0-0.7654,0.1594-1.0444,0.4704C81.6797,96.5559,81.5442,97.0263,81.5442,97.6482L81.5442,97.6482z M86.2719,100.1117
	v-4.927h0.7494v0.7016c0.3667-0.5342,0.8849-0.8052,1.5626-0.8052c0.303,0,0.574,0.0558,0.8212,0.1594
	c0.2471,0.1116,0.4305,0.2471,0.5581,0.4225c0.1196,0.1754,0.2073,0.3747,0.2551,0.6139c0.0319,0.1515,0.0478,0.4225,0.0478,0.8132
	v3.0216H89.429V97.122c0-0.3428-0.0319-0.5979-0.0957-0.7654c-0.0638-0.1674-0.1754-0.303-0.3428-0.3986
	c-0.1595-0.1036-0.3588-0.1515-0.582-0.1515c-0.3508,0-0.6537,0.1116-0.9168,0.3348c-0.2551,0.2232-0.3827,0.6537-0.3827,1.2836
	v2.6867H86.2719z M94.7626,99.4898c-0.3109,0.2711-0.6059,0.4544-0.8929,0.5581c-0.287,0.1116-0.59,0.1674-0.9248,0.1674
	c-0.5342,0-0.9567-0.1355-1.2437-0.3986c-0.295-0.2631-0.4385-0.5979-0.4385-1.0045c0-0.2392,0.0558-0.4624,0.1674-0.6617
	c0.1116-0.1993,0.2551-0.3588,0.4305-0.4784s0.3747-0.2073,0.5979-0.2711c0.1674-0.0399,0.4146-0.0877,0.7414-0.1276
	c0.6777-0.0797,1.172-0.1754,1.4909-0.287c0.008-0.1116,0.008-0.1834,0.008-0.2153c0-0.3348-0.0797-0.574-0.2392-0.7175
	c-0.2153-0.1834-0.5342-0.279-0.9487-0.279c-0.3986,0-0.6856,0.0718-0.869,0.2073c-0.1913,0.1355-0.3269,0.3827-0.4225,0.7335
	l-0.8132-0.1116c0.0718-0.3508,0.1993-0.6378,0.3667-0.8531c0.1674-0.2153,0.4146-0.3747,0.7414-0.4943
	c0.3189-0.1116,0.6936-0.1754,1.1161-0.1754c0.4225,0,0.7654,0.0478,1.0285,0.1515c0.2631,0.0957,0.4544,0.2232,0.582,0.3747
	c0.1196,0.1515,0.2073,0.3348,0.2631,0.566c0.0239,0.1435,0.0399,0.3986,0.0399,0.7654v1.1082c0,0.7733,0.016,1.2597,0.0478,1.4669
	c0.0319,0.2073,0.1036,0.4066,0.2073,0.5979h-0.877C94.8424,99.9363,94.7866,99.729,94.7626,99.4898L94.7626,99.4898z
	 M94.6989,97.6482c-0.3029,0.1196-0.7574,0.2232-1.3633,0.3109c-0.3508,0.0478-0.59,0.1036-0.7335,0.1674
	c-0.1435,0.0558-0.2551,0.1515-0.3269,0.2631c-0.0797,0.1196-0.1196,0.2551-0.1196,0.3986c0,0.2153,0.0877,0.4066,0.2551,0.5501
	c0.1674,0.1435,0.4146,0.2232,0.7414,0.2232c0.3189,0,0.6059-0.0718,0.8531-0.2153c0.2551-0.1355,0.4385-0.3269,0.5501-0.566
	c0.0957-0.1913,0.1355-0.4704,0.1355-0.8291L94.6989,97.6482z M96.8036,100.1117v-6.7926h0.8371v6.7926H96.8036z M101.6908,100.1117
	v-6.7926h3.0056c0.6059,0,1.0683,0.0638,1.3792,0.1834c0.3189,0.1196,0.5661,0.3348,0.7574,0.6458
	c0.1834,0.3109,0.279,0.6458,0.279,1.0205c0,0.4863-0.1595,0.8929-0.4704,1.2198c-0.3109,0.3348-0.7893,0.5421-1.443,0.6298
	c0.2392,0.1116,0.4225,0.2312,0.5421,0.3348c0.2631,0.2471,0.5102,0.5421,0.7494,0.9089l1.172,1.8496h-1.1241l-0.8929-1.4111
	c-0.2631-0.4146-0.4784-0.7255-0.6538-0.9408c-0.1674-0.2153-0.3189-0.3667-0.4544-0.4544
	c-0.1355-0.0877-0.2711-0.1435-0.4066-0.1834c-0.1036-0.0159-0.2711-0.0239-0.5023-0.0239h-1.0364v3.0136H101.6908z
	 M102.5917,96.3167h1.9294c0.4066,0,0.7255-0.0399,0.9567-0.1276c0.2312-0.0877,0.4066-0.2232,0.5262-0.4066
	c0.1196-0.1913,0.1834-0.3907,0.1834-0.6139c0-0.3189-0.1196-0.582-0.3508-0.7893c-0.2312-0.2073-0.5979-0.3109-1.1002-0.3109
	h-2.1446V96.3167z M111.768,98.5172l0.869,0.1116c-0.1355,0.5023-0.3906,0.8929-0.7574,1.172
	c-0.3667,0.2711-0.8291,0.4146-1.4032,0.4146c-0.7175,0-1.2836-0.2232-1.7061-0.6617c-0.4225-0.4465-0.6298-1.0683-0.6298-1.8656
	c0-0.8212,0.2073-1.4669,0.6378-1.9214c0.4226-0.4544,0.9727-0.6856,1.6503-0.6856c0.6537,0,1.1959,0.2232,1.6105,0.6697
	c0.4146,0.4544,0.6218,1.0763,0.6218,1.8895c0,0.0478,0,0.1276,0,0.2232h-3.6674c0.0319,0.5342,0.1834,0.9487,0.4544,1.2357
	c0.279,0.287,0.6219,0.4305,1.0285,0.4305c0.303,0,0.5661-0.0797,0.7813-0.2392C111.4731,99.131,111.6405,98.868,111.768,98.5172
	L111.768,98.5172z M109.0414,97.1778h2.7426c-0.0399-0.4146-0.1435-0.7255-0.3189-0.9328
	c-0.2631-0.3189-0.6059-0.4784-1.0285-0.4784c-0.3827,0-0.7016,0.1276-0.9647,0.3827
	C109.2089,96.4044,109.0654,96.7473,109.0414,97.1778L109.0414,97.1778z M113.3546,98.6367l0.8291-0.1276
	c0.0399,0.3269,0.1754,0.582,0.3827,0.7574c0.2153,0.1754,0.5102,0.2631,0.8929,0.2631s0.6697-0.0718,0.8531-0.2312
	c0.1834-0.1594,0.279-0.3428,0.279-0.5501c0-0.1834-0.0877-0.3348-0.2551-0.4465c-0.1116-0.0718-0.3986-0.1674-0.8531-0.279
	c-0.6059-0.1515-1.0285-0.287-1.2676-0.3986c-0.2312-0.1116-0.4146-0.2711-0.5342-0.4704
	c-0.1196-0.1993-0.1834-0.4146-0.1834-0.6537c0-0.2232,0.0478-0.4225,0.1515-0.6139c0.1036-0.1834,0.2392-0.3348,0.4066-0.4624
	c0.1276-0.0957,0.3109-0.1754,0.5342-0.2392c0.2232-0.0638,0.4624-0.1036,0.7175-0.1036c0.3827,0,0.7255,0.0558,1.0125,0.1674
	c0.295,0.1116,0.5102,0.2631,0.6458,0.4544c0.1355,0.1913,0.2392,0.4465,0.287,0.7654l-0.8132,0.1116
	c-0.0399-0.2551-0.1435-0.4544-0.3189-0.5979c-0.1834-0.1435-0.4305-0.2153-0.7574-0.2153c-0.3747,0-0.6537,0.0638-0.8132,0.1913
	c-0.1674,0.1276-0.2471,0.2711-0.2471,0.4385c0,0.1116,0.0319,0.2073,0.1036,0.295c0.0638,0.0877,0.1754,0.1674,0.3189,0.2232
	c0.0797,0.0319,0.3269,0.1036,0.7335,0.2153c0.59,0.1515,0.9966,0.287,1.2357,0.3827c0.2312,0.1036,0.4146,0.2472,0.5501,0.4385
	c0.1355,0.1913,0.1993,0.4225,0.1993,0.7096c0,0.279-0.0797,0.5421-0.2471,0.7813c-0.1594,0.2472-0.3907,0.4385-0.7016,0.574
	c-0.303,0.1355-0.6538,0.1993-1.0364,0.1993c-0.6378,0-1.1241-0.1355-1.459-0.3986
	C113.6655,99.5536,113.4502,99.1629,113.3546,98.6367L113.3546,98.6367z M121.7895,98.5172l0.861,0.1116
	c-0.1355,0.5023-0.3827,0.8929-0.7494,1.172c-0.3667,0.2711-0.8371,0.4146-1.4111,0.4146c-0.7175,0-1.2836-0.2232-1.7061-0.6617
	c-0.4225-0.4465-0.6298-1.0683-0.6298-1.8656c0-0.8212,0.2153-1.4669,0.6378-1.9214c0.4226-0.4544,0.9727-0.6856,1.6583-0.6856
	c0.6538,0,1.1879,0.2232,1.6025,0.6697c0.4146,0.4544,0.6218,1.0763,0.6218,1.8895c0,0.0478,0,0.1276,0,0.2232h-3.6674
	c0.0319,0.5342,0.1834,0.9487,0.4624,1.2357c0.2711,0.287,0.6139,0.4305,1.0205,0.4305c0.3109,0,0.566-0.0797,0.7813-0.2392
	C121.4865,99.131,121.6619,98.868,121.7895,98.5172L121.7895,98.5172z M119.0549,97.1778h2.7426
	c-0.0399-0.4146-0.1435-0.7255-0.3189-0.9328c-0.2631-0.3189-0.6059-0.4784-1.0285-0.4784c-0.3827,0-0.7016,0.1276-0.9647,0.3827
	C119.2303,96.4044,119.0868,96.7473,119.0549,97.1778L119.0549,97.1778z M126.9158,99.4898
	c-0.303,0.2711-0.6059,0.4544-0.8929,0.5581c-0.287,0.1116-0.59,0.1674-0.9168,0.1674c-0.5421,0-0.9567-0.1355-1.2517-0.3986
	c-0.287-0.2631-0.4385-0.5979-0.4385-1.0045c0-0.2392,0.0558-0.4624,0.1674-0.6617c0.1116-0.1993,0.2551-0.3588,0.4305-0.4784
	c0.1834-0.1196,0.3827-0.2073,0.6059-0.2711c0.1595-0.0399,0.4066-0.0877,0.7414-0.1276c0.6697-0.0797,1.172-0.1754,1.4829-0.287
	c0.008-0.1116,0.008-0.1834,0.008-0.2153c0-0.3348-0.0797-0.574-0.2392-0.7175c-0.2073-0.1834-0.5262-0.279-0.9487-0.279
	c-0.3907,0-0.6856,0.0718-0.869,0.2073c-0.1913,0.1355-0.3269,0.3827-0.4146,0.7335l-0.8212-0.1116
	c0.0797-0.3508,0.1993-0.6378,0.3667-0.8531c0.1754-0.2153,0.4225-0.3747,0.7414-0.4943c0.3189-0.1116,0.6936-0.1754,1.1162-0.1754
	c0.4225,0,0.7654,0.0478,1.0285,0.1515c0.2631,0.0957,0.4624,0.2232,0.582,0.3747c0.1196,0.1515,0.2073,0.3348,0.2631,0.566
	c0.0239,0.1435,0.0399,0.3986,0.0399,0.7654v1.1082c0,0.7733,0.0159,1.2597,0.0478,1.4669
	c0.0399,0.2073,0.1036,0.4066,0.2073,0.5979h-0.869C126.9956,99.9363,126.9398,99.729,126.9158,99.4898L126.9158,99.4898z
	 M126.8521,97.6482c-0.303,0.1196-0.7574,0.2232-1.3633,0.3109c-0.3428,0.0478-0.59,0.1036-0.7335,0.1674
	c-0.1435,0.0558-0.2472,0.1515-0.3269,0.2631c-0.0797,0.1196-0.1196,0.2551-0.1196,0.3986c0,0.2153,0.0877,0.4066,0.2551,0.5501
	c0.1674,0.1435,0.4146,0.2232,0.7414,0.2232c0.3189,0,0.6059-0.0718,0.8531-0.2153c0.2551-0.1355,0.4385-0.3269,0.5581-0.566
	c0.0877-0.1913,0.1276-0.4704,0.1276-0.8291L126.8521,97.6482z M128.9648,100.1117v-4.927h0.7494v0.7574
	c0.1913-0.3508,0.3747-0.582,0.5341-0.6936c0.1674-0.1116,0.3428-0.1674,0.5342-0.1674c0.287,0,0.5661,0.0877,0.861,0.2631
	l-0.295,0.7733c-0.2073-0.1116-0.4066-0.1674-0.6059-0.1674c-0.1834,0-0.3508,0.0558-0.4943,0.1594
	c-0.1435,0.1116-0.2471,0.2631-0.3029,0.4544c-0.0957,0.295-0.1435,0.6219-0.1435,0.9726v2.5751H128.9648z M135.3508,98.3099
	l0.8132,0.1116c-0.0877,0.5581-0.3189,0.9966-0.6856,1.3155c-0.3667,0.3189-0.8212,0.4783-1.3553,0.4783
	c-0.6697,0-1.2118-0.2232-1.6184-0.6617c-0.4146-0.4385-0.6139-1.0683-0.6139-1.8895c0-0.5262,0.0877-0.9886,0.2631-1.3872
	c0.1754-0.3986,0.4385-0.6936,0.8052-0.8929c0.3588-0.1993,0.7494-0.3029,1.172-0.3029c0.5342,0,0.9727,0.1355,1.3075,0.4066
	c0.3428,0.2711,0.5581,0.6538,0.6537,1.148l-0.8052,0.1276c-0.0797-0.3348-0.2153-0.582-0.4146-0.7494
	c-0.1913-0.1674-0.4305-0.2472-0.7096-0.2472c-0.4225,0-0.7654,0.1515-1.0285,0.4465c-0.2631,0.303-0.3907,0.7813-0.3907,1.4351
	c0,0.6537,0.1276,1.1321,0.3827,1.4351c0.2471,0.295,0.582,0.4465,0.9886,0.4465c0.3269,0,0.5979-0.0957,0.8212-0.295
	C135.1515,99.0354,135.295,98.7244,135.3508,98.3099L135.3508,98.3099z M136.8815,100.1117v-6.7926h0.8291v2.4476
	c0.3907-0.4544,0.877-0.6856,1.4669-0.6856c0.3667,0,0.6777,0.0717,0.9487,0.2153c0.2631,0.1435,0.4544,0.3428,0.574,0.5979
	c0.1116,0.2551,0.1674,0.6219,0.1674,1.1002v3.1173h-0.8291v-3.1173c0-0.4146-0.0957-0.7175-0.2711-0.9089
	c-0.1834-0.1834-0.4305-0.279-0.7654-0.279c-0.2392,0-0.4704,0.0638-0.6856,0.1913c-0.2232,0.1276-0.3747,0.303-0.4704,0.5182
	c-0.0877,0.2232-0.1355,0.5182-0.1355,0.9089v2.6867H136.8815z M145.0453,100.1117v-6.7926h0.9009v6.7926H145.0453z
	 M147.4212,100.1117v-4.927h0.7494v0.7016c0.3587-0.5342,0.8849-0.8052,1.5626-0.8052c0.295,0,0.574,0.0558,0.8212,0.1594
	c0.2471,0.1116,0.4305,0.2471,0.5581,0.4225c0.1196,0.1754,0.2073,0.3747,0.2551,0.6139c0.0319,0.1515,0.0478,0.4225,0.0478,0.8132
	v3.0216h-0.8371V97.122c0-0.3428-0.0319-0.5979-0.0957-0.7654c-0.0638-0.1674-0.1754-0.303-0.3428-0.3986
	c-0.1674-0.1036-0.3587-0.1515-0.582-0.1515c-0.3508,0-0.6617,0.1116-0.9169,0.3348c-0.2551,0.2232-0.3827,0.6537-0.3827,1.2836
	v2.6867H147.4212z M152.8983,100.1117v-4.2812h-0.7415v-0.6458h0.7415v-0.5182c0-0.3269,0.0239-0.574,0.0877-0.7335
	c0.0797-0.2153,0.2153-0.3907,0.4146-0.5262c0.2073-0.1355,0.4863-0.1993,0.8531-0.1993c0.2312,0,0.4943,0.0239,0.7733,0.0797
	l-0.1196,0.7335c-0.1754-0.0319-0.3348-0.0478-0.4943-0.0478c-0.2551,0-0.4305,0.0558-0.5341,0.1594
	c-0.1037,0.1116-0.1595,0.3109-0.1595,0.6059v0.4465h0.9567v0.6458h-0.9487v4.2812H152.8983z M155.3219,100.1117v-4.927h0.7494
	v0.7574c0.1913-0.3508,0.3667-0.582,0.5341-0.6936c0.1595-0.1116,0.3348-0.1674,0.5342-0.1674c0.279,0,0.566,0.0877,0.8531,0.2631
	l-0.295,0.7733c-0.1993-0.1116-0.4066-0.1674-0.6059-0.1674c-0.1834,0-0.3428,0.0558-0.4863,0.1594
	c-0.1435,0.1116-0.2471,0.2631-0.3109,0.4544c-0.0957,0.295-0.1355,0.6219-0.1355,0.9726v2.5751H155.3219z M161.7,99.4898
	c-0.303,0.2711-0.6059,0.4544-0.8929,0.5581c-0.287,0.1116-0.59,0.1674-0.9168,0.1674c-0.5421,0-0.9567-0.1355-1.2517-0.3986
	c-0.287-0.2631-0.4305-0.5979-0.4305-1.0045c0-0.2392,0.0558-0.4624,0.1595-0.6617c0.1116-0.1993,0.2551-0.3588,0.4305-0.4784
	c0.1834-0.1196,0.3827-0.2073,0.6059-0.2711c0.1594-0.0399,0.4066-0.0877,0.7414-0.1276c0.6697-0.0797,1.172-0.1754,1.4909-0.287
	c0-0.1116,0-0.1834,0-0.2153c0-0.3348-0.0797-0.574-0.2392-0.7175c-0.2073-0.1834-0.5262-0.279-0.9487-0.279
	c-0.3906,0-0.6856,0.0718-0.869,0.2073c-0.1913,0.1355-0.3269,0.3827-0.4146,0.7335l-0.8212-0.1116
	c0.0797-0.3508,0.1993-0.6378,0.3667-0.8531c0.1754-0.2153,0.4225-0.3747,0.7414-0.4943c0.3189-0.1116,0.6936-0.1754,1.1241-0.1754
	c0.4146,0,0.7574,0.0478,1.0205,0.1515c0.2631,0.0957,0.4624,0.2232,0.582,0.3747c0.1276,0.1515,0.2153,0.3348,0.2631,0.566
	c0.0239,0.1435,0.0399,0.3986,0.0399,0.7654v1.1082c0,0.7733,0.016,1.2597,0.0558,1.4669c0.0319,0.2073,0.0957,0.4066,0.1993,0.5979
	h-0.869C161.7797,99.9363,161.7239,99.729,161.7,99.4898L161.7,99.4898z M161.6362,97.6482
	c-0.303,0.1196-0.7574,0.2232-1.3633,0.3109c-0.3428,0.0478-0.59,0.1036-0.7335,0.1674c-0.1435,0.0558-0.2471,0.1515-0.3269,0.2631
	c-0.0797,0.1196-0.1196,0.2551-0.1196,0.3986c0,0.2153,0.0877,0.4066,0.2551,0.5501c0.1674,0.1435,0.4146,0.2232,0.7414,0.2232
	c0.3189,0,0.6059-0.0718,0.861-0.2153c0.2471-0.1355,0.4305-0.3269,0.5501-0.566c0.0877-0.1913,0.1355-0.4704,0.1355-0.8291V97.6482
	z M163.43,98.6367l0.8291-0.1276c0.0399,0.3269,0.1754,0.582,0.3827,0.7574c0.2153,0.1754,0.5102,0.2631,0.8929,0.2631
	s0.6697-0.0718,0.8531-0.2312c0.1834-0.1594,0.279-0.3428,0.279-0.5501c0-0.1834-0.0877-0.3348-0.2551-0.4465
	c-0.1116-0.0718-0.3986-0.1674-0.8531-0.279c-0.6059-0.1515-1.0284-0.287-1.2676-0.3986c-0.2312-0.1116-0.4146-0.2711-0.5342-0.4704
	c-0.1196-0.1993-0.1833-0.4146-0.1833-0.6537c0-0.2232,0.0478-0.4225,0.1515-0.6139c0.1036-0.1834,0.2392-0.3348,0.4066-0.4624
	c0.1275-0.0957,0.3109-0.1754,0.5341-0.2392c0.2232-0.0638,0.4624-0.1036,0.7175-0.1036c0.3827,0,0.7255,0.0558,1.0125,0.1674
	c0.295,0.1116,0.5103,0.2631,0.6458,0.4544c0.1355,0.1913,0.2392,0.4465,0.287,0.7654l-0.8132,0.1116
	c-0.0399-0.2551-0.1435-0.4544-0.3189-0.5979c-0.1834-0.1435-0.4305-0.2153-0.7574-0.2153c-0.3747,0-0.6537,0.0638-0.8132,0.1913
	c-0.1674,0.1276-0.2471,0.2711-0.2471,0.4385c0,0.1116,0.0319,0.2073,0.1036,0.295c0.0638,0.0877,0.1754,0.1674,0.3189,0.2232
	c0.0797,0.0319,0.3269,0.1036,0.7335,0.2153c0.59,0.1515,0.9966,0.287,1.2357,0.3827c0.2312,0.1036,0.4146,0.2472,0.5501,0.4385
	c0.1355,0.1913,0.1993,0.4225,0.1993,0.7096c0,0.279-0.0797,0.5421-0.2472,0.7813c-0.1594,0.2472-0.3907,0.4385-0.7016,0.574
	c-0.303,0.1355-0.6537,0.1993-1.0364,0.1993c-0.6378,0-1.1241-0.1355-1.459-0.3986
	C163.7409,99.5536,163.5257,99.1629,163.43,98.6367L163.43,98.6367z M170.3183,99.3622l0.1116,0.7414
	c-0.2312,0.0478-0.4465,0.0718-0.6298,0.0718c-0.303,0-0.5342-0.0478-0.7016-0.1435c-0.1674-0.0957-0.279-0.2232-0.3508-0.3747
	c-0.0638-0.1595-0.1037-0.4863-0.1037-0.9886v-2.8382h-0.6139v-0.6458h0.6139v-1.2118l0.8371-0.5023v1.7141h0.8371v0.6458h-0.8371
	v2.8861c0,0.2392,0.0159,0.3906,0.0479,0.4624c0.0239,0.0638,0.0717,0.1196,0.1355,0.1594c0.0717,0.0399,0.1674,0.0638,0.287,0.0638
	C170.0472,99.4021,170.1668,99.3862,170.3183,99.3622L170.3183,99.3622z M171.1315,100.1117v-4.927h0.7494v0.7574
	c0.1913-0.3508,0.3667-0.582,0.5262-0.6936c0.1674-0.1116,0.3428-0.1674,0.5421-0.1674c0.279,0,0.5661,0.0877,0.8531,0.2631
	l-0.295,0.7733c-0.1993-0.1116-0.4066-0.1674-0.6059-0.1674c-0.1834,0-0.3428,0.0558-0.4863,0.1594
	c-0.1435,0.1116-0.2472,0.2631-0.3109,0.4544c-0.0957,0.295-0.1355,0.6219-0.1355,0.9726v2.5751H171.1315z M177.5095,100.1117
	v-0.7335c-0.3827,0.5581-0.9009,0.8371-1.5546,0.8371c-0.287,0-0.5581-0.0558-0.8132-0.1674
	c-0.2471-0.1116-0.4305-0.2471-0.5581-0.4146c-0.1196-0.1754-0.2073-0.3747-0.2551-0.6219
	c-0.0319-0.1674-0.0478-0.4225-0.0478-0.7813v-3.0455h0.8291v2.7266c0,0.4385,0.0239,0.7255,0.0558,0.877
	c0.0479,0.2232,0.1595,0.3907,0.3349,0.5182c0.1674,0.1276,0.3747,0.1834,0.6219,0.1834c0.2551,0,0.4863-0.0558,0.7016-0.1913
	c0.2232-0.1276,0.3747-0.303,0.4704-0.5182c0.0877-0.2232,0.1355-0.5421,0.1355-0.9567v-2.6389h0.8291v4.927H177.5095z
	 M182.7873,98.3099l0.8132,0.1116c-0.0877,0.5581-0.3189,0.9966-0.6856,1.3155c-0.3667,0.3189-0.8212,0.4783-1.3553,0.4783
	c-0.6697,0-1.2118-0.2232-1.6184-0.6617c-0.4146-0.4385-0.6139-1.0683-0.6139-1.8895c0-0.5262,0.0877-0.9886,0.2631-1.3872
	c0.1754-0.3986,0.4385-0.6936,0.8052-0.8929c0.3588-0.1993,0.7494-0.3029,1.172-0.3029c0.5342,0,0.9647,0.1355,1.3075,0.4066
	c0.3428,0.2711,0.5581,0.6538,0.6537,1.148l-0.8052,0.1276c-0.0797-0.3348-0.2153-0.582-0.4146-0.7494
	c-0.1913-0.1674-0.4305-0.2472-0.7095-0.2472c-0.4225,0-0.7654,0.1515-1.0285,0.4465c-0.2631,0.303-0.3907,0.7813-0.3907,1.4351
	c0,0.6537,0.1276,1.1321,0.3747,1.4351c0.2551,0.295,0.59,0.4465,0.9966,0.4465c0.3269,0,0.5979-0.0957,0.8212-0.295
	C182.588,99.0354,182.7315,98.7244,182.7873,98.3099L182.7873,98.3099z M186.1278,99.3622l0.1116,0.7414
	c-0.2312,0.0478-0.4465,0.0718-0.6298,0.0718c-0.303,0-0.5342-0.0478-0.7016-0.1435c-0.1674-0.0957-0.279-0.2232-0.3508-0.3747
	c-0.0718-0.1595-0.1037-0.4863-0.1037-0.9886v-2.8382h-0.6139v-0.6458h0.6139v-1.2118l0.8371-0.5023v1.7141h0.8371v0.6458h-0.8371
	v2.8861c0,0.2392,0.0159,0.3906,0.0479,0.4624c0.0239,0.0638,0.0717,0.1196,0.1355,0.1594c0.0717,0.0399,0.1674,0.0638,0.287,0.0638
	C185.8567,99.4021,185.9763,99.3862,186.1278,99.3622L186.1278,99.3622z M190.1619,100.1117v-0.7335
	c-0.3827,0.5581-0.9009,0.8371-1.5546,0.8371c-0.287,0-0.5581-0.0558-0.8132-0.1674c-0.2471-0.1116-0.4385-0.2471-0.5581-0.4146
	c-0.1196-0.1754-0.2073-0.3747-0.2551-0.6219c-0.0319-0.1674-0.0478-0.4225-0.0478-0.7813v-3.0455h0.8291v2.7266
	c0,0.4385,0.016,0.7255,0.0558,0.877c0.0478,0.2232,0.1595,0.3907,0.3269,0.5182c0.1754,0.1276,0.3827,0.1834,0.6298,0.1834
	c0.2471,0,0.4863-0.0558,0.7016-0.1913c0.2232-0.1276,0.3747-0.303,0.4624-0.5182c0.0957-0.2232,0.1435-0.5421,0.1435-0.9567
	v-2.6389h0.8291v4.927H190.1619z M192.2108,100.1117v-4.927h0.7494v0.7574c0.1913-0.3508,0.3747-0.582,0.5341-0.6936
	c0.1595-0.1116,0.3428-0.1674,0.5342-0.1674c0.279,0,0.566,0.0877,0.861,0.2631l-0.295,0.7733
	c-0.2073-0.1116-0.4066-0.1674-0.6139-0.1674c-0.1754,0-0.3428,0.0558-0.4863,0.1594c-0.1435,0.1116-0.2471,0.2631-0.3109,0.4544
	c-0.0877,0.295-0.1355,0.6219-0.1355,0.9726v2.5751H192.2108z M198.7403,98.5172l0.861,0.1116
	c-0.1355,0.5023-0.3827,0.8929-0.7494,1.172c-0.3667,0.2711-0.8371,0.4146-1.4111,0.4146c-0.7175,0-1.2836-0.2232-1.7061-0.6617
	c-0.4146-0.4465-0.6298-1.0683-0.6298-1.8656c0-0.8212,0.2152-1.4669,0.6378-1.9214c0.4225-0.4544,0.9806-0.6856,1.6583-0.6856
	c0.6537,0,1.1879,0.2232,1.6025,0.6697c0.4146,0.4544,0.6298,1.0763,0.6298,1.8895c0,0.0478-0.008,0.1276-0.008,0.2232h-3.6674
	c0.0319,0.5342,0.1833,0.9487,0.4624,1.2357c0.2711,0.287,0.6139,0.4305,1.0205,0.4305c0.3109,0,0.5661-0.0797,0.7813-0.2392
	C198.4373,99.131,198.6127,98.868,198.7403,98.5172L198.7403,98.5172z M196.0057,97.1778h2.7426
	c-0.0399-0.4146-0.1435-0.7255-0.3189-0.9328c-0.2631-0.3189-0.6059-0.4784-1.0284-0.4784c-0.3827,0-0.7016,0.1276-0.9647,0.3827
	C196.1811,96.4044,196.0376,96.7473,196.0057,97.1778L196.0057,97.1778z"/>
</svg>
