<?xml version="1.0" encoding="UTF-8" standalone="no"?>
<svg
   height="315.76047"
   width="923.07727"
   viewBox="-26.18283 -14.927425 174.55227 35.35118"
   version="1.1"
   id="svg14"
   sodipodi:docname="anu_logo.svg"
   inkscape:version="1.2.1 (9c6d41e410, 2022-07-14, custom)"
   xmlns:inkscape="http://www.inkscape.org/namespaces/inkscape"
   xmlns:sodipodi="http://sodipodi.sourceforge.net/DTD/sodipodi-0.dtd"
   xmlns="http://www.w3.org/2000/svg"
   xmlns:svg="http://www.w3.org/2000/svg">
  <defs
     id="defs18" />
  <sodipodi:namedview
     id="namedview16"
     pagecolor="#ffffff"
     bordercolor="#000000"
     borderopacity="0.25"
     inkscape:showpageshadow="2"
     inkscape:pageopacity="0"
     inkscape:pagecheckerboard="true"
     inkscape:deskcolor="#d1d1d1"
     showgrid="false"
     inkscape:zoom="1.04875"
     inkscape:cx="462.93206"
     inkscape:cy="256.49583"
     inkscape:window-width="1920"
     inkscape:window-height="1043"
     inkscape:window-x="1920"
     inkscape:window-y="0"
     inkscape:window-maximized="1"
     inkscape:current-layer="svg14" />
  <path
     d="m 64.593736,-24.535165 h 2.266 l 6.028,15.4189972 h -2.269 l -1.686,-4.6439972 h -6.521 l -1.727,4.6439972 h -2.116 z m -1.535,9.048 h 5.227 l -2.571,-7.192 h -0.042 z m 19.7382,6.3706972 h -1.73 v -1.7709972 h -0.041 c -0.779,1.3829972 -2.03,2.0299972 -3.629,2.0299972 -2.937,0 -3.844,-1.6839972 -3.844,-4.0809972 v -7.343 h 1.836 v 7.558 c 0,1.361 0.863,2.247 2.267,2.247 2.224,0 3.305,-1.491 3.305,-3.499 v -6.306 h 1.836 z m 3.3459,-3.5199972 c 0.064,1.642 1.489,2.16 3.001,2.16 1.144,0 2.699,-0.26 2.699,-1.663 0,-1.426 -1.814,-1.663 -3.65,-2.074 -1.813,-0.41 -3.65,-1.014 -3.65,-3.153 0,-2.246 2.224,-3.175 4.168,-3.175 2.463,0 4.428,0.778 4.579,3.499 h -1.835 c -0.131,-1.425 -1.384,-1.878 -2.593,-1.878 -1.102,0 -2.376,0.302 -2.376,1.425 0,1.317 1.945,1.533 3.65,1.944 1.836,0.409 3.651,1.014 3.651,3.174 0,2.6569972 -2.483,3.5199972 -4.751,3.5199972 -2.506,0 -4.623,-1.015 -4.73,-3.7789972 z m 11.7874,-7.6452 h 2.225004 v 1.6201 h -2.225004 v 6.933 c 0,0.841 0.238,0.992 1.383,0.992 h 0.842004 v 1.6199972 h -1.403004 c -1.901,0 -2.656,-0.388 -2.656,-2.4409972 v -7.104 h -1.901 v -1.62 h 1.901 v -3.3481 h 1.834 z m 4.080004,0 h 1.73 v 2.354 h 0.041 c 0.887,-1.7929 2.117,-2.6779 4.105,-2.6129 v 1.944 c -2.96,0 -4.04,1.684 -4.04,4.514 v 4.9659972 h -1.836 z m 16.7159,11.1224972 c -0.325,0.194 -0.735,0.302 -1.317,0.302 -0.952,0 -1.555,-0.518 -1.555,-1.7279972 -1.016,1.1879972 -2.378,1.7279972 -3.933,1.7279972 -2.028,0 -3.691,-0.907 -3.691,-3.1319972 0,-2.527 1.879,-3.067 3.778,-3.433 2.032,-0.389 3.758,-0.259 3.758,-1.642 0,-1.598 -1.318,-1.857 -2.482,-1.857 -1.555,0 -2.702,0.475 -2.787,2.117 h -1.836 c 0.108,-2.765 2.246,-3.737 4.73,-3.737 2.008,0 4.19,0.454 4.19,3.067 v 5.745 c 0,0.863 0,1.252 0.584,1.252 0.151,0 0.322,-0.022 0.561,-0.108 z m -2.981,-5.7229972 c -0.713,0.518 -2.095,0.539 -3.326,0.755 -1.208,0.216 -2.246,0.648 -2.246,2.009 0,1.209 1.038,1.641 2.16,1.641 2.418,0 3.412,-1.512 3.412,-2.526 z m 4.3602,-9.653 h 1.836 v 15.4189972 h -1.836 z m 5.6559,2.245 h -1.834 v -2.246 h 1.834 z m -1.834,2.009 h 1.834 v 11.1649972 h -1.834 z m 13.9296,11.1219972 c -0.326,0.194 -0.736,0.302 -1.32,0.302 -0.95,0 -1.554,-0.518 -1.554,-1.7279972 -1.015,1.1879972 -2.376,1.7279972 -3.931,1.7279972 -2.03,0 -3.692,-0.907 -3.692,-3.1319972 0,-2.527 1.879,-3.067 3.779,-3.433 2.032,-0.389 3.757,-0.259 3.757,-1.642 0,-1.598 -1.316,-1.857 -2.482,-1.857 -1.556,0 -2.701,0.475 -2.786,2.117 h -1.837 c 0.108,-2.765 2.247,-3.737 4.73,-3.737 2.01,0 4.19,0.454 4.19,3.067 v 5.745 c 0,0.863 0,1.252 0.582,1.252 0.152,0 0.325,-0.022 0.564,-0.108 z m -2.981,-5.7229972 c -0.714,0.518 -2.096,0.539 -3.327,0.755 -1.207,0.216 -2.246,0.648 -2.246,2.009 0,1.209 1.039,1.641 2.16,1.641 2.418,0 3.413,-1.512 3.413,-2.526 z m 4.2516,-5.3995 h 1.727 v 1.7701 h 0.044 c 0.777,-1.382 2.03,-2.029 3.628,-2.029 2.938,0 3.843,1.684 3.843,4.082 v 7.3419972 h -1.835 v -7.5579972 c 0,-1.361 -0.862,-2.246 -2.265,-2.246 -2.226,0 -3.306,1.49 -3.306,3.498 v 6.3059972 h -1.836 V -20.281565 Z M 69.776136,6.5927324 h 0.044 V -5.9122677 h 1.943 V 9.5087324 h -2.246 l -8.055,-12.3760001 h -0.044 V 9.5087324 h -1.943 V -5.9122677 h 2.181 z m 14.359,2.8719 c -0.324,0.194 -0.735,0.303 -1.317,0.303 -0.951,0 -1.554,-0.519 -1.554,-1.729 -1.017,1.188 -2.377,1.729 -3.931,1.729 -2.031,0 -3.694,-0.908 -3.694,-3.132 0,-2.527 1.879,-3.067 3.78,-3.433 2.031,-0.39 3.757,-0.26 3.757,-1.642 0,-1.59899989 -1.316,-1.85799989 -2.483,-1.85799989 -1.555,0 -2.699,0.475 -2.786,2.11699989 h -1.836 c 0.109,-2.76399989 2.246,-3.7360001 4.731,-3.7360001 2.008,0 4.188,0.453 4.188,3.0660001 v 5.745 c 0,0.865 0,1.252 0.585,1.252 0.15,0 0.323,-0.021 0.56,-0.108 z m -2.981,-5.722 c -0.711,0.517 -2.094,0.539 -3.324,0.754 -1.21,0.216 -2.247,0.649 -2.247,2.01 0,1.208 1.037,1.64 2.16,1.64 2.419,0 3.411,-1.511 3.411,-2.526 z m 6.8009,-5.4004001 h 2.226 v 1.61900021 h -2.226 V 6.8942324 c 0,0.842 0.238,0.994 1.383,0.994 h 0.843 v 1.62 h -1.404 c -1.901,0 -2.657,-0.389 -2.657,-2.441 v -7.10599989 h -1.9 V -1.6577677 h 1.9 v -3.347 h 1.835 z m 5.7642,-2.0085 h -1.836 v -2.246 h 1.836 z m -1.836,2.0081 h 1.836 V 9.5078324 h -1.836 z m 8.639404,-0.2588 c 3.541,0 5.42,2.57000021 5.42,5.8520001 0,3.261 -1.879,5.832 -5.42,5.832 -3.543004,0 -5.422004,-2.571 -5.422004,-5.832 0,-3.28199989 1.879,-5.8520001 5.422004,-5.8520001 m 0,10.0640001 c 1.921,0 3.477,-1.512 3.477,-4.212 0,-2.721 -1.556,-4.23199989 -3.477,-4.23199989 -1.923004,0 -3.478004,1.51099989 -3.478004,4.23199989 0,2.7 1.555,4.212 3.478004,4.212 m 7.0374,-9.8048001 h 1.729 v 1.77100021 h 0.042 c 0.778,-1.38200021 2.032,-2.03000021 3.628,-2.03000021 2.938,0 3.845,1.68500021 3.845,4.0820001 v 7.343 h -1.836 v -7.559 c 0,-1.36099989 -0.863,-2.24599989 -2.267,-2.24599989 -2.224,0 -3.306,1.48999989 -3.306,3.49899989 v 6.306 h -1.835 z m 20.9257,11.1224001 c -0.325,0.194 -0.734,0.303 -1.317,0.303 -0.952,0 -1.556,-0.519 -1.556,-1.729 -1.015,1.188 -2.377,1.729 -3.932,1.729 -2.028,0 -3.691,-0.908 -3.691,-3.132 0,-2.527 1.878,-3.067 3.78,-3.433 2.03,-0.39 3.757,-0.26 3.757,-1.642 0,-1.59899989 -1.319,-1.85799989 -2.483,-1.85799989 -1.555,0 -2.7,0.475 -2.787,2.11699989 h -1.835 c 0.107,-2.76399989 2.246,-3.7360001 4.729,-3.7360001 2.009,0 4.19,0.453 4.19,3.0660001 v 5.745 c 0,0.865 0,1.252 0.584,1.252 0.15,0 0.323,-0.021 0.561,-0.108 z m -2.981,-5.722 c -0.713,0.517 -2.094,0.539 -3.324,0.754 -1.21,0.216 -2.248,0.649 -2.248,2.01 0,1.208 1.038,1.64 2.159,1.64 2.419,0 3.413,-1.511 3.413,-2.526 z m 4.3606,-9.6548001 h 1.835 V 9.5088324 h -1.835 z M 71.806136,22.559335 c 0,3.888 -2.223,5.939 -6.068,5.939 -3.973,0 -6.328,-1.835 -6.328,-5.939 v -9.848 h 2.052 v 9.848 c 0,2.722 1.556,4.212 4.276,4.212 2.592,0 4.016,-1.49 4.016,-4.212 v -9.848 h 2.052 z m 2.0069,-5.5938 h 1.727 v 1.772 h 0.043 c 0.777,-1.383 2.032,-2.03 3.628,-2.03 2.938,0 3.846,1.684 3.846,4.081 v 7.343 h -1.838 v -7.559 c 0,-1.361 -0.863,-2.247 -2.267,-2.247 -2.223,0 -3.304,1.491 -3.304,3.499 v 6.307 h -1.835 z m 12.9752,-2.0087 h -1.834 v -2.246 h 1.834 z m -1.834,2.009 h 1.834 v 11.166 h -1.834 z m 3.1736,-10e-5 h 2.052 l 3.13,9.308 h 0.043 l 3.046,-9.308 h 1.923 l -4.082,11.166 h -1.965 z m 20.168004,7.6236 c -0.496,2.462 -2.265,3.801 -4.773,3.801 -3.562003,0 -5.246004,-2.462 -5.355004,-5.874 0,-3.347 2.203004,-5.8089 5.249004,-5.8089 3.952,0 5.161,3.692 5.053,6.392 h -8.359 c -0.064,1.944 1.038,3.672 3.477,3.672 1.513,0 2.572,-0.735 2.896,-2.182 z m -1.77,-3.11 c -0.086,-1.749 -1.403,-3.154 -3.218,-3.154 -1.921,0 -3.067,1.449 -3.197,3.154 z m 3.3459,-4.5138 h 1.727 v 2.354 h 0.042 c 0.886,-1.792 2.118,-2.678 4.105,-2.612 v 1.943 c -2.959,0 -4.039,1.685 -4.039,4.514 v 4.967 h -1.835 z m 8.3765,7.6451 c 0.066,1.642 1.491,2.161 3.003,2.161 1.145,0 2.7,-0.26 2.7,-1.665 0,-1.424 -1.816,-1.661 -3.65,-2.072 -1.814,-0.41 -3.651,-1.014 -3.651,-3.153 0,-2.247 2.226,-3.174 4.168,-3.174 2.464,0 4.429,0.777 4.579,3.499 h -1.837 c -0.129,-1.426 -1.38,-1.881 -2.59,-1.881 -1.1,0 -2.375,0.303 -2.375,1.426 0,1.319 1.943,1.533 3.649,1.944 1.836,0.409 3.651,1.015 3.651,3.174 0,2.657 -2.484,3.521 -4.752,3.521 -2.505,0 -4.621,-1.014 -4.729,-3.78 z m 10.753,-9.6538 h -1.835 v -2.246 h 1.835 z m -1.835,2.009 h 1.835 v 11.166 h -1.835 z m 6.8019,-3e-4 h 2.224 v 1.621 h -2.224 v 6.933 c 0,0.841 0.238,0.992 1.381,0.992 h 0.843 v 1.62 h -1.403 c -1.9,0 -2.657,-0.389 -2.657,-2.441 v -7.104 h -1.901 v -1.621 h 1.901 v -3.347 h 1.836 z m 8.6373,12.6565 c -0.844,2.181 -1.6,2.981 -3.24,2.981 -0.432,0 -0.863,-0.045 -1.276,-0.196 v -1.685 c 0.348,0.109 0.716,0.26 1.082,0.26 0.755,0 1.165,-0.367 1.512,-1.014 l 0.756,-1.902 -4.428,-11.101 h 2.073 l 3.261,9.137 h 0.042 l 3.133,-9.137 h 1.944 z"
     id="path2"
     style="fill:#ffffff" />
  <path
     d="m 48.342136,19.380335 c -0.024,-0.026 -2.47,-2.434 -4.56,-3.438 -1,-0.479 -1.814,-0.825 -2.642,-1.055 0.22,-0.449 0.441,-0.898 0.655,-1.333 1.548,-3.113 2.884,-5.8040026 2.306,-7.5890026 -0.028,-0.087 -0.073,-0.176 -0.111,-0.266 l 0.004,-0.003 a 0.6432,0.6432 0 0 0 -0.021,-0.035 c -0.229,-0.509 -0.611,-1.053 -1.062,-1.485 -0.824,-0.787 -2.9,-1.934 -4.017,-2.551 l -0.345,-0.191 c -0.956,-0.53599979 -2.049,-0.57499979 -3.157,-0.114 -2.048,0.852 -3.696,3.17 -4.053,4.448 -0.591,2.124 0.41,2.802 0.522,2.868 l 2.242,1.3930026 -2.487,5.909 c -2.6,0.89 -5.356,2.093 -8.067,3.277 -3.743,1.635 -7.28,3.182 -10.193,3.832 l -0.238,0.055 c -0.3,0.069 -0.641,0.15 -1.14,0.214 -0.444,0.054 -0.684,0.066 -0.828,0.066 h -0.021 c -0.096,10e-4 -0.314,-0.003 -0.822,-0.066 -0.499,-0.064 -0.84,-0.145 -1.1399997,-0.215 l -0.237,-0.054 c -2.914,-0.65 -6.451,-2.197 -10.194,-3.832 -2.711,-1.184 -5.468,-2.387 -8.067,-3.277 l -2.4860003,-5.908 2.2410003,-1.3940026 0.064,-0.048 c 0.048,-0.044 1.159,-1.099 0.441,-2.867 -0.568,-1.396 -2.3510003,-3.794 -4.3730003,-4.503 -0.993,-0.34799979 -1.942,-0.27599979 -2.821,0.216 l -0.344,0.191 c -1.117,0.617 -3.194,1.764 -4.017,2.551 -0.452,0.432 -0.833,0.976 -1.062,1.485 l -0.022,0.035 0.005,0.003 c -0.039,0.09 -0.084,0.181 -0.111,0.266 -0.579,1.785 0.757,4.4750026 2.305,7.5890026 0.216,0.433 0.436,0.884 0.656,1.333 -0.829,0.23 -1.643,0.576 -2.641,1.055 -2.092,1.004 -4.538,3.412 -4.561,3.438 a 0.4236,0.4236 0 0 0 -0.064,0.522 c 0.013,0.02 1.253,2.068 1.636,3.483 0.39,1.451 0.294,3.733 0.252,4.437 -0.015,0.089 -0.018,0.173 -0.014,0.255 h -0.002 c 0,0.005 0.001,0.01 0.001,0.016 0,0.004 -0.001,0.008 -0.001,0.013 0,0.005 0.003,0.008 0.004,0.012 0.025,0.89 0.804,1.762 2.103,2.34 0.861,0.383 1.921,0.626 2.996,0.626 1.322,0 2.666,-0.367 3.692,-1.288 v 0.001 c 10e-4,-0.001 0.005,-0.004 0.005,-0.006 0.001,-0.001 0.002,-0.001 0.003,-0.001 0.006,-0.005 0.012,-0.01 0.022,-0.021 0.234,-0.21 2.561,-2.271 6.0500003,-4.059 0.338,0.156 0.681,0.32 1.035,0.497 l 0.164,0.079 c 1.354,0.644 6.133,2.864 10.763,4.436 4.363,1.483 7.4969997,1.666 8.3639997,1.686 h 0.391 c 0.857,-0.02 3.991,-0.203 8.353,-1.686 4.631,-1.572 9.409,-3.792 10.763,-4.436 l 0.165,-0.079 c 0.353,-0.177 0.697,-0.341 1.035,-0.497 3.489,1.788 5.817,3.851 6.049,4.059 0.011,0.011 0.017,0.016 0.023,0.021 0,0 0.002,0 0.002,0.001 10e-4,0.002 0.004,0.005 0.006,0.006 v -0.001 c 1.026,0.921 2.369,1.288 3.691,1.288 1.075,0 2.136,-0.243 2.996,-0.626 1.299,-0.578 2.08,-1.45 2.104,-2.34 10e-4,-0.004 0.003,-0.007 0.003,-0.012 v -0.013 c 0,-0.006 10e-4,-0.011 10e-4,-0.016 h -0.002 c 0.004,-0.082 10e-4,-0.166 -0.014,-0.255 -0.042,-0.704 -0.139,-2.986 0.252,-4.436 0.383,-1.416 1.623,-3.464 1.635,-3.484 a 0.4221,0.4221 0 0 0 -0.063,-0.522 m -16.182,-13.3830026 c 0.31,-1.112 1.851,-3.18 3.56,-3.892 0.869,-0.361 1.682,-0.338 2.414,0.072 l 0.348,0.193 c 0.9,0.497 2.661,1.471 3.557,2.182 -0.395,-0.017 -0.841,0.051 -1.342,0.254 -2.415,0.977 -4.565,3.737 -4.565,5.2280026 0,0.099 0.013,0.18 0.02,0.268 l -3.834,-2.3830026 c -0.005,-0.003 -0.574,-0.432 -0.158,-1.922 m 5.19,5.0490026 c -0.035,-0.019 -0.366,-0.21 -0.366,-1.012 0,-0.4150026 0.274,-1.0370026 0.734,-1.6950026 l 1.468,0.89 c 0.013,0.131 0.013,0.331 -0.045,0.546 -0.159,0.5680026 -0.756,1.3530026 -1.55,1.3250026 -0.069,-0.003 -0.197,-0.033 -0.241,-0.054 m -2.516,-0.56 2.031,1.261 c 0,0 0.002,0.001 0.003,0.004 l 0.009,0.005 c 0.003,10e-4 0.006,0.002 0.008,0.003 0.079,0.05 0.142,0.077 0.163,0.084 0.198,0.077 0.427,0.105 0.512,0.108 1.194,0.063 2.128,-0.971 2.401,-1.948 0.164,-0.5880026 0.041,-1.0890026 0.027,-1.1450026 l -0.044,-0.165 -1.696,-1.029 c 0.728,-0.836 1.707,-1.638 2.769,-2.069 1.396,-0.568 2.048,0.233 2.202,0.465 0.023,0.056 0.054,0.116 0.072,0.169 0.472,1.454 -0.794,4.0000026 -2.258,6.9460026 -0.246,0.498 -0.499,1.007 -0.75,1.524 -0.587,-0.102 -1.207,-0.156 -1.933,-0.156 -1.696,0 -3.622,0.409 -5.664,1.046 z m -51.032,-8.1160026 0.348,-0.193 c 0.667,-0.373 1.362,-0.423 2.125,-0.156 1.838,0.645 3.424,2.937 3.8650003,4.021 0.447,1.099 -0.089,1.768 -0.2090003,1.898 l -3.799,2.3630026 c 0.009,-0.089 0.021,-0.17 0.021,-0.269 0,-1.4910026 -2.151,-4.2510026 -4.566,-5.2280026 -0.5,-0.203 -0.947,-0.271 -1.342,-0.254 0.895,-0.709 2.658,-1.685 3.557,-2.182 m 1.135,8.6770026 c -0.04,0.02 -0.174,0.05 -0.243,0.053 -0.815,0.026 -1.391,-0.758 -1.55,-1.3250026 -0.059,-0.215 -0.058,-0.415 -0.046,-0.546 l 1.469,-0.89 c 0.459,0.658 0.733,1.28 0.733,1.6950026 0,0.708 -0.256,0.939 -0.331,0.993 z m -3.686,2.127 c -1.464,-2.946 -2.729,-5.4910026 -2.257,-6.9450026 0.017,-0.053 0.048,-0.112 0.072,-0.169 0.153,-0.231 0.805,-1.03 2.202,-0.465 1.062,0.431 2.041,1.233 2.769,2.069 l -1.696,1.029 -0.044,0.165 c -0.015,0.056 -0.137,0.557 0.027,1.1450026 0.272,0.977 1.214,2.01 2.401,1.948 0.088,-0.004 0.334,-0.035 0.527,-0.115 0.021,-0.007 0.055,-0.025 0.1,-0.05 0.012,-0.006 0.026,-0.011 0.036,-0.017 l 2.062,-1.283 2.148,5.103 c -2.042,-0.637 -3.966,-1.046 -5.663,-1.046 -0.726,0 -1.347,0.054 -1.934,0.156 a 146.49,146.49 0 0 0 -0.75,-1.525 m 3.71,14.389 c -0.45,1.059 -0.893,1.515 -0.961,1.58 -0.009,0.007 -0.013,0.012 -0.017,0.014 -1.508,1.362 -4.048,1.294 -5.779,0.523 -0.986,-0.438 -1.598,-1.051 -1.601,-1.6 l 0.009,-0.154 c 0.235,-1.131 2.969,-4.007 7.899,-4.066 0.29,0.933 0.822,2.828 0.45,3.703 m 0.862,0.114 c 0.293,-0.988 -0.018,-2.444 -0.405,-3.757 1.085,0.156 2.524,0.615 4.22,1.347 -1.562,0.843 -2.86,1.709 -3.815,2.41 m 46.825,-2.41 c 1.696,-0.732 3.135,-1.191 4.219,-1.347 -0.387,1.313 -0.698,2.769 -0.405,3.758 -0.955,-0.702 -2.251,-1.568 -3.814,-2.411 m 11.433,4.413 c -1.731,0.77 -4.271,0.838 -5.779,-0.523 -0.004,-0.002 -0.007,-0.005 -0.013,-0.01 -0.062,-0.06 -0.511,-0.514 -0.965,-1.584 -0.372,-0.876 0.16,-2.772 0.449,-3.703 4.931,0.059 7.664,2.935 7.899,4.066 l 0.011,0.154 c -0.003,0.549 -0.616,1.162 -1.602,1.6 m 1.867,-6.516 c -0.243,0.901 -0.314,2.073 -0.321,3.047 -1.356,-1.547 -4.163,-3.209 -8.004,-3.209 -1.614,0 -4.165,0.844 -7.378,2.442 l -0.15,0.073 c -1.344,0.638 -6.086,2.841 -10.672,4.398 -4.346,1.478 -7.495,1.626 -8.095,1.641 h -0.365 c -0.589,-0.013 -3.7429997,-0.16 -8.1009997,-1.641 -4.586,-1.557 -9.328,-3.76 -10.672,-4.398 l -0.15,-0.073 c -3.2130003,-1.598 -5.7640003,-2.442 -7.3780003,-2.442 -3.841,0 -6.648,1.662 -8.003,3.209 -0.008,-0.974 -0.079,-2.147 -0.322,-3.047 -0.327,-1.212 -1.184,-2.766 -1.555,-3.408 0.65,-0.611 2.516,-2.291 4.09,-3.046 1.933,-0.928 3.064,-1.316 5.063,-1.316 3.932,0 9.2840003,2.339 14.4600003,4.6 3.782,1.654 7.355,3.215 10.35,3.883 l 0.227,0.052 c 0.32,0.076 0.6839997,0.162 1.2279997,0.231 0.513,0.064 0.792,0.075 0.97,0.075 0.122,0 0.402,-0.011 0.915,-0.075 0.544,-0.069 0.907,-0.155 1.228,-0.231 l 0.227,-0.052 c 2.994,-0.668 6.567,-2.229 10.35,-3.883 5.175,-2.261 10.528,-4.6 14.46,-4.6 1.999,0 3.13,0.388 5.063,1.316 1.573,0.755 3.441,2.435 4.09,3.046 -0.371,0.642 -1.228,2.196 -1.555,3.408"
     fill="#7B5A3E"
     id="path4"
     style="fill:#ffffff" />
  <path
     d="m 11.191836,20.684335 h -0.006 c -1.405,0 -3.5199997,-0.3969 -8.5529997,-3.327 -5.259,-3.0649 -7.894,-5.1409 -9.601,-9.3459026 -1.682,-4.142 -2.307,-9.1750001 -2.307,-18.5729974 0,-9.03 0.37,-16.071 0.373,-16.14 0.007,-0.116 0.06,-0.224 0.147,-0.3 a 0.417,0.417 0 0 1 0.317,-0.103 c 9.477,0.846 15.493,0.972 18.2359997,0.972 0.913,0 1.372,-0.014 1.377,-0.015 0.033,0.001 0.492,0.015 1.405,0.015 2.744,0 8.76,-0.126 18.237,-0.972 0.113,-0.012 0.229,0.027 0.316,0.103 0.088,0.076 0.141,0.184 0.147,0.3 0.003,0.069 0.374,7.11 0.374,16.14 0,9.3979973 -0.626,14.4309974 -2.308,18.5729974 -1.707,4.2050026 -4.342,6.2810026 -9.6,9.3460026 -5.034,2.93 -7.148,3.327 -8.554,3.327 m -19.2649997,-46.9011 c -0.08,1.674 -0.351,7.935 -0.351,15.655 0,9.2759973 0.609,14.2229974 2.245,18.2519974 1.614,3.9750026 4.155,5.9690026 9.241,8.9300026 4.886,2.848 6.9089997,3.213 8.1239997,3.213 h 0.006 c 1.217,0 3.239,-0.365 8.125,-3.213 5.086,-2.961 7.626,-4.955 9.24,-8.9300026 1.637,-4.029 2.244,-8.9760001 2.244,-18.2519974 0,-7.722 -0.27,-13.981 -0.349,-15.655 -9.256,0.813 -15.158,0.936 -17.872,0.936 -0.911,0 -1.379,-0.015 -1.402,-0.016 0,0 -0.469,0.016 -1.38,0.016 -2.7129997,0 -8.6149997,-0.123 -17.8709997,-0.936"
     fill="#7B5A3E"
     id="path6"
     style="fill:#ffffff" />
  <path
     d="m 26.125036,3.0481324 c -1.973,0 -3.327,0.855 -4.521,1.611 -0.986,0.621 -1.839,1.16 -2.947,1.16 -1.108,0 -1.96,-0.539 -2.946,-1.16 -1.195,-0.756 -2.548,-1.611 -4.524,-1.611 -1.9729997,0 -3.3259997,0.855 -4.5209997,1.611 -0.986,0.621 -1.838,1.16 -2.947,1.16 -1.107,0 -1.959,-0.539 -2.94600024,-1.16 -1.19499999,-0.756 -2.54799976,-1.611 -4.52299976,-1.611 -1.03,0 -1.889,0.236 -2.647,0.566 0.191,0.841 0.41,1.632 0.663,2.375 0.604,-0.303 1.23,-0.508 1.986,-0.508 1.269,0 2.173,0.573 3.22199977,1.234 1.14099999,0.72 2.43300023,1.537 4.24500023,1.537 1.813,0 3.106,-0.817 4.246,-1.537 1.048,-0.661 1.9529997,-1.234 3.2239997,-1.234 1.27,0 2.175,0.573 3.222,1.234 1.141,0.72 2.435,1.537 4.246,1.537 1.812,0 3.105,-0.817 4.246,-1.537 1.048,-0.661 1.952,-1.234 3.225,-1.234 0.755,0 1.38,0.205 1.984,0.508 0.253,-0.743 0.472,-1.532 0.663,-2.374 -0.758,-0.331 -1.618,-0.567 -2.65,-0.567 m -26.65139993,-1.8069 c 1.14099999,0.72 2.43400023,1.537 4.24600023,1.537 1.812,0 3.105,-0.817 4.245,-1.537 1.048,-0.66199989 1.9539997,-1.23399989 3.2249997,-1.23399989 1.269,0 2.174,0.572 3.222,1.23399989 1.141,0.72 2.434,1.537 4.246,1.537 1.811,0 3.104,-0.817 4.245,-1.537 0.056,-0.036 0.108,-0.068 0.163,-0.102 -1.01,-0.31499979 -8.179,-2.4600001 -8.188,-2.4650001 -1.853,-0.523 -3.286,-0.886 -3.708,-0.886 h -0.026 c -0.981,0 -7.3799997,1.95100021 -11.83899993,3.3470001 0.056,0.034 0.112,0.07 0.169,0.106 m 26.65139993,7.2817 c -1.973,0 -3.327,0.854 -4.521,1.6101026 -0.986,0.623 -1.839,1.16 -2.947,1.16 -1.108,0 -1.96,-0.537 -2.946,-1.16 -1.195,-0.7560026 -2.548,-1.6100026 -4.524,-1.6100026 -1.9729997,0 -3.3259997,0.854 -4.5209997,1.6100026 -0.986,0.623 -1.838,1.16 -2.947,1.16 -1.107,0 -1.959,-0.537 -2.94600024,-1.16 C -0.42196393,9.3770324 -1.7749637,8.5230324 -3.7499637,8.5230324 c -0.304,0 -0.588,0.026 -0.863,0.061 0.508,0.93 1.103,1.7380026 1.808,2.4860026 0.816,0.197 1.509,0.633 2.27899977,1.119 1.14099999,0.72 2.43300023,1.537 4.24500023,1.537 1.813,0 3.106,-0.817 4.246,-1.537 1.048,-0.662 1.9529997,-1.233 3.2239997,-1.233 1.27,0 2.175,0.571 3.222,1.233 1.141,0.72 2.435,1.537 4.246,1.537 1.812,0 3.105,-0.817 4.246,-1.537 0.769,-0.486 1.464,-0.922 2.28,-1.119 0.705,-0.748 1.299,-1.5560026 1.808,-2.4850026 -0.276,-0.036 -0.562,-0.062 -0.866,-0.062 m -11.5805,6.7889026 c -0.958,-0.646 -1.95,-1.315 -3.358,-1.315 -1.203,0 -2.0879997,0.614 -2.9419997,1.207 -0.815,0.566 -1.654,1.143 -2.946,1.409 1.252,0.662 2.25,1.108 3.058,1.407 0.482,-0.274 0.904,-0.56 1.2749997,-0.817 0.712,-0.494 1.134,-0.774 1.558,-0.774 0.631,0 1.143,0.325 1.994,0.9 0.298,0.201 0.624,0.42 0.989,0.636 0.791,-0.302 1.759,-0.744 2.954,-1.377 -1.051,-0.253 -1.805,-0.752 -2.582,-1.276 m 6.9496,-37.4416 -0.846,1.151 1.095,0.918 -1.426,0.051 -0.036,1.433 -0.935,-1.072 -1.138,0.854 0.249,-1.393 -1.37,-0.363 1.24,-0.672 -0.565,-1.3 1.308,0.548 0.653,-1.25 0.388,1.375 z m -8.543,4.306 -1.33,0.47 1.296,0.5719 -0.462,1.335 1.256,-0.665 0.756,1.205 0.26,-1.409 1.417,0.172 -0.939,-1.076 1.016,-1.006 -1.41,0.06 -0.169,-1.418 -0.839,1.131 -1.208,-0.745 z m 10.2176,0.8777 -1.272,0.606 1.348,0.433 -0.321,1.379 1.182,-0.795 0.876,1.12 0.111,-1.428 1.428,0.024 -1.047,-0.974 0.906,-1.105 -1.397,0.206 -0.316,-1.392 -0.717,1.21 -1.279,-0.612 z m -3.9305,2.8296 -0.384,1.291 1.111,-0.765 1.119,0.765 -0.383,-1.305 1.071,-0.816 -1.346,-0.032 -0.458,-1.279 -0.452,1.258 -1.351,0.053 z m -2.747,3.9412 -1.165,0.7969972 1.401,0.218 -0.1,1.411 1.041,-0.968 1.042,0.968 -0.115,-1.429 1.414,-0.2 -1.185,-0.7969972 0.721,-1.233 -1.347,0.423 -0.53,-1.327 -0.518,1.309 -1.359,-0.405 z"
     fill="#7B5A3E"
     id="path8"
     style="fill:#ffffff" />
  <path
     d="m 11.290936,-3.6504677 c 1.507,0 15.852,4.60210031 16.268,4.7260001 0.416,0.124 1.784,0.679 1.784,-0.48799989 0,-1.1649 -1.902,-1.73490021 -7.475,-4.40100021 -5.572,-2.6640001 -9.209,-4.5540001 -10.559,-4.5540001 -1.35,0 -4.9859997,1.89 -10.55899994,4.5540001 -5.57299976,2.6661 -7.47499976,3.23610021 -7.47499976,4.40100021 0,1.16699989 1.368,0.61199989 1.784,0.48799989 0.415,-0.12389979 14.7009997,-4.7260001 16.2069997,-4.7260001 z m -32.124,23.5076027 c -0.095,-0.205 -0.151,-0.341 -0.164,-0.417 0.004,-0.009 0.03,-0.041 0.198,-0.163 l -0.113,-0.159 c -0.149,0.083 -0.272,0.148 -0.369,0.196 -0.099,0.05 -0.209,0.099 -0.349,0.192 l 0.113,0.159 c 0.135,-0.065 0.202,-0.072 0.224,-0.078 0.004,0.002 0.021,0.01 0.051,0.058 0.065,0.103 0.252,0.468 0.556,1.084 l 0.134,0.202 0.069,0.141 c -0.213,-0.098 -0.483,-0.234 -0.816,-0.414 -0.488,-0.264 -0.909,-0.499 -1.293,-0.712 l -0.342,0.184 c -0.059,0.029 -0.152,0.07 -0.296,0.164 l 0.112,0.161 c 0.136,-0.055 0.178,-0.066 0.21,-0.069 l 0.037,-0.024 0.023,0.063 c 0.018,0.024 0.047,0.076 0.088,0.157 l 0.53,1.056 c 0.075,0.153 0.135,0.278 0.178,0.375 0.074,0.171 0.119,0.281 0.135,0.326 l 0.03,-0.009 -0.026,0.087 c -0.006,0.008 -0.044,0.034 -0.194,0.153 l 0.086,0.175 0.029,-0.015 c 0.158,-0.09 0.285,-0.156 0.381,-0.204 l 0.334,-0.192 -0.069,-0.14 -0.042,-0.012 -0.028,0.014 c -0.028,0.015 -0.076,0.031 -0.142,0.054 l 0.009,0.029 -0.072,-0.038 c -0.013,-0.017 -0.048,-0.069 -0.134,-0.229 -0.102,-0.192 -0.198,-0.376 -0.286,-0.555 l -0.256,-0.453 -0.172,-0.348 c 0.969,0.534 1.723,0.936 2.259,1.194 0.092,-0.028 0.182,-0.055 0.273,-0.078 l 0.029,-0.07 c -0.094,-0.158 -0.331,-0.626 -0.707,-1.386 -0.049,-0.098 -0.121,-0.252 -0.218,-0.459 m -0.091,-0.697 c -0.003,0.001 -0.006,0.001 -0.008,0.004 0.002,-0.003 0.004,-0.003 0.007,-0.007 z m -0.665,0.359 0.003,0.008 -0.005,-0.008 z m 1.128,1.597 c -0.053,-0.025 -0.121,-0.058 -0.181,-0.087 0.056,0.019 0.115,0.046 0.167,0.058 z m -2.728,-0.808 0.004,0.008 -0.005,-0.008 z m 1.872,2.012 h -0.002 z m -0.084,-0.098 0.001,10e-4 -0.002,0.001 h -0.001 c 0,-0.001 0.001,-0.001 0.002,-0.002 m -1.092,-1.613 c 0.191,0.105 0.366,0.202 0.54,0.296 -0.168,-0.084 -0.338,-0.168 -0.522,-0.259 z m 4.8401,0.1665 c -0.052,0.012 -0.085,0.013 -0.085,0.013 l -1.649,-2.157 -0.245,0.093 -0.104,2.273 c -0.013,0.18 -0.02,0.284 -0.025,0.312 l -0.041,0.084 c -0.005,0.004 -0.028,0.018 -0.158,0.098 l 0.054,0.183 0.773,-0.257 -0.081,-0.176 c -0.094,0.023 -0.16,0.034 -0.241,-0.003 -0.008,-0.026 -0.017,-0.105 -0.013,-0.331 l -0.018,-0.213 0.778,-0.25 0.254,0.368 c 0.053,0.075 0.07,0.114 0.074,0.163 -0.005,0.004 -0.033,0.024 -0.214,0.116 l 0.083,0.175 1.011,-0.327 -0.079,-0.175 z m -1.17,-0.537 a 0.1208,0.1208 0 0 1 -0.018,0.005 c 0.005,-0.003 0.01,-0.005 0.016,-0.008 z m -0.661,0.192 0.009,-0.23 -0.001,0.229 c -0.003,0 -0.005,10e-4 -0.008,10e-4 m 0.329,-0.12 c -0.108,0.031 -0.199,0.06 -0.264,0.102 -0.011,0.004 -0.024,0.007 -0.035,0.011 l 0.042,-0.96 0.441,0.567 0.13,0.182 c -0.093,0.03 -0.196,0.062 -0.314,0.098 m -0.016,1.085 v -0.005 l 0.002,0.005 z m 0.679,-0.168 0.015,-0.004 -0.015,0.006 z m 0.954,-0.308 -0.001,-0.004 0.002,0.004 z m 1.4116,-2.7853 -0.056,-0.047 c -0.049,0.013 -0.098,0.024 -0.147,0.031 -0.092,0.015 -0.274,0.038 -0.547,0.07 l -0.658,0.077 c -0.266,0.031 -0.445,0.051 -0.538,0.057 -0.058,0.005 -0.111,0.007 -0.162,0.007 l -0.043,0.058 c 0.016,0.063 0.028,0.122 0.038,0.177 0.005,0.033 0.025,0.181 0.093,0.467 l 0.162,-0.049 c -0.01,-0.11 -0.014,-0.208 -0.01,-0.299 l 0.048,-0.063 c 0.087,-0.019 0.189,-0.035 0.305,-0.049 l 0.2,-0.052 c 0.007,0.036 0.029,0.211 0.066,0.522 l 0.134,1.148 c 0.04,0.34 0.044,0.456 0.04,0.492 -0.003,0.029 -0.013,0.05 -0.029,0.062 -0.008,0.007 -0.046,0.025 -0.239,0.086 l 0.022,0.189 0.031,-0.005 c 0.199,-0.036 0.375,-0.061 0.528,-0.08 0.144,-0.017 0.322,-0.032 0.561,-0.078 l -0.051,-0.186 c -0.148,0.013 -0.215,0.003 -0.221,0 -0.019,-0.01 -0.033,-0.026 -0.042,-0.051 -0.012,-0.036 -0.035,-0.151 -0.075,-0.491 l -0.134,-1.146 c -0.036,-0.306 -0.055,-0.48 -0.084,-0.493 l 0.233,-0.028 c 0.123,-0.014 0.23,-0.023 0.352,-0.024 0,0 0.008,0.013 0.023,0.068 0.022,0.087 0.04,0.179 0.087,0.304 l 0.162,-0.048 c -0.027,-0.265 -0.042,-0.404 -0.043,-0.421 a 3.0434,3.0434 0 0 1 -0.006,-0.205 m -0.235,2.694 -0.001,-0.007 0.004,0.007 z m 2.7042,-2.3295 c 0.007,-0.004 0.027,-0.014 0.089,-0.014 0.025,-0.002 0.054,0.002 0.119,-0.024 l -0.014,-0.192 -0.409,-0.02 c -0.037,-0.005 -0.153,-0.027 -0.383,-0.016 l 0.014,0.192 c 0.143,0.016 0.197,0.038 0.24,0.085 0.005,0.022 0.01,0.09 -0.002,0.286 a 153.3,153.3 0 0 1 -0.052,0.617 l -0.033,0.394 c -0.023,0.267 -0.056,0.449 -0.102,0.54 -0.042,0.088 -0.11,0.158 -0.199,0.207 -0.09,0.051 -0.21,0.069 -0.352,0.057 -0.127,-0.009 -0.23,-0.041 -0.308,-0.09 -0.075,-0.049 -0.13,-0.109 -0.164,-0.182 -0.032,-0.074 -0.049,-0.169 -0.048,-0.285 0,-0.055 0.01,-0.201 0.03,-0.433 l 0.054,-0.672 c 0.024,-0.266 0.045,-0.44 0.093,-0.564 0.01,-0.007 0.039,-0.018 0.112,-0.018 0.028,-10e-4 0.06,0.001 0.129,-0.023 l -0.016,-0.192 -1.065,-0.06 0.011,0.191 0.225,0.077 c 0.005,0.016 0.01,0.05 0.009,0.115 -0.008,0.144 -0.018,0.305 -0.033,0.485 l -0.075,0.857 c -0.017,0.206 -0.024,0.331 -0.022,0.379 0,0.077 0.016,0.156 0.045,0.243 0.029,0.088 0.076,0.17 0.139,0.242 0.063,0.074 0.149,0.136 0.254,0.185 0.143,0.066 0.301,0.106 0.468,0.119 0.045,0.005 0.088,0.008 0.13,0.008 0.093,0 0.18,-0.011 0.258,-0.029 0.115,-0.029 0.217,-0.075 0.305,-0.142 a 0.823,0.823 0 0 0 0.209,-0.229 c 0.052,-0.086 0.092,-0.193 0.117,-0.318 0.025,-0.123 0.042,-0.243 0.052,-0.359 l 0.038,-0.453 c 0.012,-0.134 0.031,-0.315 0.058,-0.545 0.035,-0.294 0.05,-0.364 0.079,-0.419 m 0.18,-0.07 v -10e-4 z m -0.019,-0.131 h -0.008 z m -0.731,-0.032 v 0.005 l -10e-4,-0.005 z m -0.663,-0.086 h -10e-4 l 10e-4,-0.001 z m -1.006,-0.055 v 0.003 l -10e-4,-0.003 z m 6.5407003,4.0782 c -0.061,-0.029 -0.074,-0.039 -0.076,-0.041 l -0.021,0.022 -0.005,-0.091 10e-4,-0.189 -0.005,-2.457 -0.253,-0.071 -1.1230003,1.374 c -0.159,0.191 -0.265,0.32 -0.319,0.384 -0.117,0.137 -0.186,0.214 -0.207,0.236 l 0.022,0.02 -0.104,0.022 c -0.004,0 -0.029,-0.003 -0.118,-0.011 l 0.004,-0.032 c -0.06,-0.017 -0.08,-0.03 -0.117,-0.084 -0.013,-0.026 -0.041,-0.112 -0.088,-0.253 l -0.202,-0.745 a 3.102,3.102 0 0 0 -0.033,-0.124 c -0.019,-0.063 -0.034,-0.122 -0.068,-0.15 0,-0.003 -0.001,-0.005 -0.001,-0.007 0.188,-0.031 0.341,-0.1 0.456,-0.205 0.115,-0.108 0.194,-0.242 0.235,-0.398 0.033,-0.132 0.032,-0.254 -0.006,-0.363 -0.036,-0.109 -0.097,-0.192 -0.178,-0.245 -0.078,-0.051 -0.199,-0.097 -0.371,-0.143 a 6.9542,6.9542 0 0 0 -0.331,-0.073 4.904,4.904 0 0 1 -0.286,-0.065 c -0.13,-0.034 -0.23,-0.06 -0.31,-0.085 -0.138,-0.042 -0.219,-0.066 -0.279,-0.05 l -0.02,0.19 c 0.167,0.055 0.204,0.082 0.218,0.11 0.002,0.016 -0.004,0.074 -0.052,0.275 l -0.426,1.634 c -0.028,0.095 -0.051,0.167 -0.112,0.255 -0.021,0 -0.072,-0.006 -0.24,-0.013 l -0.019,0.201 c 0.143,0.028 0.296,0.064 0.461,0.106 0.185,0.047 0.366,0.1 0.583,0.133 l 0.021,-0.201 c -0.099,-0.028 -0.157,-0.047 -0.213,-0.098 -0.002,-0.011 -0.002,-0.043 0.017,-0.132 0.007,-0.033 0.041,-0.18 0.103,-0.438 0.051,-0.211 0.1,-0.41 0.148,-0.596 0.031,-0.118 0.095,-0.353 0.192,-0.703 0.043,-0.157 0.072,-0.256 0.057,-0.28 0.048,0.003 0.098,0.01 0.148,0.024 0.11,0.029 0.185,0.057 0.22,0.084 0.056,0.043 0.097,0.107 0.122,0.189 0.025,0.082 0.023,0.179 -0.004,0.288 -0.028,0.107 -0.075,0.202 -0.14,0.278 -0.064,0.075 -0.13,0.121 -0.197,0.14 -0.069,0.018 -0.148,0.001 -0.318,-0.014 l -0.033,0.089 c 0.023,0.034 0.045,0.08 0.063,0.141 0.04,0.124 0.083,0.294 0.132,0.508 l 0.17,0.747 c 0.008,0.045 0.012,0.082 0.035,0.139 0.084,0.018 0.168,0.036 0.253,0.058 0.064,0.017 0.169,0.045 0.303,0.085 l -0.001,0.008 0.745,0.246 0.038,-0.19 c -0.155,-0.065 -0.187,-0.094 -0.192,-0.146 0.01,-0.026 0.05,-0.095 0.188,-0.274 l 0.113,-0.181 0.773,0.267 -0.016,0.445 c -0.002,0.091 -0.011,0.134 -0.039,0.175 -0.013,0 -0.058,-0.008 -0.241,-0.035 l -0.037,0.189 0.5420003,0.187 0.452,0.185 0.052,-0.217 z m -1.2600003,-1.373 0.145,-0.179 -0.138,0.183 c -0.002,-0.001 -0.005,-0.001 -0.007,-0.004 m 0.6460003,0.21 a 9.9701,9.9701 0 0 1 -0.3100003,-0.11 c -0.109,-0.04 -0.208,-0.079 -0.288,-0.079 -0.006,-0.003 -0.013,-0.007 -0.018,-0.008 l 0.6070003,-0.745 0.013,0.711 z m -10e-4,0.028 v 0.004 a 0.1056,0.1056 0 0 0 -0.019,-0.006 c 0.007,0.001 0.013,0.002 0.019,0.002 m -3.7840003,-0.059 c 0.002,0 0.005,0 0.007,10e-4 -0.002,0 -0.005,-10e-4 -0.007,-10e-4 m 0.988,0.223 10e-4,-0.005 v 0.006 c 0,0 -10e-4,0 -10e-4,-0.001 m 1.826,0.56 v -0.004 z m 0.643,0.272 0.014,0.004 z m 4.8855003,-0.6262 0.063,-0.218 -0.452,-0.187 c -0.037,-0.016 -0.118,-0.058 -0.282,-0.117 -0.073,0.08 -0.136,0.147 -0.188,0.198 -0.053,0.054 -0.196,0.191 -0.427,0.412 l -0.416,0.4 c -0.083,0.081 -0.196,0.196 -0.313,0.334 -0.035,0.032 -0.067,0.06 -0.106,0.097 l 0.059,-2.089 c -0.107,-0.038 -0.211,-0.08 -0.313,-0.125 -0.078,-0.035 -0.217,-0.103 -0.46,-0.188 l -0.053,0.19 c 0.051,0.025 0.105,0.059 0.164,0.1 l 0.028,0.06 c -0.003,0.021 -0.023,0.091 -0.125,0.329 -0.079,0.185 -0.172,0.397 -0.279,0.635 -0.119,0.265 -0.204,0.451 -0.257,0.56 -0.105,0.222 -0.176,0.365 -0.213,0.43 -0.019,0.03 -0.031,0.043 -0.062,0.054 -0.008,0 -0.046,-0.004 -0.24,-0.044 l -0.05,0.192 c 0.093,0.032 0.216,0.082 0.367,0.149 0.117,0.052 0.229,0.108 0.378,0.151 l 0.053,-0.19 c -0.123,-0.065 -0.157,-0.09 -0.166,-0.098 l -0.053,-0.029 0.037,-0.058 c 0.008,-0.028 0.054,-0.141 0.139,-0.34 0.086,-0.2 0.16,-0.373 0.225,-0.516 l 0.172,-0.457 0.156,-0.35 -0.028,1.051 c -0.005,0.171 -0.015,0.43 -0.032,0.775 -0.008,0.202 -0.017,0.359 -0.007,0.504 l 0.136,0.038 c 0.062,-0.064 0.145,-0.147 0.25,-0.249 0.171,-0.17 0.303,-0.297 0.396,-0.387 l 0.582,-0.593 0.408,-0.381 -0.546,1.215 c -0.11,0.247 -0.178,0.389 -0.205,0.429 -0.029,0.044 -0.049,0.051 -0.056,0.054 -0.014,0 -0.059,-0.009 -0.245,-0.052 l -0.05,0.19 0.472,0.197 0.5,0.24 0.068,-0.217 c -0.153,-0.083 -0.173,-0.1 -0.189,-0.158 0.009,-0.035 0.043,-0.13 0.1,-0.28 0.01,-0.025 0.05,-0.114 0.116,-0.262 l 0.607,-1.334 c 0.041,-0.092 0.077,-0.123 0.126,-0.136 0.036,0 0.09,0.017 0.161,0.049 z m 0.023,-0.201 -0.013,-0.006 0.013,0.005 z m -2.175,1.147 0.017,-0.549 0.004,0.531 c -0.008,0.007 -0.013,0.012 -0.021,0.018 m -0.668,-2.389 -0.001,0.004 z m -1.064,2.447 c 0.003,0.002 0.007,0.003 0.01,0.005 -0.003,0 -0.008,-0.002 -0.01,-0.002 z m 0.691,0.278 0.004,-0.008 -0.001,0.01 c -10e-4,0 -0.002,0 -0.003,-0.002 m 0.611,-2.069 -0.014,0.532 -0.012,-0.473 z m 1.73,0.777 -0.274,0.608 0.226,-0.565 z m -1.12,1.873 0.013,0.005 z m 4.156,0.0852 a 0.9897,0.9897 0 0 0 0.258,-0.339 c 0.065,-0.137 0.09,-0.264 0.074,-0.378 -0.015,-0.113 -0.056,-0.206 -0.12,-0.277 -0.064,-0.072 -0.163,-0.138 -0.295,-0.201 l -1.144,-0.502 -0.056,0.184 0.192,0.139 c 0,0.009 -0.004,0.028 -0.02,0.071 -0.014,0.036 -0.054,0.124 -0.117,0.266 l -0.439,0.946 c -0.108,0.227 -0.21,0.432 -0.309,0.612 -0.046,0.085 -0.064,0.107 -0.091,0.121 -0.025,0 -0.079,-0.011 -0.241,-0.051 l -0.057,0.194 c 0.131,0.052 0.267,0.111 0.406,0.176 0.128,0.063 0.316,0.155 0.565,0.283 l 0.029,0.015 0.073,-0.221 -0.192,-0.11 -0.016,0.027 -0.016,-0.081 c 0.002,-0.019 0.017,-0.068 0.072,-0.191 0.077,-0.177 0.154,-0.347 0.232,-0.51 l 0.478,-1.002 c 0.066,-0.137 0.12,-0.242 0.125,-0.295 0.072,0.015 0.135,0.036 0.19,0.062 0.109,0.052 0.174,0.126 0.2,0.229 0.025,0.104 10e-4,0.233 -0.071,0.386 -0.069,0.146 -0.151,0.242 -0.243,0.289 -0.092,0.048 -0.13,0.08 -0.313,-0.021 -0.016,-0.012 -0.032,-0.027 -0.084,-0.05 l -0.068,0.032 0.002,0.02 c 0.002,0.059 0,0.109 0.006,0.172 0.026,0.023 0.054,0.043 0.084,0.063 0.029,0.018 0.06,0.035 0.093,0.052 0.129,0.06 0.271,0.081 0.423,0.06 0.15,-0.021 0.282,-0.079 0.39,-0.17 m -1.212,-1.657 -0.002,0.003 10e-4,-0.003 z m -1.113,2.426 c 0.002,10e-4 0.003,0.002 0.005,0.003 -0.002,0 -0.003,-0.002 -0.006,-0.002 z m 3.8174,1.5033 c -0.007,-0.027 -0.021,-0.1149 -0.042,-0.263 -0.001,-0.01 -0.008,-0.083 -0.019,-0.219 l -0.047,-0.5509 c 0,-0.014 -0.004,-0.056 -0.01,-0.128 -0.007,-0.068 -0.011,-0.133 -0.022,-0.165 0.183,0 0.34,-0.041 0.468,-0.123 0.132,-0.083 0.233,-0.202 0.299,-0.348 0.058,-0.123 0.079,-0.244 0.061,-0.359 -0.018,-0.114 -0.061,-0.205 -0.132,-0.272 -0.067,-0.064 -0.179,-0.132 -0.34,-0.206 -0.081,-0.036 -0.185,-0.08 -0.313,-0.132 a 4.6722,4.6722 0 0 1 -0.27,-0.115 c -0.121,-0.055 -0.215,-0.1 -0.28,-0.133 -0.134,-0.069 -0.219,-0.114 -0.276,-0.103 l -0.053,0.182 c 0.158,0.087 0.188,0.119 0.196,0.146 -0.002,0.022 -0.021,0.083 -0.1,0.264 l -0.71,1.53 c -0.045,0.09 -0.08,0.155 -0.151,0.232 -0.011,0 -0.052,-0.01 -0.239,-0.055 l -0.054,0.195 c 0.135,0.052 0.28,0.115 0.435,0.185 0.173,0.079 0.343,0.163 0.55,0.235 l 0.057,-0.195 c -0.035,-0.017 -0.141,-0.069 -0.194,-0.134 10e-4,-0.014 0.009,-0.046 0.041,-0.126 0.013,-0.033 0.072,-0.172 0.179,-0.414 0.087,-0.197 0.172,-0.383 0.252,-0.559 0.051,-0.112 0.156,-0.331 0.314,-0.659 0.07,-0.145 0.117,-0.239 0.105,-0.264 0.049,0.012 0.096,0.029 0.142,0.05 0.128,0.058 0.181,0.098 0.202,0.122 0.047,0.051 0.076,0.121 0.086,0.206 0.011,0.085 -0.008,0.18 -0.055,0.284 -0.047,0.102 -0.11,0.186 -0.187,0.249 -0.077,0.062 -0.15,0.097 -0.237,0.102 -0.068,0 -0.154,-0.026 -0.293,-0.071 l -0.047,0.083 c 0.017,0.036 0.029,0.087 0.036,0.149 0.018,0.131 0.031,0.305 0.04,0.524 l 0.035,0.763 c 0,0.047 -0.003,0.085 0.009,0.147 0.08,0.031 0.159,0.064 0.238,0.101 0.069,0.031 0.178,0.085 0.329,0.159 l 0.028,0.013 0.07,-0.223 c -0.057,-0.027 -0.073,-0.042 -0.101,-0.104 m -0.908,-3.078 h -10e-4 z m -1.087,2.438 c 0,0 0.002,0.002 0.004,0.003 a 0.0044,0.0044 0 0 1 -0.003,-0.001 z m 0.931,0.397 0.003,-0.007 -10e-4,0.007 z m 2.06109976,0.7542 -0.009,-0.085 c 0.006,-0.037 0.033,-0.116 0.086,-0.235 l 0.447,-1.039 c 0.01,-0.023 0.08,-0.177 0.21,-0.466 0.037,-0.084 0.064,-0.14 0.079,-0.17 0.032,-0.065 0.051,-0.091 0.114,-0.115 0.023,0.002 0.13700001,0.047 0.21900001,0.048 l 0.05,-0.198 c -0.16700001,-0.063 -0.34100001,-0.133 -0.52400001,-0.213 -0.163,-0.071 -0.306,-0.138 -0.47,-0.185 l -0.053,0.194 c 0.131,0.064 0.169,0.086 0.194,0.141 -0.01,0.041 -0.044,0.135 -0.103,0.285 -0.028,0.069 -0.093,0.219 -0.195,0.454 l -0.32199976,0.741 c -0.052,0.119 -0.113,0.248 -0.182,0.385 -0.046,0.092 -0.074,0.144 -0.129,0.168 -0.018,-0.003 -0.078,-0.026 -0.22,-0.048 l -0.051,0.196 c 0.129,0.046 0.275,0.104 0.436,0.174 0.18499976,0.082 0.35699976,0.16 0.51699976,0.24 l 0.028,0.014 0.066,-0.225 c -0.119,-0.054 -0.157,-0.076 -0.169,-0.085 z m 1.15700001,-2.242 c -0.002,-10e-4 -0.005,-0.004 -0.007,-0.004 0.002,0 0.005,10e-4 0.007,0.003 z m -0.94000001,-0.376 -0.002,0.007 0.001,-0.008 z m -1.03699976,2.458 c 0.002,0.001 0.005,0.001 0.007,0.003 -0.002,0 -0.005,-0.002 -0.008,-0.002 z m 5.0127,-0.6684 0.054,-0.22 -0.463,-0.165 c -0.036,-0.015 -0.12,-0.051 -0.286,-0.103 -0.07,0.086 -0.129,0.156 -0.178,0.211 -0.051,0.054 -0.185,0.199 -0.405,0.433 l -0.395,0.42 c -0.079,0.085 -0.187,0.206 -0.296,0.349 a 3.13,3.13 0 0 1 -0.1,0.101 l -0.049,-2.087 a 5.7164,5.7164 0 0 1 -0.319,-0.109 c -0.079,-0.032 -0.22300023,-0.091 -0.46900023,-0.165 l -0.043,0.193 c 0.051,0.022 0.108,0.055 0.169,0.091 l 0.016,-0.024 0.016,0.081 c -0.004,0.038 -0.04,0.149 -0.109,0.336 -0.07,0.19 -0.152,0.406 -0.246,0.648 -0.10600001,0.273 -0.18100001,0.464 -0.22800001,0.574 -0.094,0.228 -0.157,0.374 -0.191,0.44 -0.015,0.031 -0.028,0.045 -0.059,0.059 -0.011,0 -0.053,-0.006 -0.241,-0.033 l -0.04,0.194 c 0.095,0.027 0.219,0.072 0.374,0.131 0.119,0.046 0.234,0.095 0.38500001,0.131 l 0.044,-0.191 c -0.12800001,-0.061 -0.16200001,-0.083 -0.17100001,-0.092 l -0.054,-0.025 0.032,-0.06 c 0.007,-0.028 0.048,-0.143 0.12200001,-0.345 0.076,-0.206 0.141,-0.382 0.199,-0.529 l 0.147,-0.464 0.138,-0.358 0.026,1.05 c 0.004,0.173 0.007,0.431 0.009,0.776 0.002,0.2 0.001,0.361 0.018,0.503 l 0.13900023,0.033 c 0.058,-0.068 0.137,-0.156 0.236,-0.262 0.163,-0.179 0.288,-0.314 0.375,-0.408 l 0.55,-0.621 0.389,-0.403 -0.482,1.244 c -0.121,0.311 -0.166,0.409 -0.183,0.438 -0.027,0.044 -0.046,0.053 -0.055,0.056 -0.019,0 -0.07,-0.011 -0.245,-0.04 l -0.041,0.192 0.482,0.173 0.513,0.215 0.055,-0.222 c -0.145,-0.069 -0.173,-0.086 -0.197,-0.147 0.007,-0.037 0.036,-0.131 0.086,-0.285 0.01,-0.027 0.044,-0.116 0.103,-0.27 l 0.536,-1.361 c 0.037,-0.094 0.071,-0.126 0.125,-0.143 0.036,0 0.09,0.014 0.158,0.042 z m 0.014,-0.202 -0.016,-0.005 0.017,0.004 z m -2.112,1.259 -0.016,-0.737 0.035,0.717 c -0.007,0.007 -0.012,0.013 -0.019,0.02 m -0.79100023,-2.352 -0.002,0.006 0.001,-0.006 z m -0.93600001,2.5 c 0.003,0 0.008,0.003 0.011,0.003 -0.003,0.001 -0.008,-0.002 -0.011,-0.001 z m 0.70500001,0.241 0.003,-0.007 -0.001,0.009 c 0,0 -0.002,-0.001 -0.002,-0.002 m 0.48,-2.038 0.022,-0.059 0.014,0.533 z m 1.79000023,0.626 -0.243,0.627 0.198,-0.58 z m -1.021,1.927 0.015,0.007 -0.015,-0.006 z m 4.1096,-1.2289 0.055,-0.039 c 0.023,0 0.067,0.005 0.188,0.01 l 0.025,-0.192 -0.395,-0.104 c -0.035,-0.011 -0.146,-0.049 -0.372,-0.094 l -0.026,0.192 c 0.137,0.046 0.186,0.077 0.218,0.132 10e-4,0.018 -0.006,0.079 -0.061,0.278 -0.021,0.071 -0.079,0.271 -0.176,0.596 l -0.113,0.377 c -0.078,0.258 -0.148,0.43 -0.21,0.509 -0.06,0.078 -0.14,0.131 -0.238,0.161 -0.097,0.033 -0.218,0.026 -0.357,-0.015 -0.121,-0.036 -0.216,-0.088 -0.281,-0.151 -0.065,-0.065 -0.106,-0.137 -0.123,-0.212 -0.018,-0.08 -0.016,-0.174 0.009,-0.289 0.013,-0.056 0.052,-0.193 0.118,-0.419 l 0.192,-0.646 c 0.077,-0.258 0.135,-0.423 0.17,-0.492 l 0.068,-0.046 c 0.039,0 0.098,0.011 0.211,0.014 l 0.046,-0.154 -0.05,-0.045 -1.002,-0.269 -0.028,0.191 0.204,0.121 c 0.002,0.024 -0.003,0.062 -0.015,0.114 -0.036,0.141 -0.08,0.294 -0.131,0.467 l -0.248,0.826 c -0.059,0.196 -0.093,0.318 -0.101,0.363 a 0.828,0.828 0 0 0 -0.005,0.25 c 0.011,0.093 0.04,0.181 0.087,0.264 0.047,0.084 0.118,0.163 0.211,0.233 0.125,0.092 0.27,0.165 0.433,0.214 0.128,0.038 0.247,0.057 0.357,0.057 l 0.028,-10e-4 c 0.117,-0.003 0.227,-0.028 0.327,-0.076 a 0.7957,0.7957 0 0 0 0.253,-0.182 c 0.069,-0.074 0.129,-0.17 0.179,-0.288 0.049,-0.115 0.09,-0.228 0.124,-0.339 l 0.13,-0.435 c 0.038,-0.129 0.094,-0.302 0.167,-0.522 0.096,-0.284 0.124,-0.347 0.132,-0.359 m 0.23,-0.2 -0.012,-0.002 0.012,0.001 z m -0.708,-0.181 -0.002,0.007 10e-4,-0.007 z m -0.632,-0.219 -0.013,-0.004 0.013,0.002 z m -0.974,-0.26 v 0.003 z m 0.744,3.027 c 0.001,0 0.002,10e-4 0.003,10e-4 l -0.003,0.004 z"
     fill="#7B5A3E"
     id="path10"
     style="fill:#ffffff" />
  <path
     d="m 8.287236,26.333332 c -0.051,0.097 -0.097,0.176 -0.135,0.238 -0.039,0.063 -0.144,0.23 -0.317,0.502 l -0.311,0.486 c -0.062,0.097 -0.144,0.236 -0.226,0.398 -0.026,0.039 -0.05,0.074 -0.079,0.118 l -0.435,-2.042 a 4.5514,4.5514 0 0 1 -0.334,-0.05 c -0.084,-0.015 -0.236,-0.047 -0.491,-0.074 l -0.007,0.197 c 0.055,0.013 0.116,0.032 0.183,0.059 l 0.042,0.051 c 0.002,0.025 -0.004,0.107 -0.045,0.349 -0.033,0.2 -0.074,0.427 -0.121,0.684 -0.054,0.287 -0.092,0.489 -0.118,0.605 -0.049,0.242 -0.085,0.397 -0.106,0.467 -0.008,0.026 -0.017,0.046 -0.08,0.071 -0.036,0 -0.096,-0.004 -0.211,0.012 l -0.003,0.197 c 0.098,0.01 0.229,0.029 0.392,0.059 0.126,0.024 0.246,0.051 0.403,0.058 l 0.007,-0.197 c -0.14,-0.036 -0.176,-0.052 -0.185,-0.058 l -0.058,-0.015 0.022,-0.064 c 0.001,-0.029 0.019,-0.151 0.054,-0.363 0.037,-0.214 0.07,-0.4 0.099,-0.556 l 0.058,-0.484 0.07,-0.375 0.22,1.026 c 0.035,0.166 0.086,0.421 0.152,0.76 0.038,0.198 0.068,0.354 0.111,0.492 l 0.142,0.006 c 0.045,-0.076 0.106,-0.177 0.184,-0.301 0.127,-0.205 0.225,-0.362 0.293,-0.469 l 0.424,-0.713 0.308,-0.468 -0.243,1.311 c -0.049,0.264 -0.082,0.418 -0.098,0.463 -0.018,0.05 -0.035,0.063 -0.068,0.068 -0.038,0 -0.101,-0.007 -0.224,0.006 l -0.004,0.195 1.048,0.197 0.014,-0.229 c -0.164,-0.042 -0.189,-0.054 -0.221,-0.106 0,-0.038 0.011,-0.137 0.032,-0.297 0.004,-0.028 0.021,-0.122 0.051,-0.284 l 0.275,-1.437 c 0.018,-0.099 0.046,-0.138 0.065,-0.152 0.017,-0.012 0.084,-0.022 0.194,-0.001 l 0.053,0.011 0.011,-0.229 -0.485,-0.074 c -0.039,-0.007 -0.128,-0.028 -0.302,-0.048 m -1.092,1.777 -0.254,-1.21 0.27,1.186 c -0.006,0.01 -0.01,0.015 -0.016,0.024 m -1.212,-2.164 -10e-4,0.004 v -0.004 z m -0.457,2.628 c 0.002,0 0.006,0.001 0.008,0.001 -0.002,0.001 -0.006,0 -0.008,0.001 z m 0.737,0.109 0.002,-0.01 v 0.011 c 0,0 -10e-4,0 -0.002,-0.001 m 0.106,-2.156 0.112,0.523 -0.124,-0.458 z m 1.864,0.346 -0.122,0.658 0.086,-0.604 z m -0.647,2.085 0.01,0.001 z m 1.452,-2.476 -0.009,-0.001 h 0.009 z m 2.2634,0.281 c 0.137,0.003 0.25,0.025 0.336,0.068 0.087,0.044 0.166,0.111 0.228,0.182 0.007,0.084 0.011,0.198 0.041,0.367 l 0.158,-0.026 c 0.007,-0.124 0.02,-0.257 0.038,-0.401 0.011,-0.089 0.025,-0.164 0.043,-0.223 l -0.025,-0.061 c -0.156,-0.068 -0.293,-0.118 -0.412,-0.146 -0.12,-0.027 -0.256,-0.042 -0.439,-0.045 -0.42,0 -0.753,0.128 -0.991,0.38 -0.244,0.257 -0.3710003,0.597 -0.3780003,1.008 -0.004,0.239 0.034,0.465 0.1120003,0.671 0.052,0.137 0.127,0.266 0.224,0.384 0.097,0.12 0.219,0.216 0.361,0.29 0.181,0.091 0.392,0.138 0.627,0.141 l 0.043,0.001 c 0.147,0 0.272,-0.014 0.374,-0.043 0.11,-0.03 0.238,-0.088 0.391,-0.187 l 0.073,-0.224 -0.057,-0.065 -0.021,0.013 c -0.116,0.069 -0.224,0.117 -0.321,0.145 -0.091,0.025 -0.191,0.038 -0.307,0.038 h -10e-4 c -0.164,-0.002 -0.304,-0.035 -0.418,-0.096 -0.082,-0.045 -0.167,-0.118 -0.248,-0.217 -0.083,-0.099 -0.148,-0.226 -0.196,-0.377 -0.049,-0.15 -0.072,-0.33 -0.069,-0.533 0.006,-0.334 0.085,-0.595 0.237,-0.778 0.147,-0.176 0.343,-0.266 0.597,-0.266 m -0.036,2.558 c 10e-4,0 0.002,-0.001 0.002,-0.001 v 0.003 z m 3.4303,-2.1595 c -0.039,-0.117 -0.088,-0.224 -0.148,-0.318 -0.061,-0.096 -0.145,-0.187 -0.249,-0.273 -0.107,-0.085 -0.226,-0.149 -0.353,-0.185 -0.172,-0.047 -0.36,-0.059 -0.561,-0.038 -0.201,0.024 -0.386,0.08 -0.55,0.17 -0.129,0.07 -0.244,0.174 -0.345,0.313 -0.101,0.136 -0.172,0.298 -0.214,0.482 -0.04,0.184 -0.048,0.397 -0.021,0.633 0.035,0.306 0.116,0.56 0.242,0.757 0.125,0.194 0.286,0.338 0.479,0.424 0.143,0.065 0.305,0.098 0.482,0.098 0.058,0 0.119,-0.003 0.181,-0.011 0.23,-0.027 0.432,-0.093 0.603,-0.202 0.123,-0.081 0.231,-0.189 0.319,-0.322 0.089,-0.133 0.152,-0.282 0.187,-0.444 0.048,-0.217 0.059,-0.449 0.031,-0.693 -0.017,-0.143 -0.044,-0.275 -0.083,-0.391 m -0.485,1.215 c -0.039,0.183 -0.106,0.318 -0.2,0.403 -0.094,0.084 -0.208,0.134 -0.338,0.149 -0.14,0.016 -0.268,-0.007 -0.38,-0.073 -0.112,-0.065 -0.214,-0.189 -0.303,-0.371 -0.089,-0.182 -0.152,-0.424 -0.185,-0.718 -0.024,-0.203 -0.02,-0.395 0.011,-0.568 0.029,-0.169 0.093,-0.304 0.189,-0.399 0.096,-0.095 0.222,-0.153 0.373,-0.17 0.034,-0.003 0.066,-0.006 0.097,-0.006 0.09,0 0.167,0.016 0.23,0.048 0.086,0.044 0.165,0.113 0.236,0.205 0.072,0.092 0.132,0.213 0.181,0.353 0.049,0.143 0.084,0.305 0.105,0.481 0.029,0.257 0.024,0.481 -0.016,0.666 m 3.1933,-0.8106 c -0.015,-0.072 -0.011,-0.088 -0.009,-0.09 0.005,-0.016 0.027,-0.042 0.106,-0.111 l -0.067,-0.146 -0.978,0.271 0.072,0.175 c 0.148,-0.025 0.244,-0.037 0.332,-0.03 0.005,0.008 0.022,0.043 0.061,0.2 l 0.038,0.175 c 0.022,0.096 0.035,0.161 0.05,0.168 a 0.9074,0.9074 0 0 1 -0.174,0.121 0.8086,0.8086 0 0 1 -0.193,0.074 c -0.234,0.059 -0.46,0 -0.673,-0.168 -0.215,-0.173 -0.369,-0.444 -0.458,-0.805 -0.081,-0.33 -0.066,-0.612 0.042,-0.837 0.108,-0.224 0.292,-0.367 0.546,-0.43 0.111,-0.027 0.214,-0.038 0.307,-0.028 0.094,0.009 0.182,0.032 0.261,0.069 0.034,0.015 0.068,0.037 0.094,0.056 0.016,0.035 0.032,0.079 0.048,0.133 0.024,0.076 0.04,0.135 0.087,0.196 l 0.15,-0.065 c -0.047,-0.282 -0.071,-0.481 -0.072,-0.596 l -0.044,-0.062 c -0.101,-0.024 -0.232,-0.037 -0.403,-0.039 -0.169,0 -0.346,0.021 -0.526,0.066 -0.148,0.037 -0.282,0.085 -0.4,0.146 -0.119,0.061 -0.228,0.141 -0.324,0.238 -0.099,0.098 -0.179,0.216 -0.242,0.349 -0.062,0.133 -0.101,0.284 -0.115,0.445 -0.014,0.159 0.004,0.343 0.053,0.54 0.058,0.236 0.149,0.443 0.273,0.617 0.08,0.114 0.181,0.214 0.3,0.299 0.12,0.086 0.256,0.147 0.404,0.185 0.098,0.023 0.199,0.035 0.303,0.035 0.122,0 0.25,-0.016 0.381,-0.048 0.148,-0.036 0.294,-0.092 0.434,-0.164 0.139,-0.071 0.3,-0.175 0.488,-0.343 a 3.062,3.062 0 0 1 -0.085,-0.286 c -0.015,-0.063 -0.037,-0.166 -0.067,-0.31 m 0.009,-0.309 -0.009,0.001 0.008,-0.001 z m -0.92,0.256 0.001,0.002 -0.002,-0.002 z m 3.055,-2.0172 c -0.072,-0.214 -0.112,-0.355 -0.115,-0.432 0.006,-0.011 0.036,-0.04 0.215,-0.141 l -0.096,-0.169 c -0.157,0.065 -0.286,0.116 -0.387,0.153 -0.105,0.038 -0.221,0.074 -0.369,0.15 l 0.093,0.17 c 0.128,-0.043 0.188,-0.05 0.232,-0.05 0.004,0.002 0.02,0.012 0.044,0.062 0.052,0.108 0.198,0.491 0.432,1.141 l 0.11,0.216 0.053,0.146 c -0.201,-0.12 -0.454,-0.284 -0.765,-0.502 -0.455,-0.317 -0.846,-0.6 -1.206,-0.851 l -0.36,0.143 c -0.061,0.022 -0.158,0.052 -0.311,0.129 l 0.092,0.173 c 0.145,-0.04 0.187,-0.046 0.203,-0.046 l 0.052,-0.018 0.018,0.067 c 0.015,0.023 0.037,0.079 0.069,0.164 l 0.408,1.108 c 0.058,0.161 0.103,0.292 0.135,0.393 0.055,0.178 0.088,0.291 0.099,0.339 l 0.029,-0.006 -0.034,0.085 c -0.007,0.005 -0.042,0.025 -0.211,0.128 l 0.067,0.186 0.029,-0.014 c 0.167,-0.069 0.301,-0.123 0.401,-0.159 l 0.206,-0.07 0.148,-0.083 -0.053,-0.147 -0.041,-0.016 -0.028,0.011 c -0.03,0.01 -0.079,0.023 -0.148,0.037 l -0.023,0.029 h -0.005 l -0.033,-0.046 c -0.017,-0.024 -0.053,-0.106 -0.108,-0.243 -0.08,-0.2 -0.153,-0.394 -0.221,-0.582 l -0.204,-0.475 -0.133,-0.369 c 0.922,0.653 1.607,1.122 2.111,1.439 0.095,-0.017 0.188,-0.033 0.281,-0.047 l 0.037,-0.067 c -0.075,-0.165 -0.259,-0.654 -0.548,-1.455 -0.037,-0.104 -0.092,-0.264 -0.165,-0.481 m -0.012,-0.704 a 0.0224,0.0224 0 0 1 -0.01,0.003 c 0.002,-10e-4 0.006,-0.002 0.009,-0.005 z m -0.701,0.283 0.002,0.008 -0.004,-0.007 c 0,0 0.001,-0.001 0.002,-0.001 m 0.942,1.715 c -0.049,-0.029 -0.112,-0.071 -0.168,-0.107 0.052,0.027 0.107,0.057 0.157,0.078 z m -2.62,-1.11 0.002,0.008 -0.004,-0.008 z m 1.634,2.21 -0.001,-0.002 z m -0.071,-0.106 h -0.002 a 0.01,0.01 0 0 0 -0.003,0.001 c 10e-4,-0.001 0.003,-0.001 0.004,-0.005 z m -0.906,-1.726 0.504,0.355 a 51.09,51.09 0 0 0 -0.49,-0.317 z m 4.3196,-1.4655 c -0.072,-0.1 -0.151,-0.187 -0.238,-0.26 -0.084,-0.072 -0.192,-0.135 -0.318,-0.185 -0.119,-0.048 -0.255,-0.08 -0.392,-0.072 -0.177,0.005 -0.361,0.05 -0.546,0.132 -0.186,0.083 -0.346,0.191 -0.476,0.325 -0.102,0.105 -0.18,0.24 -0.235,0.402 -0.055,0.161 -0.075,0.338 -0.058,0.525 0.014,0.188 0.071,0.393 0.168,0.61 0.124,0.282 0.278,0.501 0.455,0.648 0.18,0.151 0.376,0.24 0.585,0.263 0.042,0.006 0.083,0.008 0.125,0.008 0.172,0 0.351,-0.042 0.534,-0.123 0.212,-0.094 0.385,-0.219 0.515,-0.371 0.094,-0.116 0.164,-0.252 0.209,-0.405 0.045,-0.153 0.06,-0.314 0.045,-0.48 -0.018,-0.222 -0.079,-0.447 -0.177,-0.668 -0.059,-0.133 -0.125,-0.25 -0.196,-0.349 m -0.706,2.05 a 0.5518,0.5518 0 0 1 -0.127,-0.015 c -0.125,-0.028 -0.26,-0.116 -0.4,-0.262 -0.139,-0.149 -0.272,-0.36 -0.391,-0.631 -0.083,-0.187 -0.137,-0.371 -0.16,-0.545 -0.022,-0.171 -0.001,-0.32 0.063,-0.439 0.062,-0.119 0.165,-0.211 0.304,-0.272 0.094,-0.042 0.182,-0.065 0.259,-0.065 0.023,0 0.044,0.004 0.065,0.006 0.096,0.017 0.193,0.059 0.287,0.127 0.095,0.066 0.189,0.162 0.279,0.282 0.09,0.122 0.171,0.265 0.243,0.427 0.104,0.236 0.167,0.452 0.184,0.641 0.018,0.186 -0.006,0.334 -0.071,0.444 -0.065,0.109 -0.158,0.189 -0.277,0.243 -0.087,0.039 -0.174,0.059 -0.258,0.059 m 2.6969,-2.2954 c -0.053,-0.06 -0.107,-0.106 -0.161,-0.138 -0.054,-0.033 -0.117,-0.054 -0.186,-0.065 -0.069,-0.011 -0.149,-0.008 -0.246,0.009 -0.034,0.005 -0.108,0.023 -0.221,0.052 -0.111,0.031 -0.199,0.05 -0.26,0.064 -0.081,0.013 -0.147,0.016 -0.198,0.007 a 0.2611,0.2611 0 0 1 -0.128,-0.063 c -0.041,-0.034 -0.079,-0.087 -0.117,-0.159 -0.048,-0.101 -0.056,-0.203 -0.024,-0.311 0.031,-0.107 0.11,-0.191 0.235,-0.253 0.084,-0.04 0.182,-0.075 0.267,-0.061 0.089,0.004 0.158,0.02 0.2,0.045 0.035,0.051 0.085,0.142 0.193,0.287 l 0.137,-0.101 a 4.7595,4.7595 0 0 1 -0.124,-0.291 2.5025,2.5025 0 0 1 -0.077,-0.231 l -0.034,-0.042 -0.081,-0.018 c -0.08,0 -0.166,0.011 -0.254,0.032 -0.113,0.028 -0.222,0.067 -0.326,0.118 a 1.326,1.326 0 0 0 -0.281,0.188 0.8324,0.8324 0 0 0 -0.2,0.265 c -0.047,0.101 -0.068,0.221 -0.061,0.358 0.008,0.135 0.045,0.272 0.11,0.404 0.046,0.093 0.104,0.177 0.171,0.247 0.068,0.072 0.144,0.124 0.227,0.156 0.084,0.033 0.179,0.045 0.282,0.032 0.067,-0.008 0.2,-0.033 0.4,-0.077 0.108,-0.021 0.189,-0.03 0.298,-0.029 0.058,0.006 0.109,0.028 0.153,0.064 0.046,0.04 0.086,0.093 0.12,0.161 0.04,0.082 0.06,0.165 0.061,0.243 0.001,0.078 -0.025,0.152 -0.075,0.222 -0.05,0.07 -0.121,0.127 -0.209,0.171 -0.086,0.041 -0.175,0.061 -0.32,0.061 -0.111,-0.01 -0.201,-0.041 -0.262,-0.083 -0.073,-0.116 -0.128,-0.215 -0.209,-0.313 l -0.137,0.101 c 0.129,0.267 0.213,0.474 0.274,0.642 0.046,0.002 0.09,0.004 0.132,0.004 0.093,0 0.177,-0.008 0.253,-0.021 0.11,-0.02 0.228,-0.06 0.35,-0.121 0.168,-0.082 0.3,-0.183 0.394,-0.299 0.059,-0.074 0.106,-0.165 0.144,-0.273 a 0.9412,0.9412 0 0 0 0.051,-0.321 c -0.003,-0.143 -0.042,-0.29 -0.116,-0.441 -0.043,-0.085 -0.091,-0.159 -0.145,-0.222 m -1.213,0.992 h -0.002 l 0.002,-10e-4 z m 3.6501,-1.4198 -0.013,0.022 c -0.071,0.114 -0.143,0.207 -0.215,0.276 a 1.099,1.099 0 0 1 -0.256,0.177 c -0.143,0.073 -0.281,0.11 -0.414,0.11 -0.094,0 -0.203,-0.026 -0.322,-0.077 -0.117,-0.048 -0.234,-0.128 -0.348,-0.241 -0.113,-0.111 -0.217,-0.259 -0.31,-0.441 -0.151,-0.297 -0.202,-0.565 -0.153,-0.797 0.049,-0.23 0.186,-0.403 0.405,-0.514 0.121,-0.062 0.231,-0.094 0.337,-0.096 0.094,0 0.192,0.021 0.278,0.054 0.046,0.071 0.101,0.169 0.208,0.307 l 0.128,-0.098 a 5.2658,5.2658 0 0 1 -0.154,-0.372 c -0.033,-0.085 -0.054,-0.157 -0.066,-0.217 l -0.05,-0.043 c -0.171,0.011 -0.315,0.033 -0.433,0.064 -0.117,0.03 -0.244,0.08 -0.379,0.148 -0.389,0.197 -0.635,0.471 -0.731,0.813 -0.096,0.343 -0.049,0.701 0.136,1.068 0.109,0.214 0.248,0.397 0.411,0.541 0.109,0.098 0.236,0.178 0.378,0.237 0.139,0.058 0.29,0.087 0.445,0.087 h 0.01 c 0.201,-0.004 0.41,-0.059 0.62,-0.165 0.146,-0.074 0.265,-0.152 0.349,-0.233 0.085,-0.078 0.171,-0.189 0.26,-0.348 l -0.041,-0.234 z m -1.118,0.977 h 10e-4 z m 2.5914,-1.9804 c 0.056,0.161 0.089,0.274 0.098,0.36 -0.004,0.009 -0.027,0.038 -0.137,0.103 -0.084,0.054 -0.179,0.106 -0.283,0.156 -0.108,0.054 -0.203,0.096 -0.248,0.141 a 3.9124,3.9124 0 0 1 -0.107,-0.204 l -0.371,-0.688 c 0.057,-0.038 0.134,-0.08 0.229,-0.127 0.104,-0.054 0.194,-0.089 0.325,-0.103 0.019,0.014 0.057,0.063 0.177,0.24 l 0.133,-0.101 -0.418,-0.773 -0.133,0.101 c 0.048,0.1 0.077,0.174 0.087,0.247 0,0 -0.012,0.014 -0.075,0.046 -0.138,0.075 -0.217,0.116 -0.239,0.128 -0.072,0.035 -0.142,0.067 -0.173,0.108 l -0.176,-0.358 c -0.101,-0.2 -0.175,-0.369 -0.24,-0.47 0.087,-0.052 0.173,-0.101 0.259,-0.144 0.092,-0.045 0.188,-0.085 0.291,-0.12 0.072,-0.027 0.1,-0.029 0.131,-0.014 0.015,0.018 0.05,0.073 0.176,0.251 l 0.128,-0.095 -0.204,-0.518 -0.054,-0.037 -0.062,0.016 c -0.11,0.05 -0.184,0.083 -0.22,0.102 l -0.293,0.156 c -0.164,0.084 -0.311,0.16 -0.445,0.227 l -0.548,0.31 0.106,0.147 c 0.138,-0.058 0.191,-0.072 0.229,-0.065 0.015,0.014 0.05,0.065 0.132,0.221 l 0.558,1.113 c 0.045,0.088 0.112,0.235 0.203,0.436 0.049,0.11 0.083,0.189 0.101,0.22 -0.02,0.052 -0.05,0.108 -0.093,0.195 l 0.061,0.122 0.027,-0.015 c 0.299,-0.159 0.46,-0.243 0.484,-0.255 0.088,-0.044 0.25,-0.121 0.484,-0.234 l 0.241,-0.11 c 0.116,-0.058 0.206,-0.108 0.264,-0.146 l 0.019,-0.071 c -0.073,-0.149 -0.155,-0.34 -0.288,-0.595 z m 0.122,-0.056 -0.008,0.005 0.006,-0.008 c 0.002,0.002 0.002,0.003 0.002,0.003 m -0.425,-0.108 h 0.002 l -0.002,0.002 z m 0.077,-0.072 -0.003,-0.006 z m -0.389,-0.718 h -0.003 l 0.002,-0.001 z m 3.1358,0.2944 -0.003,0.031 -0.056,-0.049 c -0.026,-0.012 -0.102,-0.059 -0.227,-0.14 l -0.625,-0.454 c -0.012,-0.01 -0.047,-0.035 -0.104,-0.076 -0.053,-0.037 -0.104,-0.077 -0.147,-0.075 -0.001,-0.002 -0.003,-0.002 -0.005,-0.004 0.128,-0.142 0.203,-0.291 0.227,-0.446 0.022,-0.155 0,-0.308 -0.067,-0.456 -0.056,-0.124 -0.134,-0.219 -0.232,-0.28 -0.085,-0.054 -0.169,-0.074 -0.293,-0.079 -0.092,0.01 -0.217,0.05 -0.378,0.123 -0.081,0.036 -0.182,0.087 -0.304,0.149 -0.072,0.04 -0.16,0.082 -0.264,0.129 -0.121,0.057 -0.217,0.098 -0.284,0.126 -0.139,0.056 -0.222,0.089 -0.259,0.14 l 0.103,0.16 c 0.143,-0.052 0.197,-0.063 0.24,-0.052 0.011,0.013 0.044,0.061 0.132,0.248 l 0.693,1.538 c 0.038,0.092 0.065,0.162 0.078,0.265 -0.009,0.009 -0.043,0.035 -0.199,0.145 l 0.083,0.184 0.029,-0.014 c 0.128,-0.069 0.27,-0.138 0.425,-0.208 0.173,-0.079 0.347,-0.154 0.537,-0.263 l -0.11,-0.17 c -0.094,0.04 -0.157,0.056 -0.228,0.059 -0.009,-0.01 -0.029,-0.037 -0.069,-0.114 -0.017,-0.032 -0.082,-0.167 -0.195,-0.406 -0.092,-0.196 -0.178,-0.381 -0.259,-0.557 -0.05,-0.11 -0.148,-0.335 -0.292,-0.667 -0.065,-0.149 -0.104,-0.246 -0.131,-0.254 a 0.8096,0.8096 0 0 1 0.131,-0.075 c 0.128,-0.059 0.192,-0.073 0.229,-0.073 0.069,0 0.139,0.024 0.208,0.071 0.071,0.048 0.13,0.124 0.177,0.227 0.047,0.102 0.069,0.205 0.067,0.305 -0.004,0.099 -0.026,0.176 -0.067,0.231 -0.041,0.056 -0.122,0.108 -0.257,0.189 l 0.032,0.09 c 0.038,0.011 0.083,0.035 0.137,0.07 0.109,0.073 0.25,0.178 0.423,0.313 l 0.6,0.475 c 0.035,0.03 0.061,0.056 0.115,0.087 0.076,-0.041 0.153,-0.078 0.232,-0.114 0.069,-0.031 0.181,-0.079 0.352,-0.184 l -0.109,-0.17 c -0.054,0.023 -0.077,0.025 -0.086,0.025 m -0.94,0.626 -0.003,-0.005 0.004,0.005 z m 1.095,-0.496 -0.002,-0.003 0.003,0.002 c 0,0 -0.001,0 -0.001,0.001 m 1.4251,-1.2313 c -0.005,-0.011 -0.007,-0.018 -0.011,-0.028 l -0.144,0.084 c 0.041,0.166 0.064,0.28 0.065,0.366 -0.007,0.012 -0.035,0.037 -0.146,0.093 a 3.574,3.574 0 0 1 -0.297,0.128 c -0.113,0.044 -0.21,0.077 -0.26,0.117 -0.026,-0.058 -0.056,-0.13 -0.087,-0.213 l -0.306,-0.718 c 0.06,-0.033 0.14,-0.069 0.239,-0.107 0.109,-0.042 0.201,-0.07 0.334,-0.071 0.014,0.012 0.047,0.06 0.153,0.253 l 0.142,-0.087 -0.344,-0.808 -0.142,0.087 c 0.038,0.106 0.06,0.183 0.063,0.255 -0.002,0.002 -0.014,0.013 -0.079,0.04 l -0.251,0.105 c -0.074,0.028 -0.146,0.054 -0.179,0.091 l -0.145,-0.371 c -0.081,-0.21 -0.14,-0.385 -0.195,-0.491 a 2.76,2.76 0 0 1 0.271,-0.119 c 0.095,-0.037 0.196,-0.068 0.301,-0.094 0.063,-0.016 0.093,-0.02 0.133,-0.002 0.019,0.028 0.056,0.113 0.151,0.267 l 0.137,-0.084 -0.156,-0.534 -0.051,-0.041 -0.062,0.009 c -0.116,0.039 -0.191,0.067 -0.229,0.081 l -0.307,0.128 c -0.169,0.071 -0.325,0.132 -0.464,0.186 l -0.573,0.258 0.091,0.156 c 0.135,-0.042 0.192,-0.05 0.235,-0.044 0.011,0.014 0.042,0.062 0.111,0.232 l 0.454,1.161 c 0.036,0.092 0.09,0.244 0.161,0.453 0.039,0.114 0.066,0.196 0.081,0.229 -0.024,0.046 -0.058,0.097 -0.112,0.185 l 0.05,0.127 0.029,-0.013 c 0.312,-0.13 0.48,-0.2 0.505,-0.209 0.092,-0.035 0.26,-0.099 0.504,-0.188 l 0.25,-0.089 c 0.122,-0.047 0.214,-0.087 0.277,-0.121 l 0.024,-0.07 c -0.056,-0.145 -0.119,-0.339 -0.221,-0.589 m -0.028,0.012 -0.009,0.002 0.008,-0.005 c 0,0.001 0,0.001 0.001,0.003 m -0.414,-0.147 h 0.001 z m 0.084,-0.065 -0.003,-0.007 0.003,0.006 z m -0.322,-0.751 z m 3.9053,0.5381 -0.022,0.028 -0.045,-0.058 c -0.023,-0.016 -0.089,-0.077 -0.198,-0.18 -0.008,-0.008 -0.058,-0.06 -0.151,-0.158 l -0.378,-0.403 c -0.009,-0.012 -0.039,-0.042 -0.088,-0.095 -0.045,-0.046 -0.088,-0.091 -0.13,-0.1 -10e-4,-0.001 -0.003,-0.002 -0.005,-0.004 0.151,-0.116 0.254,-0.25 0.306,-0.396 0.05,-0.15 0.057,-0.306 0.018,-0.461 -0.032,-0.134 -0.091,-0.24 -0.176,-0.318 -0.085,-0.08 -0.176,-0.124 -0.321,-0.134 -0.088,0 -0.202,0.016 -0.346,0.051 -0.087,0.021 -0.196,0.051 -0.326,0.091 -0.077,0.025 -0.173,0.052 -0.283,0.079 -0.13,0.032 -0.231,0.055 -0.303,0.068 -0.147,0.031 -0.234,0.049 -0.28,0.092 l 0.072,0.176 c 0.092,-0.015 0.159,-0.023 0.245,-0.008 0.009,0.015 0.032,0.07 0.083,0.269 l 0.397,1.64 c 0.02,0.097 0.033,0.173 0.026,0.276 -0.016,0.012 -0.084,0.035 -0.222,0.105 l 0.048,0.197 0.03,-0.011 c 0.139,-0.042 0.291,-0.085 0.456,-0.124 0.185,-0.046 0.37,-0.087 0.578,-0.159 l -0.077,-0.188 c -0.099,0.022 -0.16,0.034 -0.235,0.015 -0.008,-0.01 -0.023,-0.039 -0.047,-0.124 -0.01,-0.034 -0.05,-0.179 -0.116,-0.434 -0.055,-0.21 -0.105,-0.408 -0.151,-0.597 -0.029,-0.118 -0.084,-0.355 -0.164,-0.71 -0.035,-0.158 -0.057,-0.259 -0.082,-0.273 0.046,-0.02 0.094,-0.036 0.143,-0.049 0.088,-0.023 0.149,-0.029 0.233,-0.029 0.07,0.01 0.136,0.048 0.197,0.107 0.061,0.061 0.106,0.146 0.133,0.256 0.026,0.112 0.029,0.214 0.008,0.311 -0.021,0.097 -0.058,0.17 -0.108,0.216 -0.053,0.049 -0.141,0.085 -0.287,0.139 l 0.013,0.095 c 0.037,0.018 0.079,0.05 0.122,0.094 0.094,0.091 0.213,0.219 0.357,0.386 l 0.502,0.578 c 0.035,0.043 0.052,0.073 0.097,0.106 0.083,-0.025 0.166,-0.048 0.25,-0.068 0.074,-0.019 0.193,-0.045 0.379,-0.116 l -0.076,-0.188 c -0.04,0.009 -0.063,0.01 -0.076,0.01 m -2.692,-1.876 z m 1.639,2.317 -10e-4,-0.006 0.003,0.006 z m 1.169,-0.287 -10e-4,-0.002 z m 1.6952,-0.8335 c -10e-4,-0.012 -0.002,-0.019 -0.003,-0.03 l -0.16,0.047 c -0.002,0.17 -0.007,0.287 -0.027,0.371 -0.008,0.006 -0.038,0.025 -0.164,0.053 -0.097,0.021 -0.205,0.037 -0.32,0.051 -0.12,0.015 -0.223,0.022 -0.28,0.049 a 4.647,4.647 0 0 1 -0.034,-0.229 l -0.119,-0.769 c 0.067,-0.018 0.153,-0.032 0.258,-0.046 0.088,-0.01 0.163,-0.014 0.228,-0.014 l 0.114,0.027 c 0.01,0.015 0.031,0.069 0.086,0.284 l 0.159,-0.05 -0.135,-0.868 -0.159,0.049 c 0.011,0.111 0.013,0.191 -0.002,0.263 -0.002,0.001 -0.017,0.01 -0.086,0.019 -0.154,0.023 -0.243,0.037 -0.268,0.04 -0.079,0.01 -0.156,0.015 -0.198,0.045 l -0.047,-0.396 c -0.028,-0.223 -0.043,-0.407 -0.069,-0.524 0.099,-0.021 0.195,-0.037 0.292,-0.049 0.093,-0.011 0.18,-0.02 0.314,-0.017 0.097,0.002 0.116,0.011 0.129,0.031 0.008,0.022 0.023,0.087 0.081,0.298 l 0.153,-0.047 -0.019,-0.558 -0.035,-0.046 -0.063,-0.014 -0.004,0.001 c -0.121,0.01 -0.201,0.017 -0.241,0.022 l -0.329,0.049 c -0.182,0.026 -0.347,0.048 -0.496,0.065 l -0.619,0.11 0.05,0.174 c 0.144,-0.009 0.207,-0.005 0.238,0.016 0.01,0.018 0.027,0.078 0.051,0.252 l 0.154,1.235 c 0.012,0.099 0.027,0.258 0.045,0.48 0.01,0.119 0.015,0.206 0.022,0.24 -0.035,0.041 -0.081,0.084 -0.153,0.153 l 0.016,0.134 0.169,-0.024 c 0.246,-0.037 0.382,-0.055 0.403,-0.059 0.098,-0.01 0.276,-0.03 0.534,-0.057 l 0.265,-0.025 c 0.13,-0.015 0.23,-0.033 0.298,-0.049 l 0.041,-0.061 c -0.019,-0.157 -0.033,-0.358 -0.07,-0.623 z m -0.03,0.004 -0.009,0.001 0.009,-0.004 z m -0.267,-0.287 -10e-4,-0.008 0.002,0.008 z m -0.127,-0.807 h -0.002 z m 2.7335,1.5213 c -0.019,-0.022 -0.067,-0.099 -0.145,-0.226 l -0.365,-0.68 c -0.007,-0.013 -0.027,-0.051 -0.061,-0.112 -0.031,-0.058 -0.06,-0.112 -0.099,-0.133 -0.002,-0.001 -0.003,-0.003 -0.004,-0.005 0.177,-0.073 0.311,-0.175 0.398,-0.304 0.088,-0.13 0.135,-0.277 0.137,-0.439 0.004,-0.137 -0.025,-0.255 -0.086,-0.353 -0.062,-0.099 -0.139,-0.164 -0.229,-0.199 -0.09,-0.031 -0.222,-0.05 -0.395,-0.053 l -0.1,-0.001 a 7.1,7.1 0 0 0 -0.239,0.004 c -0.046,0.002 -0.098,0.003 -0.155,0.003 l -0.138,-0.001 a 9.7054,9.7054 0 0 1 -0.344,-0.013 c -0.131,-0.01 -0.208,-0.014 -0.261,0.016 l 0.024,0.189 c 0.175,0.019 0.218,0.034 0.238,0.057 0.007,0.019 0.014,0.084 0.012,0.281 l -0.043,1.686 c -0.006,0.1 -0.013,0.175 -0.047,0.274 -0.007,0.002 -0.045,0.01 -0.241,0.043 l 0.027,0.2 c 0.09,-0.003 0.184,-0.004 0.282,-0.004 l 0.191,10e-4 c 0.191,0.007 0.38,0.014 0.598,-0.002 l -0.025,-0.201 c -0.043,-0.003 -0.158,-0.008 -0.231,-0.046 -0.004,-0.013 -0.01,-0.045 -0.013,-0.132 -10e-4,-0.036 -10e-4,-0.185 0.001,-0.451 0.002,-0.216 0.005,-0.421 0.009,-0.614 0.002,-0.122 0.012,-0.365 0.026,-0.729 0.007,-0.161 0.012,-0.265 -0.008,-0.283 0.045,-0.009 0.081,-0.011 0.15,-0.013 0.115,0.003 0.193,0.014 0.234,0.032 0.064,0.03 0.118,0.083 0.161,0.157 0.043,0.074 0.064,0.169 0.061,0.282 -0.002,0.11 -0.026,0.213 -0.073,0.303 -0.044,0.087 -0.099,0.148 -0.16,0.18 -0.049,0.026 -0.121,0.039 -0.211,0.039 l -0.101,0.019 -0.011,0.096 c 0.029,0.027 0.061,0.067 0.092,0.121 0.067,0.113 0.149,0.268 0.245,0.465 l 0.335,0.688 c 0.018,0.043 0.031,0.079 0.066,0.129 l 0.164,-0.002 0.096,0.001 c 0.074,0.001 0.196,0.006 0.364,0.015 l 0.031,0.003 v -0.032 l -0.024,-0.201 c -0.063,-0.003 -0.085,-0.012 -0.133,-0.055 m -2.087,0.205 h 0.003 -0.002 z m 1.012,-0.007 10e-4,-0.005 10e-4,0.005 z m 3.3005,-0.5315 0.099,-0.443 c 0.03,-0.13 0.073,-0.308 0.131,-0.531 0.072,-0.277 0.098,-0.354 0.107,-0.37 l -0.027,-0.015 0.091,-0.026 c 0.032,0 0.079,0.006 0.177,-0.005 l 0.011,-0.191 -0.402,-0.077 c -0.036,-0.007 -0.149,-0.038 -0.376,-0.067 l -0.013,0.193 c 0.145,0.037 0.193,0.066 0.225,0.117 0.004,0.021 -0.002,0.089 -0.041,0.281 -0.015,0.074 -0.06,0.275 -0.134,0.606 l -0.087,0.385 c -0.059,0.262 -0.117,0.438 -0.174,0.52 a 0.458,0.458 0 0 1 -0.226,0.18 c -0.096,0.038 -0.216,0.04 -0.357,0.009 -0.126,-0.029 -0.221,-0.072 -0.29,-0.132 -0.07,-0.059 -0.116,-0.127 -0.138,-0.203 -0.024,-0.076 -0.027,-0.174 -0.011,-0.289 0.007,-0.055 0.037,-0.196 0.089,-0.425 l 0.146,-0.657 c 0.058,-0.263 0.104,-0.431 0.136,-0.505 l 0.082,-0.05 c 0.038,0 0.09,0.008 0.194,-0.001 l 0.035,-0.156 -0.054,-0.041 -1.017,-0.198 -0.016,0.19 0.212,0.108 c 0.004,0.017 0.004,0.051 -0.007,0.115 -0.025,0.141 -0.058,0.299 -0.098,0.476 l -0.19,0.839 c -0.045,0.2 -0.07,0.324 -0.075,0.37 -0.009,0.078 -0.005,0.161 0.012,0.25 0.017,0.09 0.053,0.177 0.106,0.257 0.053,0.082 0.129,0.155 0.226,0.218 0.131,0.084 0.282,0.146 0.447,0.183 0.103,0.024 0.202,0.034 0.294,0.034 a 0.8433,0.8433 0 0 0 0.415,-0.102 c 0.096,-0.054 0.177,-0.122 0.239,-0.201 0.063,-0.075 0.116,-0.176 0.158,-0.298 0.042,-0.118 0.076,-0.235 0.101,-0.348 m 0.554,-1.557 -0.01,-0.003 0.01,0.002 z m -0.72,-0.132 -0.002,0.006 v -0.006 z m -0.646,-0.042 10e-4,-0.002 v 0.002 z m 0,-0.132 -0.016,-0.004 0.016,0.002 z m -0.989,-0.193 -10e-4,0.003 v -0.003 z m 5.1171,1.7011 c -0.035,-0.016 -0.115,-0.06 -0.277,-0.123 -0.075,0.08 -0.14,0.145 -0.193,0.196 -0.054,0.052 -0.198,0.185 -0.434,0.404 l -0.425,0.391 c -0.084,0.079 -0.199,0.191 -0.319,0.327 -0.035,0.031 -0.068,0.061 -0.108,0.094 l 0.1,-2.085 a 5.3555,5.3555 0 0 1 -0.31,-0.132 c -0.077,-0.037 -0.216,-0.107 -0.456,-0.198 l -0.057,0.188 c 0.05,0.027 0.105,0.062 0.162,0.105 l 0.019,-0.026 0.008,0.085 c -0.003,0.025 -0.03,0.102 -0.132,0.327 -0.082,0.184 -0.18,0.392 -0.291,0.629 -0.125,0.264 -0.214,0.449 -0.268,0.557 -0.11,0.219 -0.184,0.36 -0.222,0.422 -0.018,0.032 -0.031,0.044 -0.063,0.055 -0.007,0 -0.047,-0.004 -0.239,-0.048 l -0.053,0.19 c 0.092,0.033 0.213,0.087 0.364,0.157 0.115,0.055 0.225,0.112 0.374,0.158 l 0.057,-0.188 c -0.122,-0.068 -0.155,-0.094 -0.163,-0.103 l -0.053,-0.029 0.037,-0.057 c 0.009,-0.028 0.057,-0.14 0.146,-0.337 a 22,22 0 0 1 0.236,-0.512 l 0.181,-0.456 0.162,-0.342 -0.048,1.048 c -0.009,0.171 -0.025,0.429 -0.048,0.773 -0.013,0.202 -0.024,0.36 -0.017,0.504 l 0.135,0.043 c 0.063,-0.063 0.149,-0.144 0.254,-0.245 0.176,-0.166 0.312,-0.291 0.405,-0.377 l 0.59,-0.581 0.418,-0.376 -0.57,1.205 c -0.113,0.243 -0.186,0.386 -0.212,0.424 -0.031,0.045 -0.051,0.052 -0.058,0.053 -0.013,0 -0.057,-0.01 -0.242,-0.057 l -0.056,0.189 0.964,0.456 0.072,-0.216 c -0.039,-0.023 -0.158,-0.088 -0.186,-0.161 0.01,-0.036 0.045,-0.128 0.106,-0.278 0.011,-0.025 0.052,-0.113 0.121,-0.261 l 0.633,-1.319 c 0.044,-0.093 0.079,-0.123 0.127,-0.136 0.036,0 0.091,0.019 0.163,0.054 l 0.048,0.023 0.068,-0.216 z m 0.409,0.213 -0.011,-0.006 0.013,0.005 z m -2.197,1.104 0.063,-1.246 -0.041,1.228 c -0.008,0.007 -0.013,0.012 -0.022,0.018 m -0.619,-2.402 -0.002,0.004 10e-4,-0.005 c 0,0 0,10e-4 0.001,10e-4 m -1.113,2.426 c 0.003,0.001 0.006,0.003 0.009,0.003 -0.002,0 -0.007,-0.002 -0.009,-0.002 z m 0.686,0.291 0.003,-0.007 -10e-4,0.008 c -10e-4,-10e-4 -0.002,-10e-4 -0.002,-10e-4 m 0.651,-2.055 -0.025,0.534 -0.002,-0.476 z m 1.713,0.809 -0.284,0.601 0.236,-0.558 z m -1.155,1.85 0.012,0.006 -0.013,-0.005 z"
     fill="#7B5A3E"
     id="path12"
     style="fill:#ffffff" />
</svg>
