<?xml version="1.0" encoding="UTF-8"?><svg id="a" xmlns="http://www.w3.org/2000/svg" xmlns:xlink="http://www.w3.org/1999/xlink" viewBox="0 0 799.66 379.28"><defs><style>.d{fill:#8c8bc4;}.e{fill:#304159;}.f{fill:#faa748;}.g{clip-path:url(#b);}.h{clip-path:url(#c);}.i{fill:#5a99d2;}.j{fill:none;}.k{fill:#faa85f;}.l{fill:#f9a348;}.m{fill:#231f20;}</style><clipPath id="b"><rect class="j" x="472.35" y="263.35" width="136.03" height="57.69"/></clipPath><clipPath id="c"><rect class="j" x="472.35" y="263.35" width="136.03" height="57.69"/></clipPath></defs><g><g><path class="m" d="M94.05,365.78c-25.09-17.96-45.79-41.87-60.55-68.92-1.47-2.87-6.18-.46-4.65,2.51,15.14,27.76,36.37,52.27,62.11,70.69,2.72,1.93,5.73-2.42,3.1-4.29Z"/><path class="m" d="M194.16,370.95c-19.09-2.1-37.67-7.65-54.99-15.84-17.22-8.41-33.13-19.61-46.78-33.13-1.9-1.93-5.71,1.73-3.73,3.75,14.07,13.94,30.45,25.48,48.21,34.15,17.85,8.45,37.01,14.17,56.68,16.33,2.8,.36,3.29-4.9,.6-5.26Z"/><path class="i" d="M214.39,339.67c-27.04,.05-53.47-7.65-76.04-22.21-22.58-14.47-40.94-35.69-51.95-60.03-3.09-6.81-5.73-13.83-7.61-21.07-.62-2.1-5.75-.83-5.11,1.39,7.18,26.74,22.42,51.38,43.21,70.01,20.75,18.67,46.74,31.17,74.17,35.4,7.69,1.16,15.49,1.75,23.34,1.8,2.33-.08,2.2-5.37-.01-5.29Z"/><path class="e" d="M95.12,125.36c14.18-22.76,35.17-41.39,59.37-52.72,6.02-2.91,12.33-5.15,18.67-7.2,6.38-1.96,12.93-3.32,19.52-4.45,13.22-1.89,26.97-2.15,40.23-.29,7.42,1.05,14.78,2.5,21.91,4.73,2.09,.63,3.75-4.4,1.54-5.06-26.39-8.16-55.81-8.25-82.34-.66-26.64,7.54-51.09,23.09-69.44,44.11-5.16,5.85-9.87,12.1-13.94,18.74-1.26,1.94,3.28,4.65,4.48,2.81Z"/><path class="f" d="M67.77,291.16c-20.57-32.45-29.45-71.78-25.36-110.11,.35-2.69-4.9-3.36-5.26-.56-4.22,39.48,4.94,80.04,26.14,113.49,1.53,2.38,5.95-.53,4.48-2.81Z"/><path class="m" d="M87.5,82.18c13.01-14.15,28.54-25.9,45.4-35.01,16.91-9.06,35.34-15.11,54.26-18.15,2.68-.38,1.98-5.62-.82-5.23-19.51,3.13-38.51,9.38-55.94,18.71-17.38,9.39-33.38,21.5-46.79,36.08-1.95,2.05,2,5.56,3.88,3.6Z"/><path class="m" d="M16.16,253.37c-4.09-14.87-6.43-30.21-6.98-45.62-.08-3.22-5.37-3.13-5.29,.21,.57,15.8,2.97,31.55,7.16,46.8,.91,3.21,5.99,1.72,5.11-1.39Z"/><path class="m" d="M10.15,177.61c1.66-15.33,5.04-30.47,10.06-45.04,1.03-3.05-3.93-4.89-5-1.73-5.15,14.95-8.62,30.48-10.32,46.21-.33,3.32,4.94,3.77,5.26,.56Z"/><path class="m" d="M50.88,143.17c4.21-12.25,9.79-24.05,16.74-35.02,1.46-2.28-2.96-5.19-4.48-2.81-7.16,11.31-12.92,23.47-17.25,36.1-.9,2.67,4.13,4.29,5,1.73Z"/><path class="m" d="M74.02,205.19c-.4-10.63,.37-21.26,2.28-31.58,.37-2.16-4.81-3.25-5.2-.97-1.99,10.72-2.78,21.75-2.37,32.76,.04,2.33,5.32,2.01,5.29-.21Z"/><path class="f" d="M99.8,29.23c12.83-8.56,26.59-15.7,40.99-21.22,2.99-1.18,1.22-6.17-1.89-4.94-14.77,5.67-28.89,12.99-42.05,21.78-2.74,1.9,.3,6.23,2.95,4.39Z"/><path class="m" d="M259.91,296.99c-14.63,6.77-30.5,10.49-47.03,10.2-1.71-.06-1.88,5.23-.05,5.29,17.32,.3,34-3.59,49.35-10.71,1.63-.75-.73-5.48-2.26-4.78Z"/><path class="m" d="M275.29,243.14c-2.45,3.42-5.17,6.66-8.14,9.67-3.01,2.98-6.27,5.68-9.69,8.12-3.43,2.43-7.01,4.61-10.74,6.42-3.75,1.77-7.62,3.24-11.57,4.4-1.11,.31,.25,5.42,1.48,5.08,4.24-1.25,8.38-2.82,12.4-4.72,4-1.94,7.83-4.28,11.5-6.87,3.66-2.61,7.15-5.5,10.36-8.68,3.17-3.22,6.09-6.69,8.71-10.34,.75-1.05-3.62-4.04-4.3-3.08Z"/><path class="f" d="M251.62,220.02c-3.86,7.13-10.25,13.46-17.39,17.28-7.13,3.86-14.86,5.47-23.75,4.84-2.34-.2-4.6-.44-6.74-1.05-.64-.1-2,5.01-1.25,5.14,18.64,4.51,37.68-2.15,49.47-17.22,1.58-2.07,3.1-4.18,4.3-6.45,.37-.67-4.32-3.12-4.63-2.55Z"/><path class="m" d="M176.53,220.21c-3.93-7.13-5.67-14.74-5.18-23.65,.53-8.34,3.23-15.72,8.23-22.48,1.43-1.84,2.99-3.59,4.65-5.24,.5-.46-3.11-4.33-3.69-3.8-6.79,6.59-11.4,14.87-13.36,23.55-.36,1.07-.38,2.23-.69,3.32-.01,1.16-.4,2.26-.36,3.46-.32,2.31-.14,4.83-.1,7.2,.1,2.38,.54,4.62,.86,6.86,.55,2.18,1.1,4.35,1.84,6.47,.9,2.34,1.95,4.64,3.17,6.89,.4,.66,4.97-2.02,4.62-2.58Z"/><path class="m" d="M208.34,191.74c2.28-1.49,3.37-1.84,6.88-1.78,.49,.15,.92,.17,1.32,.24,.37,.18,.75,.26,1.15,.38,.36,.23,.74,.42,1.19,.61,.38,.3,.78,.61,1.22,.9,1.67,1.42,2.77,3.27,3.15,4.69,.22,.32,.09,.73,.28,1.12-.08,.23,.13,.42,.04,.69-.02,.13,.11,.23,.06,.38-.04,.15-.04,.29,0,.43,.06,.19,5.35,.24,5.29-.06,.04-2.31-.4-3.74-1.02-5.33-.63-1.55-1.66-3.19-3.04-4.65-2.27-2.37-4.89-3.79-7.41-4.33-.67-.11-1.34-.35-2.18-.3-.19-.06-.4-.09-.63-.04-.22,.03-.44-.05-.67-.06-.44,.13-.91-.04-1.29,.1-.43-.08-.76,.16-1.15,.07-.32,.2-.71,.05-1.01,.25-.36-.02-.63,.23-.98,.21-.27,.23-.65,.15-.92,.38-1.17,.36-2.26,1.13-3.45,1.89-.18,.2,3.09,4.36,3.18,4.23Z"/><path class="m" d="M115.98,154.94c8.45-18.64,22.66-35.02,40.04-46.12,17.4-11.17,37.48-17,58.42-16.97,5.88,.03,11.64,.59,17.33,1.47,1.65,.31,2.63-4.89,.86-5.22-5.33-.8-10.71-1.47-16.2-1.47-2.74-.2-5.47,.1-8.21,.06-2.7,.31-5.44,.28-8.1,.75-10.74,1.25-21.14,4.15-31.01,8.39-19.73,8.5-37.15,23.07-49.15,41.09-3.4,5.02-6.25,10.36-8.78,15.82-.74,1.63,4.12,3.72,4.81,2.2Z"/><path class="i" d="M158.85,148.4c9.92-10.72,22.8-18.34,36.5-21.81,3.46-.82,6.97-1.44,10.56-1.88,3.6-.22,7.32-.59,11.02-.33,3.67,.18,7.29,.44,10.78,1.18,1.79,.19,3.47,.8,5.23,1.08,1.67,.6,3.44,.89,5.08,1.57,3.76,1.26,7.47,2.75,10.98,4.69,1.05,.5,3.63-4.13,2.47-4.68-13.53-7.14-28.81-10.32-44.72-8.87-15.39,1.36-29.87,7.06-42.16,16.65-3.41,2.67-6.7,5.56-9.61,8.8-.92,.92,3.04,4.44,3.88,3.6Z"/><path class="i" d="M218.26,274.66c-8.66,.34-17.13-.43-25-2.8-3.96-1.15-7.85-2.54-11.59-4.34-3.73-1.83-7.33-3.95-10.78-6.36-.96-.68-4.1,3.58-3.04,4.33,3.68,2.58,7.54,4.85,11.54,6.8,4.01,1.93,8.18,3.43,12.42,4.65,8.45,2.53,17.51,3.36,26.74,2.99,1.3-.13,.9-5.41-.29-5.28Z"/><path class="l" d="M116.82,246.05c-5.05-10.8-8.49-22.26-9.78-34.19-.64-5.96-.83-12.07-.58-18.14,.35-6.04,1.2-11.96,2.47-17.78,.38-1.63-4.76-2.89-5.16-1.15-1.33,6.1-2.22,12.32-2.59,18.65-.27,6.36-.07,12.76,.6,19.01,1.36,12.51,4.96,24.56,10.27,35.89,.83,1.59,5.55-.8,4.77-2.29Z"/><path class="m" d="M142.53,223.08c-1.27-3.92-2.24-7.93-2.92-12.05-.59-4.12-.83-8.39-.8-12.71-.01-4.33,.47-8.5,1.23-12.58,.76-4.08,1.79-8.07,3.19-11.96,.44-1.07-4.49-2.99-4.97-1.81-1.5,4.16-2.6,8.45-3.42,12.81-.82,4.37-1.33,8.84-1.32,13.46-.03,4.6,.22,9.16,.86,13.58,.72,4.4,1.76,8.7,3.12,12.91,.41,1.2,5.4-.56,5.03-1.65Z"/><path class="m" d="M218.15,156.95c4.8,.51,9.23,1.55,13.46,3.57,2.12,.97,4.2,2.1,6.2,3.41,1.97,1.38,3.85,2.91,5.62,4.59,.49,.46,4.22-3.3,3.64-3.84-1.98-1.87-4.09-3.6-6.3-5.14-2.25-1.48-4.59-2.75-6.97-3.84-4.76-2.26-9.78-3.46-15.16-4.02-.79-.03-1.16,5.24-.48,5.27Z"/><path class="m" d="M188.41,304.15c-7.83-1.84-15.41-4.65-22.6-8.31-1.49-.77-3.97,3.9-2.38,4.73,7.55,3.84,15.51,6.79,23.73,8.73,1.74,.39,2.88-4.77,1.25-5.14Z"/><path class="m" d="M152.23,287.71c-6.62-4.69-12.82-10.07-18.26-16.13-1.09-1.29-5.1,2.16-3.93,3.54,5.7,6.36,12.2,12,19.14,16.92,1.46,1.06,4.41-3.33,3.04-4.33Z"/><path class="m" d="M158.08,249.85c-3.79-4.28-7.12-8.94-9.89-13.85-.61-1-5.29,1.48-4.62,2.58,2.96,5.26,6.52,10.24,10.58,14.82,.88,.95,4.74-2.67,3.93-3.54Z"/><path class="f" d="M194.69,161.35c2.84-1.42,5.72-2.64,8.77-3.33,.63-.11-.54-5.27-1.28-5.13-3.44,.78-6.7,2.15-9.9,3.75-.69,.34,1.82,5,2.41,4.71Z"/><path class="m" d="M194.94,237.85c-2.82-1.44-5.57-3.19-8.12-5.25-.48-.48-3.94,3.53-3.37,4.08,2.86,2.32,5.94,4.28,9.12,5.9,.67,.38,2.94-4.4,2.38-4.73Z"/></g><g><path class="m" d="M145.16,6.31c0,3.48-2.82,6.31-6.31,6.31s-6.31-2.82-6.31-6.31,2.82-6.31,6.31-6.31,6.31,2.82,6.31,6.31Z"/><path class="m" d="M104.24,26.82c0,3.48-2.82,6.31-6.31,6.31s-6.31-2.82-6.31-6.31,2.82-6.31,6.31-6.31,6.31,2.82,6.31,6.31Z"/><circle class="e" cx="18.92" cy="129.2" r="6.31" transform="translate(-111.3 138.84) rotate(-85.91)"/><path class="e" d="M12.61,178.68c0,3.48-2.82,6.31-6.31,6.31s-6.31-2.82-6.31-6.31,2.82-6.31,6.31-6.31,6.31,2.82,6.31,6.31Z"/><path class="m" d="M94.41,321.43c0,3.48-2.82,6.31-6.31,6.31s-6.31-2.82-6.31-6.31,2.82-6.31,6.31-6.31,6.31,2.82,6.31,6.31Z"/><path class="m" d="M202.24,372.97c0,3.48-2.82,6.31-6.31,6.31s-6.31-2.82-6.31-6.31,2.82-6.31,6.31-6.31,6.31,2.82,6.31,6.31Z"/><path class="d" d="M176.08,262.85c0,3.48-2.82,6.31-6.31,6.31s-6.31-2.82-6.31-6.31,2.82-6.31,6.31-6.31,6.31,2.82,6.31,6.31Z"/><path class="m" d="M227.26,276.85c0,3.48-2.82,6.31-6.31,6.31s-6.31-2.82-6.31-6.31,2.82-6.31,6.31-6.31,6.31,2.82,6.31,6.31Z"/><path class="m" d="M119.61,152.89c0,3.48-2.82,6.31-6.31,6.31s-6.31-2.82-6.31-6.31,2.82-6.31,6.31-6.31,6.31,2.82,6.31,6.31Z"/><path class="d" d="M97.94,366.67c0,3.48-2.82,6.31-6.31,6.31s-6.31-2.82-6.31-6.31,2.82-6.31,6.31-6.31,6.31,2.82,6.31,6.31Z"/><path class="d" d="M45.79,181.28c0,3.48-2.82,6.31-6.31,6.31s-6.31-2.82-6.31-6.31,2.82-6.31,6.31-6.31,6.31,2.82,6.31,6.31Z"/><path class="d" d="M91.63,81.28c0,3.48-2.82,6.31-6.31,6.31s-6.31-2.82-6.31-6.31,2.82-6.31,6.31-6.31,6.31,2.82,6.31,6.31Z"/><path class="m" d="M238.77,90.05c0,3.48-2.82,6.31-6.31,6.31s-6.31-2.82-6.31-6.31,2.82-6.31,6.31-6.31,6.31,2.82,6.31,6.31Z"/></g></g><g><path class="m" d="M469.13,137.62v36.65c.36,3.37,3.33,5.38,8.89,6.02l-.41,6.56c-7.02,0-12.17-1.82-15.46-5.47-8.57,3.74-17.14,5.61-25.71,5.61-6.11,0-10.76-1.75-13.95-5.27-3.19-3.51-4.79-8.52-4.79-15.04s1.62-11.35,4.86-14.5c3.24-3.15,8.32-5.08,15.25-5.81l23.25-2.32v-6.43c0-5.1-1.12-8.77-3.35-11.01-2.24-2.23-5.22-3.35-8.96-3.35-5.84,0-13.4,.55-22.7,1.64l-4.24,.41-.41-6.56c10.03-1.91,18.81-2.87,26.33-2.87s12.97,1.78,16.34,5.33c3.37,3.56,5.06,9.03,5.06,16.41Zm-42.94,28.58c0,9.21,3.78,13.81,11.35,13.81,3.28,0,6.88-.39,10.8-1.16,3.92-.77,7.02-1.57,9.3-2.39l3.42-1.23v-24.75l-22.29,2.33c-4.47,.37-7.68,1.64-9.64,3.83-1.96,2.19-2.94,5.38-2.94,9.57Z"/><path class="m" d="M551.87,185.63V117.25h8.07v9.85c3.37-2.37,7.5-4.65,12.38-6.84,4.88-2.19,9.37-3.65,13.47-4.38v8.21c-3.92,.82-8.02,2.07-12.31,3.76-4.29,1.69-7.61,3.17-9.98,4.44l-3.56,2.05v51.29h-8.07Z"/><path class="m" d="M703.27,178.79l4.1-.41,.27,6.7c-10.3,1.28-19.01,1.91-26.12,1.91-9.85-.09-16.73-3.01-20.65-8.75-3.92-5.74-5.88-14.59-5.88-26.53,0-23.89,9.39-35.83,28.17-35.83,9.03,0,15.77,2.58,20.24,7.73,4.47,5.15,6.7,13.38,6.7,24.69l-.27,6.56h-46.5c0,8.39,1.44,14.61,4.31,18.67,2.87,4.06,7.79,6.09,14.77,6.09s13.93-.27,20.86-.82Zm-39.94-30.77h38.57c0-9.03-1.48-15.45-4.45-19.28-2.96-3.83-7.71-5.74-14.22-5.74s-11.47,1.98-14.84,5.95c-3.37,3.97-5.06,10.33-5.06,19.08Z"/></g><g><path class="m" d="M352.12,222.2v4.2c.03,.41,.35,.65,.95,.72l-.05,.97c-.86,0-1.52-.22-1.95-.66-.98,.44-1.97,.66-2.95,.66-.75,0-1.33-.21-1.72-.64-.39-.43-.59-1.04-.59-1.84s.2-1.39,.61-1.76c.4-.38,1.04-.61,1.9-.7l2.58-.25v-.71c0-.56-.12-.96-.36-1.2-.24-.24-.57-.36-.98-.36-.88,0-1.78,.05-2.72,.16l-.51,.05-.05-.94c1.2-.24,2.27-.36,3.2-.36s1.61,.21,2.03,.64c.42,.43,.63,1.09,.63,2Zm-5.05,3.35c0,1.01,.42,1.51,1.25,1.51,.74,0,1.48-.12,2.2-.38l.38-.13v-2.71l-2.43,.23c-.49,.04-.85,.19-1.07,.43-.22,.24-.33,.59-.33,1.05Z"/><path class="m" d="M367.38,219.72h1.23v8.21h-1.23v-.57c-.82,.49-1.63,.74-2.43,.74-1.12,0-1.86-.29-2.22-.87-.37-.58-.55-1.65-.55-3.22v-4.28h1.23v4.27c0,1.19,.1,1.99,.31,2.4,.21,.41,.68,.61,1.41,.61,.36,0,.73-.05,1.1-.16,.37-.1,.66-.21,.85-.3l.3-.15v-6.66Z"/><path class="m" d="M381.26,220.66c-1.19,0-1.79,.42-1.79,1.25,0,.38,.14,.65,.41,.81,.27,.16,.9,.32,1.87,.49,.97,.17,1.66,.41,2.07,.71,.4,.31,.61,.88,.61,1.72s-.27,1.46-.81,1.85-1.33,.59-2.37,.59c-.68,0-1.48-.08-2.4-.23l-.49-.08,.07-1.07c1.25,.19,2.19,.28,2.82,.28s1.12-.1,1.45-.3c.33-.2,.5-.54,.5-1.02s-.14-.8-.43-.97-.91-.33-1.87-.48c-.96-.15-1.65-.38-2.05-.67-.4-.3-.61-.84-.61-1.64s.28-1.39,.84-1.77c.56-.38,1.27-.57,2.11-.57,.67,0,1.5,.08,2.51,.23l.46,.08-.03,1.05c-1.21-.17-2.17-.26-2.87-.26Z"/><path class="m" d="M398.28,220.79h-2.61v3.92c0,.94,.07,1.56,.21,1.85,.14,.3,.46,.44,.98,.44l1.46-.1,.08,1.02c-.73,.12-1.29,.18-1.67,.18-.85,0-1.44-.21-1.77-.62-.33-.42-.49-1.21-.49-2.38v-4.32h-1.17v-1.07h1.17v-2.51h1.21v2.51h2.61v1.07Z"/><path class="m" d="M407.5,227.93v-8.21h1.21v1.12c.95-.66,1.95-1.09,3-1.3v1.25c-.46,.09-.94,.22-1.44,.41-.5,.19-.88,.35-1.14,.49l-.41,.21v6.02h-1.23Z"/><path class="m" d="M426.69,222.2v4.2c.03,.41,.35,.65,.95,.72l-.05,.97c-.86,0-1.52-.22-1.95-.66-.99,.44-1.97,.66-2.95,.66-.75,0-1.33-.21-1.72-.64-.39-.43-.59-1.04-.59-1.84s.2-1.39,.61-1.76c.4-.38,1.04-.61,1.9-.7l2.58-.25v-.71c0-.56-.12-.96-.36-1.2s-.57-.36-.98-.36c-.88,0-1.78,.05-2.72,.16l-.51,.05-.05-.94c1.2-.24,2.27-.36,3.2-.36s1.61,.21,2.03,.64c.42,.43,.63,1.09,.63,2Zm-5.05,3.35c0,1.01,.42,1.51,1.25,1.51,.74,0,1.48-.12,2.2-.38l.38-.13v-2.71l-2.43,.23c-.49,.04-.85,.19-1.07,.43-.22,.24-.33,.59-.33,1.05Z"/><path class="m" d="M436.93,227.93v-11.78h1.23v11.78h-1.23Z"/><path class="m" d="M448.34,217.87v-1.43h1.23v1.43h-1.23Zm0,10.06v-8.21h1.23v8.21h-1.23Z"/><path class="m" d="M465.44,222.2v4.2c.03,.41,.35,.65,.95,.72l-.05,.97c-.86,0-1.52-.22-1.95-.66-.99,.44-1.97,.66-2.95,.66-.75,0-1.33-.21-1.72-.64-.39-.43-.59-1.04-.59-1.84s.2-1.39,.61-1.76c.4-.38,1.04-.61,1.9-.7l2.58-.25v-.71c0-.56-.12-.96-.36-1.2s-.57-.36-.98-.36c-.88,0-1.78,.05-2.72,.16l-.51,.05-.05-.94c1.2-.24,2.27-.36,3.2-.36s1.61,.21,2.03,.64c.42,.43,.63,1.09,.63,2Zm-5.05,3.35c0,1.01,.42,1.51,1.25,1.51,.74,0,1.48-.12,2.2-.38l.38-.13v-2.71l-2.43,.23c-.49,.04-.85,.19-1.07,.43-.22,.24-.33,.59-.33,1.05Z"/><path class="m" d="M476.81,227.93h-1.23v-8.21h1.21v.57c.89-.49,1.73-.74,2.54-.74,1.09,0,1.83,.3,2.21,.89,.38,.59,.57,1.64,.57,3.15v4.33h-1.21v-4.3c0-1.14-.11-1.92-.34-2.34-.22-.42-.7-.63-1.44-.63-.35,0-.72,.05-1.11,.16-.39,.1-.69,.21-.89,.3l-.31,.15v6.66Z"/><path class="m" d="M503.43,227.93v-8.21h1.21v1.12c.95-.66,1.95-1.09,3-1.3v1.25c-.46,.09-.94,.22-1.44,.41-.5,.19-.88,.35-1.14,.49l-.41,.21v6.02h-1.23Z"/><path class="m" d="M522.24,226.91l.48-.05,.03,.97c-1.25,.17-2.31,.26-3.2,.26-1.18,0-2.02-.34-2.51-1.03-.49-.68-.74-1.75-.74-3.19,0-2.88,1.14-4.32,3.43-4.32,1.1,0,1.93,.31,2.48,.93s.82,1.59,.82,2.91l-.07,.94h-5.42c0,.91,.16,1.58,.49,2.02s.9,.66,1.71,.66,1.64-.03,2.49-.1Zm-.44-3.56c0-1.01-.16-1.72-.48-2.13-.32-.42-.85-.62-1.58-.62s-1.27,.22-1.64,.66c-.37,.44-.55,1.14-.57,2.1h4.27Z"/><path class="m" d="M535.24,220.66c-1.19,0-1.79,.42-1.79,1.25,0,.38,.14,.65,.41,.81,.27,.16,.9,.32,1.87,.49,.97,.17,1.66,.41,2.07,.71,.41,.31,.61,.88,.61,1.72s-.27,1.46-.81,1.85c-.54,.39-1.33,.59-2.37,.59-.68,0-1.48-.08-2.4-.23l-.49-.08,.07-1.07c1.25,.19,2.19,.28,2.82,.28s1.12-.1,1.45-.3c.33-.2,.5-.54,.5-1.02s-.14-.8-.43-.97c-.29-.17-.91-.33-1.87-.48s-1.65-.38-2.05-.67c-.41-.3-.61-.84-.61-1.64s.28-1.39,.85-1.77c.56-.38,1.27-.57,2.11-.57,.67,0,1.5,.08,2.51,.23l.46,.08-.03,1.05c-1.21-.17-2.17-.26-2.87-.26Z"/><path class="m" d="M553.58,226.91l.48-.05,.03,.97c-1.25,.17-2.31,.26-3.2,.26-1.18,0-2.02-.34-2.51-1.03-.49-.68-.74-1.75-.74-3.19,0-2.88,1.14-4.32,3.43-4.32,1.1,0,1.93,.31,2.48,.93s.82,1.59,.82,2.91l-.07,.94h-5.42c0,.91,.16,1.58,.49,2.02s.9,.66,1.71,.66,1.64-.03,2.49-.1Zm-.44-3.56c0-1.01-.16-1.72-.48-2.13-.32-.42-.85-.62-1.58-.62s-1.27,.22-1.64,.66c-.37,.44-.55,1.14-.57,2.1h4.27Z"/><path class="m" d="M569.8,222.2v4.2c.03,.41,.35,.65,.95,.72l-.05,.97c-.86,0-1.52-.22-1.95-.66-.99,.44-1.97,.66-2.95,.66-.75,0-1.33-.21-1.72-.64-.39-.43-.59-1.04-.59-1.84s.2-1.39,.61-1.76c.4-.38,1.04-.61,1.9-.7l2.58-.25v-.71c0-.56-.12-.96-.36-1.2s-.57-.36-.98-.36c-.88,0-1.78,.05-2.72,.16l-.51,.05-.05-.94c1.2-.24,2.27-.36,3.2-.36s1.61,.21,2.03,.64c.42,.43,.63,1.09,.63,2Zm-5.05,3.35c0,1.01,.42,1.51,1.25,1.51,.74,0,1.48-.12,2.2-.38l.38-.13v-2.71l-2.43,.23c-.49,.04-.85,.19-1.07,.43-.22,.24-.33,.59-.33,1.05Z"/><path class="m" d="M579.94,227.93v-8.21h1.21v1.12c.95-.66,1.95-1.09,3-1.3v1.25c-.46,.09-.94,.22-1.44,.41-.5,.19-.88,.35-1.14,.49l-.41,.21v6.02h-1.23Z"/><path class="m" d="M596.24,219.56c.36,0,.97,.07,1.84,.2l.39,.05-.05,1c-.88-.1-1.52-.15-1.94-.15-.93,0-1.56,.22-1.9,.67-.33,.44-.5,1.26-.5,2.46s.16,2.03,.47,2.5c.31,.47,.96,.71,1.95,.71l1.94-.15,.05,1.02c-1.02,.15-1.78,.23-2.28,.23-1.28,0-2.16-.33-2.65-.98-.49-.66-.73-1.76-.73-3.32s.26-2.65,.79-3.28c.53-.63,1.4-.94,2.63-.94Z"/><path class="m" d="M609.27,227.93h-1.23v-11.78h1.23v4.04c.88-.42,1.72-.62,2.53-.62,1.09,0,1.83,.3,2.21,.89,.38,.59,.57,1.64,.57,3.15v4.33h-1.23v-4.3c0-1.14-.11-1.92-.34-2.34-.22-.42-.7-.63-1.42-.63s-1.36,.13-2,.38l-.31,.11v6.78Z"/><path class="m" d="M641.47,226.91l.48-.05,.03,.97c-1.25,.17-2.31,.26-3.2,.26-1.18,0-2.02-.34-2.51-1.03-.49-.68-.74-1.75-.74-3.19,0-2.88,1.14-4.32,3.43-4.32,1.1,0,1.93,.31,2.48,.93s.82,1.59,.82,2.91l-.07,.94h-5.42c0,.91,.16,1.58,.49,2.02s.9,.66,1.71,.66,1.64-.03,2.49-.1Zm-.44-3.56c0-1.01-.16-1.72-.48-2.13-.32-.42-.85-.62-1.58-.62s-1.27,.22-1.64,.66c-.37,.44-.55,1.14-.57,2.1h4.27Z"/><path class="m" d="M653.12,227.93h-1.23v-8.21h1.21v.57c.89-.49,1.73-.74,2.54-.74,1.09,0,1.83,.3,2.21,.89,.38,.59,.57,1.64,.57,3.15v4.33h-1.21v-4.3c0-1.14-.11-1.92-.34-2.34-.22-.42-.7-.63-1.44-.63-.35,0-.72,.05-1.11,.16-.39,.1-.69,.21-.89,.3l-.31,.15v6.66Z"/><path class="m" d="M667.56,219.72h1.31l1.92,7.14h.61l1.99-7.14h1.26l-2.31,8.21h-2.46l-2.31-8.21Z"/><path class="m" d="M683.94,217.87v-1.43h1.23v1.43h-1.23Zm0,10.06v-8.21h1.23v8.21h-1.23Z"/><path class="m" d="M695.25,227.93v-8.21h1.21v1.12c.95-.66,1.95-1.09,3-1.3v1.25c-.46,.09-.94,.22-1.44,.41-.5,.19-.88,.35-1.14,.49l-.41,.21v6.02h-1.23Z"/><path class="m" d="M708.12,223.81c0-1.5,.27-2.58,.8-3.25,.54-.67,1.44-1,2.72-1s2.18,.33,2.71,1c.53,.67,.8,1.75,.8,3.25s-.25,2.59-.75,3.27c-.5,.68-1.42,1.02-2.76,1.02s-2.25-.34-2.76-1.02c-.5-.68-.75-1.77-.75-3.27Zm1.26-.02c0,1.2,.15,2.04,.44,2.52,.29,.48,.9,.72,1.82,.72s1.53-.24,1.81-.71c.28-.48,.43-1.32,.43-2.52s-.16-2.03-.48-2.49-.91-.68-1.76-.68-1.45,.23-1.77,.68c-.32,.45-.48,1.28-.48,2.48Z"/><path class="m" d="M726.09,227.93h-1.23v-8.21h1.21v.57c.89-.49,1.73-.74,2.54-.74,1.09,0,1.83,.3,2.21,.89,.38,.59,.57,1.64,.57,3.15v4.33h-1.21v-4.3c0-1.14-.11-1.92-.34-2.34-.22-.42-.7-.63-1.44-.63-.35,0-.72,.05-1.11,.16-.39,.1-.69,.21-.89,.3l-.31,.15v6.66Z"/><path class="m" d="M742.61,227.93h-1.23v-8.21h1.21v.57c.82-.49,1.62-.74,2.4-.74,1.02,0,1.73,.28,2.13,.84,.36-.22,.83-.41,1.4-.58,.57-.17,1.08-.25,1.52-.25,1.09,0,1.83,.29,2.21,.88,.38,.59,.57,1.64,.57,3.16v4.33h-1.23v-4.3c0-1.14-.11-1.92-.33-2.34-.22-.42-.68-.63-1.39-.63-.36,0-.73,.05-1.12,.16-.38,.1-.68,.21-.89,.3l-.31,.15c.14,.36,.21,1.16,.21,2.4v4.27h-1.23v-4.23c0-1.18-.11-1.98-.32-2.4-.21-.42-.68-.63-1.4-.63-.35,0-.71,.05-1.07,.16-.37,.1-.65,.21-.85,.3l-.28,.15v6.66Z"/><path class="m" d="M768.39,226.91l.48-.05,.03,.97c-1.25,.17-2.31,.26-3.2,.26-1.18,0-2.02-.34-2.51-1.03-.49-.68-.74-1.75-.74-3.19,0-2.88,1.14-4.32,3.43-4.32,1.1,0,1.93,.31,2.48,.93s.82,1.59,.82,2.91l-.07,.94h-5.42c0,.91,.16,1.58,.49,2.02s.9,.66,1.71,.66,1.64-.03,2.49-.1Zm-.44-3.56c0-1.01-.16-1.72-.48-2.13-.32-.42-.85-.62-1.58-.62s-1.27,.22-1.64,.66c-.37,.44-.55,1.14-.57,2.1h4.27Z"/><path class="m" d="M780.05,227.93h-1.23v-8.21h1.21v.57c.89-.49,1.73-.74,2.54-.74,1.09,0,1.83,.3,2.21,.89,.38,.59,.57,1.64,.57,3.15v4.33h-1.21v-4.3c0-1.14-.11-1.92-.34-2.34-.22-.42-.7-.63-1.44-.63-.35,0-.72,.05-1.11,.16-.39,.1-.69,.21-.89,.3l-.31,.15v6.66Z"/><path class="m" d="M799.54,220.79h-2.61v3.92c0,.94,.07,1.56,.21,1.85,.14,.3,.46,.44,.98,.44l1.46-.1,.08,1.02c-.73,.12-1.29,.18-1.67,.18-.85,0-1.44-.21-1.77-.62-.33-.42-.49-1.21-.49-2.38v-4.32h-1.17v-1.07h1.17v-2.51h1.21v2.51h2.61v1.07Z"/></g><g><path class="k" d="M481.26,276.3c0,1.46-1.17,2.65-2.63,2.65-1.46,0-2.65-1.17-2.65-2.63,0-1.46,1.17-2.65,2.63-2.65,1.46,0,2.65,1.18,2.65,2.64"/><g class="g"><path class="k" d="M492.68,266.96c0,1.46-1.17,2.65-2.63,2.65-1.46,0-2.65-1.17-2.65-2.63,0-1.46,1.17-2.65,2.63-2.65,1.46,0,2.65,1.18,2.65,2.63"/><path class="k" d="M507.69,265.99c0,1.46-1.17,2.65-2.63,2.65-1.46,0-2.65-1.17-2.65-2.63,0-1.46,1.17-2.65,2.63-2.65,1.46,0,2.65,1.18,2.65,2.63"/></g><path class="k" d="M520.19,273.98c0,1.46-1.17,2.65-2.63,2.65-1.46,0-2.65-1.17-2.65-2.63,0-1.46,1.18-2.65,2.63-2.65,1.46,0,2.64,1.17,2.65,2.63"/><path class="k" d="M525.53,287.84c0,1.46-1.17,2.65-2.63,2.65-1.46,0-2.65-1.17-2.65-2.63,0-1.46,1.18-2.65,2.63-2.65,1.46,0,2.64,1.18,2.65,2.64"/><path class="k" d="M521.85,302.23c0,1.46-1.17,2.65-2.63,2.65-1.46,0-2.65-1.18-2.65-2.64,0-1.46,1.17-2.65,2.63-2.65,1.46,0,2.65,1.17,2.65,2.63"/><path class="k" d="M510.47,311.71c0,1.46-1.18,2.65-2.63,2.65-1.46,0-2.65-1.18-2.65-2.64,0-1.46,1.17-2.64,2.63-2.65,1.46,0,2.65,1.17,2.65,2.63"/><path class="k" d="M495.53,312.48c0,1.46-1.17,2.65-2.63,2.65-1.46,0-2.65-1.18-2.65-2.63,0-1.46,1.17-2.64,2.63-2.65,1.46,0,2.65,1.17,2.65,2.63"/><g class="h"><path class="k" d="M483.09,304.63c0,1.46-1.17,2.65-2.63,2.65-1.46,0-2.65-1.17-2.65-2.63,0-1.46,1.17-2.64,2.63-2.65,1.46,0,2.65,1.17,2.65,2.63"/><path class="k" d="M477.62,290.62c0,1.46-1.17,2.65-2.63,2.65-1.46,0-2.65-1.18-2.65-2.63,0-1.46,1.17-2.65,2.63-2.65,1.46,0,2.65,1.17,2.65,2.63"/></g><path class="k" d="M490.45,274.15c0,1.27-1.02,2.3-2.28,2.3-1.26,0-2.29-1.02-2.3-2.28,0-1.27,1.02-2.29,2.28-2.3,1.27,0,2.29,1.02,2.3,2.28"/><path class="k" d="M483.51,283.42c0,1.26-1.02,2.29-2.28,2.3-1.27,0-2.29-1.02-2.3-2.28,0-1.27,1.02-2.3,2.28-2.3,1.26,0,2.29,1.02,2.3,2.28"/><path class="k" d="M490.14,304.25c0,1.26-1.02,2.29-2.28,2.3-1.26,0-2.29-1.02-2.3-2.28,0-1.27,1.02-2.3,2.28-2.3,1.26,0,2.29,1.02,2.3,2.28"/><path class="k" d="M501.22,307.94c0,1.26-1.02,2.3-2.28,2.3-1.27,0-2.3-1.02-2.3-2.28,0-1.26,1.02-2.3,2.28-2.3,1.26,0,2.29,1.02,2.3,2.28"/><path class="k" d="M511.99,304.38c0,1.27-1.02,2.3-2.28,2.3-1.26,0-2.3-1.02-2.3-2.28,0-1.26,1.02-2.29,2.28-2.3,1.26,0,2.29,1.02,2.3,2.28"/><path class="k" d="M519,294.98c0,1.26-1.02,2.3-2.28,2.3-1.26,0-2.29-1.02-2.3-2.28,0-1.26,1.02-2.29,2.28-2.3,1.26,0,2.3,1.02,2.3,2.28"/><path class="k" d="M519.03,283.63c0,1.27-1.02,2.29-2.28,2.3-1.26,0-2.29-1.02-2.3-2.28,0-1.27,1.02-2.29,2.28-2.3,1.26,0,2.3,1.02,2.3,2.28"/><path class="k" d="M512.23,274.29c0,1.27-1.01,2.29-2.28,2.3-1.27,0-2.3-1.02-2.3-2.28,0-1.26,1.02-2.29,2.28-2.29,1.26,0,2.29,1.01,2.3,2.28"/><path class="k" d="M501.29,270.66c0,1.27-1.02,2.29-2.28,2.3-1.27,0-2.3-1.01-2.3-2.28,0-1.27,1.02-2.29,2.28-2.3,1.26,0,2.29,1.02,2.3,2.28"/><path class="k" d="M483.34,294.83c0,1.27-1.02,2.29-2.28,2.3-1.26,0-2.29-1.02-2.3-2.28,0-1.26,1.02-2.29,2.28-2.3,1.27,0,2.29,1.02,2.3,2.28"/><path class="k" d="M489.87,279.8c0,.97-.78,1.77-1.76,1.77-.97,0-1.76-.78-1.77-1.76,0-.97,.78-1.76,1.76-1.77,.97,0,1.76,.78,1.77,1.75"/><path class="k" d="M486.31,287.84c0,.97-.78,1.77-1.76,1.77-.97,0-1.76-.78-1.77-1.76,0-.97,.78-1.76,1.75-1.77,.97,0,1.76,.78,1.77,1.75"/><path class="k" d="M488.53,296.43c0,.98-.78,1.77-1.75,1.77-.97,0-1.77-.78-1.77-1.76,0-.97,.78-1.76,1.76-1.77,.97,0,1.76,.78,1.77,1.75"/><path class="k" d="M495.17,302.33c0,.97-.78,1.77-1.76,1.77-.97,0-1.76-.78-1.77-1.76,0-.97,.78-1.76,1.76-1.77,.97,0,1.76,.78,1.77,1.75"/><path class="k" d="M503.99,303.28c0,.97-.78,1.76-1.75,1.77-.97,0-1.77-.78-1.77-1.75,0-.97,.78-1.76,1.76-1.77,.97,0,1.76,.78,1.77,1.76"/><path class="k" d="M511.44,298.74c0,.97-.78,1.77-1.76,1.77-.97,0-1.76-.78-1.77-1.75,0-.97,.78-1.77,1.76-1.77,.97,0,1.76,.78,1.77,1.76"/><path class="k" d="M515.08,290.56c0,.97-.78,1.76-1.76,1.77-.97,0-1.76-.78-1.77-1.75,0-.97,.78-1.77,1.76-1.77,.97,0,1.77,.78,1.77,1.76"/><path class="k" d="M512.86,281.97c0,.97-.78,1.77-1.76,1.77-.97,0-1.76-.78-1.77-1.76,0-.97,.78-1.76,1.76-1.77,.97,0,1.77,.78,1.77,1.76"/><path class="k" d="M506.42,276.14c0,.97-.78,1.77-1.76,1.77-.97,0-1.76-.78-1.77-1.76,0-.97,.78-1.77,1.75-1.77,.97,0,1.77,.78,1.77,1.75"/><path class="k" d="M497.61,275.26c0,.97-.78,1.76-1.76,1.77-.97,0-1.76-.78-1.77-1.75,0-.97,.78-1.77,1.76-1.77,.97,0,1.76,.78,1.77,1.75"/><path class="k" d="M495.86,279.85c0,.82-.66,1.48-1.47,1.49-.82,0-1.48-.66-1.48-1.47,0-.82,.66-1.48,1.47-1.49,.82,0,1.48,.66,1.48,1.47"/><path class="k" d="M502.2,278.91c0,.81-.66,1.48-1.48,1.48-.82,0-1.48-.66-1.48-1.47,0-.82,.66-1.48,1.47-1.49,.82,0,1.48,.66,1.49,1.48"/><path class="k" d="M508,281.98c0,.82-.66,1.48-1.48,1.49-.82,0-1.48-.66-1.48-1.47,0-.82,.65-1.48,1.47-1.49,.82,0,1.48,.66,1.49,1.47"/><path class="k" d="M510.84,287.96c0,.82-.66,1.48-1.47,1.49-.82,0-1.48-.66-1.49-1.47,0-.82,.66-1.48,1.48-1.48,.82,0,1.48,.66,1.48,1.47"/><path class="k" d="M509.52,294.24c0,.82-.66,1.48-1.47,1.48-.82,0-1.48-.65-1.49-1.47,0-.81,.66-1.48,1.48-1.48,.82,0,1.48,.66,1.48,1.47"/><path class="k" d="M504.96,298.77c0,.82-.66,1.48-1.47,1.49-.82,0-1.48-.66-1.48-1.47,0-.82,.66-1.48,1.47-1.49,.82,0,1.48,.66,1.49,1.47"/><path class="k" d="M498.33,299.57c0,.82-.66,1.48-1.47,1.48-.82,0-1.48-.65-1.49-1.47,0-.81,.66-1.48,1.47-1.48,.82,0,1.48,.66,1.48,1.47"/><path class="k" d="M492.75,296.41c0,.82-.66,1.48-1.47,1.49-.82,0-1.48-.65-1.49-1.48,0-.81,.66-1.48,1.47-1.48,.82,0,1.48,.66,1.49,1.47"/><path class="k" d="M489.91,290.65c0,.82-.66,1.48-1.47,1.48-.82,0-1.48-.66-1.48-1.47,0-.82,.66-1.48,1.47-1.49,.82,0,1.48,.66,1.49,1.47"/><path class="k" d="M491.16,284.44c0,.82-.66,1.48-1.48,1.48-.82,0-1.48-.66-1.49-1.47,0-.82,.66-1.48,1.48-1.48,.82,0,1.48,.66,1.49,1.48"/><path class="k" d="M495.25,284.08c0,.62-.5,1.13-1.12,1.13-.62,0-1.13-.5-1.13-1.12,0-.62,.5-1.13,1.12-1.13,.62,0,1.13,.5,1.13,1.12"/><path class="k" d="M493.01,287.96c0,.62-.5,1.13-1.12,1.13-.62,0-1.13-.5-1.13-1.12,0-.62,.5-1.13,1.12-1.13,.62,0,1.13,.5,1.13,1.13"/><path class="k" d="M493.65,292.33c0,.62-.5,1.13-1.12,1.13-.62,0-1.13-.5-1.13-1.12,0-.62,.5-1.13,1.12-1.13,.62,0,1.13,.5,1.13,1.12"/><path class="k" d="M496.7,295.42c0,.62-.5,1.13-1.12,1.13-.62,0-1.13-.5-1.13-1.12,0-.62,.5-1.13,1.12-1.13,.62,0,1.13,.5,1.13,1.13"/><path class="k" d="M500.93,296.25c0,.62-.5,1.13-1.12,1.13-.62,0-1.13-.5-1.13-1.12,0-.62,.5-1.13,1.12-1.13,.62,0,1.13,.5,1.13,1.12"/><path class="k" d="M504.94,294.4c0,.62-.5,1.13-1.12,1.13-.62,0-1.13-.5-1.13-1.12,0-.62,.5-1.13,1.12-1.13,.62,0,1.13,.5,1.13,1.12"/><path class="k" d="M507.04,290.59c0,.62-.5,1.13-1.12,1.13-.62,0-1.13-.5-1.13-1.13,0-.62,.5-1.13,1.12-1.13,.62,0,1.13,.5,1.13,1.12"/><path class="k" d="M506.46,286.15c0,.62-.5,1.13-1.12,1.13-.62,0-1.13-.5-1.13-1.12,0-.62,.5-1.13,1.12-1.13,.62,0,1.13,.5,1.13,1.12"/><path class="k" d="M503.35,283.06c0,.62-.5,1.13-1.12,1.13-.62,0-1.13-.5-1.13-1.13,0-.62,.5-1.13,1.12-1.13,.62,0,1.13,.5,1.13,1.13"/><path class="k" d="M499.19,282.37c0,.62-.5,1.13-1.12,1.13-.62,0-1.13-.5-1.13-1.13,0-.62,.5-1.13,1.12-1.13,.62,0,1.13,.5,1.13,1.12"/><polygon class="m" points="556.3 308.52 541.03 284.86 541.03 308.52 533.51 308.52 533.51 269.97 540.22 269.97 555.49 293.57 555.49 269.97 563.02 269.97 563.02 308.52 556.3 308.52 556.3 308.52"/><path class="m" d="M581.64,308.84c-4.22,0-7.69-1.52-10.4-4.22-3.9-3.9-3.79-8.72-3.79-15.38s-.11-11.48,3.79-15.38c2.71-2.71,6.17-4.22,10.4-4.22,7.2,0,12.83,4.11,14.18,12.18h-7.63c-.76-3.09-2.71-5.47-6.5-5.47-2.06,0-3.74,.76-4.82,2-1.46,1.62-1.9,3.47-1.9,10.88s.43,9.26,1.9,10.88c1.08,1.24,2.76,2,4.82,2,3.79,0,5.74-2.38,6.5-5.47h7.63c-1.35,8.07-7.04,12.18-14.18,12.18h0Z"/><polygon class="m" points="600.16 308.52 600.16 269.97 607.68 269.97 607.68 308.52 600.16 308.52 600.16 308.52"/><path class="m" d="M538.34,317.73l-1.3-4.11-1.31,4.11h2.62Zm-1.81-4.6h1.03l2.58,7.78h-.79l-.82-2.55h-3.02l-.82,2.55h-.74l2.58-7.78h0Z"/><path class="m" d="M546.5,320.41c1.39,0,2.17-.73,2.17-2.05v-5.24h.77v5.24c0,1.72-1.03,2.67-2.94,2.67s-2.95-.95-2.95-2.67v-5.24h.77v5.24c0,1.31,.78,2.05,2.18,2.05h0Z"/><path class="m" d="M553.99,318.79c.45,1.1,1.12,1.63,2.14,1.63s1.74-.61,1.74-1.51c0-.75-.41-1.16-1.37-1.53-.9-.34-1.6-.5-1.94-.69-.75-.41-1.1-.84-1.1-1.61,0-1.29,.89-2.08,2.37-2.08,1.31,0,2.15,.6,2.59,1.85l-.65,.19c-.4-.96-1.03-1.42-1.98-1.42s-1.54,.57-1.54,1.35c0,.61,.37,1.01,1.13,1.27,.99,.33,1.76,.54,2.22,.83,.73,.45,1.07,.97,1.07,1.74,0,1.35-.96,2.23-2.54,2.23-1.39,0-2.27-.63-2.8-1.99l.66-.26h0Z"/><polygon class="m" points="564.11 313.75 561.66 313.75 561.66 313.13 567.32 313.13 567.32 313.75 564.88 313.75 564.88 320.91 564.11 320.91 564.11 313.75 564.11 313.75"/><path class="m" d="M571.78,313.75v3.01h1.86c1.18,0,1.82-.55,1.82-1.51,0-1.02-.67-1.5-2.05-1.5h-1.63Zm4.48,1.49c0,1.06-.55,1.74-1.65,2.03l1.99,3.64h-.87l-1.92-3.54h-2.03v3.54h-.77v-7.78h2.3c1.95,0,2.95,.71,2.95,2.11h0Z"/><path class="m" d="M584.02,317.73l-1.3-4.11-1.31,4.11h2.62Zm-1.81-4.6h1.03l2.58,7.78h-.79l-.82-2.55h-3.02l-.82,2.55h-.74l2.58-7.78h0Z"/><polygon class="m" points="589.56 313.13 590.32 313.13 590.32 320.28 594.02 320.28 594.02 320.91 589.56 320.91 589.56 313.13 589.56 313.13"/><polygon class="m" points="597.67 313.13 598.44 313.13 598.44 320.91 597.67 320.91 597.67 313.13 597.67 313.13"/><path class="m" d="M606.57,317.73l-1.3-4.11-1.31,4.11h2.62Zm-1.81-4.6h1.03l2.58,7.78h-.79l-.82-2.55h-3.02l-.82,2.55h-.74l2.58-7.78h0Z"/></g></svg>