<?xml version="1.0" encoding="UTF-8" standalone="no"?>
<!-- Generator: Adobe Illustrator 22.1.0, SVG Export Plug-In . SVG Version: 6.00 Build 0)  -->

<svg
   version="1.1"
   id="Layer_1"
   x="0px"
   y="0px"
   viewBox="0 0 530.00001 529.99998"
   xml:space="preserve"
   sodipodi:docname="csiro_logo.svg"
   inkscape:version="1.2.1 (9c6d41e410, 2022-07-14, custom)"
   width="530"
   height="530"
   xmlns:inkscape="http://www.inkscape.org/namespaces/inkscape"
   xmlns:sodipodi="http://sodipodi.sourceforge.net/DTD/sodipodi-0.dtd"
   xmlns="http://www.w3.org/2000/svg"
   xmlns:svg="http://www.w3.org/2000/svg"><defs
   id="defs37" /><sodipodi:namedview
   id="namedview35"
   pagecolor="#ffffff"
   bordercolor="#000000"
   borderopacity="0.25"
   inkscape:showpageshadow="2"
   inkscape:pageopacity="0.0"
   inkscape:pagecheckerboard="true"
   inkscape:deskcolor="#d1d1d1"
   showgrid="false"
   inkscape:zoom="0.99655538"
   inkscape:cx="267.42116"
   inkscape:cy="264.91252"
   inkscape:window-width="1920"
   inkscape:window-height="1043"
   inkscape:window-x="3840"
   inkscape:window-y="0"
   inkscape:window-maximized="1"
   inkscape:current-layer="Layer_1" />
<style
   type="text/css"
   id="style2">
	.st0{fill:#00A1D4;}
	.st1{fill:#FFFFFF;}
</style>
<path
   class="st0"
   d="M 530,265 C 530,411.4 411.4,530 265,530 118.6,530 0,411.3 0,265 0,118.7 118.6,0 265,0 411.4,0 530,118.6 530,265 Z"
   id="path4"
   style="fill:#ffffff" />
<g
   id="g16"
   style="fill:#000000"
   transform="translate(-32,-155.7)">
	<path
   class="st1"
   d="m 148.3,560.7 c -24.1,0 -42,-18.6 -42,-42.2 v -0.2 c 0,-23.3 17.6,-42.4 42.7,-42.4 15.5,0 24.7,5.2 32.3,12.7 l -11.5,13.2 c -6.3,-5.7 -12.8,-9.2 -21,-9.2 -13.8,0 -23.8,11.5 -23.8,25.5 v 0.2 c 0,14 9.7,25.8 23.8,25.8 9.4,0 15.1,-3.8 21.6,-9.6 l 11.5,11.6 c -8.4,9 -17.8,14.6 -33.6,14.6 z"
   id="path6"
   style="fill:#000000" />
	<path
   class="st1"
   d="m 228.5,560.4 c -12.4,0 -24.9,-4.3 -34.8,-13.1 l 10.6,-12.8 c 7.4,6.1 15.1,10 24.5,10 7.4,0 11.8,-2.9 11.8,-7.7 v -0.2 c 0,-4.6 -2.8,-6.9 -16.5,-10.4 -16.5,-4.2 -27.2,-8.8 -27.2,-25.1 v -0.2 c 0,-14.9 11.9,-24.7 28.7,-24.7 11.9,0 22.2,3.7 30.5,10.4 l -9.4,13.6 c -7.3,-5 -14.4,-8.1 -21.3,-8.1 -6.9,0 -10.5,3.2 -10.5,7.1 v 0.3 c 0,5.4 3.5,7.1 17.7,10.7 16.6,4.4 26,10.3 26,24.6 v 0.2 c -0.1,16.3 -12.5,25.4 -30.1,25.4 z"
   id="path8"
   style="fill:#000000" />
	<path
   class="st1"
   d="m 278.5,559.3 v -42.1 -39.8 h 18 v 39.8 42.1 z"
   id="path10"
   style="fill:#000000" />
	<path
   class="st1"
   d="m 369.4,559.3 -17.6,-26.2 h -14.2 v 26.2 h -18 v -82 h 37.5 c 19.3,0 30.9,10.2 30.9,27.1 v 0.2 c 0,13.2 -7.1,21.5 -17.6,25.4 l 20,29.3 z m 0.3,-54 c 0,-7.7 -5.4,-11.7 -14.1,-11.7 h -17.9 v 23.5 H 356 c 8.8,0 13.8,-4.7 13.8,-11.6 v -0.2 z"
   id="path12"
   style="fill:#000000" />
	<path
   class="st1"
   d="m 444.1,560.7 c -25.3,0 -43.4,-18.8 -43.4,-42.2 v -0.2 c 0,-23.3 18.4,-42.4 43.7,-42.4 25.3,0 43.4,18.9 43.4,42.2 v 0.2 c 0,23.3 -18.4,42.4 -43.7,42.4 z m 24.8,-42.4 c 0,-14.1 -10.3,-25.8 -24.8,-25.8 -14.5,0 -24.6,11.5 -24.6,25.5 v 0.2 c 0,14 10.3,25.8 24.8,25.8 14.5,0 24.6,-11.5 24.6,-25.5 z"
   id="path14"
   style="fill:#000000" />
</g>
<g
   id="g32"
   style="fill:#000000"
   transform="translate(-32,-155.7)">
	<path
   class="st1"
   d="m 376.2,435.4 c 0,7.8 -6.4,14.2 -14.2,14.2 -7.8,0 -14.2,-6.3 -14.2,-14.2 0,-7.8 6.4,-14.2 14.2,-14.2 7.8,0 14.2,6.4 14.2,14.2 z"
   id="path18"
   style="fill:#000000" />
	<path
   class="st1"
   d="m 318,257.2 c -7.3,0 -13.2,5.9 -13.2,13.1 v 112.5 c 0,7.2 5.9,13.1 13.2,13.1 7.2,0 13.1,-5.9 13.1,-13.1 V 270.3 c 0,-7.2 -5.9,-13.1 -13.1,-13.1 z"
   id="path20"
   style="fill:#000000" />
	<path
   class="st1"
   d="m 229.9,244.5 c -7.3,0 -13.2,5.9 -13.2,13.1 v 99.9 c 0,7.3 5.9,13.2 13.2,13.2 7.3,0 13.1,-5.9 13.1,-13.2 v -99.9 c 0.1,-7.2 -5.8,-13.1 -13.1,-13.1 z"
   id="path22"
   style="fill:#000000" />
	<path
   class="st1"
   d="m 406,282.4 c -7.3,0 -13.1,5.9 -13.1,13.1 v 74.7 c 0,7.2 5.9,13.1 13.1,13.1 7.3,0 13.1,-5.9 13.1,-13.1 v -74.7 c 0.1,-7.2 -5.8,-13.1 -13.1,-13.1 z"
   id="path24"
   style="fill:#000000" />
	<path
   class="st1"
   d="m 185.9,282.4 c -7.3,0 -13.1,5.9 -13.1,13.1 v 74.7 c 0,7.2 5.9,13.1 13.1,13.1 7.3,0 13.1,-5.9 13.1,-13.1 v -74.7 c 0,-7.2 -5.9,-13.1 -13.1,-13.1 z"
   id="path26"
   style="fill:#000000" />
	<path
   class="st1"
   d="m 362,219.3 c -7.3,0 -13.1,5.9 -13.1,13.1 v 163 c 0,7.3 5.9,13.2 13.1,13.2 7.3,0 13.1,-5.9 13.1,-13.2 v -163 c 0,-7.2 -5.8,-13.1 -13.1,-13.1 z"
   id="path28"
   style="fill:#000000" />
	<path
   class="st1"
   d="m 273.9,219.3 c -7.3,0 -13.2,5.9 -13.2,13.1 V 345 c 0,7.3 5.9,13.1 13.2,13.1 7.2,0 13.1,-5.9 13.1,-13.1 V 232.5 c 0.1,-7.3 -5.8,-13.2 -13.1,-13.2 z"
   id="path30"
   style="fill:#000000" />
</g>
</svg>
