<?xml version="1.0" encoding="utf-8"?>
<!-- Generator: Adobe Illustrator 27.5.0, SVG Export Plug-In . SVG Version: 6.00 Build 0)  -->
<svg version="1.1" id="Layer_1" xmlns="http://www.w3.org/2000/svg" xmlns:xlink="http://www.w3.org/1999/xlink" x="0px" y="0px"
	 viewBox="0 0 4000 4000" style="enable-background:new 0 0 4000 4000;" xml:space="preserve">
<g>
	<g>
		<g>
			<rect style="fill:#FFFFFF;" width="4000" height="4000"/>
		</g>
	</g>
	<g>
		<g>
			<g>
				<g>
					<path style="fill:#FFDA40;" d="M1528.818,2797.625c9.089,0,17.561,0.256,25.371,0.657c-1.882-13.428-4.397-33.638-6.523-58.628
						l-10.908-4.978c-86.934-39.673-137.207-130.017-125.103-224.807l9.851-77.129c-14.573-15.84-26.414-33.804-35.193-53.345
						c-46.375,12.351-86.106,41.982-120.774,89.888c-44.429,61.389-61.902,130.09-62.026,130.581
						c-6.897,28.469-31.172,48.818-60.417,50.637c-1.375,0.085-2.751,0.129-4.116,0.129c-27.405,0-52.349-17.214-62.073-42.849
						c-85.032-224.441-82.151-401.099,8.562-525.068c87.59-119.697,231.841-155.808,327.146-166.084
						c24.038-134.055,56.411-266.917,96.355-395.391c53.621-172.454,121.162-337.612,200.75-490.891
						c55.771-107.407,121.553-204.575,195.518-288.806c0.061-0.068,0.154-0.173,0.234-0.266c0.029-0.032,0.059-0.066,0.088-0.098
						c26.917-30.63,55.007-59.563,84.126-86.912c-663.152,28.95-1191.919,575.662-1191.919,1245.947
						c0,398.877,187.256,754.006,478.643,982.314c44.443-38.582,100.181-64.741,165.881-77.07
						C1469.985,2800.259,1499.097,2797.625,1528.818,2797.625z"/>
				</g>
			</g>
			<g>
				<g>
					<path style="fill:#FFDA40;" d="M3006.65,1105.938c-1.313,44.39-5.007,89.109-11.184,134.089l-0.061,0.479l-0.166,1.238
						c-15.266,110.183-45.442,222.664-89.688,334.312c-63.635,160.569-144.141,319.824-239.282,473.342
						c-70.874,114.363-150.032,225.889-235.547,331.89c54.673,78.726,121.897,211.338,88.884,355.896
						c-34.202,149.756-165.759,267.69-391.03,350.535c-7.361,2.705-15.063,4.075-22.893,4.075c-20.581,0-40.317-9.771-52.805-26.145
						c-17.727-23.264-18.25-54.861-1.321-78.689c1.367-1.968,41.003-59.622,58.049-132.485
						c13.469-57.573,9.824-106.992-11.216-150.1c-18.689,5.593-38.164,8.484-57.659,8.484c-1.885,0-3.789-0.029-5.703-0.088
						l-51.78,57.957c-41.199,46.104-100.039,72.546-161.428,72.546c-31.26,0-61.665-6.643-90.369-19.744l-10.957-5.002
						c-20.251,14.756-37.136,26.084-48.506,33.457c20.427,21.25,45.774,51.472,67.876,89.265
						c34.583,59.136,51.46,119.883,50.591,180.166c82.18,17.043,167.31,26.033,254.543,26.033
						c688.828,0,1247.234-558.406,1247.234-1247.234C3292.234,1598.418,3185.034,1321.667,3006.65,1105.938z"/>
				</g>
			</g>
		</g>
		<g>
			<g>
				<g>
					<g>
						<path style="fill:#FC0332;" d="M1603.448,2873.833c0,0,194.256,155.566,91.826,359.765
							c-102.43,204.198-347.074,172.021-394.464,275.865c47.39-103.845-137.228-267.56-50.1-478.742
							s331.933-166.384,331.933-166.384"/>
					</g>
				</g>
				<g>
					<g>
						<path style="fill:#EFAF30;" d="M1570.703,2917.918c-41.995-4.112-163.434-5.316-210.612,109.035
							c-35.727,86.597-6.024,163.568,25.421,245.065c3.621,9.373,7.25,18.782,10.772,28.231c9.446-3.531,18.931-6.956,28.385-10.362
							c82.167-29.65,159.776-57.649,201.776-141.384C1681.757,3038.237,1601.861,2947.481,1570.703,2917.918z"/>
					</g>
				</g>
				<g>
					<g>
						<path style="fill:#FFEC7B;" d="M1561.981,2937.086c-23.106-2.262-89.922-2.925-115.88,59.991
							c-19.657,47.646-3.315,89.996,13.987,134.836c1.992,5.157,3.989,10.334,5.927,15.533c5.197-1.943,10.416-3.827,15.617-5.701
							c45.208-16.313,87.91-31.719,111.018-77.79C1623.083,3003.286,1579.124,2953.352,1561.981,2937.086z"/>
					</g>
				</g>
				<g>
					<g>
						<path style="fill:#000072;" d="M1300.795,3535.856c-3.667,0-7.388-0.767-10.938-2.388
							c-9.712-4.431-15.444-14.014-15.439-24.033c0-3.662,0.767-7.38,2.388-10.928c15.229-33.379-3.936-83.042-26.128-140.549
							c-35.205-91.243-79.028-204.797-24.36-337.3c39.199-95.005,116.431-155.825,223.354-175.889
							c78.735-14.778,145.566-2.148,148.374-1.602c4.102,0.796,7.954,2.554,11.24,5.129c2.251,1.765,55.605,43.982,96.05,113.142
							c54.927,93.923,59.604,192.126,13.521,283.989c-64.263,128.123-178.755,169.431-270.752,202.622
							c-57.983,20.92-108.057,38.987-123.291,72.366C1320.385,3530.124,1310.81,3535.856,1300.795,3535.856z M1526.996,2890.058
							c-74.971,0-198.438,21.165-251.89,150.728c-46.636,113.03-8.677,211.392,24.81,298.174
							c13.965,36.191,26.929,69.783,32.471,101.306c27.446-16.47,61.313-28.689,97.803-41.855
							c87.5-31.57,186.675-67.351,241.499-176.643c83.218-165.901-61.284-302.864-90.103-327.859
							C1571.816,2892.436,1552.128,2890.058,1526.996,2890.058z"/>
					</g>
				</g>
				<g>
					<g>
						<path style="fill:#000072;" d="M1324.817,3520.417l-172.239,326.814c-3.071,5.758-12.199,1.91-9.778-4.463
							c0,0,134.004-344.26,134.004-344.26C1291.575,3464.734,1340.662,3486.943,1324.817,3520.417L1324.817,3520.417z"/>
					</g>
				</g>
			</g>
			<g>
				<g>
					<path style="fill:#FC0332;" d="M1496.828,1979.561c0,0-599.393-32.877-357.837,604.698c0,0,75.714-315.559,347.561-274.209
						L1496.828,1979.561z"/>
				</g>
			</g>
			<g style="opacity:0.6;">
				<g>
					<path style="fill:#FFFFFF;" d="M1494.904,2041.443l1.924-61.883c0,0-599.393-32.877-357.837,604.698
						c0,0,0.302-1.259,0.934-3.596C986.107,2085.212,1387.775,2043.807,1494.904,2041.443z"/>
				</g>
			</g>
			<g>
				<g>
					<path style="fill:#000072;" d="M1138.979,2610.629c-10.903,0-20.762-6.721-24.668-17.024
						c-79.932-210.977-78.774-374.919,3.438-487.271c121.016-165.376,369.99-153.701,380.527-153.123
						c14.307,0.784,25.376,12.844,24.927,27.168l-10.278,330.488c-0.234,7.544-3.687,14.626-9.487,19.458
						c-5.796,4.824-13.384,6.953-20.854,5.808c-101.67-15.469-185.591,21.443-249.448,109.695
						c-49.688,68.655-68.311,143.865-68.496,144.617c-2.725,11.243-12.461,19.414-24.009,20.132
						C1140.077,2610.612,1139.526,2610.629,1138.979,2610.629z M1469.609,2005.908c-63.149,1.838-226.304,17.971-309.414,131.794
						c-61.948,84.832-68.833,207.959-20.693,366.614c11.802-26.667,28.105-57.7,49.888-88.054
						c69.233-96.462,162.642-142.9,271.675-135.552L1469.609,2005.908z"/>
				</g>
			</g>
			<g>
				<g>
					<path style="fill:#FC0332;" d="M2327.972,2358.852c0,0,417.606,431.229-222.295,666.552c0,0,188.755-263.973-20.617-442.227
						L2327.972,2358.852z"/>
				</g>
			</g>
			<g style="opacity:0.3;">
				<g>
					<path style="fill:#000072;" d="M2119.839,3003.056c39.656-67.25,138.042-272.768-34.756-419.858l169.858-156.891
						C2331.766,2527.258,2495.065,2808.093,2119.839,3003.056z"/>
				</g>
			</g>
			<g>
				<g>
					<path style="fill:#000072;" d="M2105.683,3051.794c-8.066,0-15.893-3.706-20.991-10.396
						c-7.021-9.209-7.212-21.921-0.479-31.343c0.43-0.603,45.039-63.955,64.341-146.472
						c24.815-106.074-2.305-193.655-80.601-260.313c-5.747-4.893-9.126-12.014-9.277-19.561c-0.151-7.546,2.935-14.797,8.481-19.917
						l242.915-224.326c10.532-9.722,26.889-9.258,36.855,1.028c7.344,7.583,179.312,187.996,133.687,387.778
						c-30.996,135.725-154.077,244.026-365.83,321.897C2111.806,3051.267,2108.729,3051.794,2105.683,3051.794z M2123.92,2583.208
						c76.983,77.485,103.135,178.533,75.635,294.041c-8.657,36.348-21.416,68.994-33.823,95.386
						c151.523-67.656,240.024-153.616,263.433-256.108c31.445-137.705-63.228-271.121-103.228-319.878L2123.92,2583.208z"/>
				</g>
			</g>
			<g>
				<g>
					<g>
						<path style="fill:#01A7FD;" d="M1810.24,2393.221l299.254,136.564l-175.748,196.702
							c-43.93,49.167-114.745,64.02-174.728,36.647l-97.348-44.425l-97.348-44.425c-59.983-27.373-95.168-90.599-86.814-156.001
							l33.421-261.652l299.254,136.564"/>
					</g>
				</g>
				<g style="opacity:0.3;">
					<g>
						<path style="fill:#000072;" d="M1842.017,2407.723l-157.556,176.341c-43.929,49.167-114.745,64.02-174.728,36.647
							l-11.432-5.217c15.29,25.152,37.877,45.948,66.021,58.791l97.348,44.425l97.348,44.425
							c59.982,27.373,130.799,12.52,174.728-36.647l175.748-196.702L1842.017,2407.723z"/>
					</g>
				</g>
				<g>
					<g>
						<path style="fill:#000072;" d="M1821.825,2803.271c-24.834,0-49.951-5.264-73.765-16.13l-194.697-88.85
							c-70.903-32.358-111.904-106.042-102.031-183.35l33.418-261.653c1.064-8.318,6.016-15.637,13.345-19.714
							s16.152-4.431,23.789-0.95l299.258,136.565c0.103,0.046,0.2,0.095,0.303,0.142l299.009,136.448
							c7.627,3.481,13.145,10.383,14.868,18.589c1.724,8.208-0.561,16.746-6.147,22.998l-175.752,196.702
							C1918.935,2782.67,1870.942,2803.271,1821.825,2803.271z M1532.563,2295.51l-28.877,226.116
							c-6.934,54.248,21.841,105.95,71.592,128.652l194.697,88.85c49.746,22.705,107.651,10.559,144.092-30.222l151.885-169.988
							l-266.67-121.689c-0.098-0.046-0.2-0.093-0.303-0.142L1532.563,2295.51z"/>
					</g>
				</g>
			</g>
			<g>
				<g>
					<g>
						<path style="fill:#FFFFFF;" d="M2134.993,2608.124c-40.252,38.812-100.074,49.136-151.034,25.881l-469.552-214.279
							c-50.892-23.225-82.292-75.178-79.351-131.017c10.674-203.716,64.872-710.188,333.55-1227.759
							c56.461-108.651,119.403-199.18,185.448-274.535c250.612-286.399,544.071-354.52,681.725-370.513
							c49.794-5.785,98.833,16.595,127.025,57.967c78.191,114.493,219.061,380.737,166.873,757.687
							c-13.644,99.269-40.814,206.204-85.89,320.051C2628.95,2093.747,2281.814,2466.538,2134.993,2608.124z"/>
					</g>
				</g>
				<g>
					<g>
						<path style="fill:#FC0332;" d="M2929.677,1231.555c-405.717-551.192-975.622-445.141-975.622-445.141
							c250.612-286.399,544.071-354.52,681.725-370.513c49.794-5.785,98.833,16.595,127.025,57.967
							C2840.995,588.362,2981.865,854.605,2929.677,1231.555z"/>
					</g>
				</g>
				<g style="opacity:0.6;">
					<g>
						<path style="fill:#FFFFFF;" d="M2753.584,461.969c-10.631-1.357-21.412-1.508-32.268-0.226
							c-137.666,15.983-431.092,84.062-681.77,370.476c-66.043,75.392-128.92,165.938-185.389,274.578
							c-223.989,431.468-298.929,855.171-323.884,1102.231c-4.976,49.382-7.916,91.602-9.726,125.528
							c-2.186,41.843,14.928,81.499,45.085,108.565l-33.55-15.305l-17.642-8.067c-50.89-23.221-82.328-75.166-79.387-131.031
							c10.705-203.709,64.837-710.193,333.534-1227.759c56.469-108.64,119.421-199.186,185.464-274.578
							c250.603-286.339,544.104-354.493,681.695-370.476C2680.529,410.702,2724.634,428.269,2753.584,461.969z"/>
					</g>
				</g>
				<g style="opacity:0.3;">
					<g>
						<path style="fill:#000072;" d="M2851.217,1199.302c-13.646,99.292-40.787,206.198-85.871,320.039
							c-214.867,542.144-561.972,914.957-708.76,1056.544c-33.022,31.815-79.237,44.481-122.889,35.208l-368.064-167.973
							c-30.157-27.066-47.271-66.722-45.085-108.565c1.81-33.926,4.75-76.146,9.726-125.528l276.161,125.98
							c50.965,23.296,110.826,12.968,151.085-25.859c76.674-73.959,208.007-210.947,346.502-402.292
							c139.701-24.804,261.233-116.933,321.321-248.643c50.06-109.62,50.739-229.418,11.459-334.212
							c10.103-23.447,19.904-47.271,29.479-71.396c45.084-113.842,72.226-220.748,85.872-320.039
							c21.411-154.327,10.404-290.108-15.456-404.478C2811.108,666.884,2893.059,897.659,2851.217,1199.302z"/>
					</g>
				</g>
				<g>
					<g>
						<path style="fill:#000072;" d="M2929.701,1258.066c-8.106,0-16.099-3.721-21.27-10.75
							c-204.033-277.241-450.894-380.713-622.056-418.694c-186.226-41.323-326.138-16.484-327.529-16.228
							c-14.346,2.629-28.086-6.833-30.732-21.152c-2.646-14.319,6.792-28.074,21.108-30.737c6.025-1.125,150-26.992,346.167,16.062
							c180.698,39.658,441.113,148.093,655.542,439.47c8.642,11.736,6.128,28.254-5.611,36.892
							C2940.615,1256.394,2935.131,1258.066,2929.701,1258.066z"/>
					</g>
				</g>
				<g>
					<g>
						<path style="fill:#000072;" d="M2040.732,2672.856c-22.832,0-45.879-4.854-67.705-14.812l-469.561-214.282
							c-61.113-27.891-98.315-89.314-94.785-156.484c10.405-197.546,64.028-713.677,336.543-1238.501
							c277.3-534.048,713.067-638.826,887.554-659.087c59.697-6.943,117.939,19.614,151.85,69.297
							c99.033,145.081,305.435,542.913,83.735,1102.334c-217.876,549.761-572.617,928.474-715.019,1065.781
							C2122.211,2657.114,2081.83,2672.856,2040.732,2672.856z M2651.508,441.379c-4.189,0-8.413,0.242-12.646,0.732
							c-166.113,19.29-581.157,119.385-846.802,630.986c-267.764,515.674-320.449,1022.839-330.674,1216.953
							c-2.388,45.378,22.729,86.87,63.994,105.698l469.561,214.282c41.25,18.833,89.058,10.623,121.772-20.923
							c139.932-134.922,488.511-507.053,702.588-1047.231c212.383-535.906,16.021-915.017-78.257-1053.137
							C2720.624,458.83,2687.133,441.379,2651.508,441.379z"/>
					</g>
				</g>
			</g>
			<g>
				<g>
					<path style="fill:#FC0332;" d="M1912.4,2169.206c0,0,84.702,150.899,11.497,324.26
						c-73.205,173.361-301.563,311.364-301.563,311.364s-45.393-262.929,37.591-431.827
						C1742.909,2204.105,1912.4,2169.206,1912.4,2169.206z"/>
				</g>
			</g>
			<g style="opacity:0.6;">
				<g>
					<path style="fill:#FFFFFF;" d="M1690.082,2440.856c75.744-154.163,223.486-196.667,248.703-202.914
						c-11.83-42.734-26.384-68.736-26.384-68.736s-169.491,34.899-252.475,203.797s-37.591,431.827-37.591,431.827
						s7.809-4.725,20.938-13.469C1636.45,2700.158,1636.13,2550.665,1690.082,2440.856z"/>
				</g>
			</g>
			<g>
				<g>
					<path style="fill:#000072;" d="M1622.333,2831.218c-3.73,0-7.466-0.789-10.957-2.38c-7.93-3.621-13.564-10.925-15.044-19.517
						c-1.914-11.082-45.864-273.376,39.912-447.954c87.676-178.447,263.398-216.475,270.835-218.005
						c11.24-2.327,22.71,2.913,28.33,12.93c3.721,6.621,90.142,164.275,12.793,347.441
						c-75.664,179.189-302.598,317.866-312.222,323.682C1631.801,2829.941,1627.074,2831.218,1622.333,2831.218z M1898.017,2200.727
						c-44.771,14.802-154.59,62.168-214.409,183.911c-59.336,120.774-49.16,296.294-40.625,374.946
						c65.005-45.093,204.258-152.417,256.606-276.382C1952.358,2358.239,1916.171,2244.243,1898.017,2200.727z"/>
				</g>
			</g>
			<g>
				<g>
					<g>
						<g>
							<circle style="fill:#01A7FD;" cx="2228.271" cy="1477.036" r="361.087"/>
						</g>
					</g>
					<g style="opacity:0.6;">
						<g>
							<path style="fill:#FFFFFF;" d="M1945.009,1394.979c82.793-181.424,296.983-261.381,478.407-178.589
								c50.07,22.85,92.363,55.743,125.688,95.158c-35.803-69.527-94.257-128.024-170.923-163.011
								c-181.425-82.793-395.615-2.836-478.407,178.589c-59.943,131.354-34.525,279.849,52.901,383.25
								C1903.752,1615.374,1897.203,1499.737,1945.009,1394.979z"/>
						</g>
					</g>
					<g>
						<g>
							<path style="fill:#000072;" d="M2228.08,1864.716c-54.765,0-109.36-11.76-160.674-35.176
								c-94.155-42.969-165.943-120.032-202.139-216.997c-36.196-96.96-32.466-202.217,10.503-296.372
								c88.701-194.368,318.989-280.332,513.369-191.641c194.355,88.696,280.308,319.006,191.631,513.369l0,0
								c-42.964,94.158-120.024,165.945-216.992,202.141C2319.662,1856.511,2273.808,1864.716,2228.08,1864.716z M2228.774,1142.348
								c-127.119,0-248.867,72.742-304.995,195.732c-37.114,81.333-40.337,172.251-9.072,256.008
								c31.27,83.755,93.276,150.322,174.614,187.439c81.328,37.121,172.241,40.332,256.006,9.072
								c83.755-31.267,150.322-93.276,187.436-174.609l0,0c76.616-167.898,2.358-366.829-165.537-443.447
								C2322.323,1152.05,2275.185,1142.348,2228.774,1142.348z"/>
						</g>
					</g>
				</g>
				<g>
					<g>
						<g>
							
								<ellipse transform="matrix(0.7071 -0.7071 0.7071 0.7071 -391.7767 2008.2397)" style="fill:#6ED8F2;" cx="2228.271" cy="1477.036" rx="217.842" ry="217.842"/>
						</g>
					</g>
					<g style="opacity:0.3;">
						<g>
							<path style="fill:#000072;" d="M2075.326,1469.527c49.869-109.278,179.342-157.61,288.621-107.741
								c29.031,13.248,53.709,32.154,73.44,54.768c-17.076-58.884-58.653-110.308-118.675-137.699
								c-109.278-49.869-238.752-1.537-288.621,107.741c-36.621,80.247-20.234,171.345,34.302,233.852
								C2050.379,1572.125,2052.848,1518.784,2075.326,1469.527z"/>
						</g>
					</g>
					<g>
						<g>
							<path style="fill:#000072;" d="M2227.904,1721.254c-33.872,0-68.252-7.075-101.03-22.031
								c-59.263-27.046-104.477-75.632-127.314-136.809c-22.837-61.179-20.518-127.51,6.528-186.772
								c27.041-59.263,75.63-104.48,136.807-127.317c61.177-22.844,127.51-20.513,186.772,6.523
								c122.515,55.913,176.699,201.069,120.791,323.582C2409.506,1668.168,2320.653,1721.254,2227.904,1721.254z
								 M2228.559,1285.588c-72.715,0-142.354,41.609-174.463,111.963c-43.828,96.042-1.347,209.834,94.692,253.66
								c96.031,43.831,209.834,1.35,253.662-94.69c43.823-96.04,1.348-209.832-94.697-253.66
								C2282.07,1291.137,2255.107,1285.588,2228.559,1285.588z"/>
						</g>
					</g>
				</g>
			</g>
		</g>
		<g>
			<g>
				<path style="fill:#FFFFFF;" d="M1197.832,1672.075c24.828-1.549,51.926-6.849,79.552-18.578
					c-27.525-11.687-54.525-16.989-79.279-18.56c-1.571-24.754-6.873-51.754-18.56-79.278
					c-11.729,27.625-17.029,54.724-18.578,79.551c-46.999,3.627-79.26,18.287-79.26,18.287s32.383,14.717,79.529,18.309
					c3.591,47.147,18.309,79.53,18.309,79.53S1194.205,1719.074,1197.832,1672.075z"/>
			</g>
		</g>
		<g>
			<g>
				<path style="fill:#FFFFFF;" d="M2705.229,2507.836c24.828-1.549,51.926-6.849,79.552-18.578
					c-27.525-11.687-54.525-16.989-79.279-18.56c-1.571-24.754-6.872-51.754-18.56-79.279
					c-11.729,27.625-17.029,54.724-18.578,79.552c-47,3.627-79.26,18.287-79.26,18.287s32.383,14.717,79.529,18.309
					c3.591,47.147,18.309,79.53,18.309,79.53S2701.602,2554.835,2705.229,2507.836z"/>
			</g>
		</g>
		<g>
			<g>
				<path style="fill:#FFFFFF;" d="M3048.647,1824.737c15.844-0.988,33.135-4.37,50.764-11.855
					c-17.564-7.458-34.794-10.841-50.59-11.843c-1.002-15.796-4.385-33.025-11.843-50.59c-7.485,17.629-10.867,34.921-11.855,50.764
					c-29.992,2.314-50.578,11.669-50.578,11.669s20.665,9.391,50.75,11.683c2.292,30.086,11.683,50.75,11.683,50.75
					S3046.333,1854.729,3048.647,1824.737z"/>
			</g>
		</g>
		<g>
			<g>
				<path style="fill:#FFFFFF;" d="M1592.125,937.566c15.844-0.988,33.136-4.37,50.764-11.855
					c-17.565-7.458-34.794-10.841-50.59-11.843c-1.002-15.796-4.385-33.025-11.843-50.59c-7.485,17.628-10.867,34.92-11.855,50.764
					c-29.992,2.314-50.578,11.669-50.578,11.669s20.664,9.391,50.75,11.683c2.292,30.086,11.683,50.75,11.683,50.75
					S1589.811,967.557,1592.125,937.566z"/>
			</g>
		</g>
	</g>
</g>
</svg>
